<svg class="sidebar-links--svg sidebar-links--svg__pinterest" xmlns="http://www.w3.org/2000/svg" viewBox="0 0 32 32" preserveAspectRatio="xMinYMin meet">
  <path class="sidebar-links--svg__circle" d="M16.001,32c8.836,0,16-7.161,16-16c0-8.835-7.164-16-16-16C7.164,0,0,7.164,0,16 C0,24.839,7.165,32,16.001,32" />
  <path class="sidebar-links--svg__mark" d="M16.002,7.955c-4.42,0-8.004,3.583-8.004,8.004c0,3.278,1.971,6.092,4.792,7.331 c-0.022-0.558-0.004-1.23,0.138-1.838c0.154-0.648,1.03-4.36,1.03-4.36s-0.256-0.512-0.256-1.267c0-1.188,0.688-2.072,1.544-2.072 c0.729,0,1.078,0.546,1.078,1.202c0,0.731-0.469,1.826-0.706,2.839c-0.2,0.849,0.426,1.543,1.264,1.543 c1.517,0,2.537-1.948,2.537-4.255c0-1.753-1.183-3.067-3.33-3.067c-2.428,0-3.938,1.811-3.938,3.833c0,0.697,0.203,1.19,0.525,1.57 c0.148,0.176,0.168,0.245,0.115,0.447c-0.038,0.146-0.126,0.501-0.162,0.643c-0.055,0.202-0.218,0.274-0.4,0.2 c-1.117-0.457-1.64-1.682-1.64-3.058c0-2.273,1.918-5,5.72-5c3.059,0,5.067,2.211,5.067,4.585c0,3.14-1.745,5.484-4.319,5.484 c-0.861,0-1.676-0.466-1.953-0.998c0,0-0.467,1.845-0.562,2.199c-0.17,0.617-0.501,1.232-0.809,1.714 c0.723,0.213,1.48,0.329,2.271,0.329c4.42,0,8.003-3.584,8.003-8.004C24.005,11.538,20.421,7.955,16.002,7.955" />
</svg>
