<svg class="sidebar-links--svg sidebar-links--svg__instagram" xmlns="http://www.w3.org/2000/svg" viewBox="0 0 32 32" preserveAspectRatio="xMinYMin meet">
  <path class="sidebar-links--svg__circle" d="M16,32c8.836,0,16-7.164,16-16c0-8.835-7.164-16-16-16C7.162,0,0,7.164,0,16C0,24.836,7.162,32,16,32" />
  <path class="sidebar-links--svg__mark" d="M20.91,7.996h-9.82c-1.704,0-3.094,1.388-3.094,3.095v3.268v6.552c0,1.706,1.39,3.095,3.094,3.095h9.82 c1.705,0,3.096-1.389,3.096-3.095v-6.552V11.09C24.005,9.384,22.617,7.996,20.91,7.996z M21.799,9.841l0.354-0.001v0.354v2.36 l-2.705,0.008l-0.009-2.713L21.799,9.841z M13.717,14.357c0.513-0.709,1.344-1.174,2.285-1.174c0.938,0,1.771,0.464,2.283,1.174 c0.332,0.462,0.531,1.03,0.531,1.643c0,1.553-1.265,2.818-2.814,2.818c-1.555,0-2.818-1.266-2.818-2.818 C13.184,15.386,13.383,14.82,13.717,14.357z M22.445,20.91c0,0.845-0.688,1.532-1.533,1.532h-9.82 c-0.848,0-1.533-0.688-1.533-1.532v-6.553h2.391c-0.205,0.507-0.32,1.062-0.32,1.643c0,2.414,1.963,4.379,4.377,4.379 c2.412,0,4.376-1.964,4.376-4.379c0-0.581-0.117-1.134-0.322-1.643h2.39v6.553H22.445z" />
</svg>
