<svg class="sidebar-links--svg sidebar-links--svg__vimeo" xmlns="http://www.w3.org/2000/svg" viewBox="0 0 32 32" preserveAspectRatio="xMinYMin meet">
  <path class="sidebar-links--svg__circle" d="M16,32c8.837,0,16.001-7.164,16.001-16c0-8.837-7.164-16-16.001-16C7.164,0,0,7.164,0,16 C0,24.836,7.164,32,16,32" />
  <path class="sidebar-links--svg__mark" d="M23.995,12.472c-0.07,1.557-1.16,3.685-3.261,6.385c-2.177,2.823-4.021,4.235-5.527,4.235 c-0.932,0-1.721-0.86-2.367-2.581c-0.433-1.58-0.86-3.159-1.293-4.737c-0.479-1.724-0.994-2.584-1.543-2.584 c-0.119,0-0.537,0.251-1.256,0.753l-0.753-0.97c0.788-0.691,1.567-1.387,2.333-2.078c1.051-0.91,1.842-1.387,2.37-1.437 c1.238-0.121,2.007,0.73,2.294,2.547c0.309,1.962,0.527,3.183,0.646,3.662c0.356,1.625,0.752,2.437,1.184,2.437 c0.333,0,0.837-0.523,1.506-1.575c0.671-1.053,1.029-1.854,1.079-2.406c0.096-0.908-0.263-1.36-1.079-1.36 c-0.381,0-0.775,0.081-1.184,0.25c0.79-2.559,2.298-3.804,4.521-3.731C23.315,9.327,24.094,10.392,23.995,12.472z" />
</svg>
