<?xml version="1.0" encoding="utf-8"?>
<!-- Generator: Adobe Illustrator 16.0.0, SVG Export Plug-In . SVG Version: 6.00 Build 0)  -->
<!DOCTYPE svg PUBLIC "-//W3C//DTD SVG 1.1//EN" "http://www.w3.org/Graphics/SVG/1.1/DTD/svg11.dtd">
<svg version="1.1" xmlns="http://www.w3.org/2000/svg" xmlns:xlink="http://www.w3.org/1999/xlink" x="0px" y="0px" width="576px"
	 height="108px" viewBox="0 0 576 108" enable-background="new 0 0 576 108" xml:space="preserve">
<g id="Hover">
	<path fill="#FFFFFF" d="M557.991,107.052c9.39,0,17.001-7.611,17.001-17c0-9.388-7.611-16.999-17.001-16.999
		s-16.999,7.611-16.999,16.999C540.992,99.441,548.602,107.052,557.991,107.052"/>
	<path d="M557.992,80.653c2.597,0,4.806,0.916,6.623,2.747s2.727,4.032,2.727,6.604c0,2.598-0.909,4.805-2.727,6.623
		s-4.026,2.727-6.623,2.727c-2.572,0-4.772-0.908-6.603-2.727c-1.833-1.818-2.748-4.025-2.748-6.623
		c0-2.571,0.915-4.772,2.748-6.604C553.22,81.569,555.42,80.653,557.992,80.653L557.992,80.653 M565.978,90.004
		c0-1.714-0.505-3.267-1.519-4.656c-1.013-1.389-2.325-2.356-3.935-2.901c-0.233,0.312-0.337,0.52-0.312,0.623
		c0.052,0.493,0.168,0.824,0.351,0.993s0.376,0.215,0.584,0.137l0.623-0.234c0,0,0.132-0.013,0.39-0.038
		c0.285,0.312,0.285,0.616,0,0.915c-0.286,0.299-0.578,0.662-0.877,1.091s-0.305,0.929-0.02,1.5
		c0.442,0.831,1.065,1.246,1.871,1.246c0.363,0.026,0.643,0.26,0.838,0.701c0.193,0.442,0.306,0.87,0.331,1.286
		c0.129,1.039,0.039,1.948-0.272,2.727c-0.286,0.571-0.195,1.065,0.272,1.481C565.421,93.419,565.978,91.796,565.978,90.004
		L565.978,90.004 M556.9,82.134c-1.454,0.183-2.746,0.728-3.876,1.637s-1.955,2.039-2.473,3.39c0.077,0,0.219,0.013,0.428,0.039
		c0.208,0.025,0.389,0.045,0.546,0.058c0.156,0.014,0.324,0.039,0.507,0.078c0.181,0.039,0.337,0.091,0.466,0.156
		c0.131,0.064,0.209,0.149,0.234,0.253c0.052,0.155-0.039,0.448-0.272,0.877c-0.234,0.428-0.351,0.824-0.351,1.188
		c0,0.39,0.247,0.754,0.741,1.091c0.492,0.338,0.739,0.637,0.739,0.896c0,0.363,0.052,0.806,0.156,1.324
		c0.104,0.52,0.155,0.806,0.155,0.857c0,0.156,0.234,0.506,0.702,1.052c0.467,0.545,0.804,0.818,1.012,0.818
		c0.129,0,0.202-0.144,0.215-0.429c0.014-0.286,0-0.637-0.038-1.052c-0.041-0.416-0.061-0.676-0.061-0.779
		c0-0.416,0.093-0.896,0.273-1.441c0.156-0.546,0.539-1,1.149-1.363c0.609-0.364,0.969-0.662,1.071-0.896
		c0.209-0.441,0.267-0.838,0.177-1.188c-0.093-0.351-0.202-0.629-0.333-0.837c-0.129-0.208-0.351-0.39-0.662-0.546
		c-0.312-0.155-0.578-0.266-0.799-0.331c-0.22-0.064-0.46-0.123-0.72-0.176c-0.26-0.051-0.402-0.077-0.43-0.077
		c-0.206-0.078-0.479-0.123-0.816-0.137c-0.338-0.013-0.571,0.007-0.703,0.059c-0.129,0.052-0.305-0.02-0.526-0.215
		c-0.219-0.194-0.33-0.383-0.33-0.564c0-0.13,0.099-0.306,0.292-0.526c0.195-0.221,0.423-0.461,0.683-0.721
		c0.261-0.259,0.44-0.454,0.546-0.584c0.104-0.182,0.213-0.318,0.331-0.409c0.116-0.091,0.26-0.194,0.428-0.312
		c0.17-0.117,0.344-0.253,0.526-0.409c0.052-0.052,0.215-0.162,0.487-0.331C556.649,82.413,556.823,82.264,556.9,82.134
		L556.9,82.134 M555.5,97.601c0.856,0.26,1.687,0.39,2.492,0.39c1.662,0,3.13-0.441,4.401-1.325
		c-0.337-0.571-1.104-0.792-2.299-0.662c-0.312,0.026-0.732,0.137-1.265,0.332c-0.533,0.194-0.838,0.305-0.916,0.33
		c-0.96,0.208-1.454,0.312-1.479,0.312c-0.157,0.026-0.325,0.117-0.508,0.273C555.744,97.405,555.603,97.522,555.5,97.601
		L555.5,97.601"/>
	<path fill="#FFFFFF" d="M522.205,107.053c9.39,0,17.002-7.612,17.002-17c0-9.388-7.612-16.999-17.002-16.999
		c-9.388,0-17,7.611-17,16.999C505.205,99.441,512.817,107.053,522.205,107.053"/>
	<path d="M531.55,85.91c-0.082,1.819-1.355,4.307-3.812,7.462c-2.544,3.301-4.698,4.949-6.46,4.949c-1.09,0-2.011-1.004-2.766-3.017
		c-0.505-1.846-1.007-3.693-1.51-5.535c-0.562-2.014-1.161-3.02-1.805-3.02c-0.14,0-0.627,0.293-1.467,0.881l-0.88-1.134
		c0.922-0.809,1.83-1.62,2.726-2.43c1.228-1.063,2.151-1.62,2.769-1.679c1.45-0.141,2.346,0.853,2.684,2.977
		c0.36,2.293,0.614,3.719,0.754,4.278c0.419,1.9,0.879,2.849,1.384,2.849c0.389,0,0.978-0.613,1.759-1.842
		c0.784-1.231,1.201-2.167,1.26-2.812c0.111-1.062-0.308-1.591-1.26-1.591c-0.446,0-0.908,0.095-1.383,0.293
		c0.924-2.991,2.686-4.445,5.285-4.36C530.755,82.235,531.664,83.48,531.55,85.91z"/>
	<path fill="#FFFFFF" d="M486.19,107.053c9.388,0,16.999-7.612,16.999-17c0-9.388-7.611-17-16.999-17
		c-9.389,0-17.001,7.611-17.001,17C469.189,99.441,476.801,107.053,486.19,107.053"/>
	<path d="M489.822,90.062l-6.126,3.598v-7.195L489.822,90.062z M495.543,93.397v-6.689c0,0,0-3.225-3.225-3.225h-12.261
		c0,0-3.223,0-3.223,3.225v6.689c0,0,0,3.224,3.223,3.224h12.261C492.319,96.621,495.543,96.621,495.543,93.397"/>
	<path fill="#FFFFFF" d="M450.182,107.008c9.389,0,17-7.611,17-17c0-9.388-7.611-17-17-17c-9.389,0-17,7.612-17,17
		C433.181,99.397,440.792,107.008,450.182,107.008"/>
	<path d="M459.555,85.027c-0.689,0.306-1.43,0.512-2.207,0.604c0.794-0.476,1.404-1.228,1.689-2.125
		c-0.742,0.44-1.563,0.76-2.441,0.932c-0.699-0.747-1.698-1.214-2.805-1.214c-2.121,0-3.842,1.722-3.842,3.844
		c0,0.301,0.033,0.594,0.099,0.875c-3.193-0.161-6.024-1.689-7.921-4.017c-0.331,0.57-0.52,1.229-0.52,1.935
		c0,1.331,0.678,2.508,1.709,3.198c-0.629-0.02-1.223-0.194-1.741-0.48v0.048c0,1.863,1.324,3.416,3.084,3.769
		c-0.323,0.09-0.662,0.136-1.014,0.136c-0.247,0-0.489-0.024-0.723-0.069c0.489,1.526,1.908,2.638,3.59,2.667
		c-1.315,1.032-2.973,1.646-4.773,1.646c-0.31,0-0.616-0.018-0.916-0.053c1.7,1.089,3.721,1.725,5.891,1.725
		c7.07,0,10.934-5.854,10.934-10.934c0-0.167-0.003-0.333-0.011-0.497C458.389,86.474,459.042,85.797,459.555,85.027"/>
	<path fill="#FFFFFF" d="M414.172,107.052c9.389,0,17-7.611,17-17c0-9.388-7.611-16.999-17-16.999s-17,7.611-17,16.999
		C397.172,99.44,404.784,107.052,414.172,107.052"/>
	<path d="M414.648,80.698v4.729h4.438v2.937h-4.438v4.798c0,1.085,0.057,1.781,0.172,2.088c0.114,0.31,0.328,0.555,0.643,0.739
		c0.412,0.248,0.885,0.371,1.419,0.371c0.947,0,1.889-0.309,2.826-0.925v2.953c-0.8,0.375-1.523,0.64-2.171,0.791
		c-0.648,0.153-1.35,0.229-2.103,0.229c-0.855,0-1.612-0.109-2.269-0.324c-0.656-0.218-1.218-0.523-1.681-0.924
		c-0.465-0.399-0.788-0.826-0.966-1.276c-0.18-0.449-0.269-1.103-0.269-1.958v-6.562h-2.069v-2.646
		c0.737-0.24,1.365-0.583,1.89-1.027c0.523-0.445,0.945-0.98,1.261-1.607c0.317-0.623,0.536-1.419,0.655-2.384H414.648z"/>
	<path fill="#FFFFFF" d="M378.155,107.052c9.389,0,17-7.61,17-17c0-9.388-7.611-17-17-17c-9.389,0-17,7.611-17,17
		C361.155,99.442,368.767,107.052,378.155,107.052"/>
	<path d="M378.156,80.653c-5.166,0-9.355,4.188-9.355,9.354c0,3.83,2.304,7.121,5.601,8.567c-0.026-0.652-0.005-1.438,0.162-2.147
		c0.181-0.759,1.203-5.098,1.203-5.098s-0.298-0.597-0.298-1.479c0-1.387,0.804-2.422,1.804-2.422c0.851,0,1.263,0.64,1.263,1.404
		c0,0.855-0.546,2.135-0.826,3.319c-0.235,0.993,0.497,1.802,1.476,1.802c1.772,0,2.966-2.275,2.966-4.973
		c0-2.05-1.381-3.585-3.892-3.585c-2.838,0-4.605,2.116-4.605,4.479c0,0.815,0.24,1.39,0.616,1.835
		c0.174,0.205,0.197,0.286,0.135,0.521c-0.045,0.171-0.147,0.587-0.19,0.751c-0.062,0.236-0.254,0.321-0.468,0.233
		c-1.308-0.533-1.916-1.964-1.916-3.573c0-2.657,2.24-5.844,6.685-5.844c3.572,0,5.923,2.585,5.923,5.358
		c0,3.67-2.04,6.411-5.048,6.411c-1.01,0-1.96-0.546-2.285-1.166c0,0-0.543,2.155-0.658,2.571c-0.197,0.721-0.586,1.441-0.941,2.004
		c0.841,0.248,1.73,0.384,2.651,0.384c5.166,0,9.354-4.188,9.354-9.354S383.322,80.653,378.156,80.653"/>
	<path fill="#FFFFFF" d="M342.037,107.008c9.39,0,17-7.612,17-17c0-9.388-7.61-17-17-17c-9.389,0-17,7.611-17,17
		C325.037,99.396,332.648,107.008,342.037,107.008"/>
	<path d="M336.801,97.902h-3.646V86.231h3.646V97.902z M334.884,84.771h-0.026c-1.319,0-2.175-0.892-2.175-2.021
		c0-1.153,0.882-2.027,2.228-2.027c1.345,0,2.173,0.872,2.199,2.023C337.109,83.877,336.255,84.771,334.884,84.771z M351.392,97.902
		h-4.136v-6.04c0-1.58-0.646-2.659-2.068-2.659c-1.089,0-1.693,0.729-1.975,1.43c-0.105,0.252-0.09,0.603-0.09,0.954v6.315h-4.096
		c0,0,0.053-10.698,0-11.671h4.096v1.832c0.242-0.801,1.551-1.944,3.641-1.944c2.592,0,4.628,1.68,4.628,5.293V97.902z"/>
	<path fill="#FFFFFF" d="M306.021,107.053c9.389,0,17-7.612,17-17c0-9.388-7.611-17-17-17c-9.39,0-17,7.611-17,17
		C289.021,99.441,296.631,107.053,306.021,107.053"/>
	<path d="M311.761,80.698h-11.477c-1.994,0-3.616,1.621-3.616,3.615v3.819v7.659c0,1.993,1.622,3.615,3.616,3.615h11.477
		c1.994,0,3.616-1.622,3.616-3.615v-7.659v-3.819C315.377,82.319,313.755,80.698,311.761,80.698z M312.799,82.854l0.413-0.001v0.411
		v2.76l-3.161,0.01l-0.011-3.171L312.799,82.854z M303.353,88.133c0.599-0.83,1.571-1.373,2.67-1.373s2.071,0.543,2.669,1.373
		c0.392,0.541,0.624,1.203,0.624,1.92c0,1.815-1.478,3.292-3.293,3.292s-3.293-1.477-3.293-3.292
		C302.729,89.336,302.963,88.674,303.353,88.133z M313.554,95.792c0,0.988-0.804,1.792-1.793,1.792h-11.477
		c-0.989,0-1.793-0.804-1.793-1.792v-7.659h2.793c-0.242,0.593-0.377,1.241-0.377,1.92c0,2.82,2.294,5.116,5.115,5.116
		c2.82,0,5.115-2.296,5.115-5.116c0-0.679-0.137-1.327-0.377-1.92h2.793V95.792z"/>
	<path fill="#FFFFFF" d="M270.009,106.962c9.389,0,17-7.611,17-17c0-9.388-7.61-16.999-17-16.999c-9.389,0-17,7.611-17,16.999
		C253.008,99.351,260.62,106.962,270.009,106.962"/>
	<path d="M266.913,98.347c-2.225,0-3.83-1.407-3.83-3.099c0-1.658,1.992-3.038,4.217-3.014c0.519,0.006,1.003,0.089,1.441,0.231
		c1.206,0.84,2.073,1.313,2.317,2.271c0.046,0.194,0.071,0.394,0.071,0.598C271.13,97.026,270.041,98.347,266.913,98.347
		 M267.498,88.429c-1.492-0.044-2.912-1.67-3.169-3.63c-0.258-1.96,0.744-3.46,2.235-3.416c1.492,0.045,2.912,1.617,3.169,3.577
		C269.991,86.921,268.99,88.475,267.498,88.429 M270.593,91.333c-0.523-0.37-1.524-1.271-1.524-1.802
		c0-0.622,0.178-0.927,1.112-1.657c0.958-0.75,1.636-1.803,1.636-3.026c0-1.457-0.649-2.877-1.867-3.347h1.837l1.297-0.937h-5.795
		c-2.597,0-5.042,1.968-5.042,4.246c0,2.33,1.771,4.21,4.414,4.21c0.184,0,0.362-0.003,0.537-0.016
		c-0.172,0.327-0.295,0.698-0.295,1.081c0,0.647,0.349,1.173,0.789,1.602c-0.333,0-0.655,0.01-1.004,0.01
		c-3.218,0-5.694,2.049-5.694,4.174c0,2.093,2.715,3.401,5.932,3.401c3.668,0,5.694-2.08,5.694-4.174
		C272.619,93.419,272.124,92.415,270.593,91.333 M279.023,88.6h-2.256v-2.255h-1.815V88.6h-2.256v1.815h2.256v2.256h1.815v-2.256
		h2.256V88.6z"/>
	<path fill="#FFFFFF" d="M233.992,107.008c9.388,0,17-7.612,17-17c0-9.388-7.612-17-17-17c-9.39,0-17,7.611-17,17
		C216.992,99.396,224.602,107.008,233.992,107.008"/>
	<path fill-rule="evenodd" clip-rule="evenodd" d="M233.959,80.889c-5.164,0-9.351,4.186-9.351,9.351
		c0,4.131,2.678,7.635,6.395,8.872c0.468,0.086,0.639-0.203,0.639-0.451c0-0.222-0.008-0.81-0.013-1.59
		c-2.601,0.564-3.15-1.254-3.15-1.254c-0.425-1.08-1.038-1.367-1.038-1.367c-0.849-0.58,0.064-0.568,0.064-0.568
		c0.938,0.065,1.433,0.963,1.433,0.963c0.834,1.429,2.188,1.017,2.72,0.777c0.086-0.604,0.328-1.017,0.596-1.25
		c-2.077-0.236-4.26-1.038-4.26-4.621c0-1.021,0.364-1.855,0.962-2.509c-0.096-0.237-0.417-1.188,0.092-2.475
		c0,0,0.784-0.252,2.571,0.958c0.746-0.207,1.546-0.312,2.341-0.314c0.795,0.003,1.594,0.107,2.342,0.314
		c1.785-1.21,2.568-0.958,2.568-0.958c0.51,1.287,0.188,2.237,0.093,2.475c0.599,0.653,0.961,1.488,0.961,2.509
		c0,3.592-2.187,4.382-4.27,4.613c0.337,0.289,0.635,0.859,0.635,1.731c0,1.25-0.012,2.259-0.012,2.565
		c0,0.25,0.169,0.541,0.644,0.449c3.713-1.238,6.389-4.74,6.389-8.87C243.309,85.074,239.122,80.889,233.959,80.889z"/>
	<path fill="#FFFFFF" d="M198.088,106.999c9.387,0,16.999-7.611,16.999-17c0-9.388-7.612-16.999-16.999-16.999
		c-9.39,0-17.001,7.611-17.001,16.999C181.087,99.387,188.699,106.999,198.088,106.999"/>
	<g>
		<path d="M207.442,89.999c0,2.276-1.844,4.121-4.12,4.121c-2.279,0-4.123-1.845-4.123-4.121c0-2.275,1.844-4.12,4.123-4.12
			C205.598,85.879,207.442,87.724,207.442,89.999z"/>
		<path d="M196.974,89.999c0,2.276-1.843,4.121-4.123,4.121c-2.274,0-4.118-1.845-4.118-4.121c0-2.275,1.844-4.12,4.118-4.12
			C195.131,85.879,196.974,87.724,196.974,89.999z"/>
	</g>
	<path fill="#FFFFFF" d="M162.07,107c9.389,0,17-7.611,17-17c0-9.388-7.611-17-17-17s-17,7.612-17,17
		C145.07,99.389,152.682,107,162.07,107"/>
	<path d="M157.095,86.832h1.935v-1.88c0-0.828,0.021-2.106,0.623-2.898c0.634-0.838,1.505-1.408,3.002-1.408
		c2.44,0,3.468,0.348,3.468,0.348l-0.483,2.866c0,0-0.806-0.233-1.558-0.233c-0.753,0-1.427,0.27-1.427,1.021v2.185h3.085
		l-0.216,2.8h-2.869v9.723h-3.625v-9.723h-1.935V86.832z"/>
	<path fill="#FFFFFF" d="M126.055,107c9.389,0,17-7.612,17-17c0-9.388-7.611-17-17-17c-9.39,0-17,7.611-17,17
		C109.055,99.388,116.665,107,126.055,107"/>
	<path d="M135.405,87.392v8.285c0,0.46-0.164,0.853-0.491,1.18s-0.72,0.49-1.179,0.49h-15.361c-0.459,0-0.852-0.163-1.179-0.49
		s-0.49-0.72-0.49-1.18v-8.285c0.306,0.341,0.657,0.644,1.054,0.908c2.519,1.711,4.247,2.911,5.187,3.6
		c0.396,0.292,0.719,0.521,0.965,0.684c0.247,0.164,0.576,0.331,0.986,0.501c0.411,0.171,0.793,0.256,1.147,0.256h0.021
		c0.354,0,0.737-0.085,1.147-0.256c0.411-0.17,0.739-0.337,0.986-0.501c0.247-0.163,0.568-0.392,0.966-0.684
		c1.183-0.855,2.915-2.056,5.196-3.6C134.758,88.028,135.105,87.726,135.405,87.392z M135.405,84.323
		c0,0.55-0.171,1.075-0.512,1.576s-0.766,0.929-1.273,1.283c-2.615,1.816-4.243,2.946-4.884,3.392
		c-0.069,0.049-0.217,0.155-0.443,0.318c-0.227,0.164-0.413,0.296-0.563,0.396c-0.149,0.101-0.33,0.214-0.542,0.339
		c-0.213,0.126-0.413,0.22-0.601,0.282s-0.361,0.094-0.521,0.094h-0.021c-0.159,0-0.333-0.031-0.521-0.094
		c-0.188-0.062-0.388-0.156-0.6-0.282c-0.212-0.125-0.394-0.238-0.543-0.339s-0.337-0.232-0.563-0.396
		c-0.226-0.163-0.374-0.27-0.443-0.318c-0.633-0.445-1.545-1.08-2.733-1.904c-1.19-0.824-1.903-1.32-2.14-1.487
		c-0.432-0.292-0.839-0.694-1.221-1.205c-0.383-0.512-0.574-0.986-0.574-1.425c0-0.542,0.145-0.994,0.433-1.355
		c0.289-0.362,0.701-0.544,1.236-0.544h15.361c0.452,0,0.844,0.164,1.174,0.491S135.405,83.864,135.405,84.323L135.405,84.323z"/>
	<path fill="#FFFFFF" d="M90.039,107.008c9.389,0,17-7.612,17-17c0-9.388-7.611-17-17-17c-9.39,0-17,7.611-17,17
		C73.039,99.396,80.649,107.008,90.039,107.008"/>
	<path fill-rule="evenodd" clip-rule="evenodd" d="M99.203,88.125c-0.122-0.602-0.307-1.193-0.546-1.759
		c-0.233-0.555-0.524-1.089-0.862-1.589c-0.334-0.495-0.719-0.961-1.142-1.384c-0.424-0.423-0.889-0.808-1.384-1.142
		c-0.499-0.339-1.034-0.628-1.589-0.863c-0.564-0.237-1.157-0.423-1.759-0.544c-0.615-0.127-1.249-0.191-1.883-0.191
		s-1.268,0.064-1.884,0.191c-0.601,0.121-1.192,0.307-1.758,0.544c-0.554,0.235-1.089,0.524-1.59,0.863
		c-0.495,0.334-0.96,0.719-1.384,1.142c-0.423,0.423-0.807,0.889-1.141,1.384c-0.338,0.5-0.628,1.034-0.862,1.589
		c-0.239,0.565-0.424,1.157-0.546,1.759c-0.127,0.614-0.19,1.249-0.19,1.883c0,0.635,0.063,1.269,0.19,1.885
		c0.122,0.6,0.307,1.192,0.546,1.757c0.234,0.555,0.524,1.091,0.862,1.59c0.334,0.495,0.718,0.96,1.141,1.384
		c0.424,0.423,0.889,0.807,1.384,1.141c0.501,0.338,1.036,0.629,1.59,0.862c0.565,0.24,1.157,0.423,1.758,0.546
		c0.616,0.127,1.25,0.191,1.884,0.191s1.268-0.064,1.883-0.191c0.602-0.123,1.194-0.306,1.759-0.546
		c0.555-0.233,1.09-0.524,1.589-0.862c0.495-0.334,0.96-0.718,1.384-1.141c0.423-0.424,0.808-0.889,1.142-1.384
		c0.338-0.499,0.629-1.035,0.862-1.59c0.239-0.564,0.424-1.157,0.546-1.757c0.126-0.616,0.19-1.25,0.19-1.885
		C99.394,89.374,99.329,88.739,99.203,88.125z M98.025,89.928c-0.115-0.025-2.819-0.606-5.563-0.262
		c-0.058-0.136-0.114-0.273-0.173-0.411c-0.167-0.392-0.346-0.778-0.531-1.159c3.155-1.288,4.436-3.141,4.45-3.162
		C97.329,86.294,98.007,88.032,98.025,89.928z M95.315,84.013c-0.021,0.03-1.157,1.763-4.173,2.893
		c-1.365-2.509-2.866-4.502-2.986-4.661c0.604-0.146,1.234-0.226,1.883-0.226C92.062,82.019,93.907,82.773,95.315,84.013z
		 M88.126,82.251c-0.001,0.001-0.002,0.002-0.002,0.002s-0.009,0.002-0.023,0.005C88.108,82.255,88.117,82.254,88.126,82.251z
		 M86.631,82.783c0.106,0.142,1.583,2.145,2.966,4.603c-3.835,1.02-7.164,0.979-7.376,0.976
		C82.74,85.887,84.402,83.835,86.631,82.783z M82.05,90.008c0-0.086,0.005-0.169,0.007-0.252c0.142,0.002,4.089,0.092,8.202-1.139
		c0.229,0.447,0.447,0.903,0.647,1.357c-0.105,0.029-0.21,0.062-0.313,0.096c-4.312,1.394-6.498,5.272-6.498,5.272
		s0.002,0.003,0.002,0.004C82.825,93.931,82.05,92.06,82.05,90.008z M90.039,97.997c-1.934,0-3.707-0.688-5.089-1.831
		c0.105,0.085,0.179,0.14,0.179,0.14s1.532-3.34,6.27-4.99c0.018-0.007,0.035-0.012,0.054-0.018
		c1.123,2.922,1.587,5.367,1.705,6.066C92.199,97.771,91.146,97.997,90.039,97.997z M94.503,96.634
		c-0.081-0.482-0.508-2.827-1.555-5.706c2.579-0.413,4.813,0.295,4.979,0.349C97.57,93.502,96.297,95.423,94.503,96.634z"/>
	<path fill="#FFFFFF" d="M54.023,106.955c9.389,0,17-7.612,17-17c0-9.388-7.611-17-17-17c-9.39,0-17,7.611-17,17
		C37.023,99.343,44.633,106.955,54.023,106.955"/>
	<path fill-rule="evenodd" clip-rule="evenodd" d="M63.286,88.368l-0.154-0.323l-0.262-0.206c-0.345-0.271-2.082,0.019-2.554-0.407
		c-0.33-0.307-0.378-0.856-0.479-1.599c-0.187-1.446-0.306-1.521-0.531-2.008c-0.82-1.737-3.037-3.045-4.562-3.225h-4.134
		c-3.249,0-5.905,2.662-5.905,5.913v6.896c0,3.243,2.656,5.9,5.905,5.9h6.79c3.248,0,5.887-2.657,5.906-5.9l0.038-4.777
		L63.286,88.368z M50.685,85.431h3.274c0.626,0,1.133,0.507,1.133,1.127c0,0.618-0.507,1.131-1.133,1.131h-3.274
		c-0.625,0-1.131-0.513-1.131-1.131C49.554,85.938,50.06,85.431,50.685,85.431z M57.342,94.446h-6.657
		c-0.625,0-1.131-0.513-1.131-1.126c0-0.619,0.506-1.124,1.131-1.124h6.657c0.62,0,1.125,0.505,1.125,1.124
		C58.467,93.934,57.962,94.446,57.342,94.446z"/>
	<path fill="#FFFFFF" d="M18.008,106.955c9.389,0,17-7.612,17-17c0-9.388-7.611-17-17-17s-17,7.611-17,17
		C1.008,99.343,8.619,106.955,18.008,106.955"/>
	<path d="M17.237,85.261c0.353,0.492,0.53,1.079,0.53,1.765c0,0.705-0.178,1.273-0.534,1.702c-0.201,0.24-0.494,0.46-0.883,0.658
		c0.59,0.216,1.034,0.556,1.336,1.021c0.3,0.465,0.45,1.03,0.45,1.694c0,0.685-0.171,1.301-0.516,1.844
		c-0.218,0.359-0.491,0.663-0.818,0.909c-0.368,0.283-0.803,0.476-1.306,0.581c-0.502,0.104-1.046,0.155-1.634,0.155h-5.21V84.028
		h5.587C15.651,84.05,16.649,84.46,17.237,85.261z M10.959,86.037v2.55h2.812c0.5,0,0.908-0.096,1.224-0.287
		c0.312-0.191,0.469-0.53,0.469-1.015c0-0.539-0.207-0.895-0.621-1.068c-0.357-0.12-0.812-0.18-1.366-0.18H10.959z M10.959,90.5
		v3.083h2.807c0.502,0,0.893-0.067,1.171-0.203c0.509-0.253,0.761-0.733,0.761-1.443c0-0.603-0.244-1.015-0.735-1.24
		c-0.275-0.125-0.661-0.191-1.156-0.196H10.959z M25.127,87.215c0.597,0.266,1.089,0.688,1.476,1.265
		c0.354,0.508,0.58,1.098,0.684,1.767c0.06,0.393,0.085,0.96,0.074,1.697h-6.229c0.036,0.858,0.332,1.46,0.895,1.804
		c0.342,0.215,0.752,0.322,1.233,0.322c0.507,0,0.922-0.131,1.239-0.392c0.176-0.142,0.329-0.338,0.461-0.589h2.283
		c-0.061,0.507-0.338,1.022-0.828,1.546c-0.767,0.831-1.838,1.246-3.217,1.246c-1.139,0-2.143-0.35-3.011-1.051
		c-0.872-0.701-1.305-1.843-1.305-3.422c0-1.482,0.392-2.618,1.176-3.409c0.786-0.789,1.805-1.186,3.058-1.186
		C23.86,86.813,24.53,86.947,25.127,87.215z M21.783,89.146c-0.316,0.326-0.515,0.768-0.597,1.323h3.854
		c-0.041-0.594-0.241-1.042-0.596-1.352c-0.358-0.307-0.8-0.46-1.327-0.46C22.544,88.657,22.099,88.82,21.783,89.146z
		 M25.562,84.567h-4.954v1.438h4.954V84.567z"/>
</g>
<g id="Focus">
	<path fill="#FDDD05" d="M557.991,71.052c9.39,0,17.001-7.611,17.001-17c0-9.388-7.611-16.999-17.001-16.999
		s-16.999,7.611-16.999,16.999C540.992,63.441,548.602,71.052,557.991,71.052"/>
	<path d="M557.992,44.654c2.597,0,4.806,0.916,6.623,2.747s2.727,4.032,2.727,6.603c0,2.598-0.909,4.806-2.727,6.623
		c-1.817,1.818-4.026,2.728-6.623,2.728c-2.572,0-4.772-0.909-6.603-2.728c-1.833-1.817-2.748-4.025-2.748-6.623
		c0-2.57,0.915-4.771,2.748-6.603C553.22,45.57,555.42,44.654,557.992,44.654L557.992,44.654 M565.978,54.004
		c0-1.714-0.505-3.266-1.519-4.655c-1.013-1.39-2.325-2.356-3.935-2.902c-0.233,0.312-0.337,0.52-0.312,0.623
		c0.052,0.494,0.168,0.825,0.351,0.994s0.376,0.214,0.584,0.137l0.623-0.234c0,0,0.132-0.013,0.39-0.039
		c0.285,0.312,0.285,0.617,0,0.915c-0.286,0.299-0.578,0.662-0.877,1.091s-0.305,0.929-0.02,1.501
		c0.442,0.83,1.065,1.246,1.871,1.246c0.363,0.025,0.643,0.26,0.838,0.701c0.193,0.441,0.306,0.87,0.331,1.286
		c0.129,1.038,0.039,1.947-0.272,2.727c-0.286,0.571-0.195,1.065,0.272,1.48C565.421,57.42,565.978,55.797,565.978,54.004
		L565.978,54.004 M556.9,46.135c-1.454,0.182-2.746,0.727-3.876,1.637c-1.13,0.908-1.955,2.038-2.473,3.389
		c0.077,0,0.219,0.013,0.428,0.039c0.208,0.026,0.389,0.045,0.546,0.059c0.156,0.013,0.324,0.039,0.507,0.077
		c0.181,0.04,0.337,0.092,0.466,0.156c0.131,0.064,0.209,0.149,0.234,0.254c0.052,0.155-0.039,0.447-0.272,0.876
		c-0.234,0.429-0.351,0.824-0.351,1.188c0,0.39,0.247,0.753,0.741,1.091c0.492,0.338,0.739,0.637,0.739,0.896
		c0,0.363,0.052,0.805,0.156,1.324c0.104,0.52,0.155,0.805,0.155,0.856c0,0.156,0.234,0.507,0.702,1.053
		c0.467,0.545,0.804,0.817,1.012,0.817c0.129,0,0.202-0.143,0.215-0.429c0.014-0.285,0-0.636-0.038-1.051
		c-0.041-0.416-0.061-0.676-0.061-0.779c0-0.416,0.093-0.896,0.273-1.442c0.156-0.545,0.539-0.999,1.149-1.363
		c0.609-0.363,0.969-0.662,1.071-0.896c0.209-0.441,0.267-0.837,0.177-1.188c-0.093-0.351-0.202-0.63-0.333-0.838
		c-0.129-0.207-0.351-0.39-0.662-0.545c-0.312-0.156-0.578-0.267-0.799-0.331c-0.22-0.065-0.46-0.124-0.72-0.176
		s-0.402-0.078-0.43-0.078c-0.206-0.078-0.479-0.123-0.816-0.136c-0.338-0.014-0.571,0.006-0.703,0.058
		c-0.129,0.053-0.305-0.019-0.526-0.214c-0.219-0.194-0.33-0.383-0.33-0.565c0-0.129,0.099-0.305,0.292-0.525
		c0.195-0.221,0.423-0.461,0.683-0.721c0.261-0.26,0.44-0.454,0.546-0.585c0.104-0.181,0.213-0.317,0.331-0.408
		c0.116-0.091,0.26-0.195,0.428-0.312c0.17-0.117,0.344-0.254,0.526-0.409c0.052-0.053,0.215-0.162,0.487-0.332
		C556.649,46.414,556.823,46.265,556.9,46.135L556.9,46.135 M555.5,61.602c0.856,0.26,1.687,0.389,2.492,0.389
		c1.662,0,3.13-0.441,4.401-1.324c-0.337-0.571-1.104-0.792-2.299-0.662c-0.312,0.025-0.732,0.137-1.265,0.331
		c-0.533,0.194-0.838,0.306-0.916,0.331c-0.96,0.208-1.454,0.312-1.479,0.312c-0.157,0.026-0.325,0.117-0.508,0.272
		C555.744,61.406,555.603,61.523,555.5,61.602L555.5,61.602"/>
	<path fill="#FDDD05" d="M522.205,71.053c9.39,0,17.002-7.612,17.002-17c0-9.388-7.612-16.999-17.002-16.999
		c-9.388,0-17,7.611-17,16.999C505.205,63.441,512.817,71.053,522.205,71.053"/>
	<path d="M531.55,49.911c-0.082,1.818-1.355,4.306-3.812,7.462c-2.544,3.3-4.698,4.948-6.46,4.948c-1.09,0-2.011-1.003-2.766-3.016
		c-0.505-1.847-1.007-3.693-1.51-5.535c-0.562-2.015-1.162-3.021-1.805-3.021c-0.14,0-0.627,0.294-1.467,0.882l-0.88-1.134
		c0.922-0.809,1.83-1.621,2.727-2.43c1.227-1.063,2.15-1.621,2.768-1.679c1.45-0.141,2.346,0.853,2.684,2.976
		c0.36,2.294,0.614,3.72,0.754,4.279c0.419,1.9,0.879,2.849,1.384,2.849c0.389,0,0.978-0.613,1.759-1.843
		c0.784-1.23,1.201-2.166,1.26-2.811c0.111-1.062-0.308-1.591-1.26-1.591c-0.446,0-0.908,0.095-1.383,0.293
		c0.924-2.991,2.686-4.445,5.285-4.36C530.755,46.235,531.664,47.48,531.55,49.911z"/>
	<path fill="#FDDD05" d="M486.19,71.053c9.388,0,16.999-7.612,16.999-17c0-9.388-7.611-17-16.999-17
		c-9.389,0-17.001,7.611-17.001,17C469.189,63.441,476.801,71.053,486.19,71.053"/>
	<path d="M489.822,54.062l-6.126,3.598v-7.196L489.822,54.062z M495.543,57.397v-6.688c0,0,0-3.225-3.225-3.225h-12.261
		c0,0-3.223,0-3.223,3.225v6.688c0,0,0,3.224,3.223,3.224h12.261C492.319,60.621,495.543,60.621,495.543,57.397"/>
	<path fill="#FDDD05" d="M450.182,71.008c9.389,0,17-7.611,17-17c0-9.388-7.611-17-17-17c-9.389,0-17,7.612-17,17
		C433.181,63.397,440.792,71.008,450.182,71.008"/>
	<path d="M459.555,49.026c-0.689,0.306-1.43,0.513-2.207,0.605c0.794-0.476,1.404-1.229,1.689-2.125
		c-0.742,0.439-1.563,0.759-2.441,0.931c-0.699-0.747-1.698-1.213-2.805-1.213c-2.121,0-3.842,1.721-3.842,3.843
		c0,0.302,0.033,0.595,0.099,0.875c-3.193-0.16-6.024-1.689-7.921-4.016c-0.331,0.569-0.52,1.229-0.52,1.934
		c0,1.332,0.678,2.509,1.709,3.199c-0.629-0.02-1.223-0.194-1.741-0.48v0.047c0,1.863,1.324,3.417,3.084,3.77
		c-0.323,0.09-0.662,0.135-1.014,0.135c-0.247,0-0.489-0.023-0.723-0.068c0.489,1.526,1.908,2.638,3.59,2.667
		c-1.315,1.031-2.973,1.646-4.773,1.646c-0.31,0-0.616-0.017-0.916-0.053c1.7,1.089,3.721,1.726,5.891,1.726
		c7.07,0,10.934-5.854,10.934-10.934c0-0.167-0.003-0.334-0.011-0.497C458.389,50.473,459.042,49.796,459.555,49.026"/>
	<path fill="#FDDD05" d="M414.172,71.052c9.389,0,17-7.611,17-17c0-9.388-7.611-16.999-17-16.999s-17,7.611-17,16.999
		C397.172,63.44,404.784,71.052,414.172,71.052"/>
	<path d="M414.648,44.699v4.729h4.438v2.937h-4.438v4.797c0,1.086,0.057,1.782,0.172,2.089c0.114,0.309,0.328,0.555,0.643,0.738
		c0.412,0.249,0.885,0.371,1.419,0.371c0.947,0,1.889-0.309,2.826-0.924v2.952c-0.8,0.375-1.523,0.64-2.171,0.791
		c-0.648,0.153-1.35,0.229-2.103,0.229c-0.855,0-1.612-0.108-2.269-0.323c-0.656-0.218-1.218-0.524-1.681-0.924
		c-0.465-0.4-0.788-0.826-0.966-1.276c-0.18-0.45-0.269-1.103-0.269-1.959v-6.561h-2.069v-2.647c0.737-0.239,1.365-0.582,1.89-1.026
		c0.523-0.446,0.945-0.981,1.261-1.607c0.317-0.624,0.536-1.42,0.655-2.384H414.648z"/>
	<path fill="#FDDD05" d="M378.155,71.052c9.389,0,17-7.61,17-17c0-9.388-7.611-17-17-17c-9.389,0-17,7.611-17,17
		C361.155,63.442,368.767,71.052,378.155,71.052"/>
	<path d="M378.156,44.653c-5.166,0-9.355,4.188-9.355,9.354c0,3.83,2.304,7.121,5.601,8.567c-0.026-0.652-0.005-1.438,0.162-2.148
		c0.181-0.759,1.203-5.097,1.203-5.097s-0.298-0.598-0.298-1.479c0-1.387,0.804-2.422,1.804-2.422c0.851,0,1.263,0.639,1.263,1.404
		c0,0.855-0.546,2.135-0.826,3.319c-0.235,0.992,0.497,1.802,1.476,1.802c1.772,0,2.966-2.276,2.966-4.974
		c0-2.05-1.381-3.584-3.892-3.584c-2.838,0-4.605,2.115-4.605,4.479c0,0.815,0.24,1.391,0.616,1.835
		c0.174,0.205,0.197,0.287,0.135,0.522c-0.045,0.171-0.147,0.586-0.19,0.75c-0.062,0.237-0.254,0.322-0.468,0.234
		c-1.308-0.534-1.916-1.965-1.916-3.573c0-2.657,2.24-5.845,6.685-5.845c3.572,0,5.923,2.585,5.923,5.359
		c0,3.67-2.04,6.41-5.048,6.41c-1.01,0-1.96-0.545-2.285-1.165c0,0-0.543,2.155-0.658,2.571c-0.197,0.721-0.586,1.441-0.941,2.003
		c0.841,0.249,1.73,0.385,2.651,0.385c5.166,0,9.354-4.188,9.354-9.354C387.51,48.841,383.322,44.653,378.156,44.653"/>
	<path fill="#FDDD05" d="M342.037,71.008c9.39,0,17-7.612,17-17c0-9.388-7.61-17-17-17c-9.389,0-17,7.611-17,17
		C325.037,63.396,332.648,71.008,342.037,71.008"/>
	<path d="M336.801,61.901h-3.646v-11.67h3.646V61.901z M334.884,48.771h-0.026c-1.319,0-2.175-0.893-2.175-2.022
		c0-1.152,0.882-2.026,2.228-2.026c1.345,0,2.173,0.872,2.199,2.023C337.109,47.877,336.255,48.771,334.884,48.771z M351.392,61.901
		h-4.136v-6.039c0-1.581-0.646-2.659-2.068-2.659c-1.089,0-1.693,0.728-1.975,1.43c-0.105,0.251-0.09,0.603-0.09,0.954v6.314h-4.096
		c0,0,0.053-10.697,0-11.67h4.096v1.831c0.242-0.801,1.551-1.943,3.641-1.943c2.592,0,4.628,1.679,4.628,5.293V61.901z"/>
	<path fill="#FDDD05" d="M306.021,71.053c9.389,0,17-7.612,17-17c0-9.388-7.611-17-17-17c-9.39,0-17,7.611-17,17
		C289.021,63.441,296.631,71.053,306.021,71.053"/>
	<path d="M311.761,44.699h-11.477c-1.994,0-3.616,1.621-3.616,3.615v3.818v7.659c0,1.994,1.622,3.615,3.616,3.615h11.477
		c1.994,0,3.616-1.621,3.616-3.615v-7.659v-3.818C315.377,46.32,313.755,44.699,311.761,44.699z M312.799,46.855l0.413-0.002v0.412
		v2.759l-3.161,0.011l-0.011-3.171L312.799,46.855z M303.353,52.133c0.599-0.829,1.571-1.373,2.67-1.373s2.071,0.544,2.669,1.373
		c0.392,0.542,0.624,1.203,0.624,1.92c0,1.815-1.478,3.293-3.293,3.293s-3.293-1.478-3.293-3.293
		C302.729,53.336,302.963,52.675,303.353,52.133z M313.554,59.792c0,0.989-0.804,1.792-1.793,1.792h-11.477
		c-0.989,0-1.793-0.803-1.793-1.792v-7.659h2.793c-0.242,0.594-0.377,1.241-0.377,1.92c0,2.82,2.294,5.116,5.115,5.116
		c2.82,0,5.115-2.296,5.115-5.116c0-0.679-0.137-1.326-0.377-1.92h2.793V59.792z"/>
	<path fill="#FDDD05" d="M270.009,70.962c9.389,0,17-7.611,17-17c0-9.388-7.61-16.999-17-16.999c-9.389,0-17,7.611-17,16.999
		C253.008,63.351,260.62,70.962,270.009,70.962"/>
	<path d="M266.913,62.346c-2.225,0-3.83-1.407-3.83-3.099c0-1.657,1.992-3.037,4.217-3.013c0.519,0.006,1.003,0.089,1.441,0.23
		c1.206,0.84,2.073,1.314,2.317,2.271c0.046,0.194,0.071,0.393,0.071,0.597C271.13,61.026,270.041,62.346,266.913,62.346
		 M267.498,52.429c-1.492-0.045-2.912-1.67-3.169-3.63c-0.258-1.96,0.744-3.461,2.235-3.416c1.492,0.045,2.912,1.617,3.169,3.577
		C269.991,50.921,268.99,52.474,267.498,52.429 M270.593,55.333c-0.523-0.371-1.524-1.272-1.524-1.803
		c0-0.621,0.178-0.927,1.112-1.657c0.958-0.749,1.636-1.802,1.636-3.025c0-1.458-0.649-2.878-1.867-3.348h1.837l1.297-0.937h-5.795
		c-2.597,0-5.042,1.968-5.042,4.247c0,2.329,1.771,4.21,4.414,4.21c0.184,0,0.362-0.004,0.537-0.017
		c-0.172,0.328-0.295,0.698-0.295,1.082c0,0.647,0.349,1.173,0.789,1.602c-0.333,0-0.655,0.01-1.004,0.01
		c-3.218,0-5.694,2.048-5.694,4.174c0,2.092,2.715,3.401,5.932,3.401c3.668,0,5.694-2.081,5.694-4.174
		C272.619,57.419,272.124,56.415,270.593,55.333 M279.023,52.6h-2.256v-2.256h-1.815V52.6h-2.256v1.815h2.256v2.256h1.815v-2.256
		h2.256V52.6z"/>
	<path fill="#FDDD05" d="M233.992,71.008c9.388,0,17-7.612,17-17c0-9.388-7.612-17-17-17c-9.39,0-17,7.611-17,17
		C216.992,63.396,224.602,71.008,233.992,71.008"/>
	<path fill-rule="evenodd" clip-rule="evenodd" d="M233.959,44.888c-5.164,0-9.351,4.187-9.351,9.351
		c0,4.131,2.678,7.636,6.395,8.872c0.468,0.086,0.639-0.203,0.639-0.45c0-0.222-0.008-0.811-0.013-1.591
		c-2.601,0.565-3.15-1.254-3.15-1.254c-0.425-1.08-1.038-1.367-1.038-1.367c-0.849-0.58,0.064-0.568,0.064-0.568
		c0.938,0.066,1.433,0.964,1.433,0.964c0.834,1.429,2.188,1.017,2.72,0.776c0.086-0.604,0.328-1.016,0.596-1.25
		c-2.077-0.236-4.26-1.038-4.26-4.621c0-1.021,0.364-1.854,0.962-2.509c-0.096-0.236-0.417-1.188,0.092-2.475
		c0,0,0.784-0.252,2.571,0.959c0.746-0.208,1.546-0.312,2.341-0.315c0.795,0.004,1.594,0.107,2.342,0.315
		c1.785-1.211,2.568-0.959,2.568-0.959c0.51,1.287,0.188,2.238,0.093,2.475c0.599,0.654,0.961,1.488,0.961,2.509
		c0,3.593-2.187,4.383-4.27,4.614c0.337,0.289,0.635,0.859,0.635,1.731c0,1.25-0.012,2.259-0.012,2.565
		c0,0.249,0.169,0.541,0.644,0.449c3.713-1.239,6.389-4.741,6.389-8.871C243.309,49.074,239.122,44.888,233.959,44.888z"/>
	<path fill="#FDDD05" d="M198.088,70.999c9.387,0,16.999-7.611,16.999-17c0-9.388-7.612-16.999-16.999-16.999
		c-9.39,0-17.001,7.611-17.001,16.999C181.087,63.387,188.699,70.999,198.088,70.999"/>
	<g>
		<path d="M207.442,53.999c0,2.275-1.844,4.121-4.12,4.121c-2.279,0-4.123-1.846-4.123-4.121s1.844-4.121,4.123-4.121
			C205.598,49.878,207.442,51.724,207.442,53.999z"/>
		<path d="M196.974,53.999c0,2.275-1.843,4.121-4.123,4.121c-2.274,0-4.118-1.846-4.118-4.121s1.844-4.121,4.118-4.121
			C195.131,49.878,196.974,51.724,196.974,53.999z"/>
	</g>
	<path fill="#FDDD05" d="M162.07,71c9.389,0,17-7.611,17-17c0-9.388-7.611-17-17-17s-17,7.612-17,17
		C145.07,63.389,152.682,71,162.07,71"/>
	<path d="M157.095,50.832h1.935v-1.88c0-0.829,0.021-2.107,0.623-2.898c0.634-0.839,1.505-1.408,3.002-1.408
		c2.44,0,3.468,0.348,3.468,0.348l-0.483,2.865c0,0-0.806-0.232-1.558-0.232c-0.753,0-1.427,0.27-1.427,1.021v2.185h3.085
		l-0.216,2.799h-2.869v9.724h-3.625v-9.724h-1.935V50.832z"/>
	<path fill="#FDDD05" d="M126.055,71c9.389,0,17-7.612,17-17c0-9.388-7.611-17-17-17c-9.39,0-17,7.611-17,17
		C109.055,63.388,116.665,71,126.055,71"/>
	<path d="M135.405,51.392v8.285c0,0.459-0.164,0.853-0.491,1.18c-0.327,0.326-0.72,0.49-1.179,0.49h-15.361
		c-0.459,0-0.852-0.164-1.179-0.49c-0.327-0.327-0.49-0.721-0.49-1.18v-8.285c0.306,0.341,0.657,0.644,1.054,0.907
		c2.519,1.711,4.247,2.912,5.187,3.601c0.396,0.292,0.719,0.52,0.965,0.684c0.247,0.163,0.576,0.33,0.986,0.501
		c0.411,0.17,0.793,0.255,1.147,0.255h0.021c0.354,0,0.737-0.085,1.147-0.255c0.411-0.171,0.739-0.338,0.986-0.501
		c0.247-0.164,0.568-0.392,0.966-0.684c1.183-0.855,2.915-2.056,5.196-3.601C134.758,52.027,135.105,51.726,135.405,51.392z
		 M135.405,48.323c0,0.55-0.171,1.075-0.512,1.576c-0.341,0.5-0.766,0.929-1.273,1.283c-2.615,1.815-4.243,2.946-4.884,3.392
		c-0.069,0.048-0.217,0.154-0.443,0.318c-0.227,0.163-0.413,0.296-0.563,0.396c-0.149,0.102-0.33,0.215-0.542,0.34
		c-0.213,0.125-0.413,0.219-0.601,0.281c-0.188,0.063-0.361,0.094-0.521,0.094h-0.021c-0.159,0-0.333-0.03-0.521-0.094
		c-0.188-0.062-0.388-0.156-0.6-0.281s-0.394-0.238-0.543-0.34c-0.149-0.1-0.337-0.232-0.563-0.396
		c-0.226-0.164-0.374-0.271-0.443-0.318c-0.633-0.445-1.545-1.08-2.733-1.904c-1.19-0.825-1.903-1.32-2.14-1.487
		c-0.432-0.293-0.839-0.694-1.221-1.206c-0.383-0.511-0.574-0.985-0.574-1.424c0-0.543,0.145-0.995,0.433-1.356
		c0.289-0.362,0.701-0.543,1.236-0.543h15.361c0.452,0,0.844,0.164,1.174,0.49C135.239,47.471,135.405,47.864,135.405,48.323
		L135.405,48.323z"/>
	<path fill="#FDDD05" d="M90.039,71.008c9.389,0,17-7.612,17-17c0-9.388-7.611-17-17-17c-9.39,0-17,7.611-17,17
		C73.039,63.396,80.649,71.008,90.039,71.008"/>
	<path fill-rule="evenodd" clip-rule="evenodd" d="M99.203,52.124c-0.122-0.601-0.307-1.192-0.546-1.758
		c-0.233-0.555-0.524-1.09-0.862-1.589c-0.334-0.495-0.719-0.961-1.142-1.384c-0.424-0.424-0.889-0.808-1.384-1.142
		c-0.499-0.339-1.034-0.629-1.589-0.863c-0.564-0.238-1.157-0.423-1.759-0.545c-0.615-0.127-1.249-0.191-1.883-0.191
		s-1.268,0.064-1.884,0.191c-0.601,0.122-1.192,0.307-1.758,0.545c-0.554,0.234-1.089,0.524-1.59,0.863
		c-0.495,0.334-0.96,0.718-1.384,1.142c-0.423,0.423-0.807,0.889-1.141,1.384c-0.338,0.499-0.628,1.034-0.862,1.589
		c-0.239,0.565-0.424,1.157-0.546,1.758c-0.127,0.615-0.19,1.249-0.19,1.883c0,0.635,0.063,1.27,0.19,1.885
		c0.122,0.601,0.307,1.193,0.546,1.758c0.234,0.554,0.524,1.09,0.862,1.59c0.334,0.495,0.718,0.96,1.141,1.384
		c0.424,0.422,0.889,0.806,1.384,1.141c0.501,0.338,1.036,0.628,1.59,0.862c0.565,0.239,1.157,0.422,1.758,0.545
		c0.616,0.128,1.25,0.191,1.884,0.191s1.268-0.063,1.883-0.191c0.602-0.123,1.194-0.306,1.759-0.545
		c0.555-0.234,1.09-0.524,1.589-0.862c0.495-0.335,0.96-0.719,1.384-1.141c0.423-0.424,0.808-0.889,1.142-1.384
		c0.338-0.5,0.629-1.036,0.862-1.59c0.239-0.564,0.424-1.157,0.546-1.758c0.126-0.615,0.19-1.25,0.19-1.885
		C99.394,53.373,99.329,52.739,99.203,52.124z M98.025,53.928c-0.115-0.025-2.819-0.607-5.563-0.262
		c-0.058-0.137-0.114-0.274-0.173-0.412c-0.167-0.391-0.346-0.778-0.531-1.159c3.155-1.288,4.436-3.14,4.45-3.162
		C97.329,50.294,98.007,52.032,98.025,53.928z M95.315,48.013c-0.021,0.03-1.157,1.763-4.173,2.892
		c-1.365-2.509-2.866-4.502-2.986-4.66c0.604-0.146,1.234-0.226,1.883-0.226C92.062,46.019,93.907,46.772,95.315,48.013z
		 M88.126,46.251c-0.001,0.001-0.002,0.001-0.002,0.001s-0.009,0.003-0.023,0.006C88.108,46.255,88.117,46.254,88.126,46.251z
		 M86.631,46.782c0.106,0.143,1.583,2.146,2.966,4.604c-3.835,1.02-7.164,0.979-7.376,0.975
		C82.74,49.887,84.402,47.835,86.631,46.782z M82.05,54.007c0-0.085,0.005-0.168,0.007-0.252c0.142,0.003,4.089,0.092,8.202-1.139
		c0.229,0.448,0.447,0.903,0.647,1.358c-0.105,0.029-0.21,0.061-0.313,0.096c-4.312,1.393-6.498,5.271-6.498,5.271
		s0.002,0.003,0.002,0.004C82.825,57.931,82.05,56.06,82.05,54.007z M90.039,61.996c-1.934,0-3.707-0.688-5.089-1.83
		c0.105,0.085,0.179,0.14,0.179,0.14s1.532-3.34,6.27-4.991c0.018-0.006,0.035-0.012,0.054-0.017
		c1.123,2.921,1.587,5.367,1.705,6.066C92.199,61.771,91.146,61.996,90.039,61.996z M94.503,60.634
		c-0.081-0.482-0.508-2.827-1.555-5.707c2.579-0.412,4.813,0.295,4.979,0.35C97.57,57.502,96.297,59.422,94.503,60.634z"/>
	<path fill="#FDDD05" d="M54.023,70.955c9.389,0,17-7.612,17-17c0-9.388-7.611-17-17-17c-9.39,0-17,7.611-17,17
		C37.023,63.343,44.633,70.955,54.023,70.955"/>
	<path fill-rule="evenodd" clip-rule="evenodd" d="M63.286,52.369l-0.154-0.323l-0.262-0.207c-0.345-0.27-2.082,0.02-2.554-0.407
		c-0.33-0.307-0.378-0.855-0.479-1.599c-0.187-1.445-0.306-1.52-0.531-2.008c-0.82-1.736-3.037-3.044-4.562-3.224h-4.134
		c-3.249,0-5.905,2.661-5.905,5.913v6.896c0,3.243,2.656,5.899,5.905,5.899h6.79c3.248,0,5.887-2.656,5.906-5.899l0.038-4.778
		L63.286,52.369z M50.685,49.432h3.274c0.626,0,1.133,0.506,1.133,1.127c0,0.617-0.507,1.131-1.133,1.131h-3.274
		c-0.625,0-1.131-0.514-1.131-1.131C49.554,49.938,50.06,49.432,50.685,49.432z M57.342,58.446h-6.657
		c-0.625,0-1.131-0.513-1.131-1.126c0-0.618,0.506-1.123,1.131-1.123h6.657c0.62,0,1.125,0.505,1.125,1.123
		C58.467,57.934,57.962,58.446,57.342,58.446z"/>
	<path fill="#FDDD05" d="M18.008,70.955c9.389,0,17-7.612,17-17c0-9.388-7.611-17-17-17s-17,7.611-17,17
		C1.008,63.343,8.619,70.955,18.008,70.955"/>
	<path d="M17.237,49.261c0.353,0.492,0.53,1.08,0.53,1.766c0,0.705-0.178,1.272-0.534,1.702c-0.201,0.239-0.494,0.46-0.883,0.657
		c0.59,0.216,1.034,0.557,1.336,1.021c0.3,0.465,0.45,1.029,0.45,1.694c0,0.685-0.171,1.3-0.516,1.843
		c-0.218,0.36-0.491,0.664-0.818,0.909c-0.368,0.283-0.803,0.477-1.306,0.581c-0.502,0.105-1.046,0.156-1.634,0.156h-5.21V48.029
		h5.587C15.651,48.05,16.649,48.46,17.237,49.261z M10.959,50.037v2.551h2.812c0.5,0,0.908-0.096,1.224-0.287
		c0.312-0.191,0.469-0.53,0.469-1.015c0-0.54-0.207-0.895-0.621-1.068c-0.357-0.12-0.812-0.181-1.366-0.181H10.959z M10.959,54.501
		v3.083h2.807c0.502,0,0.893-0.068,1.171-0.203c0.509-0.253,0.761-0.733,0.761-1.443c0-0.603-0.244-1.016-0.735-1.241
		c-0.275-0.125-0.661-0.19-1.156-0.195H10.959z M25.127,51.215c0.597,0.267,1.089,0.688,1.476,1.266
		c0.354,0.507,0.58,1.097,0.684,1.767c0.06,0.393,0.085,0.959,0.074,1.697h-6.229c0.036,0.857,0.332,1.459,0.895,1.804
		c0.342,0.215,0.752,0.321,1.233,0.321c0.507,0,0.922-0.13,1.239-0.392c0.176-0.141,0.329-0.338,0.461-0.588h2.283
		c-0.061,0.506-0.338,1.021-0.828,1.546c-0.767,0.83-1.838,1.246-3.217,1.246c-1.139,0-2.143-0.35-3.011-1.052
		c-0.872-0.701-1.305-1.843-1.305-3.422c0-1.482,0.392-2.618,1.176-3.409c0.786-0.789,1.805-1.186,3.058-1.186
		C23.86,50.813,24.53,50.947,25.127,51.215z M21.783,53.146c-0.316,0.325-0.515,0.767-0.597,1.323h3.854
		c-0.041-0.594-0.241-1.043-0.596-1.352c-0.358-0.307-0.8-0.46-1.327-0.46C22.544,52.658,22.099,52.82,21.783,53.146z
		 M25.562,48.568h-4.954v1.438h4.954V48.568z"/>
</g>
<g id="Normal">
	<g id="Website">
		<path fill="#F7F5F4" d="M557.991,35.052c9.39,0,17.001-7.611,17.001-17c0-9.388-7.611-16.999-17.001-16.999
			s-16.999,7.611-16.999,16.999C540.992,27.441,548.602,35.052,557.991,35.052"/>
		<path fill="#2B2A28" d="M557.992,9.504c2.361,0,4.369,0.833,6.021,2.497s2.479,3.666,2.479,6.003c0,2.361-0.826,4.368-2.479,6.021
			s-3.66,2.479-6.021,2.479c-2.338,0-4.338-0.826-6.002-2.479c-1.666-1.653-2.498-3.66-2.498-6.021c0-2.337,0.832-4.338,2.498-6.003
			C553.654,10.336,555.654,9.504,557.992,9.504L557.992,9.504 M565.252,18.004c0-1.558-0.459-2.969-1.381-4.232
			c-0.92-1.263-2.113-2.143-3.576-2.638c-0.213,0.283-0.307,0.472-0.283,0.566c0.047,0.449,0.152,0.75,0.318,0.903
			c0.166,0.153,0.342,0.195,0.531,0.124l0.566-0.213c0,0,0.119-0.012,0.354-0.035c0.26,0.283,0.26,0.561,0,0.832
			s-0.525,0.602-0.797,0.992s-0.277,0.844-0.018,1.364c0.402,0.755,0.969,1.133,1.701,1.133c0.33,0.023,0.584,0.236,0.762,0.637
			c0.176,0.402,0.277,0.791,0.301,1.169c0.117,0.944,0.035,1.771-0.248,2.479c-0.26,0.52-0.178,0.968,0.248,1.346
			C564.746,21.109,565.252,19.633,565.252,18.004L565.252,18.004 M557,10.85c-1.322,0.166-2.496,0.661-3.523,1.488
			c-1.027,0.826-1.777,1.854-2.248,3.081c0.07,0,0.199,0.012,0.389,0.036c0.189,0.023,0.354,0.041,0.496,0.053
			c0.143,0.012,0.295,0.036,0.461,0.071c0.164,0.036,0.307,0.083,0.424,0.142c0.119,0.059,0.189,0.136,0.213,0.23
			c0.047,0.142-0.035,0.407-0.248,0.797s-0.318,0.75-0.318,1.08c0,0.354,0.225,0.685,0.674,0.992
			c0.447,0.307,0.672,0.579,0.672,0.815c0,0.331,0.047,0.732,0.143,1.204c0.094,0.472,0.141,0.732,0.141,0.779
			c0,0.142,0.213,0.46,0.639,0.957c0.424,0.496,0.73,0.744,0.92,0.744c0.117,0,0.184-0.13,0.195-0.39s0-0.579-0.035-0.956
			c-0.037-0.378-0.055-0.614-0.055-0.708c0-0.378,0.084-0.814,0.248-1.311c0.143-0.496,0.49-0.909,1.045-1.239
			s0.881-0.602,0.975-0.815c0.189-0.401,0.242-0.761,0.16-1.08c-0.084-0.319-0.184-0.572-0.303-0.761
			c-0.117-0.189-0.318-0.354-0.602-0.496s-0.525-0.242-0.727-0.301c-0.199-0.059-0.418-0.112-0.654-0.16
			c-0.236-0.047-0.365-0.071-0.391-0.071c-0.188-0.071-0.436-0.112-0.742-0.124c-0.307-0.012-0.52,0.006-0.639,0.053
			c-0.117,0.047-0.277-0.018-0.479-0.195c-0.199-0.177-0.301-0.348-0.301-0.514c0-0.118,0.09-0.277,0.266-0.478
			c0.178-0.201,0.385-0.419,0.621-0.655c0.236-0.236,0.4-0.413,0.496-0.531c0.094-0.165,0.193-0.289,0.301-0.372
			c0.105-0.083,0.236-0.177,0.389-0.283c0.154-0.106,0.312-0.23,0.479-0.372c0.047-0.047,0.195-0.147,0.443-0.301
			C556.771,11.104,556.93,10.968,557,10.85L557,10.85 M555.727,24.91c0.779,0.236,1.533,0.354,2.266,0.354
			c1.512,0,2.846-0.401,4.002-1.204c-0.307-0.52-1.004-0.72-2.09-0.602c-0.283,0.023-0.666,0.124-1.15,0.301
			c-0.484,0.177-0.762,0.277-0.832,0.301c-0.873,0.189-1.322,0.283-1.346,0.283c-0.143,0.024-0.295,0.106-0.461,0.248
			S555.82,24.839,555.727,24.91L555.727,24.91"/>
	</g>
	<g id="Vimeo">
		<path fill="#F7F5F4" d="M522.205,35.053c9.39,0,17.002-7.612,17.002-17c0-9.388-7.612-16.999-17.002-16.999
			c-9.388,0-17,7.611-17,16.999C505.205,27.441,512.817,35.053,522.205,35.053"/>
		<path fill="#2B2A28" d="M530.7,14.305c-0.074,1.654-1.232,3.915-3.465,6.784c-2.312,3-4.271,4.499-5.873,4.499
			c-0.99,0-1.828-0.912-2.514-2.742c-0.459-1.678-0.916-3.357-1.373-5.032c-0.51-1.831-1.056-2.746-1.64-2.746
			c-0.127,0-0.57,0.267-1.334,0.801l-0.8-1.031c0.838-0.735,1.664-1.473,2.479-2.208c1.116-0.967,1.956-1.474,2.516-1.526
			c1.318-0.128,2.133,0.775,2.439,2.706c0.328,2.085,0.559,3.381,0.686,3.89c0.381,1.728,0.799,2.59,1.258,2.59
			c0.354,0,0.889-0.558,1.6-1.675c0.713-1.119,1.092-1.97,1.145-2.556c0.102-0.965-0.279-1.446-1.145-1.446
			c-0.406,0-0.826,0.086-1.258,0.266c0.84-2.719,2.441-4.041,4.805-3.964C529.978,10.964,530.804,12.096,530.7,14.305z"/>
	</g>
	<g id="YouTube">
		<path fill="#F7F5F4" d="M486.19,35.053c9.388,0,16.999-7.612,16.999-17c0-9.388-7.611-17-16.999-17
			c-9.389,0-17.001,7.611-17.001,17C469.189,27.441,476.801,35.053,486.19,35.053"/>
		<path fill="#2B2A28" d="M489.491,18.061l-5.568,3.271V14.79L489.491,18.061z M494.693,21.093v-6.081c0,0,0-2.931-2.932-2.931
			h-11.146c0,0-2.93,0-2.93,2.931v6.081c0,0,0,2.931,2.93,2.931h11.146C491.761,24.024,494.693,24.024,494.693,21.093"/>
	</g>
	<g id="Twitter">
		<path fill="#F7F5F4" d="M450.182,35.008c9.389,0,17-7.611,17-17c0-9.388-7.611-17-17-17c-9.389,0-17,7.612-17,17
			C433.181,27.397,440.792,35.008,450.182,35.008"/>
		<path fill="#2B2A28" d="M458.703,13.554c-0.627,0.278-1.3,0.466-2.007,0.55c0.722-0.433,1.276-1.117,1.536-1.932
			c-0.675,0.4-1.422,0.69-2.22,0.847c-0.635-0.679-1.544-1.103-2.549-1.103c-1.929,0-3.493,1.564-3.493,3.494
			c0,0.274,0.03,0.54,0.09,0.795c-2.903-0.146-5.477-1.536-7.201-3.651c-0.301,0.518-0.473,1.118-0.473,1.758
			c0,1.21,0.617,2.28,1.554,2.908c-0.572-0.018-1.112-0.176-1.583-0.437v0.043c0,1.694,1.204,3.106,2.803,3.426
			c-0.293,0.082-0.602,0.123-0.921,0.123c-0.225,0-0.445-0.021-0.657-0.062c0.444,1.388,1.734,2.398,3.263,2.424
			c-1.196,0.938-2.702,1.497-4.339,1.497c-0.282,0-0.561-0.016-0.833-0.048c1.546,0.99,3.383,1.568,5.355,1.568
			c6.427,0,9.94-5.322,9.94-9.94c0-0.152-0.003-0.303-0.01-0.452C457.643,14.87,458.236,14.255,458.703,13.554"/>
	</g>
	<g id="Tumblr">
		<path fill="#F7F5F4" d="M414.172,35.052c9.389,0,17-7.611,17-17c0-9.388-7.611-16.999-17-16.999s-17,7.611-17,16.999
			C397.172,27.44,404.784,35.052,414.172,35.052"/>
		<path fill="#2B2A28" d="M414.584,9.549v4.299h4.035v2.669h-4.035v4.361c0,0.987,0.052,1.62,0.156,1.898
			c0.104,0.281,0.298,0.504,0.584,0.672c0.375,0.226,0.805,0.337,1.29,0.337c0.861,0,1.717-0.281,2.569-0.84v2.684
			c-0.728,0.341-1.385,0.582-1.974,0.719c-0.59,0.139-1.227,0.208-1.911,0.208c-0.778,0-1.466-0.099-2.062-0.294
			c-0.597-0.198-1.107-0.477-1.528-0.84c-0.422-0.363-0.716-0.751-0.878-1.16c-0.163-0.409-0.244-1.002-0.244-1.78v-5.965h-1.881
			v-2.406c0.67-0.218,1.241-0.529,1.718-0.934c0.476-0.405,0.859-0.892,1.146-1.461c0.288-0.567,0.487-1.291,0.596-2.167H414.584z"
			/>
	</g>
	<g id="Pinterest">
		<path fill="#F7F5F4" d="M378.155,35.052c9.389,0,17-7.61,17-17c0-9.388-7.611-17-17-17c-9.389,0-17,7.611-17,17
			C361.155,27.442,368.767,35.052,378.155,35.052"/>
		<path fill="#2B2A28" d="M378.156,9.504c-4.696,0-8.504,3.807-8.504,8.504c0,3.482,2.094,6.474,5.091,7.789
			c-0.024-0.593-0.004-1.307,0.147-1.953c0.164-0.69,1.094-4.634,1.094-4.634s-0.271-0.543-0.271-1.345
			c0-1.261,0.731-2.202,1.64-2.202c0.773,0,1.147,0.581,1.147,1.277c0,0.778-0.496,1.94-0.751,3.018
			c-0.213,0.902,0.452,1.638,1.342,1.638c1.611,0,2.696-2.069,2.696-4.521c0-1.863-1.255-3.258-3.538-3.258
			c-2.58,0-4.187,1.923-4.187,4.072c0,0.741,0.218,1.264,0.56,1.668c0.158,0.187,0.179,0.261,0.123,0.475
			c-0.041,0.155-0.134,0.533-0.173,0.682c-0.057,0.215-0.231,0.292-0.425,0.213c-1.188-0.485-1.742-1.786-1.742-3.249
			c0-2.416,2.037-5.313,6.077-5.313c3.247,0,5.384,2.35,5.384,4.872c0,3.336-1.854,5.828-4.589,5.828
			c-0.917,0-1.781-0.496-2.077-1.06c0,0-0.494,1.959-0.599,2.337c-0.18,0.655-0.533,1.311-0.856,1.821
			c0.765,0.226,1.573,0.349,2.41,0.349c4.696,0,8.503-3.808,8.503-8.504C386.659,13.311,382.852,9.504,378.156,9.504"/>
	</g>
	<g id="LinkedIn">
		<path fill="#F7F5F4" d="M342.037,35.008c9.39,0,17-7.612,17-17c0-9.388-7.61-17-17-17c-9.389,0-17,7.611-17,17
			C325.037,27.396,332.648,35.008,342.037,35.008"/>
		<path fill="#2B2A28" d="M337.277,25.121h-3.315V14.512h3.315V25.121z M335.535,13.185h-0.024c-1.2,0-1.978-0.811-1.978-1.838
			c0-1.048,0.801-1.842,2.025-1.842c1.223,0,1.975,0.792,1.999,1.839C337.557,12.371,336.781,13.185,335.535,13.185z
			 M350.541,25.121h-3.759v-5.49c0-1.437-0.587-2.417-1.881-2.417c-0.989,0-1.539,0.662-1.795,1.3
			c-0.096,0.229-0.081,0.547-0.081,0.867v5.741h-3.724c0,0,0.048-9.725,0-10.609h3.724v1.665c0.22-0.728,1.41-1.767,3.31-1.767
			c2.355,0,4.207,1.526,4.207,4.812V25.121z"/>
	</g>
	<g id="Instagram">
		<path fill="#F7F5F4" d="M306.021,35.053c9.389,0,17-7.612,17-17c0-9.388-7.611-17-17-17c-9.39,0-17,7.611-17,17
			C289.021,27.441,296.631,35.053,306.021,35.053"/>
		<path fill="#2B2A28" d="M311.239,9.549h-10.434c-1.812,0-3.287,1.474-3.287,3.287v3.472v6.963c0,1.812,1.475,3.287,3.287,3.287
			h10.434c1.812,0,3.287-1.474,3.287-3.287v-6.963v-3.472C314.526,11.023,313.052,9.549,311.239,9.549z M312.183,11.509l0.376-0.001
			v0.375v2.508l-2.874,0.009l-0.01-2.883L312.183,11.509z M303.596,16.307c0.544-0.754,1.428-1.248,2.427-1.248
			s1.883,0.494,2.427,1.248c0.355,0.492,0.567,1.094,0.567,1.746c0,1.65-1.344,2.993-2.994,2.993s-2.993-1.343-2.993-2.993
			C303.029,17.401,303.241,16.799,303.596,16.307z M312.869,23.27c0,0.899-0.73,1.629-1.63,1.629h-10.434
			c-0.899,0-1.63-0.73-1.63-1.629v-6.963h2.539c-0.22,0.54-0.343,1.128-0.343,1.746c0,2.564,2.086,4.651,4.65,4.651
			s4.65-2.087,4.65-4.651c0-0.617-0.124-1.206-0.343-1.746h2.539V23.27z"/>
	</g>
	<g id="Google_x2B_">
		<path fill="#F7F5F4" d="M270.009,34.962c9.389,0,17-7.611,17-17c0-9.388-7.61-16.999-17-16.999c-9.389,0-17,7.611-17,16.999
			C253.008,27.351,260.62,34.962,270.009,34.962"/>
		<path fill="#2B2A28" d="M267.195,25.58c-2.022,0-3.482-1.279-3.482-2.817c0-1.507,1.812-2.761,3.833-2.739
			c0.472,0.005,0.912,0.081,1.311,0.21c1.097,0.764,1.884,1.194,2.106,2.064c0.042,0.177,0.065,0.357,0.065,0.543
			C271.028,24.379,270.038,25.58,267.195,25.58 M267.726,16.564c-1.356-0.041-2.647-1.518-2.881-3.3
			c-0.234-1.782,0.676-3.146,2.033-3.106c1.356,0.041,2.647,1.47,2.881,3.252S269.083,16.605,267.726,16.564 M270.54,19.204
			c-0.476-0.337-1.386-1.156-1.386-1.638c0-0.565,0.161-0.843,1.011-1.507c0.871-0.681,1.488-1.638,1.488-2.75
			c0-1.325-0.59-2.616-1.698-3.043h1.67l1.179-0.852h-5.268c-2.361,0-4.583,1.789-4.583,3.861c0,2.118,1.61,3.827,4.012,3.827
			c0.167,0,0.329-0.003,0.488-0.015c-0.156,0.298-0.268,0.635-0.268,0.983c0,0.589,0.317,1.066,0.717,1.456
			c-0.303,0-0.595,0.009-0.913,0.009c-2.925,0-5.177,1.862-5.177,3.794c0,1.902,2.468,3.092,5.393,3.092
			c3.334,0,5.177-1.892,5.177-3.794C272.382,21.101,271.932,20.188,270.54,19.204 M278.204,16.72h-2.051v-2.05h-1.65v2.05h-2.05
			v1.65h2.05v2.051h1.65V18.37h2.051V16.72z"/>
	</g>
	<g id="Github">
		<path fill="#F7F5F4" d="M233.992,35.008c9.388,0,17-7.612,17-17c0-9.388-7.612-17-17-17c-9.39,0-17,7.611-17,17
			C216.992,27.396,224.602,35.008,233.992,35.008"/>
		<path fill-rule="evenodd" clip-rule="evenodd" fill="#2B2A28" d="M233.959,9.717c-4.694,0-8.5,3.806-8.5,8.5
			c0,3.755,2.435,6.941,5.813,8.065c0.425,0.078,0.58-0.185,0.58-0.41c0-0.202-0.007-0.736-0.012-1.446
			c-2.364,0.514-2.863-1.14-2.863-1.14c-0.387-0.982-0.944-1.243-0.944-1.243c-0.771-0.527,0.059-0.517,0.059-0.517
			c0.854,0.06,1.303,0.876,1.303,0.876c0.758,1.299,1.989,0.924,2.473,0.706c0.078-0.549,0.298-0.924,0.541-1.136
			c-1.888-0.215-3.872-0.944-3.872-4.201c0-0.928,0.331-1.687,0.874-2.281c-0.087-0.215-0.379-1.08,0.084-2.25
			c0,0,0.713-0.229,2.337,0.871c0.679-0.188,1.405-0.283,2.128-0.286c0.723,0.003,1.449,0.098,2.129,0.286
			c1.623-1.1,2.335-0.871,2.335-0.871c0.464,1.17,0.172,2.034,0.085,2.25c0.544,0.594,0.873,1.353,0.873,2.281
			c0,3.266-1.987,3.984-3.881,4.194c0.306,0.263,0.577,0.781,0.577,1.574c0,1.136-0.011,2.053-0.011,2.332
			c0,0.227,0.153,0.492,0.585,0.409c3.375-1.126,5.808-4.31,5.808-8.064C242.459,13.523,238.653,9.717,233.959,9.717z"/>
	</g>
	<g id="Flickr">
		<path fill="#F7F5F4" d="M198.088,34.999c9.387,0,16.999-7.611,16.999-17C215.087,8.611,207.475,1,198.088,1
			c-9.39,0-17.001,7.611-17.001,16.999C181.087,27.387,188.699,34.999,198.088,34.999"/>
		<g>
			<path fill="#2B2A28" d="M206.591,17.999c0,2.069-1.676,3.747-3.745,3.747c-2.072,0-3.748-1.678-3.748-3.747
				c0-2.068,1.676-3.746,3.748-3.746C204.916,14.253,206.591,15.931,206.591,17.999z"/>
			<path fill="#2B2A28" d="M197.076,17.999c0,2.069-1.676,3.747-3.748,3.747c-2.068,0-3.744-1.678-3.744-3.747
				c0-2.068,1.676-3.746,3.744-3.746C195.4,14.253,197.076,15.931,197.076,17.999z"/>
		</g>
	</g>
	<g id="Facebook">
		<path fill="#F7F5F4" d="M162.07,35c9.389,0,17-7.611,17-17c0-9.388-7.611-17-17-17s-17,7.612-17,17
			C145.07,27.389,152.682,35,162.07,35"/>
		<path fill="#2B2A28" d="M157.505,15.12h1.758v-1.709c0-0.753,0.019-1.916,0.566-2.635c0.577-0.762,1.368-1.28,2.729-1.28
			c2.218,0,3.152,0.316,3.152,0.316l-0.439,2.605c0,0-0.733-0.212-1.417-0.212c-0.684,0-1.296,0.245-1.296,0.929v1.986h2.804
			l-0.196,2.544h-2.608v8.839h-3.296v-8.839h-1.758V15.12z"/>
	</g>
	<g id="Email">
		<path fill="#F7F5F4" d="M126.055,35c9.389,0,17-7.612,17-17c0-9.388-7.611-17-17-17c-9.39,0-17,7.611-17,17
			C109.055,27.388,116.665,35,126.055,35"/>
		<path fill="#2B2A28" d="M134.555,15.628v7.532c0,0.417-0.148,0.775-0.446,1.072c-0.297,0.297-0.655,0.446-1.072,0.446h-13.964
			c-0.417,0-0.774-0.149-1.072-0.446c-0.297-0.297-0.446-0.655-0.446-1.072v-7.532c0.278,0.31,0.598,0.585,0.958,0.825
			c2.29,1.556,3.861,2.647,4.715,3.273c0.36,0.266,0.653,0.473,0.877,0.622c0.225,0.148,0.523,0.3,0.896,0.455
			c0.374,0.155,0.721,0.232,1.043,0.232h0.019c0.323,0,0.67-0.077,1.043-0.232c0.374-0.155,0.672-0.307,0.896-0.455
			c0.225-0.149,0.517-0.356,0.878-0.622c1.075-0.778,2.65-1.869,4.724-3.273C133.966,16.207,134.283,15.932,134.555,15.628z
			 M134.555,12.839c0,0.5-0.155,0.977-0.465,1.433c-0.31,0.455-0.696,0.844-1.157,1.167c-2.378,1.651-3.858,2.679-4.44,3.083
			c-0.063,0.044-0.198,0.141-0.403,0.289c-0.206,0.149-0.376,0.269-0.512,0.36c-0.136,0.092-0.3,0.195-0.493,0.309
			s-0.375,0.199-0.545,0.256c-0.171,0.057-0.329,0.085-0.475,0.085h-0.019c-0.145,0-0.303-0.028-0.474-0.085
			c-0.171-0.057-0.353-0.142-0.545-0.256s-0.357-0.217-0.493-0.309c-0.136-0.091-0.307-0.211-0.512-0.36
			c-0.206-0.148-0.34-0.245-0.403-0.289c-0.576-0.405-1.404-0.982-2.485-1.731c-1.082-0.75-1.73-1.2-1.945-1.352
			c-0.392-0.266-0.762-0.631-1.11-1.096c-0.348-0.465-0.522-0.896-0.522-1.295c0-0.493,0.131-0.904,0.394-1.233
			c0.263-0.329,0.637-0.494,1.124-0.494h13.964c0.411,0,0.767,0.149,1.067,0.446C134.404,12.064,134.555,12.422,134.555,12.839
			L134.555,12.839z"/>
	</g>
	<g id="Dribbble">
		<path fill="#F7F5F4" d="M90.039,35.008c9.389,0,17-7.612,17-17c0-9.388-7.611-17-17-17c-9.39,0-17,7.611-17,17
			C73.039,27.396,80.649,35.008,90.039,35.008"/>
		<path fill-rule="evenodd" clip-rule="evenodd" fill="#2B2A28" d="M98.37,16.296c-0.111-0.546-0.279-1.084-0.496-1.599
			c-0.213-0.504-0.478-0.99-0.784-1.444c-0.304-0.45-0.653-0.874-1.038-1.258c-0.385-0.385-0.808-0.734-1.258-1.038
			c-0.454-0.308-0.94-0.571-1.444-0.785c-0.514-0.216-1.052-0.385-1.599-0.495c-0.56-0.115-1.136-0.174-1.712-0.174
			s-1.152,0.059-1.713,0.174c-0.546,0.11-1.084,0.279-1.598,0.495c-0.504,0.213-0.99,0.477-1.445,0.785
			c-0.45,0.304-0.873,0.653-1.258,1.038c-0.385,0.384-0.733,0.808-1.037,1.258c-0.308,0.454-0.571,0.94-0.784,1.444
			c-0.218,0.514-0.385,1.052-0.496,1.599c-0.115,0.559-0.173,1.135-0.173,1.711c0,0.577,0.058,1.154,0.173,1.713
			c0.111,0.546,0.278,1.084,0.496,1.598c0.213,0.504,0.477,0.991,0.784,1.445c0.304,0.45,0.652,0.873,1.037,1.258
			c0.385,0.384,0.808,0.733,1.258,1.037c0.455,0.307,0.941,0.571,1.445,0.784c0.514,0.218,1.052,0.384,1.598,0.496
			c0.561,0.116,1.137,0.174,1.713,0.174s1.152-0.058,1.712-0.174c0.547-0.112,1.085-0.278,1.599-0.496
			c0.504-0.213,0.99-0.477,1.444-0.784c0.45-0.304,0.873-0.653,1.258-1.037c0.385-0.385,0.734-0.808,1.038-1.258
			c0.307-0.454,0.571-0.941,0.784-1.445c0.217-0.513,0.385-1.052,0.496-1.598c0.114-0.56,0.173-1.136,0.173-1.713
			C98.543,17.431,98.484,16.854,98.37,16.296z M97.299,17.935c-0.104-0.023-2.562-0.552-5.058-0.238
			c-0.052-0.124-0.104-0.249-0.157-0.375c-0.151-0.355-0.313-0.708-0.482-1.054c2.868-1.171,4.032-2.854,4.046-2.875
			C96.666,14.632,97.282,16.212,97.299,17.935z M94.836,12.558c-0.019,0.028-1.053,1.603-3.794,2.629
			c-1.241-2.281-2.605-4.093-2.715-4.237c0.549-0.133,1.122-0.205,1.712-0.205C91.878,10.745,93.556,11.431,94.836,12.558z
			 M88.3,10.956c-0.001,0.001-0.002,0.001-0.002,0.001s-0.008,0.002-0.021,0.005C88.284,10.96,88.292,10.959,88.3,10.956z
			 M86.94,11.439c0.097,0.129,1.439,1.95,2.696,4.185c-3.486,0.927-6.513,0.89-6.705,0.887
			C83.403,14.261,84.915,12.396,86.94,11.439z M82.776,18.007c0-0.078,0.004-0.153,0.006-0.229c0.129,0.002,3.717,0.083,7.456-1.035
			c0.208,0.407,0.407,0.821,0.589,1.234c-0.096,0.027-0.19,0.056-0.285,0.087c-3.92,1.267-5.907,4.793-5.907,4.793
			s0.002,0.002,0.002,0.003C83.48,21.574,82.776,19.873,82.776,18.007z M90.039,25.271c-1.758,0-3.37-0.625-4.626-1.665
			c0.096,0.078,0.162,0.127,0.162,0.127s1.393-3.036,5.699-4.537c0.017-0.006,0.032-0.011,0.049-0.016
			c1.021,2.656,1.443,4.879,1.551,5.515C92.003,25.065,91.045,25.271,90.039,25.271z M94.097,24.031
			c-0.073-0.438-0.461-2.57-1.413-5.188c2.345-0.375,4.376,0.268,4.526,0.317C96.886,21.185,95.728,22.93,94.097,24.031z"/>
	</g>
	<g id="Blogger">
		<path fill="#F7F5F4" d="M54.023,34.955c9.389,0,17-7.612,17-17c0-9.388-7.611-17-17-17c-9.39,0-17,7.611-17,17
			C37.023,27.343,44.633,34.955,54.023,34.955"/>
		<path fill-rule="evenodd" clip-rule="evenodd" fill="#2B2A28" d="M62.444,16.513l-0.141-0.294l-0.238-0.188
			c-0.313-0.246-1.892,0.017-2.321-0.37c-0.3-0.279-0.344-0.778-0.436-1.454c-0.17-1.314-0.278-1.382-0.483-1.825
			c-0.746-1.579-2.761-2.768-4.148-2.931h-3.758c-2.953,0-5.369,2.42-5.369,5.376v6.269c0,2.948,2.416,5.363,5.369,5.363h6.173
			c2.953,0,5.352-2.415,5.37-5.363l0.035-4.344L62.444,16.513z M50.988,13.842h2.977c0.569,0,1.03,0.46,1.03,1.024
			c0,0.562-0.46,1.028-1.03,1.028h-2.977c-0.569,0-1.028-0.467-1.028-1.028C49.96,14.303,50.419,13.842,50.988,13.842z
			 M57.04,22.038h-6.051c-0.569,0-1.028-0.466-1.028-1.024c0-0.562,0.459-1.021,1.028-1.021h6.051c0.564,0,1.023,0.459,1.023,1.021
			C58.063,21.572,57.604,22.038,57.04,22.038z"/>
	</g>
	<g id="Behance">
		<path fill="#F7F5F4" d="M18.008,34.955c9.389,0,17-7.612,17-17c0-9.388-7.611-17-17-17s-17,7.611-17,17
			C1.008,27.343,8.619,34.955,18.008,34.955"/>
		<path fill="#2B2A28" d="M17.308,13.688c0.32,0.447,0.481,0.981,0.481,1.604c0,0.641-0.161,1.157-0.485,1.547
			c-0.183,0.218-0.449,0.418-0.803,0.598c0.536,0.196,0.94,0.505,1.215,0.928c0.272,0.422,0.409,0.936,0.409,1.54
			c0,0.623-0.155,1.182-0.469,1.676c-0.198,0.327-0.446,0.604-0.744,0.827c-0.335,0.257-0.729,0.433-1.187,0.528
			c-0.457,0.095-0.951,0.142-1.485,0.142H9.504V12.567h5.079C15.865,12.586,16.772,12.959,17.308,13.688z M11.6,14.393v2.319h2.556
			c0.455,0,0.826-0.087,1.112-0.261c0.283-0.174,0.427-0.482,0.427-0.922c0-0.491-0.188-0.813-0.564-0.971
			c-0.325-0.109-0.739-0.164-1.242-0.164H11.6z M11.6,18.451v2.803h2.552c0.456,0,0.812-0.062,1.064-0.185
			c0.462-0.23,0.691-0.667,0.691-1.312c0-0.548-0.222-0.923-0.669-1.128c-0.25-0.114-0.601-0.174-1.051-0.178H11.6z M24.479,15.464
			c0.543,0.242,0.99,0.626,1.342,1.15c0.321,0.461,0.527,0.998,0.621,1.606c0.055,0.357,0.077,0.872,0.067,1.543h-5.662
			c0.033,0.78,0.302,1.327,0.813,1.64c0.311,0.195,0.684,0.292,1.121,0.292c0.461,0,0.838-0.119,1.127-0.356
			c0.159-0.128,0.299-0.307,0.419-0.535h2.075c-0.055,0.46-0.307,0.929-0.753,1.406c-0.696,0.755-1.671,1.133-2.924,1.133
			c-1.035,0-1.948-0.318-2.737-0.956c-0.793-0.637-1.187-1.675-1.187-3.111c0-1.348,0.356-2.38,1.069-3.099
			c0.715-0.717,1.641-1.078,2.779-1.078C23.328,15.099,23.938,15.221,24.479,15.464z M21.439,17.219
			c-0.287,0.296-0.468,0.698-0.542,1.203H24.4c-0.037-0.54-0.219-0.948-0.541-1.229c-0.326-0.279-0.728-0.418-1.207-0.418
			C22.132,16.775,21.727,16.923,21.439,17.219z M24.876,13.058h-4.504v1.308h4.504V13.058z"/>
	</g>
</g>
</svg>
