<?xml version="1.0" standalone="no"?>
<!DOCTYPE svg PUBLIC "-//W3C//DTD SVG 1.1//EN" "http://www.w3.org/Graphics/SVG/1.1/DTD/svg11.dtd" >
<svg xmlns="http://www.w3.org/2000/svg">
<metadata></metadata>
<defs>
<font id="industrydemi" horiz-adv-x="1161" >
<font-face units-per-em="2048" ascent="1638" descent="-410" />
<missing-glyph horiz-adv-x="540" />
<glyph unicode="&#xfb01;" horiz-adv-x="1323" d="M55 911v195h185v149q0 126 80 206.5t206 80.5h232v-201h-193q-41 0 -66.5 -26.5t-25.5 -69.5v-139h285v-195h-283v-911h-235v911h-185zM934 1305v237h252v-237h-252zM942 0v1106h236v-1106h-236z" />
<glyph unicode="&#xfb02;" horiz-adv-x="1316" d="M55 911v195h185v149q0 126 80 206.5t206 80.5h232v-201h-193q-41 0 -66.5 -26.5t-25.5 -69.5v-139h285v-195h-283v-911h-235v911h-185zM940 0v1542h234v-1542h-234z" />
<glyph horiz-adv-x="2048" />
<glyph horiz-adv-x="2048" />
<glyph unicode="&#xd;" horiz-adv-x="2048" />
<glyph unicode=" "  horiz-adv-x="540" />
<glyph unicode="&#x09;" horiz-adv-x="540" />
<glyph unicode="&#xa0;" horiz-adv-x="540" />
<glyph unicode="!" horiz-adv-x="579" d="M154 1475h272l-55 -1008h-162zM166 0v264h248v-264h-248z" />
<glyph unicode="&#x22;" horiz-adv-x="880" d="M121 1475h260l-66 -506h-127zM500 1475h260l-68 -506h-125z" />
<glyph unicode="#" horiz-adv-x="1599" d="M76 381v219h272l94 299h-225v219h293l111 357h229l-111 -357h348l111 357h232l-111 -357h205v-219h-273l-94 -299h225v-219h-292l-119 -381h-230l119 381h-348l-119 -381h-229l117 381h-205zM580 600h348l92 299h-348z" />
<glyph unicode="$" horiz-adv-x="1282" d="M133 285v174h240v-137q0 -47 25.5 -75t70.5 -28h82v426l-123 29q-295 66 -295 295v221q0 132 80.5 212.5t212.5 80.5h111v194h200v-194h99q132 0 212 -80.5t80 -212.5v-156h-241v119q0 46 -25 74t-69 28h-70v-405l133 -29q295 -66 295 -295v-241q0 -132 -80.5 -212.5 t-212.5 -80.5h-121v-195h-200v195h-113q-132 0 -211.5 80.5t-79.5 212.5zM379 1008q0 -49 24 -69.5t72 -31.5l76 -18v366h-76q-45 0 -70.5 -28t-25.5 -74v-145zM723 219h86q45 0 70.5 28t25.5 75v165q0 50 -22 69.5t-74 31.5l-86 20v-389z" />
<glyph unicode="%" horiz-adv-x="1284" d="M88 1040v312q0 56 38 93.5t93 37.5h197q56 0 93.5 -37.5t37.5 -93.5v-312q0 -56 -37.5 -93.5t-93.5 -37.5h-197q-55 0 -93 37.5t-38 93.5zM188 0l703 1475h199l-701 -1475h-201zM225 1075q0 -17 10 -28t25 -11h119q31 0 31 39v242q0 39 -31 39h-119q-15 0 -25 -11 t-10 -28v-242zM739 123v311q0 56 37.5 93.5t93.5 37.5h197q55 0 93 -37.5t38 -93.5v-311q0 -55 -38 -93t-93 -38h-197q-56 0 -93.5 38t-37.5 93zM877 158q0 -17 9.5 -28t24.5 -11h119q31 0 31 39v241q0 39 -31 39h-119q-15 0 -24.5 -11t-9.5 -28v-241z" />
<glyph unicode="&#x26;" horiz-adv-x="1347" d="M131 285v250q0 73 39 132t109 89q-132 75 -132 221v213q0 132 80.5 212.5t212.5 80.5h355q132 0 212 -80.5t80 -212.5v-137h-245v104q0 45 -26 71.5t-71 26.5h-256q-45 0 -70.5 -26.5t-25.5 -71.5v-194q0 -53 22.5 -76t78.5 -23h804v-219h-153v-360q0 -132 -80.5 -212.5 t-212.5 -80.5h-428q-132 0 -212.5 80.5t-80.5 212.5zM377 317q0 -45 25.5 -71.5t70.5 -26.5h330q45 0 70.5 26.5t25.5 71.5v328h-405q-59 0 -88 -23t-29 -73v-232z" />
<glyph unicode="'" horiz-adv-x="503" d="M121 1475h260l-66 -506h-127z" />
<glyph unicode="(" horiz-adv-x="770" d="M178 76v1237q0 132 80.5 212.5t212.5 80.5h180v-232h-131q-46 0 -71 -26t-25 -72v-1163q0 -46 25.5 -72.5t70.5 -26.5h131v-231h-180q-132 0 -212.5 80.5t-80.5 212.5z" />
<glyph unicode=")" horiz-adv-x="770" d="M117 14h133q44 0 69 26.5t25 72.5v1163q0 46 -25 72t-69 26h-133v232h182q132 0 211.5 -80.5t79.5 -212.5v-1237q0 -132 -79.5 -212.5t-211.5 -80.5h-182v231z" />
<glyph unicode="*" horiz-adv-x="847" d="M43 1128l59 189l273 -143l-49 301h196l-49 -301l268 141l64 -189l-303 -45l217 -213l-160 -116l-137 274l-133 -272l-162 114l217 215z" />
<glyph unicode="+" horiz-adv-x="1040" d="M121 653v209h295v281h209v-281h295v-209h-295v-280h-209v280h-295z" />
<glyph unicode="," horiz-adv-x="493" d="M76 -266l145 266h-100v266h252v-203q0 -59 -90 -184l-101 -145h-106z" />
<glyph unicode="-" horiz-adv-x="919" d="M113 563v223h694v-223h-694z" />
<glyph unicode="." horiz-adv-x="493" d="M121 0v266h252v-266h-252z" />
<glyph unicode="/" horiz-adv-x="1030" d="M35 -143l725 1761h235l-725 -1761h-235z" />
<glyph unicode="0" horiz-adv-x="1300" d="M139 285v905q0 132 79.5 212.5t211.5 80.5h440q132 0 211.5 -80.5t79.5 -212.5v-905q0 -132 -79.5 -212.5t-211.5 -80.5h-440q-132 0 -211.5 80.5t-79.5 212.5zM385 322q0 -46 25 -72.5t69 -26.5h342q44 0 69 26.5t25 72.5v831q0 46 -25 72t-69 26h-342q-44 0 -69 -26 t-25 -72v-831z" />
<glyph unicode="1" horiz-adv-x="800" d="M90 1122v209l309 144h199v-1475h-246v1219z" />
<glyph unicode="2" horiz-adv-x="1234" d="M125 0v453q0 36 8.5 67t21 54.5t35.5 45.5t44.5 37.5t56 33t61 29t68.5 28.5l356 139q32 13 45 19t30 18t22.5 26.5t5.5 36.5v156q0 50 -27 79t-76 29h-289q-50 0 -77 -27.5t-27 -78.5v-109h-240v152q0 128 83.5 211.5t211.5 83.5h391q129 0 212 -83.5t83 -211.5v-244 q0 -50 -16 -90t-39 -67.5t-66 -54.5t-78.5 -43t-95.5 -40l-354 -139q-66 -27 -82 -41q-22 -21 -22 -59v-179h757v-231h-1003z" />
<glyph unicode="3" horiz-adv-x="1245" d="M109 287v141h245v-102q0 -50 28 -78.5t77 -28.5h311q49 0 76.5 28.5t27.5 78.5v215q0 104 -124 104h-306v219h306q61 0 84.5 23t23.5 84v178q0 50 -27.5 78t-76.5 28h-279q-49 0 -76.5 -28t-27.5 -78v-102h-246v141q0 128 83.5 211.5t211.5 83.5h389q127 0 211 -83.5 t84 -211.5v-211q0 -146 -131 -221q70 -30 108.5 -89t38.5 -132v-248q0 -127 -84 -211t-211 -84h-422q-127 0 -210.5 83.5t-83.5 211.5z" />
<glyph unicode="4" horiz-adv-x="1306" d="M55 506l762 969h223v-936h209v-220h-209v-319h-239v319h-705zM354 539h447v581z" />
<glyph unicode="5" horiz-adv-x="1267" d="M133 287v145h246v-102q0 -51 26.5 -79t75.5 -28h310q49 0 75.5 28t26.5 79v305q0 51 -27.5 78.5t-77.5 27.5h-118q-112 0 -209 -57l-66 -39l-245 74v756h956v-232h-711v-436l66 53q117 103 229 103h158q126 0 208.5 -83.5t82.5 -209.5v-383q0 -128 -83 -211.5t-212 -83.5 h-416q-129 0 -212 83.5t-83 211.5z" />
<glyph unicode="6" horiz-adv-x="1280" d="M139 287v901q0 128 83 211.5t212 83.5h400q127 0 210.5 -83.5t83.5 -211.5v-129h-245v86q0 51 -27.5 78.5t-77.5 27.5h-291q-49 0 -75.5 -27.5t-26.5 -78.5v-377l64 53q34 29 61.5 47.5t74 36t93.5 17.5h172q129 0 212 -83t83 -212v-340q0 -128 -83 -211.5t-212 -83.5 h-416q-129 0 -212 83.5t-83 211.5zM385 330q0 -51 26.5 -79t75.5 -28h310q49 0 75.5 28t26.5 79v266q0 50 -26.5 78t-75.5 28h-138q-113 0 -210 -57l-64 -39v-276z" />
<glyph unicode="7" horiz-adv-x="1165" d="M80 1243v232h1026v-183l-684 -1292h-266l657 1243h-733z" />
<glyph unicode="8" horiz-adv-x="1275" d="M127 287v245q0 73 38.5 132.5t108.5 89.5q-131 75 -131 221v213q0 128 83 211.5t212 83.5h402q128 0 211.5 -83.5t83.5 -211.5v-213q0 -146 -131 -221q70 -30 108.5 -89.5t38.5 -132.5v-245q0 -127 -83.5 -211t-211.5 -84h-434q-129 0 -212 83.5t-83 211.5zM373 326 q0 -50 26.5 -78.5t75.5 -28.5h326q49 0 76.5 28.5t27.5 78.5v213q0 106 -125 106h-284q-123 0 -123 -106v-213zM389 969q0 -60 23.5 -82.5t83.5 -22.5h284q61 0 85 23t24 82v180q0 50 -28 78t-77 28h-292q-49 0 -76 -28t-27 -78v-180z" />
<glyph unicode="9" horiz-adv-x="1280" d="M133 858v330q0 128 83.5 211.5t211.5 83.5h418q128 0 211.5 -83.5t83.5 -211.5v-901q0 -127 -83.5 -211t-211.5 -84h-400q-127 0 -210.5 83.5t-83.5 211.5v129h245v-86q0 -51 27 -79t78 -28h289q51 0 77.5 28t26.5 79v391l-64 -53q-121 -103 -229 -103h-176 q-126 0 -209.5 83.5t-83.5 209.5zM379 893q0 -51 27.5 -79t78.5 -28h136q108 0 210 58l64 39v262q0 51 -26.5 78.5t-77.5 27.5h-308q-50 0 -77 -27.5t-27 -78.5v-252z" />
<glyph unicode=":" horiz-adv-x="493" d="M121 0v266h252v-266h-252zM121 840v266h252v-266h-252z" />
<glyph unicode=";" horiz-adv-x="493" d="M76 -266l145 266h-100v266h252v-203q0 -59 -90 -184l-101 -145h-106zM121 840v266h252v-266h-252z" />
<glyph unicode="&#x3c;" horiz-adv-x="1040" d="M113 645v197l790 360v-213l-569 -246l569 -243v-213z" />
<glyph unicode="=" horiz-adv-x="1040" d="M121 457v219h799v-219h-799zM121 856v219h799v-219h-799z" />
<glyph unicode="&#x3e;" horiz-adv-x="1040" d="M137 287v213l570 243l-570 246v213l791 -360v-197z" />
<glyph unicode="?" horiz-adv-x="1150" d="M43 1032v158q0 132 80.5 212.5t212.5 80.5h442q132 0 211.5 -80.5t79.5 -212.5v-215q0 -38 -14 -72t-35.5 -60t-57.5 -52.5t-69 -46.5t-81 -47q-23 -12 -34 -19l-73 -41q-65 -37 -80 -54q-15 -18 -15 -38v-125h-245v164q0 37 15 70.5t35.5 58t59 53t68.5 46.5t81 47 q23 13 35 20l70 43q60 33 75 48q19 22 19 50v133q0 46 -25 72t-69 26h-344q-46 0 -71 -26t-25 -72v-121h-246zM365 0v270h245v-270h-245z" />
<glyph unicode="@" horiz-adv-x="1970" d="M174 -43v1233q0 132 80.5 212.5t212.5 80.5h1036q132 0 211.5 -80.5t79.5 -212.5v-782q0 -132 -79.5 -212.5t-211.5 -80.5h-299l-41 147l-86 -74q-88 -82 -192 -82h-54q-132 0 -211 80.5t-79 212.5v344q0 132 79 212.5t211 80.5h54q104 0 192 -82l86 -73l41 147h191v-778 h108q117 0 117 158v798q0 115 -109 115h-1052q-109 0 -109 -115v-1265q0 -115 109 -115h1048v-162h-1040q-132 0 -212.5 80.5t-80.5 212.5zM772 403q0 -50 25.5 -77t74.5 -27h43q90 0 168 47l80 51v348l-80 52q-78 47 -168 47h-43q-49 0 -74.5 -27.5t-25.5 -77.5v-336z" />
<glyph unicode="A" horiz-adv-x="1353" d="M43 0l492 1475h284l494 -1475h-266l-111 365h-524l-115 -365h-254zM483 596h381l-188 610z" />
<glyph unicode="B" horiz-adv-x="1333" d="M174 0v1475h725q132 0 211.5 -80.5t79.5 -212.5v-207q0 -146 -131 -221q70 -30 108.5 -89.5t38.5 -132.5v-239q0 -132 -79.5 -212.5t-211.5 -80.5h-741zM420 227h446q44 0 69.5 27t25.5 72v225q0 52 -28.5 73t-92.5 21h-420v-418zM420 864h426q58 0 78 20t20 77v188 q0 45 -25 71.5t-69 26.5h-430v-383z" />
<glyph unicode="C" horiz-adv-x="1282" d="M139 285v905q0 132 79.5 212.5t211.5 80.5h449q132 0 212 -80.5t80 -212.5v-209h-245v172q0 46 -25.5 72t-71.5 26h-350q-44 0 -69 -26t-25 -72v-831q0 -46 25 -72.5t69 -26.5h350q46 0 71.5 26.5t25.5 72.5v172h245v-209q0 -132 -80 -212.5t-212 -80.5h-449 q-132 0 -211.5 80.5t-79.5 212.5z" />
<glyph unicode="D" horiz-adv-x="1351" d="M174 0v1475h748q132 0 211 -80.5t79 -212.5v-889q0 -132 -79 -212.5t-211 -80.5h-748zM420 231h452q44 0 69.5 26.5t25.5 72.5v815q0 46 -25.5 72t-69.5 26h-452v-1012z" />
<glyph unicode="E" horiz-adv-x="1222" d="M174 0v1475h944v-232h-698v-375h575v-229h-575v-408h698v-231h-944z" />
<glyph unicode="F" horiz-adv-x="1185" d="M174 0v1475h944v-232h-698v-387h575v-231h-575v-625h-246z" />
<glyph unicode="G" horiz-adv-x="1320" d="M139 285v905q0 132 79.5 212.5t211.5 80.5h465q132 0 212.5 -80.5t80.5 -212.5v-172h-246v135q0 46 -25 72t-71 26h-367q-44 0 -69 -26t-25 -72v-834q0 -44 25 -70t69 -26h367q45 0 70.5 26.5t25.5 72.5v258h-305v223h551v-518q0 -132 -80.5 -212.5t-212.5 -80.5h-465 q-132 0 -211.5 80.5t-79.5 212.5z" />
<glyph unicode="H" horiz-adv-x="1421" d="M174 0v1475h246v-607h581v607h246v-1475h-246v639h-581v-639h-246z" />
<glyph unicode="I" horiz-adv-x="591" d="M174 0v1475h246v-1475h-246z" />
<glyph unicode="J" horiz-adv-x="1206" d="M68 285v290h245v-253q0 -46 25.5 -72.5t69.5 -26.5h307q44 0 69 26.5t25 72.5v1153h246v-1190q0 -132 -79.5 -212.5t-211.5 -80.5h-406q-132 0 -211 80.5t-79 212.5z" />
<glyph unicode="K" horiz-adv-x="1363" d="M174 0v1475h242v-756l585 756h293l-475 -590l504 -885h-279l-389 684l-239 -299v-385h-242z" />
<glyph unicode="L" horiz-adv-x="1136" d="M174 0v1475h246v-1244h647v-231h-893z" />
<glyph unicode="M" horiz-adv-x="1728" d="M174 0v1475h275l413 -932l416 932h276v-1475h-231v1077l-367 -841h-186l-364 841v-1077h-232z" />
<glyph unicode="N" horiz-adv-x="1456" d="M174 0v1475h270l611 -1098v1098h229v-1475h-270l-611 1100v-1100h-229z" />
<glyph unicode="O" horiz-adv-x="1335" d="M139 285v905q0 132 79.5 212.5t211.5 80.5h475q132 0 212.5 -80.5t80.5 -212.5v-905q0 -132 -80.5 -212.5t-212.5 -80.5h-475q-132 0 -211.5 80.5t-79.5 212.5zM385 322q0 -46 25 -72.5t69 -26.5h377q45 0 70.5 26.5t25.5 72.5v831q0 46 -25 72t-71 26h-377 q-44 0 -69 -26t-25 -72v-831z" />
<glyph unicode="P" horiz-adv-x="1286" d="M174 0v1475h733q132 0 211.5 -80.5t79.5 -212.5v-351q0 -132 -79.5 -212t-211.5 -80h-487v-539h-246zM420 770h438q44 0 69 26t25 72v277q0 46 -25 72t-69 26h-438v-473z" />
<glyph unicode="Q" horiz-adv-x="1341" d="M139 285v905q0 132 79.5 212.5t211.5 80.5h481q132 0 211.5 -80.5t79.5 -212.5v-905q0 -118 -64 -196t-173 -93l75 -195h-198l-76 191h-336q-132 0 -211.5 80.5t-79.5 212.5zM385 322q0 -46 25 -72.5t69 -26.5h197l-94 244h198l94 -244q40 4 61 30t21 69v831q0 46 -25 72 t-69 26h-383q-44 0 -69 -26t-25 -72v-831z" />
<glyph unicode="R" horiz-adv-x="1335" d="M174 0v1475h731q132 0 211.5 -80.5t79.5 -212.5v-322q0 -115 -60 -190.5t-163 -94.5l268 -575h-264l-266 569h-291v-569h-246zM420 797h436q44 0 69 26t25 72v250q0 46 -25 72t-69 26h-436v-446z" />
<glyph unicode="S" horiz-adv-x="1282" d="M133 285v174h240v-137q0 -47 25.5 -75t70.5 -28h340q45 0 70.5 28t25.5 75v163q0 50 -22.5 70.5t-73.5 32.5l-381 84q-295 69 -295 295v223q0 132 80.5 212.5t212.5 80.5h410q132 0 212 -80.5t80 -212.5v-156h-241v119q0 46 -25 74t-69 28h-318q-45 0 -70.5 -28 t-25.5 -74v-145q0 -49 24 -69.5t72 -31.5l381 -86q295 -66 295 -295v-241q0 -132 -80.5 -212.5t-212.5 -80.5h-434q-132 0 -211.5 80.5t-79.5 212.5z" />
<glyph unicode="T" horiz-adv-x="1165" d="M55 1247v228h1053v-228h-403v-1247h-246v1247h-404z" />
<glyph unicode="U" horiz-adv-x="1337" d="M152 285v1190h245v-1153q0 -46 25.5 -72.5t69.5 -26.5h354q45 0 70.5 26.5t25.5 72.5v1153h246v-1190q0 -132 -80.5 -212.5t-212.5 -80.5h-453q-132 0 -211 80.5t-79 212.5z" />
<glyph unicode="V" horiz-adv-x="1302" d="M45 1475h277l329 -1184l338 1184h268l-462 -1475h-287z" />
<glyph unicode="W" horiz-adv-x="1857" d="M45 1475h262l242 -1143l285 1143h200l283 -1143l242 1143h253l-378 -1475h-238l-262 1057l-264 -1057h-246z" />
<glyph unicode="X" horiz-adv-x="1282" d="M39 0l455 754l-443 721h287l315 -512l310 512h268l-443 -734l455 -741h-285l-329 535l-324 -535h-266z" />
<glyph unicode="Y" horiz-adv-x="1230" d="M18 1475h273l323 -678l326 678h270l-473 -953v-522h-245v522z" />
<glyph unicode="Z" horiz-adv-x="1222" d="M102 0v186l711 1061h-674v228h981v-187l-708 -1061h704v-227h-1014z" />
<glyph unicode="[" horiz-adv-x="761" d="M178 -217v1823h465v-232h-219v-1360h219v-231h-465z" />
<glyph unicode="\" horiz-adv-x="1030" d="M35 1618h235l725 -1761h-235z" />
<glyph unicode="]" horiz-adv-x="761" d="M117 14h219v1360h-219v232h465v-1823h-465v231z" />
<glyph unicode="^" horiz-adv-x="1318" d="M150 717l380 758h258l381 -758h-243l-267 530l-266 -530h-243z" />
<glyph unicode="_" horiz-adv-x="1165" d="M12 -90h1141v-211h-1141v211z" />
<glyph unicode="`" horiz-adv-x="978" d="M256 1905h285l184 -295h-176z" />
<glyph unicode="a" horiz-adv-x="1116" d="M88 279v104q0 132 77.5 209.5t209.5 77.5h51q149 0 326 -37v184q0 43 -24.5 69.5t-65.5 26.5h-209q-42 0 -67.5 -26.5t-25.5 -69.5v-35h-235v39q0 126 83.5 209.5t209.5 83.5h276q126 0 209.5 -83.5t83.5 -209.5v-821h-235v145l-64 -53q-36 -31 -59.5 -48t-69 -34.5 t-92.5 -17.5h-92q-126 0 -206.5 80.5t-80.5 206.5zM324 301q0 -45 25 -71.5t69 -26.5h67q106 0 203 57l64 39v203h-336q-42 0 -67 -27t-25 -69v-105z" />
<glyph unicode="b" d="M141 0v1542h236v-581l63 53q118 100 230 100h94q126 0 206.5 -80.5t80.5 -206.5v-548q0 -126 -80.5 -206.5t-206.5 -80.5h-94q-112 0 -230 100l-63 53v-145h-236zM377 299l63 -39q100 -57 211 -57h72q43 0 68.5 27t25.5 71v504q0 44 -25.5 71t-68.5 27h-72 q-111 0 -211 -57l-63 -39v-508z" />
<glyph unicode="c" horiz-adv-x="1089" d="M109 279v548q0 126 80 206.5t206 80.5h312q126 0 206 -80.5t80 -206.5v-106h-233v96q0 41 -25.5 67.5t-66.5 26.5h-232q-42 0 -67 -26t-25 -68v-528q0 -42 25 -68t67 -26h232q41 0 66.5 26.5t25.5 67.5v96h233v-106q0 -126 -80 -206.5t-206 -80.5h-312q-126 0 -206 80.5 t-80 206.5z" />
<glyph unicode="d" d="M109 279v548q0 126 80 206.5t206 80.5h94q117 0 230 -100l65 -53v581h234v-1542h-234v145l-65 -53q-113 -100 -230 -100h-94q-126 0 -206 80.5t-80 206.5zM344 301q0 -45 25 -71.5t69 -26.5h72q112 0 209 57l65 39v508l-65 39q-97 57 -209 57h-72q-44 0 -69 -26.5 t-25 -71.5v-504z" />
<glyph unicode="e" horiz-adv-x="1103" d="M109 279v548q0 126 80 206.5t206 80.5h320q126 0 206 -80.5t80 -206.5v-342h-657v-200q0 -42 25 -68.5t67 -26.5h238q42 0 67 26.5t25 68.5v65h235v-71q0 -126 -80 -206.5t-206 -80.5h-320q-126 0 -206 80.5t-80 206.5zM344 655h422v166q0 42 -25 68t-67 26h-238 q-42 0 -67 -26t-25 -68v-166z" />
<glyph unicode="f" horiz-adv-x="796" d="M55 911v195h185v149q0 126 80 206.5t206 80.5h232v-201h-193q-41 0 -66.5 -26.5t-25.5 -69.5v-139h285v-195h-283v-911h-235v911h-185z" />
<glyph unicode="g" d="M109 350v477q0 126 80 206.5t206 80.5h94q117 0 230 -100l65 -53v145h234v-1221q0 -126 -80.5 -206t-206.5 -80h-301q-126 0 -206.5 80t-80.5 206v47h228v-38q0 -50 26.5 -78.5t75.5 -28.5h209q49 0 75.5 28.5t26.5 78.5v323l-65 -53q-114 -101 -230 -101h-94 q-126 0 -206 80.5t-80 206.5zM344 371q0 -44 25.5 -71.5t68.5 -27.5h72q111 0 209 60l65 37v438l-65 39q-97 57 -209 57h-72q-44 0 -69 -26.5t-25 -71.5v-434z" />
<glyph unicode="h" d="M141 0v1542h236v-581l63 53q118 100 230 100h75q126 0 206.5 -80.5t80.5 -206.5v-827h-235v805q0 45 -25.5 71.5t-69.5 26.5h-51q-111 0 -211 -57l-63 -39v-807h-236z" />
<glyph unicode="i" horiz-adv-x="526" d="M137 1305v237h252v-237h-252zM145 0v1106h236v-1106h-236z" />
<glyph unicode="j" horiz-adv-x="534" d="M-74 -203h135q41 0 67 26.5t26 67.5v1215h233v-1227q0 -126 -80.5 -206.5t-206.5 -80.5h-174v205zM143 1305v237h254v-237h-254z" />
<glyph unicode="k" horiz-adv-x="1136" d="M141 0v1475h234v-910l418 541h288l-370 -432l395 -674l-254 -2l-291 502l-186 -219v-281h-234z" />
<glyph unicode="l" horiz-adv-x="520" d="M143 0v1542h234v-1542h-234z" />
<glyph unicode="m" horiz-adv-x="1740" d="M141 0v1106h236v-145l63 53q118 100 230 100h41q95 0 166 -47t100 -127l86 74q118 100 229 100h41q126 0 206.5 -80.5t80.5 -206.5v-827h-236v805q0 45 -25 71.5t-69 26.5h-18q-114 0 -209 -57l-66 -39v-807h-233v805q0 44 -25.5 71t-68.5 27h-19q-111 0 -211 -57 l-63 -39v-807h-236z" />
<glyph unicode="n" d="M141 0v1106h236v-145l63 53q118 100 230 100h75q126 0 206.5 -80.5t80.5 -206.5v-827h-235v805q0 45 -25.5 71.5t-69.5 26.5h-51q-111 0 -211 -57l-63 -39v-807h-236z" />
<glyph unicode="o" horiz-adv-x="1124" d="M109 279v548q0 126 80 206.5t206 80.5h334q126 0 206.5 -80.5t80.5 -206.5v-548q0 -126 -80.5 -206.5t-206.5 -80.5h-334q-126 0 -206 80.5t-80 206.5zM344 289q0 -43 25 -69.5t67 -26.5h252q42 0 67 26.5t25 69.5v528q0 43 -25 69.5t-67 26.5h-252q-42 0 -67 -26.5 t-25 -69.5v-528z" />
<glyph unicode="p" d="M141 -393v1499h236v-145l63 53q118 100 230 100h94q126 0 206.5 -80.5t80.5 -206.5v-548q0 -126 -80.5 -206.5t-206.5 -80.5h-94q-112 0 -230 100l-63 53v-538h-236zM377 299l63 -39q100 -57 211 -57h72q43 0 68.5 27t25.5 71v504q0 44 -25.5 71t-68.5 27h-72 q-111 0 -211 -57l-63 -39v-508z" />
<glyph unicode="q" d="M109 279v548q0 126 80 206.5t206 80.5h94q117 0 230 -100l65 -53v145h234v-1499h-234v538l-65 -53q-113 -100 -230 -100h-94q-126 0 -206 80.5t-80 206.5zM344 301q0 -45 25 -71.5t69 -26.5h72q112 0 209 57l65 39v508l-65 39q-97 57 -209 57h-72q-44 0 -69 -26.5 t-25 -71.5v-504z" />
<glyph unicode="r" horiz-adv-x="843" d="M141 0v1106h236v-145l63 53q118 100 230 100h123v-217h-142q-112 0 -211 -59l-63 -37v-801h-236z" />
<glyph unicode="s" horiz-adv-x="1071" d="M94 272v80h234v-67q0 -43 22.5 -67.5t63.5 -24.5h243q42 0 64 24.5t22 67.5v77q0 37 -21 55.5t-63 24.5l-311 52q-122 20 -180.5 78.5t-58.5 158.5v103q0 124 77.5 202t202.5 78h283q123 0 200.5 -78t77.5 -202v-62h-233v57q0 44 -22 68.5t-64 24.5h-201q-42 0 -64 -24.5 t-22 -68.5v-63q0 -37 20 -54.5t62 -23.5l311 -51q123 -20 181.5 -79t58.5 -159v-127q0 -124 -78 -202t-201 -78h-323q-125 0 -203 78t-78 202z" />
<glyph unicode="t" horiz-adv-x="860" d="M49 911v195h184v369h228v-369h327v-195h-323v-612q0 -42 25 -69t67 -27h231v-203h-272q-126 0 -206.5 80.5t-80.5 206.5v624h-180z" />
<glyph unicode="u" d="M129 279v827h236v-805q0 -45 25 -71.5t69 -26.5h51q114 0 211 57l63 39v807h236v-1106h-236v145l-63 -53q-118 -100 -229 -100h-76q-126 0 -206.5 80.5t-80.5 206.5z" />
<glyph unicode="v" horiz-adv-x="1052" d="M35 1106h252l245 -901l248 901h238l-359 -1106h-266z" />
<glyph unicode="w" horiz-adv-x="1579" d="M35 1106h244l215 -877l198 877h211l199 -877l217 877h227l-325 -1106h-242l-182 768l-183 -768h-241z" />
<glyph unicode="x" horiz-adv-x="1056" d="M33 0l358 567l-354 539h258l240 -365l231 365h246l-353 -555l365 -551h-260l-248 377l-240 -377h-243z" />
<glyph unicode="y" horiz-adv-x="1067" d="M35 1106h233l260 -811l277 811h227l-516 -1499h-221l133 393z" />
<glyph unicode="z" horiz-adv-x="968" d="M72 0v162l528 741h-508v203h797v-160l-529 -743h535v-203h-823z" />
<glyph unicode="{" horiz-adv-x="886" d="M96 598v211h105q94 0 94 98v406q0 132 80.5 212.5t212.5 80.5h180v-232h-131q-46 0 -71 -26t-25 -72v-375q0 -131 -123 -199q123 -72 123 -198v-391q0 -46 25.5 -72.5t70.5 -26.5h131v-231h-180q-132 0 -212.5 80.5t-80.5 212.5v424q0 98 -94 98h-105z" />
<glyph unicode="|" horiz-adv-x="686" d="M233 -442v2054h220v-2054h-220z" />
<glyph unicode="}" horiz-adv-x="886" d="M117 14h133q44 0 69 26.5t25 72.5v391q0 126 123 198q-121 69 -121 199v375q0 46 -26 72t-70 26h-133v232h182q132 0 211.5 -80.5t79.5 -212.5v-406q0 -98 96 -98h102v-211h-102q-96 0 -96 -98v-424q0 -132 -79.5 -212.5t-211.5 -80.5h-182v231z" />
<glyph unicode="~" horiz-adv-x="1040" d="M147 537l72 202q30 86 125 64l363 -86l43 100h143l-76 -205q-30 -83 -123 -61l-364 90l-43 -104h-140z" />
<glyph unicode="&#xa1;" horiz-adv-x="579" d="M154 -369l55 1008h162l55 -1008h-272zM166 842v264h248v-264h-248z" />
<glyph unicode="&#xa2;" horiz-adv-x="1173" d="M125 492v503q0 132 80.5 212.5t212.5 80.5h76v187h200v-187h66q132 0 212.5 -80.5t80.5 -212.5v-108h-226v86q0 46 -25.5 74t-70.5 28h-53v-663h53q45 0 70.5 28t25.5 74v86h226v-108q0 -132 -80.5 -212.5t-212.5 -80.5h-66v-199h-200v199h-76q-132 0 -212.5 80.5 t-80.5 212.5zM350 514q0 -46 27 -74t72 -28h59v663h-59q-45 0 -72 -28t-27 -74v-459z" />
<glyph unicode="&#xa3;" horiz-adv-x="1282" d="M59 0v231h107q29 0 45 16.5t16 45.5v307h-168v225h168v363q0 138 78.5 216.5t216.5 78.5h342q138 0 216.5 -78.5t78.5 -216.5v-178h-246v143q0 46 -25 72t-69 26h-250q-46 0 -71 -26t-25 -72v-328h344v-225h-344v-369h694v-231h-1108z" />
<glyph unicode="&#xa4;" horiz-adv-x="1234" d="M57 303l166 166q-22 58 -22 123v323q0 61 20 119l-164 164l148 148l162 -162q62 20 125 20h251q63 0 125 -20l162 162l148 -148l-164 -164q20 -58 20 -119v-323q0 -65 -22 -123l166 -166l-148 -147l-168 168q-52 -21 -119 -21h-251q-66 0 -119 21l-168 -168zM416 604 q0 -46 25.5 -74t70.5 -28h211q45 0 70.5 28t25.5 74v299q0 47 -25.5 75t-70.5 28h-211q-45 0 -70.5 -28t-25.5 -75v-299z" />
<glyph unicode="&#xa5;" horiz-adv-x="1230" d="M18 1475h273l323 -672l326 672h270l-391 -783h244v-137h-311l-15 -27v-75h326v-138h-326v-315h-245v315h-324v138h324v75l-13 27h-311v137h242z" />
<glyph unicode="&#xa6;" horiz-adv-x="686" d="M233 369h220v-811h-220v811zM233 801v811h220v-811h-220z" />
<glyph unicode="&#xa7;" horiz-adv-x="1097" d="M104 88v80h230v-59q0 -43 24 -69t66 -26h238q41 0 63.5 26t22.5 69v86q0 68 -86 81l-306 50q-103 18 -170 81.5t-67 155.5v160q0 117 92 201q-78 74 -78 151v127q0 124 78.5 202.5t202.5 78.5h272q124 0 202.5 -78.5t78.5 -202.5v-57h-230v45q0 43 -23.5 68.5t-64.5 25.5 h-196q-42 0 -65 -25.5t-23 -68.5v-78q0 -73 86 -86l307 -49q102 -18 168.5 -82t66.5 -156v-170q0 -108 -86 -194q72 -72 72 -148v-139q0 -124 -78.5 -202.5t-202.5 -78.5h-313q-125 0 -203 78.5t-78 202.5zM350 600q0 -73 86 -86l256 -41q33 1 51.5 28.5t18.5 65.5v140 q0 68 -86 81l-258 43q-32 -3 -50 -30t-18 -66v-135z" />
<glyph unicode="&#xa8;" horiz-adv-x="1310" d="M350 1618v237h219v-237h-219zM741 1618v237h220v-237h-220z" />
<glyph unicode="&#xa9;" horiz-adv-x="1734" d="M174 285v905q0 132 80.5 212.5t212.5 80.5h801q132 0 212.5 -80.5t80.5 -212.5v-905q0 -132 -80.5 -212.5t-212.5 -80.5h-801q-132 0 -212.5 80.5t-80.5 212.5zM336 285q0 -66 34 -105t97 -39h801q63 0 97 39t34 105v905q0 66 -34 104.5t-97 38.5h-801q-63 0 -97 -38.5 t-34 -104.5v-905zM524 489v496q0 101 57 158t158 57h258q100 0 156.5 -57t56.5 -158v-123h-184v96q0 68 -63 68h-191q-61 0 -61 -68v-442q0 -67 61 -67h191q63 0 63 67v96h184v-123q0 -101 -56.5 -158t-156.5 -57h-258q-101 0 -158 57t-57 158z" />
<glyph unicode="&#xaa;" horiz-adv-x="786" d="M98 936v70q0 86 50 135t137 49h30q110 0 215 -25v105q0 31 -17 49t-46 18h-125q-31 0 -48.5 -18t-17.5 -49v-13h-155v31q0 83 54 137t134 54h189q82 0 136 -54t54 -137v-532h-158v98l-53 -51q-58 -53 -125 -53h-67q-81 0 -134 53t-53 133zM115 498v139h573v-139h-573z M256 954q0 -27 15 -43t44 -16h52q58 0 118 31l47 26v125h-219q-57 0 -57 -59v-64z" />
<glyph unicode="&#xab;" horiz-adv-x="1011" d="M39 670v98l262 377h246l-297 -426l297 -424h-246zM449 670v98l262 377h245l-297 -426l297 -424h-245z" />
<glyph unicode="&#xad;" horiz-adv-x="919" d="M113 563v223h694v-223h-694z" />
<glyph unicode="&#xae;" horiz-adv-x="839" d="M109 854v498q0 54 38.5 92.5t92.5 38.5h348q62 0 102.5 -38t40.5 -93v-498q0 -54 -38.5 -92.5t-92.5 -38.5h-360q-54 0 -92.5 38.5t-38.5 92.5zM176 854q0 -23 15.5 -43t48.5 -20h360q33 0 48.5 20t15.5 43v498q0 24 -17.5 43.5t-58.5 19.5h-348q-33 0 -48.5 -20 t-15.5 -43v-498zM266 881v446h221q41 0 64.5 -23.5t23.5 -64.5v-92q0 -38 -20 -62.5t-53 -27.5l82 -176h-76l-82 178h-88v-178h-72zM338 1124h143q25 0 25 25v84q0 27 -25 27h-143v-136z" />
<glyph unicode="&#xaf;" horiz-adv-x="1243" d="M334 1630v195h553v-195h-553z" />
<glyph unicode="&#xb0;" horiz-adv-x="665" d="M125 1145v229q0 44 30 74.5t74 30.5h207q44 0 74.5 -30.5t30.5 -74.5v-229q0 -44 -30.5 -74.5t-74.5 -30.5h-207q-44 0 -74 30.5t-30 74.5zM238 1165q0 -11 7 -17.5t17 -6.5h141q11 0 18 7t7 17v189q0 10 -7 17t-18 7h-141q-10 0 -17 -7t-7 -17v-189z" />
<glyph unicode="&#xb1;" horiz-adv-x="1040" d="M121 193v204h799v-204h-799zM121 788v207h295v281h209v-281h295v-207h-295v-282h-209v282h-295z" />
<glyph unicode="&#xb2;" horiz-adv-x="718" d="M66 913v275q0 59 46 95.5t124 59.5l206 64q28 5 39 12.5t11 26.5v59q0 39 -50 39h-153q-51 0 -51 -39v-45h-162v86q0 65 49.5 111.5t120.5 46.5h243q71 0 120.5 -46.5t49.5 -111.5v-141q0 -105 -170 -156l-206 -63q-28 -5 -39 -12.5t-11 -26.5v-74h431v-160h-598z" />
<glyph unicode="&#xb3;" horiz-adv-x="720" d="M55 1067v86h168v-49q0 -39 49 -39h162q51 0 51 39v98q0 39 -59 39h-166v148h166q27 0 38 8.5t11 32.5v79q0 39 -49 39h-143q-52 0 -52 -39v-49h-168v86q0 65 50.5 111.5t122.5 46.5h235q72 0 122 -46.5t50 -111.5v-114q0 -74 -74 -117q84 -43 84 -117v-131 q0 -65 -50 -111.5t-122 -46.5h-256q-70 0 -120 46.5t-50 111.5z" />
<glyph unicode="&#xb4;" horiz-adv-x="974" d="M252 1610l184 295h285l-291 -295h-178z" />
<glyph unicode="&#xb6;" horiz-adv-x="1628" d="M111 840v342q0 132 80 212.5t212 80.5h1051v-1475h-246v1243h-168v-1243h-245v547h-392q-132 0 -212 80.5t-80 212.5z" />
<glyph unicode="&#xb7;" horiz-adv-x="499" d="M125 547v266h250v-266h-250z" />
<glyph unicode="&#xb8;" horiz-adv-x="1157" d="M346 -313h283q19 0 24.5 8.5t5.5 30.5v20q0 22 -5.5 30.5t-24.5 8.5h-240l103 215h139l-51 -102h59q79 0 125.5 -39t46.5 -113v-20q0 -74 -46.5 -113t-125.5 -39h-190z" />
<glyph unicode="&#xb9;" horiz-adv-x="477" d="M45 1479v139l193 84h133v-787h-168v613z" />
<glyph unicode="&#xba;" horiz-adv-x="788" d="M98 936v356q0 80 54 133.5t135 53.5h215q81 0 134.5 -53.5t53.5 -133.5v-356q0 -82 -53 -134t-135 -52h-215q-82 0 -135.5 52.5t-53.5 133.5zM115 498v139h559v-139h-559zM256 952q0 -28 14.5 -43.5t40.5 -15.5h164q25 0 41 16t16 43v320q0 30 -15.5 46.5t-41.5 16.5 h-164q-55 0 -55 -63v-320z" />
<glyph unicode="&#xbb;" horiz-adv-x="1011" d="M45 295l297 424l-297 426h246l262 -377v-98l-262 -375h-246zM453 295l297 424l-297 426h245l263 -377v-98l-263 -375h-245z" />
<glyph unicode="&#xbc;" horiz-adv-x="1546" d="M45 1253v140l193 84h133v-787h-168v613zM170 0l823 1475h176l-823 -1475h-176zM782 279l451 507h145v-485h121v-149h-121v-152h-166v152h-395zM989 301h223v236z" />
<glyph unicode="&#xbd;" horiz-adv-x="1583" d="M45 1253v140l193 84h133v-787h-168v613zM170 0l823 1475h176l-823 -1475h-176zM928 0v274q0 106 172 156l205 64q28 5 38.5 12t10.5 26v60q0 39 -49 39h-154q-49 0 -49 -39v-45h-164v86q0 65 50 111.5t122 46.5h242q72 0 122 -46.5t50 -111.5v-141q0 -106 -172 -156 l-207 -64q-26 -5 -36.5 -12.5t-10.5 -26.5v-73h428v-160h-598z" />
<glyph unicode="&#xbe;" horiz-adv-x="1789" d="M55 842v86h168v-49q0 -39 49 -39h162q51 0 51 39v98q0 39 -59 39h-166v147h166q27 0 38 8.5t11 32.5v80q0 39 -49 39h-143q-52 0 -52 -39v-49h-168v86q0 65 50.5 111.5t122.5 46.5h235q72 0 122 -46.5t50 -111.5v-115q0 -73 -74 -116q84 -43 84 -117v-131 q0 -65 -50 -111.5t-122 -46.5h-256q-70 0 -120 46.5t-50 111.5zM414 0l823 1475h176l-823 -1475h-176zM1026 279l451 507h145v-485h121v-149h-121v-152h-166v152h-395zM1233 301h223v236z" />
<glyph unicode="&#xbf;" horiz-adv-x="1150" d="M80 -84v215q0 28 8 54t18 45.5t33 42t38.5 36t50.5 35.5t52.5 32t60.5 34q7 4 11 6t10 5.5t11 6.5l71 41q66 36 82 55q15 17 15 37v125h245v-164q0 -37 -15 -70.5t-35.5 -58t-59 -53t-68.5 -46.5t-81 -47q-23 -13 -35 -20l-70 -43q-4 -2 -17 -9t-17 -9.5t-14 -8.5t-14 -9 t-11 -9.5t-10 -11t-6.5 -11.5t-5 -14.5t-1.5 -15.5v-133q0 -46 25 -72t71 -26h344q44 0 69 26t25 72v121h246v-158q0 -132 -79.5 -212.5t-211.5 -80.5h-442q-132 0 -212.5 80.5t-80.5 212.5zM541 836v270h245v-270h-245z" />
<glyph unicode="&#xc0;" horiz-adv-x="1353" d="M43 0l492 1475h284l494 -1475h-266l-111 365h-524l-115 -365h-254zM338 1905h285l184 -295h-178zM483 596h381l-188 610z" />
<glyph unicode="&#xc1;" horiz-adv-x="1353" d="M43 0l492 1475h284l494 -1475h-266l-111 365h-524l-115 -365h-254zM483 596h381l-188 610zM541 1610l184 295h285l-291 -295h-178z" />
<glyph unicode="&#xc2;" horiz-adv-x="1353" d="M43 0l492 1475h284l494 -1475h-266l-111 365h-524l-115 -365h-254zM299 1610l268 260h213l271 -260h-191l-186 145l-185 -145h-190zM483 596h381l-188 610z" />
<glyph unicode="&#xc3;" horiz-adv-x="1353" d="M43 0l492 1475h284l494 -1475h-266l-111 365h-524l-115 -365h-254zM369 1610l41 194q9 42 41 56.5t79 -0.5l293 -93l39 95h127l-45 -197q-9 -40 -41 -53.5t-78 0.5l-295 96l-36 -98h-125zM483 596h381l-188 610z" />
<glyph unicode="&#xc4;" horiz-adv-x="1353" d="M43 0l492 1475h284l494 -1475h-266l-111 365h-524l-115 -365h-254zM369 1618v237h219v-237h-219zM483 596h381l-188 610zM760 1618v237h221v-237h-221z" />
<glyph unicode="&#xc5;" horiz-adv-x="1353" d="M43 0l492 1475h284l494 -1475h-266l-111 365h-524l-115 -365h-254zM483 596h381l-188 610zM487 1679v203q0 26 22 48t48 22h236q26 0 47.5 -22t21.5 -48v-203q0 -26 -21.5 -47.5t-47.5 -21.5h-236q-26 0 -48 21.5t-22 47.5zM588 1726q0 -10 7 -17t17 -7h123q11 0 18 7 t7 17v109q0 11 -7 18t-18 7h-123q-10 0 -17 -7t-7 -18v-109z" />
<glyph unicode="&#xc6;" horiz-adv-x="2048" d="M12 0l746 1475h1188v-232h-707v-366h588v-232h-588v-414h707v-231h-953v365h-526l-178 -365h-277zM580 596h413v645h-100z" />
<glyph unicode="&#xc7;" horiz-adv-x="1282" d="M139 285v905q0 132 79.5 212.5t211.5 80.5h449q132 0 212 -80.5t80 -212.5v-209h-245v172q0 46 -25.5 72t-71.5 26h-350q-44 0 -69 -26t-25 -72v-831q0 -46 25 -72.5t69 -26.5h350q46 0 71.5 26.5t25.5 72.5v172h245v-209q0 -132 -80 -212.5t-212 -80.5h-152l-47 -94h61 q79 0 125.5 -39t46.5 -113v-20q0 -74 -46.5 -113t-125.5 -39h-190l-102 113h280q21 0 27 8.5t6 30.5v20q0 22 -6 30.5t-27 8.5h-237l98 207h-160q-132 0 -211.5 80.5t-79.5 212.5z" />
<glyph unicode="&#xc8;" horiz-adv-x="1222" d="M174 0v1475h944v-232h-698v-375h575v-229h-575v-408h698v-231h-944zM307 1905h285l184 -295h-178z" />
<glyph unicode="&#xc9;" horiz-adv-x="1222" d="M174 0v1475h944v-232h-698v-375h575v-229h-575v-408h698v-231h-944zM510 1610l184 295h285l-293 -295h-176z" />
<glyph unicode="&#xca;" horiz-adv-x="1222" d="M174 0v1475h944v-232h-698v-375h575v-229h-575v-408h698v-231h-944zM268 1610l269 260h213l268 -260h-191l-184 145l-184 -145h-191z" />
<glyph unicode="&#xcb;" horiz-adv-x="1222" d="M174 0v1475h944v-232h-698v-375h575v-229h-575v-408h698v-231h-944zM338 1618v237h219v-237h-219zM729 1618v237h219v-237h-219z" />
<glyph unicode="&#xcc;" horiz-adv-x="591" d="M-43 1905h285l184 -295h-178zM174 0v1475h246v-1475h-246z" />
<glyph unicode="&#xcd;" horiz-adv-x="591" d="M160 1610l184 295h285l-291 -295h-178zM174 0v1475h246v-1475h-246z" />
<glyph unicode="&#xce;" horiz-adv-x="591" d="M-82 1610l268 260h213l271 -260h-191l-186 145l-184 -145h-191zM174 0v1475h246v-1475h-246z" />
<glyph unicode="&#xcf;" horiz-adv-x="591" d="M-12 1618v237h219v-237h-219zM174 0v1475h246v-1475h-246zM379 1618v237h221v-237h-221z" />
<glyph unicode="&#xd0;" horiz-adv-x="1331" d="M4 623v241h158v611h747q132 0 212.5 -80.5t80.5 -212.5v-889q0 -132 -80.5 -212.5t-212.5 -80.5h-747v623h-158zM408 231h452q45 0 70.5 26.5t25.5 72.5v815q0 46 -25 72t-71 26h-452v-379h159v-241h-159v-392z" />
<glyph unicode="&#xd1;" horiz-adv-x="1456" d="M174 0v1475h270l611 -1098v1098h229v-1475h-270l-611 1100v-1100h-229zM424 1610l41 194q9 42 41.5 56.5t79.5 -0.5l293 -93l39 95h126l-45 -197q-9 -40 -40.5 -53.5t-77.5 0.5l-295 96l-37 -98h-125z" />
<glyph unicode="&#xd2;" horiz-adv-x="1335" d="M139 285v905q0 132 79.5 212.5t211.5 80.5h475q132 0 212.5 -80.5t80.5 -212.5v-905q0 -132 -80.5 -212.5t-212.5 -80.5h-475q-132 0 -211.5 80.5t-79.5 212.5zM330 1905h284l185 -295h-178zM385 322q0 -46 25 -72.5t69 -26.5h377q45 0 70.5 26.5t25.5 72.5v831 q0 46 -25 72t-71 26h-377q-44 0 -69 -26t-25 -72v-831z" />
<glyph unicode="&#xd3;" horiz-adv-x="1335" d="M139 285v905q0 132 79.5 212.5t211.5 80.5h475q132 0 212.5 -80.5t80.5 -212.5v-905q0 -132 -80.5 -212.5t-212.5 -80.5h-475q-132 0 -211.5 80.5t-79.5 212.5zM385 322q0 -46 25 -72.5t69 -26.5h377q45 0 70.5 26.5t25.5 72.5v831q0 46 -25 72t-71 26h-377 q-44 0 -69 -26t-25 -72v-831zM532 1610l185 295h284l-290 -295h-179z" />
<glyph unicode="&#xd4;" horiz-adv-x="1335" d="M139 285v905q0 132 79.5 212.5t211.5 80.5h475q132 0 212.5 -80.5t80.5 -212.5v-905q0 -132 -80.5 -212.5t-212.5 -80.5h-475q-132 0 -211.5 80.5t-79.5 212.5zM291 1610l268 260h213l270 -260h-190l-186 145l-185 -145h-190zM385 322q0 -46 25 -72.5t69 -26.5h377 q45 0 70.5 26.5t25.5 72.5v831q0 46 -25 72t-71 26h-377q-44 0 -69 -26t-25 -72v-831z" />
<glyph unicode="&#xd5;" horiz-adv-x="1335" d="M139 285v905q0 132 79.5 212.5t211.5 80.5h475q132 0 212.5 -80.5t80.5 -212.5v-905q0 -132 -80.5 -212.5t-212.5 -80.5h-475q-132 0 -211.5 80.5t-79.5 212.5zM360 1610l41 194q9 42 41.5 56.5t79.5 -0.5l293 -93l39 95h127l-45 -197q-9 -40 -41 -53.5t-78 0.5l-295 96 l-37 -98h-125zM385 322q0 -46 25 -72.5t69 -26.5h377q45 0 70.5 26.5t25.5 72.5v831q0 46 -25 72t-71 26h-377q-44 0 -69 -26t-25 -72v-831z" />
<glyph unicode="&#xd6;" horiz-adv-x="1335" d="M139 285v905q0 132 79.5 212.5t211.5 80.5h475q132 0 212.5 -80.5t80.5 -212.5v-905q0 -132 -80.5 -212.5t-212.5 -80.5h-475q-132 0 -211.5 80.5t-79.5 212.5zM360 1618v237h220v-237h-220zM385 322q0 -46 25 -72.5t69 -26.5h377q45 0 70.5 26.5t25.5 72.5v831 q0 46 -25 72t-71 26h-377q-44 0 -69 -26t-25 -72v-831zM752 1618v237h221v-237h-221z" />
<glyph unicode="&#xd7;" horiz-adv-x="1040" d="M141 442l240 240l-240 242l140 139l239 -240l242 242l139 -141l-239 -240l239 -242l-139 -139l-240 240l-241 -242z" />
<glyph unicode="&#xd8;" horiz-adv-x="1341" d="M139 285v905q0 132 79.5 212.5t211.5 80.5h481q132 0 211.5 -80.5t79.5 -212.5v-905q0 -132 -79.5 -212.5t-211.5 -80.5h-481q-132 0 -211.5 80.5t-79.5 212.5zM385 403l414 846h-320q-44 0 -69 -26t-25 -72v-748zM532 225h330q44 0 69 26.5t25 72.5v766z" />
<glyph unicode="&#xd9;" horiz-adv-x="1337" d="M152 285v1190h245v-1153q0 -46 25.5 -72.5t69.5 -26.5h354q45 0 70.5 26.5t25.5 72.5v1153h246v-1190q0 -132 -80.5 -212.5t-212.5 -80.5h-453q-132 0 -211 80.5t-79 212.5zM330 1905h284l185 -295h-178z" />
<glyph unicode="&#xda;" horiz-adv-x="1337" d="M152 285v1190h245v-1153q0 -46 25.5 -72.5t69.5 -26.5h354q45 0 70.5 26.5t25.5 72.5v1153h246v-1190q0 -132 -80.5 -212.5t-212.5 -80.5h-453q-132 0 -211 80.5t-79 212.5zM532 1610l185 295h284l-290 -295h-179z" />
<glyph unicode="&#xdb;" horiz-adv-x="1337" d="M152 285v1190h245v-1153q0 -46 25.5 -72.5t69.5 -26.5h354q45 0 70.5 26.5t25.5 72.5v1153h246v-1190q0 -132 -80.5 -212.5t-212.5 -80.5h-453q-132 0 -211 80.5t-79 212.5zM291 1610l268 260h213l270 -260h-190l-186 145l-185 -145h-190z" />
<glyph unicode="&#xdc;" horiz-adv-x="1337" d="M152 285v1190h245v-1153q0 -46 25.5 -72.5t69.5 -26.5h354q45 0 70.5 26.5t25.5 72.5v1153h246v-1190q0 -132 -80.5 -212.5t-212.5 -80.5h-453q-132 0 -211 80.5t-79 212.5zM360 1618v237h220v-237h-220zM752 1618v237h221v-237h-221z" />
<glyph unicode="&#xdd;" horiz-adv-x="1230" d="M18 1475h273l323 -678l326 678h270l-473 -953v-522h-245v522zM479 1610l185 295h284l-293 -295h-176z" />
<glyph unicode="&#xde;" horiz-adv-x="1286" d="M174 0v1475h246v-265h487q132 0 211.5 -80t79.5 -212v-343q0 -132 -79.5 -212t-211.5 -80h-487v-283h-246zM420 514h438q44 0 69 26t25 72v269q0 46 -25 72t-69 26h-438v-465z" />
<glyph unicode="&#xdf;" horiz-adv-x="1155" d="M133 0v1196q0 126 80.5 206.5t206.5 80.5h332q126 0 206 -80.5t80 -206.5v-225q0 -140 -131 -215q70 -31 109 -88t39 -129v-252q0 -126 -80.5 -206.5t-206.5 -80.5h-266v205h223q41 0 66.5 26.5t25.5 67.5v266q0 90 -106 90h-193v199h189q53 0 73.5 20t20.5 72v238 q0 41 -25.5 67.5t-66.5 26.5h-248q-42 0 -67 -26t-25 -68v-1184h-236z" />
<glyph unicode="&#xe0;" horiz-adv-x="1116" d="M88 279v104q0 132 77.5 209.5t209.5 77.5h51q149 0 326 -37v184q0 43 -24.5 69.5t-65.5 26.5h-209q-42 0 -67.5 -26.5t-25.5 -69.5v-35h-235v39q0 126 83.5 209.5t209.5 83.5h276q126 0 209.5 -83.5t83.5 -209.5v-821h-235v145l-64 -53q-36 -31 -59.5 -48t-69 -34.5 t-92.5 -17.5h-92q-126 0 -206.5 80.5t-80.5 206.5zM221 1548h285l184 -295h-178zM324 301q0 -45 25 -71.5t69 -26.5h67q106 0 203 57l64 39v203h-336q-42 0 -67 -27t-25 -69v-105z" />
<glyph unicode="&#xe1;" horiz-adv-x="1116" d="M88 279v104q0 132 77.5 209.5t209.5 77.5h51q149 0 326 -37v184q0 43 -24.5 69.5t-65.5 26.5h-209q-42 0 -67.5 -26.5t-25.5 -69.5v-35h-235v39q0 126 83.5 209.5t209.5 83.5h276q126 0 209.5 -83.5t83.5 -209.5v-821h-235v145l-64 -53q-36 -31 -59.5 -48t-69 -34.5 t-92.5 -17.5h-92q-126 0 -206.5 80.5t-80.5 206.5zM324 301q0 -45 25 -71.5t69 -26.5h67q106 0 203 57l64 39v203h-336q-42 0 -67 -27t-25 -69v-105zM424 1253l184 295h285l-291 -295h-178z" />
<glyph unicode="&#xe2;" horiz-adv-x="1116" d="M88 279v104q0 132 77.5 209.5t209.5 77.5h51q149 0 326 -37v184q0 43 -24.5 69.5t-65.5 26.5h-209q-42 0 -67.5 -26.5t-25.5 -69.5v-35h-235v39q0 126 83.5 209.5t209.5 83.5h276q126 0 209.5 -83.5t83.5 -209.5v-821h-235v145l-64 -53q-36 -31 -59.5 -48t-69 -34.5 t-92.5 -17.5h-92q-126 0 -206.5 80.5t-80.5 206.5zM182 1253l269 260h213l270 -260h-191l-186 146l-184 -146h-191zM324 301q0 -45 25 -71.5t69 -26.5h67q106 0 203 57l64 39v203h-336q-42 0 -67 -27t-25 -69v-105z" />
<glyph unicode="&#xe3;" horiz-adv-x="1116" d="M88 279v104q0 132 77.5 209.5t209.5 77.5h51q149 0 326 -37v184q0 43 -24.5 69.5t-65.5 26.5h-209q-42 0 -67.5 -26.5t-25.5 -69.5v-35h-235v39q0 126 83.5 209.5t209.5 83.5h276q126 0 209.5 -83.5t83.5 -209.5v-821h-235v145l-64 -53q-36 -31 -59.5 -48t-69 -34.5 t-92.5 -17.5h-92q-126 0 -206.5 80.5t-80.5 206.5zM252 1253l41 195q9 42 41.5 56.5t79.5 -1.5l293 -92l38 94h127l-45 -196q-9 -41 -40.5 -54.5t-77.5 0.5l-295 97l-37 -99h-125zM324 301q0 -45 25 -71.5t69 -26.5h67q106 0 203 57l64 39v203h-336q-42 0 -67 -27t-25 -69 v-105z" />
<glyph unicode="&#xe4;" horiz-adv-x="1116" d="M88 279v104q0 132 77.5 209.5t209.5 77.5h51q149 0 326 -37v184q0 43 -24.5 69.5t-65.5 26.5h-209q-42 0 -67.5 -26.5t-25.5 -69.5v-35h-235v39q0 126 83.5 209.5t209.5 83.5h276q126 0 209.5 -83.5t83.5 -209.5v-821h-235v145l-64 -53q-36 -31 -59.5 -48t-69 -34.5 t-92.5 -17.5h-92q-126 0 -206.5 80.5t-80.5 206.5zM252 1262v237h219v-237h-219zM324 301q0 -45 25 -71.5t69 -26.5h67q106 0 203 57l64 39v203h-336q-42 0 -67 -27t-25 -69v-105zM643 1262v237h221v-237h-221z" />
<glyph unicode="&#xe5;" horiz-adv-x="1116" d="M88 279v104q0 132 77.5 209.5t209.5 77.5h51q149 0 326 -37v184q0 43 -24.5 69.5t-65.5 26.5h-209q-42 0 -67.5 -26.5t-25.5 -69.5v-35h-235v39q0 126 83.5 209.5t209.5 83.5h276q126 0 209.5 -83.5t83.5 -209.5v-821h-235v145l-64 -53q-36 -31 -59.5 -48t-69 -34.5 t-92.5 -17.5h-92q-126 0 -206.5 80.5t-80.5 206.5zM324 301q0 -45 25 -71.5t69 -26.5h67q106 0 203 57l64 39v203h-336q-42 0 -67 -27t-25 -69v-105zM371 1323v203q0 26 21.5 47.5t47.5 21.5h236q26 0 47.5 -21.5t21.5 -47.5v-203q0 -26 -21.5 -48t-47.5 -22h-236 q-26 0 -47.5 22t-21.5 48zM471 1370q0 -10 7 -17t18 -7h122q11 0 18 7t7 17v109q0 10 -7 17t-18 7h-122q-11 0 -18 -7t-7 -17v-109z" />
<glyph unicode="&#xe6;" horiz-adv-x="1751" d="M88 279v104q0 132 77.5 209.5t209.5 77.5h49q177 -4 334 -39v166q0 50 -27 78t-76 28h-198q-49 0 -76 -28t-27 -78v-19h-231v43q0 126 83.5 209.5t209.5 83.5h282q97 0 172 -57q75 57 174 57h316q126 0 206.5 -80.5t80.5 -206.5v-348h-658v-182q0 -43 26 -70.5t68 -27.5 h238q42 0 68 27.5t26 70.5v59h232v-77q0 -126 -80.5 -206.5t-206.5 -80.5h-316q-95 0 -166 47.5t-102 128.5l-106 -96q-85 -80 -193 -80h-102q-126 0 -206.5 80.5t-80.5 206.5zM322 301q0 -45 25 -71.5t69 -26.5h82q91 0 184 49l76 43v205h-346q-42 0 -66 -26t-24 -71v-102z M989 651h426v158q0 43 -26 70.5t-68 27.5h-238q-42 0 -68 -27.5t-26 -70.5v-158z" />
<glyph unicode="&#xe7;" horiz-adv-x="1089" d="M109 279v548q0 126 80 206.5t206 80.5h312q126 0 206 -80.5t80 -206.5v-106h-233v96q0 41 -25.5 67.5t-66.5 26.5h-232q-42 0 -67 -26t-25 -68v-528q0 -42 25 -68t67 -26h232q41 0 66.5 26.5t25.5 67.5v96h233v-106q0 -126 -80 -206.5t-206 -80.5h-86l-48 -94h60 q79 0 125.5 -39t46.5 -113v-20q0 -74 -46.5 -113t-125.5 -39h-191l-102 113h283q19 0 24.5 8.5t5.5 30.5v20q0 22 -5.5 30.5t-24.5 8.5h-238l98 207h-88q-126 0 -206 80.5t-80 206.5z" />
<glyph unicode="&#xe8;" horiz-adv-x="1103" d="M109 279v548q0 126 80 206.5t206 80.5h320q126 0 206 -80.5t80 -206.5v-342h-657v-200q0 -42 25 -68.5t67 -26.5h238q42 0 67 26.5t25 68.5v65h235v-71q0 -126 -80 -206.5t-206 -80.5h-320q-126 0 -206 80.5t-80 206.5zM217 1548h285l184 -295h-178zM344 655h422v166 q0 42 -25 68t-67 26h-238q-42 0 -67 -26t-25 -68v-166z" />
<glyph unicode="&#xe9;" horiz-adv-x="1103" d="M109 279v548q0 126 80 206.5t206 80.5h320q126 0 206 -80.5t80 -206.5v-342h-657v-200q0 -42 25 -68.5t67 -26.5h238q42 0 67 26.5t25 68.5v65h235v-71q0 -126 -80 -206.5t-206 -80.5h-320q-126 0 -206 80.5t-80 206.5zM344 655h422v166q0 42 -25 68t-67 26h-238 q-42 0 -67 -26t-25 -68v-166zM420 1253l184 295h285l-293 -295h-176z" />
<glyph unicode="&#xea;" horiz-adv-x="1103" d="M109 279v548q0 126 80 206.5t206 80.5h320q126 0 206 -80.5t80 -206.5v-342h-657v-200q0 -42 25 -68.5t67 -26.5h238q42 0 67 26.5t25 68.5v65h235v-71q0 -126 -80 -206.5t-206 -80.5h-320q-126 0 -206 80.5t-80 206.5zM178 1253l268 260h213l269 -260h-191l-184 146 l-184 -146h-191zM344 655h422v166q0 42 -25 68t-67 26h-238q-42 0 -67 -26t-25 -68v-166z" />
<glyph unicode="&#xeb;" horiz-adv-x="1103" d="M109 279v548q0 126 80 206.5t206 80.5h320q126 0 206 -80.5t80 -206.5v-342h-657v-200q0 -42 25 -68.5t67 -26.5h238q42 0 67 26.5t25 68.5v65h235v-71q0 -126 -80 -206.5t-206 -80.5h-320q-126 0 -206 80.5t-80 206.5zM248 1262v237h219v-237h-219zM344 655h422v166 q0 42 -25 68t-67 26h-238q-42 0 -67 -26t-25 -68v-166zM639 1262v237h219v-237h-219z" />
<glyph unicode="&#xec;" horiz-adv-x="540" d="M-53 1548h284l185 -295h-178zM154 0v1106h233v-1106h-233z" />
<glyph unicode="&#xed;" horiz-adv-x="540" d="M125 1253l184 295h285l-293 -295h-176zM154 0v1106h233v-1106h-233z" />
<glyph unicode="&#xee;" horiz-adv-x="540" d="M-104 1253l268 260h213l268 -260h-190l-185 146l-184 -146h-190zM154 0v1106h233v-1106h-233z" />
<glyph unicode="&#xef;" horiz-adv-x="540" d="M-35 1255v238h219v-238h-219zM156 0v1106h233v-1106h-233zM356 1255v238h219v-238h-219z" />
<glyph unicode="&#xf0;" horiz-adv-x="1126" d="M109 279v473q0 126 80 206t206 80h94q112 0 230 -100l63 -53v166q0 64 -20 88t-76 43l-113 39l-92 -93h-205l148 146l-174 59v150l307 -76l98 96h205l-141 -137q164 -45 231.5 -114.5t67.5 -200.5v-772q0 -126 -80.5 -206.5t-206.5 -80.5h-336q-126 0 -206 80.5 t-80 206.5zM344 297q0 -43 25 -69.5t67 -26.5h256q41 0 65.5 26.5t24.5 69.5v436l-63 37q-96 59 -211 59h-70q-43 0 -68.5 -27t-25.5 -71v-434z" />
<glyph unicode="&#xf1;" d="M141 0v1106h236v-145l63 53q118 100 230 100h75q126 0 206.5 -80.5t80.5 -206.5v-827h-235v805q0 45 -25.5 71.5t-69.5 26.5h-51q-111 0 -211 -57l-63 -39v-807h-236zM285 1253l41 195q9 42 41 56.5t79 -1.5l293 -92l39 94h129l-45 -196q-9 -40 -42 -54t-77 0l-297 97 l-36 -99h-125z" />
<glyph unicode="&#xf2;" horiz-adv-x="1124" d="M109 279v548q0 126 80 206.5t206 80.5h334q126 0 206.5 -80.5t80.5 -206.5v-548q0 -126 -80.5 -206.5t-206.5 -80.5h-334q-126 0 -206 80.5t-80 206.5zM225 1548h285l184 -295h-178zM344 289q0 -43 25 -69.5t67 -26.5h252q42 0 67 26.5t25 69.5v528q0 43 -25 69.5 t-67 26.5h-252q-42 0 -67 -26.5t-25 -69.5v-528z" />
<glyph unicode="&#xf3;" horiz-adv-x="1124" d="M109 279v548q0 126 80 206.5t206 80.5h334q126 0 206.5 -80.5t80.5 -206.5v-548q0 -126 -80.5 -206.5t-206.5 -80.5h-334q-126 0 -206 80.5t-80 206.5zM344 289q0 -43 25 -69.5t67 -26.5h252q42 0 67 26.5t25 69.5v528q0 43 -25 69.5t-67 26.5h-252q-42 0 -67 -26.5 t-25 -69.5v-528zM428 1253l184 295h285l-293 -295h-176z" />
<glyph unicode="&#xf4;" horiz-adv-x="1124" d="M109 279v548q0 126 80 206.5t206 80.5h334q126 0 206.5 -80.5t80.5 -206.5v-548q0 -126 -80.5 -206.5t-206.5 -80.5h-334q-126 0 -206 80.5t-80 206.5zM186 1253l269 260h213l268 -260h-191l-184 146l-184 -146h-191zM344 289q0 -43 25 -69.5t67 -26.5h252q42 0 67 26.5 t25 69.5v528q0 43 -25 69.5t-67 26.5h-252q-42 0 -67 -26.5t-25 -69.5v-528z" />
<glyph unicode="&#xf5;" horiz-adv-x="1124" d="M109 279v548q0 126 80 206.5t206 80.5h334q126 0 206.5 -80.5t80.5 -206.5v-548q0 -126 -80.5 -206.5t-206.5 -80.5h-334q-126 0 -206 80.5t-80 206.5zM256 1253l41 195q18 86 121 55l291 -92l39 94h129l-46 -196q-9 -40 -41.5 -54t-76.5 0l-297 97l-37 -99h-123z M344 289q0 -43 25 -69.5t67 -26.5h252q42 0 67 26.5t25 69.5v528q0 43 -25 69.5t-67 26.5h-252q-42 0 -67 -26.5t-25 -69.5v-528z" />
<glyph unicode="&#xf6;" horiz-adv-x="1124" d="M109 279v548q0 126 80 206.5t206 80.5h334q126 0 206.5 -80.5t80.5 -206.5v-548q0 -126 -80.5 -206.5t-206.5 -80.5h-334q-126 0 -206 80.5t-80 206.5zM256 1262v237h219v-237h-219zM344 289q0 -43 25 -69.5t67 -26.5h252q42 0 67 26.5t25 69.5v528q0 43 -25 69.5 t-67 26.5h-252q-42 0 -67 -26.5t-25 -69.5v-528zM647 1262v237h219v-237h-219z" />
<glyph unicode="&#xf7;" horiz-adv-x="1040" d="M94 645v225h852v-225h-852zM399 248v248h242v-248h-242zM399 1020v248h242v-248h-242z" />
<glyph unicode="&#xf8;" horiz-adv-x="1130" d="M109 279v548q0 126 80 206.5t206 80.5h340q126 0 206.5 -80.5t80.5 -206.5v-548q0 -126 -80.5 -206.5t-206.5 -80.5h-340q-126 0 -206 80.5t-80 206.5zM342 301l2 -20l295 622h-203q-43 0 -68.5 -27t-25.5 -71v-504zM492 203h202q44 0 69 26.5t25 71.5v504l-2 22z" />
<glyph unicode="&#xf9;" d="M129 279v827h236v-805q0 -45 25 -71.5t69 -26.5h51q114 0 211 57l63 39v807h236v-1106h-236v145l-63 -53q-118 -100 -229 -100h-76q-126 0 -206.5 80.5t-80.5 206.5zM236 1548h284l185 -295h-179z" />
<glyph unicode="&#xfa;" d="M129 279v827h236v-805q0 -45 25 -71.5t69 -26.5h51q114 0 211 57l63 39v807h236v-1106h-236v145l-63 -53q-118 -100 -229 -100h-76q-126 0 -206.5 80.5t-80.5 206.5zM438 1253l185 295h284l-291 -295h-178z" />
<glyph unicode="&#xfb;" d="M129 279v827h236v-805q0 -45 25 -71.5t69 -26.5h51q114 0 211 57l63 39v807h236v-1106h-236v145l-63 -53q-118 -100 -229 -100h-76q-126 0 -206.5 80.5t-80.5 206.5zM197 1253l268 260h213l270 -260h-190l-187 146l-184 -146h-190z" />
<glyph unicode="&#xfc;" d="M129 279v827h236v-805q0 -45 25 -71.5t69 -26.5h51q114 0 211 57l63 39v807h236v-1106h-236v145l-63 -53q-118 -100 -229 -100h-76q-126 0 -206.5 80.5t-80.5 206.5zM266 1262v237h219v-237h-219zM657 1262v237h222v-237h-222z" />
<glyph unicode="&#xfd;" horiz-adv-x="1067" d="M35 1106h233l260 -811l277 811h227l-516 -1499h-221l133 393zM399 1253l185 295h284l-290 -295h-179z" />
<glyph unicode="&#xfe;" d="M141 -393v1935h236v-581l63 53q118 100 230 100h94q126 0 206.5 -80.5t80.5 -206.5v-548q0 -126 -80.5 -206.5t-206.5 -80.5h-94q-112 0 -230 100l-63 53v-538h-236zM377 299l63 -39q100 -57 211 -57h72q43 0 68.5 27t25.5 71v504q0 44 -25.5 71t-68.5 27h-72 q-111 0 -211 -57l-63 -39v-508z" />
<glyph unicode="&#xff;" horiz-adv-x="1067" d="M35 1106h233l260 -811l277 811h227l-516 -1499h-221l133 393zM227 1262v237h222v-237h-222zM621 1262v237h219v-237h-219z" />
<glyph unicode="&#x152;" horiz-adv-x="2002" d="M139 293v889q0 132 79.5 212.5t211.5 80.5h1471v-232h-719v-375h587v-231h-587v-406h719v-231h-1471q-132 0 -211.5 80.5t-79.5 212.5zM385 330q0 -46 25 -72.5t69 -26.5h398q59 0 59 60v893q0 59 -59 59h-398q-44 0 -69 -26t-25 -72v-815z" />
<glyph unicode="&#x153;" horiz-adv-x="1775" d="M109 279v548q0 126 80 206.5t206 80.5h334q97 0 170 -51q73 51 170 51h315q126 0 206.5 -80.5t80.5 -206.5v-348h-655v-182q0 -44 25.5 -71t68.5 -27h236q43 0 68.5 27t25.5 71v59h231v-77q0 -126 -80.5 -206.5t-206.5 -80.5h-315q-97 0 -170 51q-73 -51 -170 -51h-334 q-126 0 -206 80.5t-80 206.5zM342 301q0 -45 25 -71.5t69 -26.5h252q44 0 69 26.5t25 71.5v504q0 45 -25 71.5t-69 26.5h-252q-44 0 -69 -26.5t-25 -71.5v-504zM1016 651h424v158q0 44 -25.5 71t-68.5 27h-236q-43 0 -68.5 -27t-25.5 -71v-158z" />
<glyph unicode="&#x178;" horiz-adv-x="1230" d="M18 1475h273l323 -678l326 678h270l-473 -953v-522h-245v522zM307 1618v237h219v-237h-219zM698 1618v237h220v-237h-220z" />
<glyph unicode="&#x2c6;" horiz-adv-x="1351" d="M301 1610l268 260h213l269 -260h-191l-184 145l-184 -145h-191z" />
<glyph unicode="&#x2dc;" horiz-adv-x="1249" d="M313 1610l41 194q9 42 41.5 56.5t79.5 -0.5l293 -93l39 95h129l-45 -197q-9 -40 -42 -54t-77 1l-297 96l-37 -98h-125z" />
<glyph unicode="&#x2000;" horiz-adv-x="976" />
<glyph unicode="&#x2001;" horiz-adv-x="1952" />
<glyph unicode="&#x2002;" horiz-adv-x="976" />
<glyph unicode="&#x2003;" horiz-adv-x="1952" />
<glyph unicode="&#x2004;" horiz-adv-x="650" />
<glyph unicode="&#x2005;" horiz-adv-x="488" />
<glyph unicode="&#x2006;" horiz-adv-x="325" />
<glyph unicode="&#x2007;" horiz-adv-x="325" />
<glyph unicode="&#x2008;" horiz-adv-x="244" />
<glyph unicode="&#x2009;" horiz-adv-x="390" />
<glyph unicode="&#x200a;" horiz-adv-x="108" />
<glyph unicode="&#x2010;" horiz-adv-x="919" d="M113 563v223h694v-223h-694z" />
<glyph unicode="&#x2011;" horiz-adv-x="919" d="M113 563v223h694v-223h-694z" />
<glyph unicode="&#x2012;" horiz-adv-x="919" d="M113 563v223h694v-223h-694z" />
<glyph unicode="&#x2013;" horiz-adv-x="1148" d="M113 563v223h921v-223h-921z" />
<glyph unicode="&#x2014;" horiz-adv-x="1648" d="M113 563v221h1423v-221h-1423z" />
<glyph unicode="&#x2018;" horiz-adv-x="493" d="M121 942v201q0 26 17 63.5t30 57t45 65.5l100 146h105l-146 -267h101v-266h-252z" />
<glyph unicode="&#x2019;" horiz-adv-x="493" d="M76 942l145 266h-100v267h252v-203q0 -60 -90 -185l-101 -145h-106z" />
<glyph unicode="&#x201a;" horiz-adv-x="493" d="M76 -266l145 266h-100v266h252v-203q0 -59 -90 -184l-101 -145h-106z" />
<glyph unicode="&#x201c;" horiz-adv-x="878" d="M121 942v201q0 26 17 63.5t30 57t45 65.5l100 146h105l-146 -267h101v-266h-252zM506 942v201q0 26 16 62.5t30.5 59.5t43.5 64l100 146h107l-148 -267h101v-266h-250z" />
<glyph unicode="&#x201d;" horiz-adv-x="878" d="M76 942l145 266h-100v267h252v-203q0 -60 -90 -185l-101 -145h-106zM459 942l147 266h-100v267h250v-203q0 -60 -90 -185l-101 -145h-106z" />
<glyph unicode="&#x201e;" horiz-adv-x="493" d="M76 -266l145 266h-100v266h252v-203q0 -59 -90 -184l-101 -145h-106z" />
<glyph unicode="&#x2022;" horiz-adv-x="876" d="M223 625v274q0 32 23 55t55 23h274q32 0 55 -23t23 -55v-274q0 -32 -23 -55t-55 -23h-274q-32 0 -55 23t-23 55z" />
<glyph unicode="&#x2026;" horiz-adv-x="1382" d="M121 0v266h252v-266h-252zM565 0v266h252v-266h-252zM1010 0v266h250v-266h-250z" />
<glyph unicode="&#x202f;" horiz-adv-x="390" />
<glyph unicode="&#x2039;" horiz-adv-x="604" d="M39 670v98l262 377h246l-297 -426l297 -424h-246z" />
<glyph unicode="&#x203a;" horiz-adv-x="604" d="M55 295l297 424l-297 426h246l262 -377v-98l-262 -375h-246z" />
<glyph unicode="&#x205f;" horiz-adv-x="488" />
<glyph unicode="&#x20ac;" horiz-adv-x="1376" d="M59 516v141h164v166h-164v140h164v227q0 132 79.5 212.5t211.5 80.5h444q132 0 212.5 -80.5t80.5 -212.5v-182h-245v145q0 46 -25.5 72t-71.5 26h-346q-44 0 -69 -26t-25 -72v-190h418v-140h-418v-166h418v-141h-418v-194q0 -46 25 -72.5t69 -26.5h346q46 0 71.5 26.5 t25.5 72.5v145h245v-182q0 -132 -80.5 -212.5t-212.5 -80.5h-444q-132 0 -211.5 80.5t-79.5 212.5v231h-164z" />
<glyph unicode="&#x2122;" horiz-adv-x="1544" d="M106 1352v123h527v-123h-199v-615h-133v615h-195zM750 737v738h145l199 -451l198 451h146v-738h-123v525l-176 -410h-90l-177 410v-525h-122z" />
<glyph unicode="&#xe000;" horiz-adv-x="1105" d="M0 0v1106h1106v-1106h-1106z" />
</font>
</defs>
</svg>
