<svg class="siteFooter-icons--svg" xmlns="http://www.w3.org/2000/svg" viewBox="0 0 28 36">
  <path d="M0 4.32c7.71 0 14.31 2.74 19.79 8.22C25.26 18.01 28 24.61 28 32.32h-4.35c0-6.53-2.31-12.1-6.93-16.69C12.11 11.04 6.53 8.74 0 8.74V4.32L0 4.32M0 13.09c5.35 0 9.91 1.88 13.67 5.64 3.76 3.76 5.64 8.29 5.64 13.6h-4.35c0-4.08-1.46-7.58-4.38-10.5C7.65 18.9 4.13 17.44 0 17.44V13.09L0 13.09M4.2 23.99c1.13 0 2.11 0.4 2.95 1.22C7.98 26.02 8.4 27.02 8.4 28.19c0 1.13-0.42 2.1-1.25 2.91S5.33 32.32 4.2 32.32s-2.11-0.4-2.95-1.22S0 29.32 0 28.19c0-1.18 0.42-2.17 1.25-2.98C2.09 24.4 3.07 23.99 4.2 23.99L4.2 23.99" class="siteFooter-icons--svg__path" />
</svg>
