<svg class="siteFooter-tagline" xmlns="http://www.w3.org/2000/svg" preserveAspectRatio="xMinYMin meet" viewBox="0 0 276.385 27.271" aria-labelledby="title" role="img">
  <title id="title">Webworke.rs &mdash; Life and Craft in Columbus, OH</title>
  <path class="siteLogo-fill" d="M2.161 5.25v10.93h5.69v2.034H0V5.25H2.161zM9.666 6.745V4.657h2.214v2.088H9.666zM11.809 18.214H9.738V8.492h2.071V18.214zM18.055 6.42c-0.486 0-0.81 0.343-0.81 0.847v1.225h2.503v1.71h-2.485v8.013h-2.071v-8.013h-1.62v-1.71h1.62V7.177c0-1.477 1.044-2.521 2.521-2.521h2.035V6.42H18.055zM22.86 15.711c0 0.486 0.306 0.828 0.81 0.828h2.089c0.504 0 0.81-0.342 0.81-0.828v-0.576h2.071v0.63c0 1.477-1.044 2.521-2.521 2.521h-2.809c-1.477 0-2.521-1.045-2.521-2.521V10.94c0-1.477 1.044-2.521 2.521-2.521h2.809c1.477 0 2.521 1.044 2.521 2.521v3.007h-5.78V15.711zM23.67 10.166c-0.504 0-0.81 0.343-0.81 0.829v1.458h3.709v-1.458c0-0.486-0.306-0.829-0.81-0.829H23.67zM40.393 8.419c1.476 0 2.575 1.099 2.575 2.575v7.22h-2.071v-1.278l-0.558 0.468c-0.468 0.396-1.044 0.883-1.944 0.883h-0.811c-1.477 0-2.521-1.045-2.521-2.521v-0.918c0-1.548 0.972-2.521 2.521-2.521h0.45c0.738 0 1.729 0.09 2.863 0.324V11.03c0-0.504-0.306-0.846-0.792-0.846h-1.837c-0.504 0-0.81 0.342-0.81 0.846v0.307h-2.071v-0.342c0-1.477 1.099-2.575 2.575-2.575H40.393zM37.944 13.803c-0.504 0-0.811 0.36-0.811 0.846v0.919c0 0.521 0.306 0.864 0.828 0.864h0.594c0.594 0 1.17-0.145 1.783-0.505l0.558-0.342v-1.782H37.944zM51.103 11.138c0-0.522-0.306-0.864-0.828-0.864h-0.45c-0.594 0-1.224 0.145-1.854 0.504l-0.558 0.343v7.094h-2.071V8.492h2.071V9.77l0.558-0.469c0.468-0.396 1.134-0.882 2.017-0.882h0.667c1.476 0 2.521 1.044 2.521 2.521v7.274h-2.071V11.138zM61.201 18.214v-1.278l-0.576 0.468c-0.45 0.396-1.116 0.883-2.017 0.883H57.78c-1.477 0-2.521-1.045-2.521-2.521V10.94c0-1.477 1.044-2.521 2.521-2.521h0.828c0.9 0 1.566 0.486 2.017 0.882l0.576 0.469V4.657h2.052v13.558H61.201zM60.625 10.778c-0.612-0.359-1.26-0.504-1.836-0.504h-0.63c-0.522 0-0.828 0.342-0.828 0.864v4.43c0 0.521 0.306 0.864 0.828 0.864h0.63c0.576 0 1.224-0.145 1.836-0.505l0.576-0.342v-4.465L60.625 10.778zM73.043 18.287c-1.548 0-2.557-1.026-2.557-2.575V7.753c0-1.549 1.009-2.575 2.557-2.575h3.943c1.549 0 2.575 1.026 2.575 2.575v1.836H77.4V8.078c0-0.54-0.306-0.864-0.846-0.864h-3.079c-0.522 0-0.828 0.324-0.828 0.864v7.31c0 0.54 0.306 0.864 0.828 0.864h3.079c0.54 0 0.846-0.324 0.846-0.864v-1.512h2.161v1.836c0 1.549-1.026 2.575-2.575 2.575H73.043zM86.256 10.328c-0.594 0-1.225 0.145-1.854 0.522l-0.559 0.324v7.04h-2.07V8.492h2.07V9.77l0.559-0.469c0.468-0.396 1.135-0.882 2.017-0.882h1.08v1.908H86.256zM93.798 8.419c1.477 0 2.575 1.099 2.575 2.575v7.22h-2.07v-1.278l-0.559 0.468C93.276 17.8 92.7 18.287 91.8 18.287h-0.811c-1.477 0-2.521-1.045-2.521-2.521v-0.918c0-1.548 0.972-2.521 2.521-2.521h0.45c0.738 0 1.729 0.09 2.863 0.324V11.03c0-0.504-0.307-0.846-0.793-0.846h-1.836c-0.505 0-0.811 0.342-0.811 0.846v0.307h-2.07v-0.342c0-1.477 1.098-2.575 2.574-2.575H93.798zM91.35 13.803c-0.504 0-0.811 0.36-0.811 0.846v0.919c0 0.521 0.307 0.864 0.828 0.864h0.595c0.594 0 1.17-0.145 1.782-0.505l0.559-0.342v-1.782H91.35zM102.294 6.42c-0.486 0-0.811 0.343-0.811 0.847v1.225h2.503v1.71h-2.485v8.013h-2.07v-8.013h-1.62v-1.71h1.62V7.177c0-1.477 1.045-2.521 2.521-2.521h2.035V6.42H102.294zM108.413 15.585c0 0.486 0.307 0.847 0.811 0.847h2.034v1.782h-2.395c-1.477 0-2.521-1.044-2.521-2.521v-5.492h-1.584v-1.71h1.62V5.25h1.998v3.241h2.881v1.71h-2.845V15.585z"/><path class="siteLogo-fill" d="M132.444 27.172L132.444 27.172c-0.068-0.092-0.043-0.226-0.107-0.349 -0.039-0.075-0.112-0.123-0.17-0.161 -0.078-0.05-0.15-0.134-0.202-0.188 -0.042-0.044-0.061-0.163-0.107-0.201 -0.062-0.048-0.122-0.097-0.183-0.145 -0.006-0.005-0.009-0.008-0.016-0.011 -0.261-0.099-0.458 0.027-0.671-0.232 -0.062-0.077-0.127-0.195-0.113-0.298 0.016-0.123 0.004-0.206-0.048-0.298 -0.1-0.176-0.037-0.325-0.045-0.505 -0.012-0.272-0.439-0.006-0.54 0.052 -0.131 0.075-0.277-0.067-0.374 0.029 -0.035 0.036-0.094 0.159-0.109 0.207 -0.043 0.132-0.208 0.104-0.31 0.165 -0.113 0.068-0.106 0.187-0.153 0.291 -0.092 0.206-0.439 0.152-0.59 0.065 -0.169-0.098-0.233 0.185-0.356 0.219 -0.126 0.035-0.183-0.251-0.238-0.327 -0.062-0.085-0.398-0.235-0.537-0.193 -0.222 0.068-0.233-0.103-0.4-0.21 -0.18-0.115-0.298-0.002-0.461 0.061 -0.106 0.041-0.203-0.016-0.287 0.077 -0.093 0.103-0.052 0.246-0.14 0.341 -0.11 0.121-0.29-0.06-0.398-0.106 -0.121-0.052-0.281 0.026-0.334-0.133 -0.027-0.082-0.015-0.276-0.1-0.293 -0.087-0.016-0.174-0.033-0.26-0.05 -0.144-0.027-0.041-0.225-0.121-0.325 -0.067-0.087-0.264-0.067-0.366-0.108 -0.076-0.032-0.108-0.095-0.195-0.117 -0.132-0.034-0.294 0.044-0.42 0.081 -0.2 0.059-0.329 0.01-0.508-0.072 -0.146-0.067-0.556-0.078-0.631-0.221 -0.008-0.015-0.036-0.06-0.048-0.071 -0.064-0.058-0.022-0.278-0.027-0.354 -0.013-0.161-0.017-0.318-0.173-0.427 -0.132-0.092-0.165-0.253-0.172-0.403 -0.004-0.102-0.078-0.217-0.132-0.298 -0.034-0.051-0.105-0.066-0.156-0.099 -0.11-0.068-0.33-0.115-0.46-0.12 -0.007-0.001-0.007-0.014-0.014-0.018 -0.177-0.104-0.058-0.255-0.088-0.405 -0.048-0.24-0.271-0.031-0.354 0.047 -0.103 0.098-0.174-0.018-0.258-0.018 -0.138 0-0.211 0.215-0.414 0.207 -0.112-0.004-0.139-0.066-0.192-0.11 -0.09-0.071-0.179-0.059-0.26-0.106 -0.062-0.036-0.122-0.192-0.174-0.257 -0.241-0.299-0.327 0.228-0.533 0.214l0 0 0.041-19.779 0 0 3.12-0.093 4.627-0.223 0.081-0.06 0 0c0.024 0.008 0.048 0.014 0.048 0.019 0 0.034-0.066 0.146-0.085 0.185 -0.023 0.05-0.062 0.121-0.048 0.178 0.057 0.014 0.134-0.12 0.19-0.146 0.016-0.007 0.121-0.002 0.122 0.018 0.004 0.055-0.051 0.093-0.051 0.142 0 0.079 0.053 0.05 0.101 0.032 0.088-0.031 0.199 0.002 0.291 0.002 0.131 0 0.125-0.015 0.185-0.117 0.008-0.013 0.059 0.046 0.077 0.062 0.021 0.02 0.055 0.025 0.055 0.06 0 0.193 0.1 0.031 0.21 0.12l0.497 0.346c0.18 0.126 0.352 0.104 0.56 0.139 0.072 0.057 0.139 0.147 0.204 0.194 0.021 0.045 0.073 0.08 0.091 0.122 0.272 0.223 0.468 0.472 0.852 0.391 0.107-0.049 0.198-0.126 0.247-0.237 0.035-0.079-0.048-0.142-0.024-0.208 0.009-0.03 0.131-0.118 0.156-0.078l0.143 0.232c0.051 0.083-0.084 0.101-0.084 0.182 0.12 0.029 0.224-0.053 0.326-0.088 0.091-0.031 0.148 0.017 0.248 0.017 0.069 0 0.037 0.104 0.027 0.151 -0.015 0.076-0.042 0.101-0.122 0.101 -0.099 0-0.106 0.025-0.184 0.052 -0.072 0.024-0.331-0.102-0.307 0.075 0.015 0.107-0.073-0.042-0.13-0.039 -0.063 0.003-0.119 0.068-0.187 0.072 -0.12 0.007-0.268 0.032-0.386 0.009 -0.212-0.042-0.076 0.062-0.17 0.145 -0.004-0.002-0.059 0.028-0.077 0.029 -0.033 0.002-0.089-0.011-0.115 0.005 -0.039 0.023-0.07 0.052-0.114 0.062 0.005 0.015 0.052 0.043 0.066 0.059 0.07 0.077 0.029 0.071 0.114 0.016 0.103-0.067 0.135-0.009 0.186 0.098 0.12 0.253 0.251 0.023 0.413-0.022 0.162-0.045 0.358-0.052 0.358-0.255 0.067 0 0.105-0.057 0.161 0.005 0.087 0.098 0.137 0.233 0.301 0.167 0.065-0.025 0.132-0.09 0.196-0.104s0.065 0.015 0.12 0.032c0.048-0.01 0.113-0.008 0.164-0.008 0 0.002 0 0.001 0.003 0.003 0 0.085-0.014 0.103 0.074 0.162 0.132 0.089 0.266 0.154 0.414 0.21 0.111 0.042 0.179 0.046 0.271 0.112 0.175 0.126 0.421 0.108 0.59 0.009l0.32-0.189c0.138-0.082 0.205-0.061 0.352-0.087 0.174 0.023 0.245-0.019 0.403-0.045 0.052-0.046 0.211-0.153 0.275-0.181 0.037-0.054 0.093-0.094 0.132-0.14h0.011c0.105 0.085 0.654-0.207 0.8-0.251 0.271-0.081 0.41 0.071 0.654 0.146 0.17 0.029 0.378 0.083 0.539-0.004 0.252-0.135 0.443 0.104 0.667-0.06l0.321-0.236 0.224-0.142c0.141-0.111 0.437-0.3 0.528-0.444 0.111-0.079 0.273-0.185 0.353-0.298 0.146-0.209 0.271-0.355 0.481-0.501l0.604-0.417c0.005 0 0.008-0.002 0.012-0.002 0.003 0.003 0.002 0.004 0.002 0.009l0.015 0.024c0.072 0.032 0.203-0.033 0.27-0.061 0.176-0.071 0.313-0.229 0.488-0.297 0.028-0.025 0.073-0.032 0.102-0.057l0.612-0.255c0.224-0.093 0.555-0.118 0.757-0.228 0.204-0.021 0.352-0.169 0.528-0.232 0.057-0.032 0.078-0.091 0.154-0.091 0.152 0.091 1.138-0.32 1.304-0.45 0.086-0.011 0.167-0.035 0.245-0.065l0 0 0.001 10.391 0 0c-0.162 0.092-0.357 0.236-0.487 0.126 -0.102-0.086-0.394 0.167-0.362 0.32 0.015 0.072 0.084 0.15 0.113 0.194 0.097 0.148 0.07 0.351 0.206 0.495 0.153 0.163-0.025 0.285 0.002 0.465 0.014 0.086-0.002 0.249-0.113 0.271 -0.013 0.002-0.024 0.011-0.024 0.024 0 0.003 0 0.007 0 0.01 0 0.013 0.011 0.014 0.021 0.026 0.057 0.068 0.193 0.048 0.142 0.172 -0.043 0.102-0.054 0.136-0.005 0.236 0.027 0.058 0.017 0.106 0.017 0.17 0 0.085-0.086 0.125-0.102 0.214 -0.019 0.107-0.005 0.164-0.156 0.229 -0.164 0.07-0.114 0.298-0.14 0.465 -0.008 0.053-0.139 0.177-0.182 0.21 -0.01 0.008-0.021 0.021-0.022 0.033 -0.018 0.091-0.043 0.15-0.027 0.251 0.011 0.07 0.022 0.176-0.006 0.241 -0.022 0.054-0.084 0.049-0.122 0.081 -0.048 0.041-0.008 0.161 0.004 0.214 0.016 0.078 0.003 0.184-0.045 0.25 -0.004 0.006-0.001 0.016-0.005 0.022 -0.017 0.025-0.005 0.093 0.002 0.12 0.029 0.142 0.071 0.255-0.074 0.341 -0.126 0.074-0.038 0.189 0.002 0.284 0.038 0.093-0.063 0.134-0.117 0.078 -0.007-0.007-0.019-0.006-0.024-0.013 -0.027-0.03-0.149-0.081-0.172-0.03 -0.027 0.061-0.001 0.174 0.036 0.227 0.018 0.025 0.059 0.082 0.059 0.111 0 0.06-0.074 0.097-0.128 0.116 -0.06 0.023-0.102 0.059-0.102 0.133 0 0.051 0.014 0.09 0.024 0.138 0.006 0.025 0.012 0.058 0.009 0.081 -0.01 0.075-0.01 0.136-0.088 0.176 -0.042 0.021-0.103 0.017-0.138 0.043 -0.1 0.078-0.02 0.258 0.074 0.309 0.014 0.008 0.021 0.028 0.029 0.041 0.044 0.063 0.112 0.158 0.077 0.234 -0.027 0.06-0.102 0.059-0.158 0.094 -0.123 0.074-0.066 0.226-0.087 0.353 -0.017 0.104-0.104 0.271-0.239 0.221 -0.197-0.074-0.602 0.512-0.755 0.641 -0.207 0.172-0.271 0.28-0.393 0.515 -0.122 0.235-0.256 0.116-0.411 0.264 -0.109 0.105-0.09 0.251-0.163 0.329 -0.038 0.041-0.339 0.004-0.458 0.085 -0.136 0.093-0.389 0.304-0.545 0.203 -0.086-0.056-0.079-0.156-0.126-0.231 -0.01-0.017-0.013-0.045-0.025-0.063 -0.038-0.059-0.046-0.176-0.153-0.176s-0.211 0.068-0.26 0.161c-0.078 0.146-0.19 0.194-0.319 0.233 -0.218 0.066-0.196 0.388-0.173 0.538 0.043 0.267-0.312 0.066-0.421 0.079 -0.116 0.013-0.278-0.047-0.332 0.072 -0.041 0.091 0.04 0.198 0.009 0.286 -0.039 0.11-0.076 0.065-0.167 0.086s-0.08 0.071-0.096 0.146c-0.011 0.051-0.048 0.043-0.085 0.068 -0.057 0.041-0.035 0.088-0.027 0.146 0.002 0.016 0.029 0.12 0.04 0.138 0.038 0.064 0.017 0.287 0.005 0.363 -0.016 0.097-0.094 0.213-0.212 0.168 -0.037-0.014-0.139-0.093-0.167-0.03 -0.043 0.099 0.042 0.229 0.107 0.289 0.109 0.102 0.266 0.212 0.172 0.371 -0.156 0.264-0.097 0.202 0.063 0.422 0.092 0.125-0.153 0.164-0.205 0.075 -0.101-0.174-0.251-0.235-0.296 0.029 -0.031 0.192-0.165 0.462-0.412 0.349 -0.106-0.049-0.123-0.157-0.057-0.245 0.069-0.093 0.2-0.107 0.102-0.253 -0.075-0.11-0.124-0.311-0.239-0.377 -0.131-0.076-0.249 0.056-0.312-0.185 -0.012-0.049-0.031-0.079-0.109-0.076 -0.057 0.002-0.106 0.011-0.137 0.062 -0.059 0.102-0.047 0.204-0.141 0.287 -0.032 0.028-0.129 0.069-0.158 0.093 -0.069 0.055-0.1 0.26-0.143 0.335 -0.058 0.101-0.184 0.217-0.162 0.341 0.015 0.087 0.01 0.158-0.012 0.243 -0.03 0.119-0.141 0.19-0.239 0.249 -0.06 0.036-0.112 0.078-0.158 0.13 -0.059 0.066-0.043 0.106-0.014 0.176 0.024 0.06 0.123 0.095 0.14 0.156 0.021 0.086 0.066 0.202 0.058 0.291 -0.008 0.087-0.033 0.127-0.055 0.203 -0.02 0.07 0.053 0.172 0.084 0.231 0.031 0.059 0.006 0.209 0.033 0.253 0.004 0.007-0.002 0.008-0.004 0.021 -0.015 0.121-0.062 0.234-0.203 0.24 -0.133 0.005-0.231-0.103-0.362-0.049 -0.111 0.046-0.18 0.59-0.215 0.712 -0.031 0.104-0.026 0.379-0.145 0.415 -0.075 0.022-0.179 0.066-0.257 0.063 -0.062-0.003-0.142-0.028-0.227-0.016 -0.008 0.001-0.015 0.002-0.022 0.003 -0.243 0.038-0.559 0.283-0.804 0.238C132.531 27.248 132.477 27.215 132.444 27.172L132.444 27.172z"/><polygon class="siteLogo-fill--inverse" points="131.583,16.104 130.47,15.447 129.299,15.991 129.58,14.73 128.702,13.783 129.987,13.661 130.615,12.532 131.13,13.718 132.397,13.967 131.428,14.821"/><path class="siteLogo-fill" d="M154.667 18.287c-1.549 0-2.557-1.026-2.557-2.575V7.753c0-1.549 1.008-2.575 2.557-2.575h3.943c1.548 0 2.574 1.026 2.574 2.575v1.836h-2.16V8.078c0-0.54-0.307-0.864-0.847-0.864h-3.079c-0.521 0-0.828 0.324-0.828 0.864v7.31c0 0.54 0.307 0.864 0.828 0.864h3.079c0.54 0 0.847-0.324 0.847-0.864v-1.512h2.16v1.836c0 1.549-1.026 2.575-2.574 2.575H154.667zM168.563 8.419c1.477 0 2.521 1.044 2.521 2.521v4.825c0 1.477-1.044 2.521-2.521 2.521h-2.936c-1.476 0-2.521-1.045-2.521-2.521V10.94c0-1.477 1.045-2.521 2.521-2.521H168.563zM169.014 11.03c0-0.504-0.307-0.846-0.811-0.846h-2.215c-0.504 0-0.81 0.342-0.81 0.846v4.646c0 0.505 0.306 0.847 0.81 0.847h2.215c0.504 0 0.811-0.342 0.811-0.847V11.03zM175.349 4.657v13.558h-2.053V4.657H175.349zM179.812 15.568c0 0.521 0.306 0.864 0.828 0.864h0.45c0.594 0 1.242-0.145 1.854-0.505l0.559-0.342V8.492h2.07v9.723h-2.07v-1.278l-0.559 0.468c-0.468 0.396-1.116 0.883-2.017 0.883h-0.666c-1.477 0-2.521-1.045-2.521-2.521V8.492h2.07V15.568zM198.535 8.419c1.477 0 2.521 1.044 2.521 2.521v7.274h-2.07v-7.076c0-0.522-0.307-0.864-0.828-0.864h-0.162c-0.576 0-1.242 0.145-1.837 0.504l-0.576 0.343v7.094h-2.053v-7.076c0-0.522-0.324-0.864-0.828-0.864h-0.162c-0.594 0-1.225 0.145-1.854 0.504l-0.559 0.343v7.094h-2.07V8.492h2.07V9.77l0.559-0.469c0.468-0.396 1.135-0.882 2.017-0.882h0.36c1.116 0 1.998 0.594 2.341 1.53l0.756-0.648c0.468-0.396 1.116-0.882 2.017-0.882H198.535zM208.829 8.419c1.477 0 2.521 1.044 2.521 2.521v4.825c0 1.477-1.044 2.521-2.521 2.521h-0.828c-0.882 0-1.549-0.486-2.017-0.883l-0.558-0.468v1.278h-2.071V4.657h2.071V9.77l0.558-0.469c0.468-0.396 1.135-0.882 2.017-0.882H208.829zM209.298 11.138c0-0.522-0.324-0.864-0.829-0.864h-0.63c-0.594 0-1.225 0.145-1.854 0.504l-0.558 0.343v4.465l0.558 0.342c0.63 0.36 1.261 0.505 1.854 0.505h0.63c0.505 0 0.829-0.343 0.829-0.864V11.138zM215.524 15.568c0 0.521 0.306 0.864 0.828 0.864h0.45c0.594 0 1.242-0.145 1.854-0.505l0.559-0.342V8.492h2.07v9.723h-2.07v-1.278l-0.559 0.468c-0.468 0.396-1.116 0.883-2.017 0.883h-0.666c-1.477 0-2.521-1.045-2.521-2.521V8.492h2.07V15.568zM228.827 10.922c0-0.504-0.252-0.811-0.756-0.811h-1.765c-0.504 0-0.757 0.307-0.757 0.811v0.558c0 0.45 0.253 0.612 0.721 0.685l2.736 0.45c1.459 0.234 2.107 0.937 2.107 2.089v1.116c0 1.458-1.009 2.467-2.449 2.467h-2.845c-1.458 0-2.467-1.009-2.467-2.467v-0.702h2.053v0.594c0 0.504 0.271 0.811 0.756 0.811h2.143c0.505 0 0.757-0.307 0.757-0.811v-0.684c0-0.45-0.271-0.631-0.738-0.702l-2.737-0.45c-1.44-0.234-2.106-0.919-2.106-2.089v-0.9c0-1.459 1.009-2.467 2.467-2.467h2.484c1.441 0 2.449 1.008 2.449 2.467v0.54h-2.053V10.922zM235.073 17.656c0 0.486-0.433 1.117-0.793 1.621l-0.882 1.278h-0.937l1.278-2.341h-0.882v-2.341h2.215V17.656zM244.667 18.287c-1.549 0-2.557-1.026-2.557-2.575V7.753c0-1.549 1.008-2.575 2.557-2.575h4.177c1.549 0 2.575 1.026 2.575 2.575v7.958c0 1.549-1.026 2.575-2.575 2.575H244.667zM244.271 15.387c0 0.54 0.307 0.864 0.828 0.864h3.313c0.54 0 0.846-0.324 0.846-0.864v-7.31c0-0.54-0.306-0.864-0.846-0.864h-3.313c-0.521 0-0.828 0.324-0.828 0.864V15.387zM259.626 11.138c0-0.522-0.306-0.864-0.828-0.864h-0.45c-0.594 0-1.225 0.145-1.854 0.504l-0.559 0.343v7.094h-2.07V4.657h2.07V9.77l0.559-0.469c0.468-0.396 1.135-0.882 2.017-0.882h0.666c1.477 0 2.521 1.044 2.521 2.521v7.274h-2.07V11.138zM264.034 6.745V4.657h2.215v2.088H264.034zM266.177 18.214h-2.07V8.492h2.07V18.214zM273.864 8.419c1.477 0 2.521 1.044 2.521 2.521v4.825c0 1.477-1.044 2.521-2.521 2.521h-2.936c-1.476 0-2.521-1.045-2.521-2.521V10.94c0-1.477 1.045-2.521 2.521-2.521H273.864zM274.314 11.03c0-0.504-0.307-0.846-0.811-0.846h-2.215c-0.504 0-0.81 0.342-0.81 0.846v4.646c0 0.505 0.306 0.847 0.81 0.847h2.215c0.504 0 0.811-0.342 0.811-0.847V11.03z"/>
</svg>
