<?xml version="1.0" encoding="utf-8"?>
<!-- Generator: Adobe Illustrator 16.0.0, SVG Export Plug-In . SVG Version: 6.00 Build 0)  -->
<!DOCTYPE svg PUBLIC "-//W3C//DTD SVG 1.1//EN" "http://www.w3.org/Graphics/SVG/1.1/DTD/svg11.dtd">
<svg version="1.1" id="Logo" xmlns="http://www.w3.org/2000/svg" xmlns:xlink="http://www.w3.org/1999/xlink" x="0px" y="0px"
	 width="350px" height="39.5px" viewBox="0 0 350 39.5" enable-background="new 0 0 350 39.5" xml:space="preserve">
<g>
	<path fill="#2B2A28" d="M24.88,19.285v14.437h7.584v2.687H22V19.285H24.88z"/>
	<path fill="#2B2A28" d="M34.888,21.259V18.5h2.953v2.759H34.888z M37.744,36.409h-2.76V23.566h2.76V36.409z"/>
	<path fill="#2B2A28" d="M46.072,20.83c-0.648,0-1.08,0.452-1.08,1.118v1.618h3.336v2.259h-3.312v10.583h-2.76V25.825h-2.16v-2.259
		h2.16V21.83c0-1.951,1.392-3.33,3.36-3.33h2.712v2.33H46.072z"/>
	<path fill="#2B2A28" d="M52.479,33.103c0,0.642,0.408,1.094,1.08,1.094h2.784c0.672,0,1.08-0.452,1.08-1.094v-0.761h2.76v0.832
		c0,1.951-1.392,3.33-3.36,3.33H53.08c-1.968,0-3.36-1.379-3.36-3.33V26.8c0-1.95,1.392-3.329,3.36-3.329h3.745
		c1.968,0,3.36,1.379,3.36,3.329v3.972h-7.705V33.103z M53.56,25.778c-0.672,0-1.08,0.452-1.08,1.094v1.926h4.944v-1.926
		c0-0.642-0.408-1.094-1.08-1.094H53.56z"/>
	<path fill="#2B2A28" d="M81.135,28.917v4.186c0,2.045-1.368,3.4-3.432,3.4h-5.017c-2.064,0-3.432-1.355-3.432-3.4v-2.902
		c0-1.118,0.624-2.093,1.728-2.568c-1.008-0.571-1.536-1.451-1.536-2.569V22.59c0-2.045,1.368-3.401,3.433-3.401h4.152
		c2.064,0,3.432,1.356,3.432,3.401v1.594h-2.88v-1.213c0-0.689-0.408-1.141-1.128-1.141h-3c-0.72,0-1.128,0.452-1.128,1.141v2.259
		c0,0.809,0.288,1.142,1.176,1.142h9.432v2.545H81.135z M73.503,28.917c-0.912,0-1.368,0.333-1.368,1.118v2.687
		c0,0.69,0.408,1.142,1.128,1.142h3.864c0.72,0,1.128-0.452,1.128-1.142v-3.805H73.503z"/>
	<path fill="#2B2A28" d="M94.886,36.503c-2.064,0-3.408-1.355-3.408-3.4V22.59c0-2.045,1.344-3.401,3.408-3.401h5.256
		c2.063,0,3.433,1.356,3.433,3.401v2.426h-2.88v-1.997c0-0.714-0.408-1.142-1.128-1.142h-4.104c-0.696,0-1.104,0.428-1.104,1.142
		v9.655c0,0.714,0.408,1.142,1.104,1.142h4.104c0.72,0,1.128-0.428,1.128-1.142v-1.997h2.88v2.426c0,2.045-1.369,3.4-3.433,3.4
		H94.886z"/>
	<path fill="#2B2A28" d="M112.503,25.992c-0.793,0-1.633,0.19-2.473,0.69l-0.744,0.428v9.299h-2.76V23.566h2.76v1.688l0.744-0.618
		c0.625-0.524,1.512-1.166,2.688-1.166h1.441v2.521H112.503z"/>
	<path fill="#2B2A28" d="M122.558,23.471c1.969,0,3.434,1.451,3.434,3.401v9.537h-2.762V34.72l-0.744,0.618
		c-0.623,0.523-1.391,1.165-2.592,1.165h-1.08c-1.967,0-3.359-1.379-3.359-3.33v-1.212c0-2.046,1.295-3.33,3.359-3.33h0.6
		c0.984,0,2.305,0.119,3.816,0.428v-2.14c0-0.666-0.406-1.118-1.055-1.118h-2.449c-0.672,0-1.08,0.452-1.08,1.118v0.404h-2.76
		v-0.452c0-1.95,1.465-3.401,3.432-3.401H122.558z M119.294,30.582c-0.672,0-1.08,0.476-1.08,1.119v1.212
		c0,0.69,0.408,1.142,1.104,1.142h0.793c0.791,0,1.561-0.19,2.375-0.666l0.744-0.452v-2.355H119.294z"/>
	<path fill="#2B2A28" d="M133.886,20.83c-0.648,0-1.08,0.452-1.08,1.118v1.618h3.336v2.259h-3.312v10.583h-2.76V25.825h-2.16v-2.259
		h2.16V21.83c0-1.951,1.393-3.33,3.361-3.33h2.711v2.33H133.886z"/>
	<path fill="#2B2A28" d="M142.045,32.937c0,0.642,0.408,1.118,1.08,1.118h2.713v2.354h-3.193c-1.969,0-3.359-1.38-3.359-3.33v-7.254
		h-2.113v-2.259h2.16v-4.281h2.664v4.281h3.842v2.259h-3.793V32.937z"/>
	<path fill="#2B2A28" d="M156.301,36.409h-2.76l2.279-12.843h2.76L156.301,36.409z M156.133,21.259l0.48-2.759h2.975l-0.504,2.759
		H156.133z"/>
	<path fill="#2B2A28" d="M168.732,26.943c0.119-0.666-0.096-1.023-0.744-1.023h-0.576c-0.768,0-1.68,0.167-2.568,0.666l-0.84,0.452
		l-1.68,9.371h-2.76l2.279-12.843h2.76l-0.359,1.688l0.816-0.618c0.672-0.571,1.631-1.166,2.783-1.166h0.865
		c1.92,0,3.119,1.474,2.783,3.425l-1.68,9.513h-2.76L168.732,26.943z"/>
	<path fill="#2B2A28" d="M183.779,36.503c-2.062,0-3.408-1.355-3.408-3.4V22.59c0-2.045,1.346-3.401,3.408-3.401h5.258
		c2.064,0,3.432,1.356,3.432,3.401v2.426h-2.881v-1.997c0-0.714-0.408-1.142-1.127-1.142h-4.105c-0.695,0-1.104,0.428-1.104,1.142
		v9.655c0,0.714,0.408,1.142,1.104,1.142h4.105c0.719,0,1.127-0.428,1.127-1.142v-1.997h2.881v2.426c0,2.045-1.367,3.4-3.432,3.4
		H183.779z"/>
	<path fill="#2B2A28" d="M202.309,23.471c1.967,0,3.359,1.379,3.359,3.329v6.374c0,1.951-1.393,3.33-3.359,3.33h-3.912
		c-1.969,0-3.361-1.379-3.361-3.33V26.8c0-1.95,1.393-3.329,3.361-3.329H202.309z M202.908,26.919c0-0.666-0.408-1.118-1.08-1.118
		h-2.953c-0.672,0-1.08,0.452-1.08,1.118v6.136c0,0.667,0.408,1.119,1.08,1.119h2.953c0.672,0,1.08-0.452,1.08-1.119V26.919z"/>
	<path fill="#2B2A28" d="M211.355,18.5v17.909h-2.736V18.5H211.355z"/>
	<path fill="#2B2A28" d="M217.306,32.913c0,0.69,0.408,1.142,1.105,1.142h0.6c0.791,0,1.656-0.19,2.473-0.666l0.742-0.452v-9.371
		h2.762v12.843h-2.762V34.72l-0.742,0.618c-0.625,0.523-1.488,1.165-2.689,1.165h-0.889c-1.967,0-3.358-1.379-3.358-3.33v-9.608
		h2.759V32.913z"/>
	<path fill="#2B2A28" d="M242.267,23.471c1.969,0,3.361,1.379,3.361,3.329v9.609h-2.76v-9.347c0-0.69-0.408-1.142-1.105-1.142
		h-0.215c-0.768,0-1.656,0.191-2.449,0.666l-0.768,0.452v9.371h-2.736v-9.347c0-0.69-0.432-1.142-1.104-1.142h-0.217
		c-0.791,0-1.631,0.191-2.473,0.666l-0.744,0.452v9.371h-2.76V23.566h2.76v1.688l0.744-0.618c0.625-0.524,1.514-1.166,2.689-1.166
		h0.48c1.486,0,2.664,0.785,3.119,2.021l1.008-0.856c0.625-0.524,1.488-1.166,2.689-1.166H242.267z"/>
	<path fill="#2B2A28" d="M255.995,23.471c1.967,0,3.359,1.379,3.359,3.329v6.374c0,1.951-1.393,3.33-3.359,3.33h-1.105
		c-1.176,0-2.064-0.642-2.688-1.165l-0.744-0.618v1.688h-2.76V18.5h2.76v6.754l0.744-0.618c0.623-0.524,1.512-1.166,2.688-1.166
		H255.995z M256.618,27.062c0-0.69-0.432-1.142-1.104-1.142h-0.84c-0.793,0-1.633,0.191-2.473,0.666l-0.744,0.452v5.899l0.744,0.452
		c0.84,0.475,1.68,0.666,2.473,0.666h0.84c0.672,0,1.104-0.452,1.104-1.142V27.062z"/>
	<path fill="#2B2A28" d="M264.921,32.913c0,0.69,0.408,1.142,1.105,1.142h0.6c0.791,0,1.656-0.19,2.473-0.666l0.742-0.452v-9.371
		h2.762v12.843h-2.762V34.72l-0.742,0.618c-0.625,0.523-1.488,1.165-2.689,1.165h-0.889c-1.967,0-3.359-1.379-3.359-3.33v-9.608
		h2.76V32.913z"/>
	<path fill="#2B2A28" d="M282.657,26.776c0-0.666-0.336-1.07-1.008-1.07h-2.354c-0.672,0-1.008,0.405-1.008,1.07v0.737
		c0,0.594,0.336,0.808,0.961,0.904l3.648,0.594c1.943,0.31,2.809,1.237,2.809,2.759v1.475c0,1.926-1.346,3.258-3.266,3.258h-3.791
		c-1.945,0-3.289-1.332-3.289-3.258v-0.927h2.736v0.785c0,0.666,0.359,1.07,1.008,1.07h2.857c0.672,0,1.008-0.404,1.008-1.07v-0.904
		c0-0.595-0.361-0.833-0.984-0.928l-3.648-0.594c-1.92-0.31-2.809-1.213-2.809-2.759v-1.189c0-1.927,1.344-3.258,3.289-3.258h3.312
		c1.92,0,3.264,1.332,3.264,3.258v0.713h-2.736V26.776z"/>
	<path fill="#2B2A28" d="M290.984,35.671c0,0.643-0.576,1.475-1.056,2.141l-1.176,1.688h-1.248l1.703-3.091h-1.176v-3.092h2.952
		V35.671z"/>
	<path fill="#2B2A28" d="M303.775,36.503c-2.062,0-3.408-1.355-3.408-3.4V22.59c0-2.045,1.346-3.401,3.408-3.401h5.57
		c2.062,0,3.432,1.356,3.432,3.401v10.513c0,2.045-1.369,3.4-3.432,3.4H303.775z M303.248,32.674c0,0.714,0.408,1.142,1.104,1.142
		h4.418c0.719,0,1.127-0.428,1.127-1.142v-9.655c0-0.714-0.408-1.142-1.127-1.142h-4.418c-0.695,0-1.104,0.428-1.104,1.142V32.674z"
		/>
	<path fill="#2B2A28" d="M316.424,19.285h2.881v7.04h6.816v-7.04H329v17.124h-2.879v-7.42h-6.816v7.42h-2.881V19.285z"/>
</g>
<line id="Line" fill="none" stroke="#2B2A28" stroke-width="3" stroke-miterlimit="10" x1="0" y1="11" x2="350" y2="11"/>
</svg>
