<?xml version="1.0" encoding="utf-8"?>
<!-- Generator: Adobe Illustrator 16.0.0, SVG Export Plug-In . SVG Version: 6.00 Build 0)  -->
<!DOCTYPE svg PUBLIC "-//W3C//DTD SVG 1.1//EN" "http://www.w3.org/Graphics/SVG/1.1/DTD/svg11.dtd">
<svg version="1.1" id="Logo" xmlns="http://www.w3.org/2000/svg" xmlns:xlink="http://www.w3.org/1999/xlink" x="0px" y="0px"
	 width="339px" height="35px" viewBox="0 0 339 35" enable-background="new 0 0 339 35" xml:space="preserve">
<g>
	<path fill="#2B2A28" d="M26.771,34.808L21.099,12.02l-5.671,22.789H8.603L0,0.192h7.401l4.71,25.289l6.248-25.289h5.479
		l6.248,25.289l4.71-25.289h7.113l-8.604,34.616H26.771z"/>
	<path fill="#2B2A28" d="M69.205,0.192v6.539H53.489v7.115h12.737v6.538H53.489v7.886h15.716v6.538H46.568V0.192H69.205z"/>
	<path fill="#2B2A28" d="M92.8,0.192c4.038,0,6.825,2.789,6.825,6.827v4.904c0,2.068-0.817,3.895-3.028,5.192
		c2.403,1.154,3.412,3.125,3.412,5.193v5.673c0,4.039-2.788,6.827-6.825,6.827H75.306V0.192H92.8z M91.07,14.039
		c1.25,0,1.634-0.289,1.634-1.635V8.269c0-1.057-0.577-1.635-1.634-1.635h-8.843v7.404H91.07z M91.455,28.366
		c1.058,0,1.634-0.577,1.634-1.634v-5c0-1.442-0.865-1.539-2.21-1.539h-8.651v8.173H91.455z"/>
	<path fill="#2B2A28" d="M129.95,34.808l-5.671-22.789l-5.672,22.789h-6.825L103.18,0.192h7.401l4.709,25.289l6.249-25.289h5.479
		l6.248,25.289l4.71-25.289h7.112l-8.603,34.616H129.95z"/>
	<path fill="#2B2A28" d="M155.179,35c-4.037,0-6.826-2.788-6.826-6.826V6.827c0-4.038,2.789-6.827,6.826-6.827h11.583
		c4.037,0,6.825,2.789,6.825,6.827v21.347c0,4.038-2.788,6.826-6.825,6.826H155.179z M155.274,26.827
		c0,1.058,0.577,1.635,1.634,1.635h8.123c1.057,0,1.634-0.577,1.634-1.635V8.173c0-1.057-0.577-1.635-1.634-1.635h-8.123
		c-1.057,0-1.634,0.578-1.634,1.635V26.827z"/>
	<path fill="#2B2A28" d="M198.431,34.808l-5.575-12.837h-5.575v12.837h-6.921V0.192h17.64c4.037,0,6.824,2.789,6.824,6.827v8.125
		c0,3.269-1.826,5.722-4.71,6.539l5.767,13.125H198.431z M197.902,8.365c0-1.058-0.576-1.634-1.634-1.634h-8.988v8.798h8.988
		c1.058,0,1.634-0.577,1.634-1.635V8.365z"/>
	<path fill="#2B2A28" d="M223.275,19.76l-4.854,6.202v8.847h-6.825V0.192h6.825v16.251l11.967-16.251h8.123L227.89,13.846
		l11.15,20.962h-7.786L223.275,19.76z"/>
	<path fill="#2B2A28" d="M266.192,0.192v6.539h-15.716v7.115h12.735v6.538h-12.735v7.886h15.716v6.538h-22.638V0.192H266.192z"/>
	<path fill="#2B2A28" d="M271.141,34.808v-7.02h6.728v7.02H271.141z"/>
	<path fill="#2B2A28" d="M302.38,34.808l-5.575-12.837h-5.575v12.837h-6.922V0.192h17.64c4.037,0,6.825,2.789,6.825,6.827v8.125
		c0,3.269-1.827,5.722-4.71,6.539l5.767,13.125H302.38z M301.851,8.365c0-1.058-0.577-1.634-1.634-1.634h-8.987v8.798h8.987
		c1.057,0,1.634-0.577,1.634-1.635V8.365z"/>
	<path fill="#2B2A28" d="M331.694,8.173c0-1.057-0.577-1.635-1.634-1.635h-6.922c-1.057,0-1.634,0.578-1.634,1.635v3.27
		c0,1.058,0.577,1.394,1.634,1.635L332.078,15c3.749,0.817,6.922,3.077,6.922,6.923v6.251c0,4.038-2.787,6.826-6.825,6.826h-10.767
		c-4.037,0-6.824-2.788-6.824-6.826V23.75h6.729v3.077c0,1.058,0.577,1.635,1.634,1.635h7.498c1.058,0,1.634-0.577,1.634-1.635
		v-3.654c0-1.057-0.576-1.394-1.634-1.634l-8.939-1.923c-3.748-0.817-6.921-3.077-6.921-6.923V6.827
		c0-4.038,2.787-6.827,6.824-6.827h10.19c4.037,0,6.824,2.789,6.824,6.827v4.039h-6.729V8.173z"/>
</g>
</svg>
