<?xml version="1.0" encoding="utf-8"?>
<!-- Generator: Adobe Illustrator 16.0.0, SVG Export Plug-In . SVG Version: 6.00 Build 0)  -->
<!DOCTYPE svg PUBLIC "-//W3C//DTD SVG 1.1//EN" "http://www.w3.org/Graphics/SVG/1.1/DTD/svg11.dtd">
<svg version="1.1" id="Icons" xmlns="http://www.w3.org/2000/svg" xmlns:xlink="http://www.w3.org/1999/xlink" x="0px" y="0px"
	 width="576px" height="144px" viewBox="0 0 576 144" enable-background="new 0 0 576 144" xml:space="preserve">
<g id="Active">
	<path fill="#FCDD00" d="M558.006,142.904c9.39,0,17.002-7.604,17.002-16.984c0-9.379-7.612-16.982-17.002-16.982
		c-9.389,0-17.001,7.604-17.001,16.982C541.005,135.301,548.617,142.904,558.006,142.904"/>
	<path d="M558.007,116.579c2.597,0,4.806,0.915,6.623,2.745c1.815,1.828,2.727,4.027,2.727,6.598c0,2.595-0.909,4.8-2.727,6.616
		c-1.818,1.817-4.026,2.726-6.623,2.726c-2.573,0-4.773-0.908-6.605-2.726c-1.833-1.816-2.748-4.021-2.748-6.616
		c0-2.568,0.915-4.768,2.748-6.598C553.233,117.494,555.434,116.579,558.007,116.579L558.007,116.579 M565.993,125.922
		c0-1.713-0.506-3.265-1.52-4.652c-1.013-1.387-2.325-2.352-3.935-2.896c-0.233,0.312-0.337,0.52-0.312,0.621
		c0.052,0.492,0.168,0.824,0.353,0.992c0.183,0.169,0.375,0.214,0.584,0.138l0.621-0.233c0,0,0.134-0.013,0.392-0.037
		c0.285,0.311,0.285,0.614,0,0.913c-0.286,0.3-0.578,0.661-0.877,1.091c-0.299,0.429-0.306,0.929-0.021,1.498
		c0.442,0.831,1.065,1.245,1.871,1.245c0.363,0.025,0.645,0.26,0.838,0.699c0.193,0.442,0.308,0.869,0.331,1.285
		c0.129,1.038,0.039,1.946-0.271,2.726c-0.286,0.569-0.195,1.062,0.271,1.479C565.436,129.333,565.993,127.712,565.993,125.922
		L565.993,125.922 M556.915,118.059c-1.454,0.183-2.747,0.728-3.877,1.637c-1.13,0.907-1.955,2.037-2.475,3.387
		c0.077,0,0.22,0.013,0.429,0.039c0.209,0.023,0.39,0.045,0.547,0.058c0.154,0.015,0.322,0.039,0.507,0.078
		c0.181,0.039,0.337,0.091,0.466,0.156c0.131,0.063,0.209,0.147,0.234,0.253c0.052,0.154-0.039,0.446-0.272,0.876
		c-0.232,0.428-0.351,0.821-0.351,1.187c0,0.391,0.247,0.753,0.739,1.089c0.492,0.339,0.739,0.638,0.739,0.896
		c0,0.363,0.052,0.806,0.156,1.323c0.104,0.519,0.156,0.805,0.156,0.856c0,0.154,0.232,0.505,0.701,1.051
		c0.467,0.544,0.805,0.816,1.012,0.816c0.129,0,0.203-0.145,0.215-0.43c0.014-0.285,0-0.636-0.037-1.051
		c-0.041-0.415-0.061-0.676-0.061-0.778c0-0.415,0.092-0.895,0.271-1.438c0.156-0.545,0.539-0.999,1.149-1.361
		c0.608-0.364,0.969-0.661,1.07-0.895c0.209-0.441,0.268-0.839,0.178-1.188c-0.094-0.351-0.202-0.629-0.333-0.836
		c-0.129-0.208-0.353-0.391-0.662-0.547c-0.312-0.154-0.578-0.266-0.799-0.329c-0.221-0.064-0.461-0.123-0.721-0.176
		c-0.262-0.053-0.402-0.078-0.432-0.078c-0.205-0.078-0.479-0.123-0.814-0.138c-0.338-0.013-0.57,0.009-0.703,0.06
		c-0.13,0.053-0.307-0.021-0.526-0.215c-0.219-0.193-0.33-0.382-0.33-0.562c0-0.13,0.1-0.306,0.292-0.526
		c0.195-0.221,0.423-0.46,0.684-0.72c0.262-0.259,0.439-0.454,0.547-0.583c0.104-0.182,0.213-0.318,0.33-0.409
		c0.115-0.091,0.262-0.194,0.43-0.312c0.17-0.117,0.344-0.254,0.523-0.408c0.055-0.052,0.217-0.162,0.488-0.331
		C556.664,118.338,556.838,118.188,556.915,118.059L556.915,118.059 M555.514,133.512c0.857,0.26,1.688,0.392,2.493,0.392
		c1.662,0,3.13-0.442,4.399-1.325c-0.337-0.57-1.104-0.791-2.299-0.661c-0.312,0.026-0.73,0.138-1.265,0.331
		c-0.533,0.194-0.838,0.306-0.916,0.33c-0.96,0.208-1.454,0.312-1.479,0.312c-0.155,0.025-0.324,0.116-0.508,0.272
		C555.758,133.315,555.617,133.432,555.514,133.512L555.514,133.512"/>
	<path fill="#44BBFF" d="M522.219,142.955c9.39,0,17.002-7.604,17.002-16.984c0-9.379-7.612-16.982-17.002-16.982
		c-9.389,0-17.001,7.604-17.001,16.982C505.218,135.351,512.83,142.955,522.219,142.955"/>
	<path fill="#FFFFFF" d="M531.563,121.832c-0.082,1.816-1.354,4.302-3.812,7.454c-2.544,3.298-4.698,4.945-6.46,4.945
		c-1.092,0-2.013-1.004-2.768-3.014c-0.505-1.847-1.007-3.69-1.511-5.53c-0.562-2.014-1.16-3.019-1.805-3.019
		c-0.142,0-0.627,0.293-1.468,0.88l-0.881-1.133c0.922-0.809,1.83-1.618,2.728-2.428c1.229-1.062,2.15-1.62,2.77-1.679
		c1.45-0.141,2.348,0.854,2.686,2.976c0.358,2.291,0.612,3.716,0.754,4.273c0.419,1.897,0.879,2.847,1.384,2.847
		c0.389,0,0.978-0.612,1.759-1.842c0.784-1.229,1.201-2.164,1.26-2.809c0.111-1.061-0.308-1.59-1.26-1.59
		c-0.445,0-0.908,0.095-1.383,0.293c0.924-2.988,2.686-4.441,5.285-4.356C530.769,118.159,531.678,119.404,531.563,121.832z"/>
	<path fill="#C4302B" d="M486.203,142.955c9.388,0,16.999-7.604,16.999-16.984c0-9.379-7.611-16.984-16.999-16.984
		c-9.392,0-17.002,7.604-17.002,16.984S476.812,142.955,486.203,142.955"/>
	<path fill="#FFFFFF" d="M489.835,125.98l-6.126,3.594v-7.188L489.835,125.98z M495.556,129.311v-6.682c0,0,0-3.223-3.225-3.223
		h-12.263c0,0-3.224,0-3.224,3.223v6.682c0,0,0,3.222,3.224,3.222h12.263C492.332,132.532,495.556,132.532,495.556,129.311"/>
	<path fill="#00ACEE" d="M450.193,142.91c9.391,0,17-7.604,17-16.984c0-9.379-7.609-16.984-17-16.984
		c-9.39,0-17.001,7.605-17.001,16.984C433.191,135.307,440.803,142.91,450.193,142.91"/>
	<path fill="#FFFFFF" d="M459.566,120.95c-0.688,0.305-1.43,0.511-2.207,0.603c0.794-0.476,1.404-1.228,1.689-2.123
		c-0.742,0.439-1.563,0.759-2.441,0.931c-0.699-0.745-1.696-1.212-2.805-1.212c-2.121,0-3.842,1.72-3.842,3.841
		c0,0.301,0.033,0.594,0.099,0.874c-3.191-0.16-6.022-1.688-7.921-4.014c-0.332,0.569-0.52,1.228-0.52,1.934
		c0,1.328,0.678,2.506,1.709,3.194c-0.629-0.02-1.225-0.192-1.742-0.479v0.048c0,1.861,1.325,3.413,3.085,3.767
		c-0.323,0.09-0.662,0.136-1.016,0.136c-0.245,0-0.487-0.024-0.723-0.069c0.489,1.525,1.908,2.637,3.59,2.665
		c-1.313,1.031-2.973,1.644-4.772,1.644c-0.311,0-0.615-0.018-0.916-0.053c1.701,1.089,3.722,1.726,5.892,1.726
		c7.07,0,10.936-5.849,10.936-10.926c0-0.166-0.005-0.332-0.013-0.495C458.4,122.396,459.054,121.719,459.566,120.95"/>
	<path fill="#34526F" d="M414.183,142.954c9.389,0,17-7.604,17-16.984c0-9.379-7.611-16.983-17-16.983s-17.001,7.604-17.001,16.983
		S404.795,142.954,414.183,142.954"/>
	<path fill="#FFFFFF" d="M414.659,116.625v4.724h4.438v2.936h-4.438v4.794c0,1.084,0.057,1.778,0.172,2.086
		c0.112,0.311,0.328,0.555,0.643,0.738c0.412,0.246,0.885,0.368,1.419,0.368c0.947,0,1.891-0.308,2.826-0.923v2.951
		c-0.8,0.375-1.523,0.639-2.171,0.791c-0.648,0.152-1.35,0.229-2.104,0.229c-0.854,0-1.61-0.108-2.269-0.323
		c-0.656-0.218-1.218-0.522-1.681-0.923c-0.467-0.4-0.788-0.826-0.968-1.276c-0.18-0.447-0.269-1.102-0.269-1.956v-6.556h-2.069
		v-2.644c0.737-0.238,1.365-0.583,1.892-1.024c0.521-0.445,0.943-0.979,1.261-1.606c0.316-0.622,0.536-1.417,0.655-2.381h2.661
		v-0.004H414.659z"/>
	<path fill="#C8232C" d="M378.165,142.954c9.389,0,17-7.604,17-16.984c0-9.379-7.611-16.984-17-16.984
		c-9.391,0-17.001,7.604-17.001,16.984C361.164,135.351,368.776,142.954,378.165,142.954"/>
	<path fill="#FFFFFF" d="M378.166,116.579c-5.166,0-9.355,4.184-9.355,9.345c0,3.826,2.306,7.114,5.603,8.56
		c-0.026-0.651-0.005-1.438,0.162-2.146c0.181-0.758,1.201-5.093,1.201-5.093s-0.298-0.597-0.298-1.477
		c0-1.387,0.806-2.421,1.806-2.421c0.851,0,1.263,0.642,1.263,1.403c0,0.854-0.546,2.133-0.826,3.314
		c-0.235,0.993,0.497,1.802,1.476,1.802c1.772,0,2.968-2.273,2.968-4.969c0-2.049-1.381-3.583-3.894-3.583
		c-2.838,0-4.604,2.114-4.604,4.476c0,0.814,0.239,1.388,0.616,1.833c0.174,0.205,0.195,0.286,0.135,0.521
		c-0.045,0.169-0.147,0.585-0.19,0.749c-0.062,0.235-0.254,0.319-0.468,0.232c-1.308-0.531-1.916-1.963-1.916-3.569
		c0-2.653,2.24-5.839,6.685-5.839c3.572,0,5.925,2.582,5.925,5.354c0,3.666-2.04,6.403-5.05,6.403c-1.01,0-1.96-0.546-2.283-1.165
		c0,0-0.543,2.152-0.658,2.568c-0.197,0.72-0.586,1.44-0.941,2.003c0.841,0.248,1.73,0.385,2.651,0.385
		c5.166,0,9.354-4.185,9.354-9.346S383.332,116.579,378.166,116.579"/>
	<path fill="#0E76A8" d="M342.046,142.91c9.39,0,17-7.604,17-16.984c0-9.379-7.61-16.984-17-16.984
		c-9.389,0-17.001,7.604-17.001,16.984C325.045,135.307,332.657,142.91,342.046,142.91"/>
	<path fill="#FFFFFF" d="M336.81,133.812h-3.646v-11.661h3.646V133.812z M334.893,120.694h-0.024c-1.319,0-2.177-0.893-2.177-2.02
		c0-1.151,0.884-2.025,2.229-2.025c1.345,0,2.173,0.871,2.199,2.021C337.118,119.801,336.264,120.694,334.893,120.694z
		 M351.4,133.812h-4.136v-6.035c0-1.578-0.646-2.656-2.066-2.656c-1.091,0-1.693,0.729-1.977,1.429
		c-0.104,0.252-0.09,0.603-0.09,0.953v6.31h-4.096c0,0,0.053-10.688,0-11.661h4.096v1.831c0.242-0.802,1.551-1.941,3.641-1.941
		c2.594,0,4.628,1.678,4.628,5.287V133.812z"/>
	<path fill="#3F729B" d="M306.029,142.955c9.389,0,17-7.604,17-16.984c0-9.379-7.611-16.984-17-16.984c-9.392,0-17,7.604-17,16.984
		S296.639,142.955,306.029,142.955"/>
	<path fill="#FFFFFF" d="M311.769,116.625h-11.477c-1.994,0-3.616,1.618-3.616,3.61v3.815v7.651c0,1.991,1.622,3.611,3.616,3.611
		h11.477c1.994,0,3.616-1.62,3.616-3.611v-7.651v-3.815C315.385,118.243,313.763,116.625,311.769,116.625z M312.807,118.778h0.413
		v0.409v2.758l-3.161,0.012l-0.011-3.168L312.807,118.778z M303.361,124.053c0.6-0.83,1.57-1.372,2.671-1.372
		c1.099,0,2.069,0.542,2.669,1.372c0.392,0.54,0.624,1.201,0.624,1.918c0,1.813-1.479,3.288-3.293,3.288
		c-1.815,0-3.294-1.475-3.294-3.288C302.736,125.254,302.971,124.593,303.361,124.053z M313.562,131.704
		c0,0.987-0.804,1.79-1.793,1.79h-11.477c-0.989,0-1.793-0.803-1.793-1.79v-7.651h2.793c-0.242,0.593-0.377,1.239-0.377,1.918
		c0,2.817,2.294,5.111,5.114,5.111c2.819,0,5.114-2.294,5.114-5.111c0-0.679-0.137-1.325-0.377-1.918h2.793L313.562,131.704
		L313.562,131.704z"/>
	<path fill="#DD4B39" d="M270.016,142.864c9.39,0,17-7.603,17-16.984c0-9.379-7.61-16.983-17-16.983c-9.389,0-17,7.604-17,16.983
		C253.014,135.262,260.627,142.864,270.016,142.864"/>
	<path fill="#FFFFFF" d="M266.92,134.259c-2.225,0-3.83-1.408-3.83-3.098c0-1.657,1.992-3.035,4.217-3.011
		c0.519,0.006,1.003,0.088,1.441,0.229c1.206,0.84,2.073,1.311,2.317,2.269c0.046,0.193,0.071,0.395,0.071,0.598
		C271.137,132.937,270.048,134.259,266.92,134.259 M267.505,124.349c-1.492-0.045-2.912-1.669-3.169-3.627
		c-0.258-1.958,0.744-3.457,2.235-3.413c1.492,0.045,2.912,1.616,3.169,3.574C269.998,122.842,268.997,124.394,267.505,124.349
		 M270.6,127.249c-0.523-0.369-1.524-1.269-1.524-1.8c0-0.621,0.178-0.927,1.112-1.655c0.958-0.749,1.636-1.802,1.636-3.023
		c0-1.456-0.649-2.874-1.867-3.344h1.837l1.297-0.936h-5.795c-2.597,0-5.042,1.966-5.042,4.242c0,2.328,1.771,4.205,4.414,4.205
		c0.184,0,0.362-0.002,0.537-0.017c-0.172,0.326-0.295,0.697-0.295,1.08c0,0.646,0.349,1.171,0.789,1.602
		c-0.333,0-0.655,0.01-1.004,0.01c-3.218,0-5.694,2.047-5.694,4.17c0,2.092,2.715,3.398,5.932,3.398
		c3.668,0,5.694-2.079,5.694-4.171C272.626,129.333,272.131,128.33,270.6,127.249 M279.03,124.519h-2.256v-2.253h-1.815v2.253
		h-2.256v1.813h2.256v2.254h1.815v-2.254h2.256V124.519z"/>
	<path fill="#FFFFFF" d="M233.998,142.91c9.388,0,17-7.604,17-16.984c0-9.379-7.612-16.984-17-16.984c-9.39,0-17,7.604-17,16.984
		C216.998,135.307,224.608,142.91,233.998,142.91"/>
	<path d="M233.965,116.815c-5.164,0-9.351,4.184-9.351,9.343c0,4.127,2.678,7.629,6.395,8.863c0.468,0.088,0.639-0.201,0.639-0.449
		c0-0.223-0.008-0.811-0.013-1.591c-2.601,0.563-3.15-1.253-3.15-1.253c-0.425-1.079-1.038-1.364-1.038-1.364
		c-0.849-0.579,0.064-0.567,0.064-0.567c0.938,0.065,1.433,0.964,1.433,0.964c0.834,1.427,2.188,1.015,2.72,0.774
		c0.086-0.603,0.328-1.017,0.596-1.249c-2.077-0.235-4.26-1.037-4.26-4.616c0-1.021,0.364-1.852,0.962-2.507
		c-0.096-0.236-0.417-1.187,0.092-2.473c0,0,0.784-0.252,2.571,0.956c0.746-0.207,1.546-0.312,2.341-0.312
		c0.795,0.003,1.594,0.105,2.342,0.312c1.785-1.208,2.568-0.956,2.568-0.956c0.51,1.286,0.188,2.234,0.093,2.473
		c0.599,0.651,0.961,1.486,0.961,2.507c0,3.588-2.187,4.378-4.27,4.608c0.337,0.287,0.635,0.857,0.635,1.729
		c0,1.249-0.012,2.257-0.012,2.562c0,0.25,0.169,0.541,0.644,0.449c3.713-1.238,6.39-4.737,6.39-8.863
		C243.315,120.997,239.128,116.815,233.965,116.815z"/>
	<path fill="#FFFFFF" d="M198.093,142.901c9.388,0,17-7.603,17-16.984c0-9.379-7.612-16.983-17-16.983
		c-9.39,0-17.001,7.604-17.001,16.983C181.091,135.297,188.704,142.901,198.093,142.901"/>
	<g>
		<path fill="#FF0084" d="M207.447,125.917c0,2.273-1.844,4.117-4.12,4.117c-2.279,0-4.123-1.844-4.123-4.117
			c0-2.272,1.844-4.116,4.123-4.116C205.604,121.801,207.447,123.645,207.447,125.917z"/>
		<path fill="#0063DC" d="M196.979,125.917c0,2.273-1.843,4.117-4.123,4.117c-2.274,0-4.118-1.844-4.118-4.117
			c0-2.272,1.844-4.116,4.118-4.116C195.136,121.801,196.979,123.645,196.979,125.917z"/>
	</g>
	<path fill="#3B5998" d="M162.074,142.902c9.39,0,17-7.604,17-16.984c0-9.38-7.611-16.984-17-16.984c-9.389,0-17,7.604-17,16.984
		C145.074,135.299,152.686,142.902,162.074,142.902"/>
	<path fill="#FFFFFF" d="M157.099,122.753h1.935v-1.878c0-0.828,0.021-2.104,0.623-2.896c0.634-0.838,1.505-1.406,3.002-1.406
		c2.441,0,3.469,0.349,3.469,0.349l-0.483,2.861c0,0-0.806-0.231-1.559-0.231c-0.753,0-1.427,0.271-1.427,1.02v2.184h3.086
		l-0.216,2.797h-2.87v9.716h-3.625v-9.716h-1.935V122.753z"/>
	<path fill="#FDDD05" d="M126.059,142.902c9.389,0,17-7.604,17-16.984c0-9.38-7.611-16.984-17-16.984c-9.391,0-17,7.604-17,16.984
		C109.058,135.299,116.668,142.902,126.059,142.902"/>
	<path d="M135.408,123.312v8.276c0,0.46-0.164,0.854-0.491,1.18s-0.72,0.49-1.179,0.49h-15.361c-0.459,0-0.852-0.164-1.179-0.49
		c-0.327-0.326-0.49-0.72-0.49-1.18v-8.276c0.306,0.34,0.657,0.645,1.054,0.906c2.519,1.71,4.247,2.909,5.187,3.598
		c0.396,0.291,0.719,0.521,0.965,0.684c0.247,0.164,0.576,0.331,0.986,0.501c0.412,0.171,0.793,0.255,1.147,0.255h0.021
		c0.354,0,0.737-0.084,1.147-0.255c0.411-0.17,0.739-0.337,0.986-0.501c0.247-0.163,0.568-0.393,0.966-0.684
		c1.183-0.854,2.915-2.055,5.196-3.598C134.761,123.947,135.108,123.646,135.408,123.312z M135.408,120.246
		c0,0.55-0.171,1.074-0.512,1.574c-0.341,0.501-0.766,0.929-1.273,1.281c-2.615,1.814-4.243,2.943-4.884,3.39
		c-0.069,0.049-0.217,0.154-0.443,0.318c-0.227,0.164-0.413,0.295-0.563,0.395c-0.149,0.101-0.33,0.214-0.542,0.339
		c-0.213,0.126-0.413,0.221-0.601,0.282c-0.188,0.061-0.361,0.094-0.521,0.094h-0.021c-0.159,0-0.333-0.03-0.521-0.094
		c-0.188-0.062-0.388-0.156-0.601-0.282c-0.212-0.125-0.394-0.238-0.543-0.339c-0.149-0.1-0.337-0.23-0.563-0.395
		c-0.226-0.166-0.374-0.271-0.443-0.318c-0.633-0.444-1.545-1.079-2.733-1.902c-1.19-0.823-1.903-1.319-2.14-1.485
		c-0.432-0.292-0.839-0.692-1.221-1.203c-0.383-0.513-0.574-0.984-0.574-1.425c0-0.541,0.145-0.993,0.433-1.353
		c0.289-0.361,0.701-0.544,1.236-0.544h15.361c0.452,0,0.844,0.164,1.174,0.489C135.245,119.396,135.408,119.788,135.408,120.246
		L135.408,120.246z"/>
	<path fill="#EA4C89" d="M90.042,142.91c9.389,0,17-7.604,17-16.984c0-9.379-7.611-16.984-17-16.984c-9.391,0-17,7.604-17,16.984
		C73.041,135.307,80.651,142.91,90.042,142.91"/>
	<path fill="#FFFFFF" d="M99.206,124.045c-0.122-0.602-0.307-1.192-0.546-1.758c-0.233-0.555-0.524-1.088-0.862-1.587
		c-0.334-0.495-0.719-0.96-1.142-1.384c-0.424-0.423-0.889-0.808-1.384-1.142c-0.499-0.338-1.034-0.627-1.589-0.86
		c-0.564-0.238-1.157-0.424-1.759-0.545c-0.615-0.127-1.249-0.19-1.883-0.19c-0.634,0-1.268,0.063-1.884,0.19
		c-0.601,0.121-1.192,0.307-1.758,0.545c-0.554,0.233-1.089,0.522-1.59,0.86c-0.495,0.334-0.96,0.719-1.384,1.142
		c-0.423,0.424-0.807,0.889-1.141,1.384c-0.338,0.499-0.628,1.032-0.862,1.587c-0.239,0.565-0.424,1.156-0.546,1.758
		c-0.127,0.613-0.19,1.247-0.19,1.881s0.063,1.268,0.19,1.883c0.122,0.601,0.307,1.191,0.546,1.756
		c0.234,0.556,0.524,1.091,0.862,1.59c0.334,0.492,0.718,0.959,1.141,1.382c0.424,0.423,0.889,0.808,1.384,1.142
		c0.501,0.339,1.036,0.629,1.59,0.86c0.565,0.24,1.158,0.423,1.758,0.546c0.616,0.127,1.25,0.191,1.884,0.191
		c0.634,0,1.268-0.064,1.883-0.191c0.602-0.123,1.194-0.306,1.759-0.546c0.555-0.231,1.09-0.521,1.589-0.86
		c0.495-0.334,0.96-0.719,1.384-1.142c0.423-0.423,0.808-0.89,1.142-1.382c0.338-0.499,0.629-1.034,0.862-1.59
		c0.239-0.562,0.424-1.155,0.546-1.756c0.126-0.615,0.19-1.249,0.19-1.883C99.396,125.292,99.332,124.658,99.206,124.045z
		 M98.027,125.846c-0.115-0.025-2.819-0.604-5.563-0.262c-0.058-0.136-0.114-0.273-0.173-0.411
		c-0.167-0.391-0.346-0.777-0.531-1.157c3.155-1.286,4.436-3.138,4.45-3.159C97.332,122.215,98.009,123.952,98.027,125.846z
		 M95.317,119.938c-0.021,0.029-1.157,1.76-4.173,2.891c-1.365-2.509-2.866-4.498-2.986-4.657c0.604-0.146,1.234-0.226,1.883-0.226
		C92.064,117.945,93.91,118.698,95.317,119.938z M88.128,118.176c-0.001,0.001-0.002,0.002-0.002,0.002s-0.009,0.002-0.023,0.005
		C88.11,118.18,88.12,118.179,88.128,118.176z M86.633,118.708c0.106,0.142,1.583,2.143,2.967,4.598
		c-3.835,1.021-7.165,0.979-7.376,0.975C82.742,121.809,84.404,119.759,86.633,118.708z M82.052,125.926
		c0-0.086,0.005-0.169,0.007-0.252c0.142,0.002,4.089,0.092,8.202-1.138c0.229,0.447,0.447,0.901,0.647,1.356
		c-0.105,0.027-0.21,0.062-0.313,0.096c-4.312,1.392-6.498,5.265-6.498,5.265l0.002,0.004
		C82.827,129.846,82.052,127.977,82.052,125.926z M90.042,133.908c-1.934,0-3.708-0.688-5.089-1.83
		c0.105,0.085,0.179,0.141,0.179,0.141s1.532-3.338,6.271-4.986c0.018-0.008,0.035-0.012,0.054-0.019
		c1.123,2.92,1.587,5.362,1.705,6.061C92.202,133.682,91.148,133.908,90.042,133.908z M94.505,132.545
		c-0.081-0.48-0.508-2.824-1.555-5.7c2.579-0.412,4.813,0.295,4.979,0.349C97.572,129.416,96.299,131.335,94.505,132.545z"/>
	<path fill="#FC4F08" d="M54.024,142.857c9.389,0,17-7.604,17-16.984s-7.611-16.984-17-16.984c-9.391,0-17,7.604-17,16.984
		S44.634,142.857,54.024,142.857"/>
	<path fill="#FFFFFF" d="M63.288,124.287l-0.154-0.322l-0.262-0.206c-0.345-0.271-2.082,0.019-2.554-0.407
		c-0.33-0.306-0.378-0.854-0.479-1.597c-0.187-1.445-0.306-1.52-0.531-2.006c-0.82-1.736-3.037-3.042-4.562-3.223h-4.134
		c-3.25,0-5.905,2.658-5.905,5.908v6.889c0,3.24,2.656,5.896,5.905,5.896h6.79c3.248,0,5.887-2.655,5.906-5.896l0.038-4.772
		L63.288,124.287z M50.687,121.354h3.274c0.626,0,1.133,0.506,1.133,1.126c0,0.616-0.507,1.13-1.133,1.13h-3.274
		c-0.625,0-1.131-0.514-1.131-1.13C49.556,121.859,50.062,121.354,50.687,121.354z M57.343,130.358h-6.657
		c-0.625,0-1.131-0.511-1.131-1.124c0-0.618,0.506-1.123,1.131-1.123h6.657c0.62,0,1.125,0.505,1.125,1.123
		C58.468,129.848,57.963,130.358,57.343,130.358z"/>
	<path fill="#005CFF" d="M18.008,142.857c9.389,0,17-7.604,17-16.984s-7.611-16.984-17-16.984s-17,7.604-17,16.984
		S8.619,142.857,18.008,142.857"/>
	<path fill="#FFFFFF" d="M17.237,121.183c0.353,0.492,0.53,1.078,0.53,1.764c0,0.704-0.178,1.271-0.534,1.701
		c-0.201,0.239-0.494,0.459-0.883,0.656c0.59,0.216,1.034,0.556,1.336,1.021c0.3,0.465,0.45,1.029,0.45,1.693
		c0,0.684-0.171,1.299-0.516,1.842c-0.218,0.358-0.491,0.661-0.818,0.907c-0.368,0.282-0.803,0.476-1.306,0.581
		c-0.502,0.104-1.046,0.153-1.634,0.153h-5.21v-11.55h5.587C15.651,119.974,16.649,120.383,17.237,121.183z M10.959,121.959v2.547
		h2.812c0.5,0,0.908-0.096,1.224-0.287c0.312-0.189,0.469-0.529,0.469-1.014c0-0.538-0.207-0.894-0.621-1.067
		c-0.357-0.118-0.812-0.179-1.366-0.179H10.959z M10.959,126.417v3.08h2.807c0.502,0,0.893-0.067,1.171-0.203
		c0.509-0.252,0.761-0.732,0.761-1.44c0-0.604-0.244-1.015-0.735-1.238c-0.275-0.125-0.661-0.191-1.156-0.196L10.959,126.417
		L10.959,126.417z M25.127,123.135c0.597,0.266,1.089,0.688,1.476,1.265c0.354,0.509,0.58,1.098,0.684,1.766
		c0.06,0.395,0.085,0.96,0.074,1.694h-6.229c0.036,0.857,0.332,1.459,0.895,1.804c0.342,0.215,0.752,0.321,1.233,0.321
		c0.507,0,0.922-0.131,1.239-0.393c0.176-0.142,0.329-0.338,0.461-0.588h2.283c-0.061,0.506-0.338,1.021-0.828,1.544
		c-0.767,0.83-1.838,1.245-3.217,1.245c-1.139,0-2.143-0.35-3.011-1.05c-0.872-0.7-1.305-1.842-1.305-3.419
		c0-1.48,0.392-2.615,1.176-3.405c0.786-0.789,1.805-1.186,3.058-1.186C23.86,122.733,24.53,122.868,25.127,123.135z
		 M21.784,125.065c-0.316,0.325-0.515,0.767-0.597,1.319h3.854c-0.041-0.593-0.241-1.041-0.596-1.35
		c-0.358-0.308-0.8-0.46-1.327-0.46C22.544,124.576,22.1,124.739,21.784,125.065z M25.562,120.489h-4.954v1.437h4.954V120.489z"/>
</g>
<g id="Hover_1_">
	<path fill="#FFFFFF" d="M558.006,106.98c9.391,0,17.002-7.603,17.002-16.983c0-9.38-7.611-16.984-17.002-16.984
		s-17,7.604-17,16.984C541.006,99.378,548.615,106.98,558.006,106.98"/>
	<path d="M558.008,80.606c2.596,0,4.805,0.916,6.623,2.745c1.814,1.829,2.727,4.028,2.727,6.597c0,2.595-0.91,4.802-2.727,6.617
		c-1.818,1.817-4.027,2.727-6.623,2.727c-2.574,0-4.773-0.909-6.605-2.727c-1.834-1.815-2.748-4.022-2.748-6.617
		c0-2.566,0.914-4.767,2.748-6.597C553.234,81.522,555.434,80.606,558.008,80.606L558.008,80.606 M565.994,89.948
		c0-1.712-0.506-3.263-1.52-4.65c-1.014-1.389-2.326-2.354-3.936-2.898c-0.232,0.311-0.336,0.519-0.312,0.621
		c0.053,0.494,0.168,0.824,0.354,0.994c0.182,0.168,0.375,0.213,0.584,0.137l0.621-0.234c0,0,0.133-0.013,0.391-0.039
		c0.285,0.312,0.285,0.617,0,0.914c-0.285,0.299-0.578,0.662-0.877,1.091s-0.305,0.928-0.021,1.499
		c0.443,0.83,1.066,1.246,1.871,1.246c0.363,0.024,0.645,0.259,0.838,0.699c0.193,0.441,0.309,0.869,0.332,1.284
		c0.129,1.037,0.039,1.945-0.271,2.725c-0.285,0.57-0.195,1.064,0.271,1.479C565.436,93.361,565.994,91.739,565.994,89.948
		L565.994,89.948 M556.916,82.087c-1.455,0.182-2.748,0.727-3.877,1.635c-1.131,0.908-1.955,2.037-2.475,3.387
		c0.076,0,0.219,0.014,0.428,0.039s0.391,0.045,0.547,0.059c0.154,0.014,0.322,0.039,0.508,0.077c0.18,0.04,0.336,0.092,0.465,0.156
		c0.131,0.063,0.209,0.149,0.234,0.253c0.053,0.155-0.039,0.447-0.271,0.876s-0.352,0.823-0.352,1.187
		c0,0.391,0.248,0.751,0.74,1.089c0.492,0.339,0.738,0.637,0.738,0.895c0,0.363,0.053,0.805,0.156,1.323
		c0.104,0.518,0.156,0.804,0.156,0.854c0,0.156,0.232,0.508,0.701,1.054c0.467,0.546,0.805,0.816,1.012,0.816
		c0.129,0,0.203-0.144,0.215-0.429c0.014-0.286,0-0.637-0.037-1.051c-0.041-0.416-0.061-0.676-0.061-0.779
		c0-0.415,0.092-0.896,0.271-1.439c0.156-0.545,0.539-0.999,1.15-1.361c0.607-0.362,0.969-0.66,1.07-0.895
		c0.209-0.441,0.268-0.836,0.178-1.187c-0.094-0.351-0.203-0.63-0.334-0.838c-0.129-0.206-0.352-0.39-0.662-0.544
		c-0.312-0.156-0.578-0.268-0.799-0.331c-0.221-0.065-0.461-0.124-0.721-0.176c-0.262-0.052-0.402-0.078-0.432-0.078
		c-0.205-0.077-0.479-0.122-0.814-0.136c-0.338-0.014-0.57,0.006-0.703,0.059c-0.129,0.053-0.307-0.02-0.525-0.215
		c-0.219-0.193-0.33-0.382-0.33-0.564c0-0.129,0.1-0.305,0.291-0.524c0.195-0.221,0.424-0.46,0.684-0.72
		c0.262-0.26,0.439-0.455,0.547-0.585c0.104-0.181,0.213-0.317,0.33-0.408c0.115-0.091,0.262-0.194,0.43-0.312
		c0.17-0.117,0.344-0.254,0.523-0.408c0.055-0.053,0.217-0.162,0.488-0.332C556.664,82.366,556.838,82.217,556.916,82.087
		L556.916,82.087 M555.514,97.54c0.857,0.259,1.689,0.39,2.494,0.39c1.662,0,3.129-0.44,4.398-1.323
		c-0.336-0.569-1.104-0.791-2.299-0.661c-0.311,0.025-0.73,0.139-1.264,0.331c-0.533,0.194-0.838,0.307-0.916,0.33
		c-0.961,0.208-1.455,0.312-1.48,0.312c-0.154,0.025-0.324,0.117-0.508,0.271C555.758,97.345,555.617,97.462,555.514,97.54
		L555.514,97.54"/>
	<path fill="#FFFFFF" d="M522.219,106.981c9.391,0,17.002-7.604,17.002-16.984c0-9.379-7.611-16.982-17.002-16.982
		c-9.389,0-17,7.604-17,16.982C505.219,99.378,512.83,106.981,522.219,106.981"/>
	<path d="M531.564,85.86c-0.082,1.815-1.354,4.301-3.812,7.454c-2.543,3.297-4.697,4.943-6.459,4.943
		c-1.092,0-2.014-1.001-2.768-3.013c-0.506-1.847-1.008-3.691-1.512-5.531c-0.562-2.014-1.162-3.018-1.805-3.018
		c-0.141,0-0.627,0.293-1.467,0.881l-0.881-1.133c0.922-0.809,1.83-1.62,2.729-2.428c1.227-1.062,2.148-1.62,2.768-1.678
		c1.451-0.141,2.348,0.852,2.686,2.973c0.359,2.293,0.613,3.717,0.754,4.275c0.42,1.897,0.879,2.847,1.385,2.847
		c0.389,0,0.977-0.613,1.758-1.844c0.785-1.227,1.201-2.163,1.26-2.808c0.111-1.061-0.307-1.589-1.26-1.589
		c-0.445,0-0.908,0.095-1.383,0.293c0.924-2.989,2.686-4.442,5.285-4.356C530.77,82.187,531.678,83.431,531.564,85.86z"/>
	<path fill="#FFFFFF" d="M486.203,106.981c9.389,0,17-7.604,17-16.984c0-9.379-7.611-16.984-17-16.984
		c-9.391,0-17.002,7.604-17.002,16.984C469.201,99.378,476.812,106.981,486.203,106.981"/>
	<path d="M489.836,90.007l-6.127,3.594v-7.188L489.836,90.007z M495.557,93.338v-6.683c0,0,0-3.222-3.225-3.222h-12.264
		c0,0-3.223,0-3.223,3.222v6.683c0,0,0,3.222,3.223,3.222h12.264C492.332,96.56,495.557,96.56,495.557,93.338"/>
	<path fill="#FFFFFF" d="M450.193,106.937c9.391,0,17-7.604,17-16.984c0-9.379-7.609-16.984-17-16.984c-9.389,0-17,7.605-17,16.984
		C433.191,99.333,440.803,106.937,450.193,106.937"/>
	<path d="M459.566,84.976c-0.688,0.305-1.43,0.512-2.207,0.604c0.795-0.475,1.404-1.228,1.689-2.123
		c-0.742,0.439-1.562,0.759-2.441,0.931c-0.699-0.747-1.695-1.212-2.805-1.212c-2.121,0-3.842,1.719-3.842,3.84
		c0,0.302,0.033,0.595,0.1,0.874c-3.191-0.159-6.023-1.688-7.922-4.013c-0.332,0.568-0.52,1.229-0.52,1.933
		c0,1.331,0.678,2.507,1.709,3.196c-0.629-0.02-1.225-0.193-1.742-0.479v0.047c0,1.861,1.326,3.413,3.086,3.767
		c-0.324,0.09-0.662,0.136-1.016,0.136c-0.246,0-0.488-0.023-0.723-0.068c0.488,1.524,1.908,2.637,3.59,2.664
		c-1.314,1.031-2.973,1.646-4.773,1.646c-0.311,0-0.615-0.018-0.916-0.053c1.701,1.089,3.723,1.726,5.893,1.726
		c7.07,0,10.936-5.85,10.936-10.925c0-0.166-0.006-0.333-0.014-0.496C458.4,86.421,459.055,85.744,459.566,84.976"/>
	<path fill="#FFFFFF" d="M414.184,106.98c9.389,0,17-7.603,17-16.983c0-9.38-7.611-16.984-17-16.984s-17.002,7.604-17.002,16.984
		C397.182,99.376,404.795,106.98,414.184,106.98"/>
	<path d="M414.66,80.652v4.724h4.438v2.937h-4.438v4.792c0,1.085,0.057,1.778,0.172,2.087c0.111,0.312,0.328,0.557,0.643,0.738
		c0.412,0.249,0.885,0.369,1.418,0.369c0.947,0,1.891-0.309,2.826-0.923v2.95c-0.799,0.374-1.523,0.638-2.17,0.79
		c-0.648,0.152-1.35,0.229-2.105,0.229c-0.854,0-1.609-0.108-2.268-0.323c-0.656-0.218-1.219-0.522-1.682-0.923
		c-0.467-0.4-0.787-0.825-0.967-1.275c-0.18-0.447-0.27-1.102-0.27-1.958v-6.554h-2.068v-2.646c0.736-0.238,1.365-0.58,1.891-1.025
		c0.521-0.445,0.943-0.979,1.262-1.604c0.316-0.624,0.535-1.419,0.654-2.382h2.662v-0.003H414.66z"/>
	<path fill="#FFFFFF" d="M378.166,106.98c9.389,0,17-7.603,17-16.983c0-9.38-7.611-16.984-17-16.984
		c-9.391,0-17.002,7.604-17.002,16.984S368.777,106.98,378.166,106.98"/>
	<path d="M378.166,80.606c-5.166,0-9.355,4.184-9.355,9.346c0,3.825,2.307,7.114,5.604,8.56c-0.027-0.652-0.006-1.438,0.162-2.146
		c0.18-0.759,1.201-5.093,1.201-5.093s-0.299-0.599-0.299-1.478c0-1.386,0.807-2.42,1.807-2.42c0.85,0,1.262,0.639,1.262,1.403
		c0,0.854-0.545,2.132-0.826,3.314c-0.234,0.991,0.498,1.801,1.477,1.801c1.771,0,2.967-2.274,2.967-4.969
		c0-2.048-1.381-3.581-3.893-3.581c-2.838,0-4.604,2.113-4.604,4.476c0,0.813,0.238,1.39,0.615,1.832
		c0.174,0.205,0.195,0.287,0.135,0.521c-0.045,0.172-0.146,0.585-0.189,0.749c-0.062,0.236-0.254,0.321-0.469,0.233
		c-1.307-0.532-1.916-1.963-1.916-3.568c0-2.655,2.24-5.841,6.686-5.841c3.572,0,5.924,2.583,5.924,5.354
		c0,3.666-2.039,6.404-5.049,6.404c-1.01,0-1.961-0.546-2.283-1.166c0,0-0.543,2.155-0.658,2.57c-0.197,0.72-0.586,1.439-0.941,2
		c0.84,0.25,1.73,0.385,2.65,0.385c5.166,0,9.354-4.185,9.354-9.346C387.52,84.79,383.332,80.606,378.166,80.606"/>
	<path fill="#FFFFFF" d="M342.047,106.937c9.389,0,17-7.604,17-16.984c0-9.379-7.611-16.984-17-16.984s-17.002,7.604-17.002,16.984
		C325.045,99.333,332.658,106.937,342.047,106.937"/>
	<path d="M336.811,97.838h-3.646V86.179h3.646V97.838z M334.893,84.72h-0.023c-1.32,0-2.178-0.892-2.178-2.02
		c0-1.15,0.885-2.023,2.23-2.023c1.344,0,2.172,0.87,2.199,2.021C337.119,83.827,336.264,84.72,334.893,84.72z M351.4,97.838h-4.135
		v-6.034c0-1.578-0.646-2.654-2.066-2.654c-1.092,0-1.693,0.727-1.977,1.427c-0.104,0.251-0.09,0.604-0.09,0.953v6.309h-4.096
		c0,0,0.053-10.687,0-11.659h4.096v1.83c0.242-0.801,1.551-1.941,3.641-1.941c2.594,0,4.627,1.678,4.627,5.288V97.838z"/>
	<path fill="#FFFFFF" d="M306.029,106.981c9.389,0,17-7.604,17-16.984c0-9.379-7.611-16.984-17-16.984c-9.391,0-17,7.604-17,16.984
		C289.029,99.378,296.639,106.981,306.029,106.981"/>
	<path d="M311.77,80.652h-11.477c-1.994,0-3.617,1.619-3.617,3.611v3.815v7.651c0,1.992,1.623,3.612,3.617,3.612h11.477
		c1.994,0,3.615-1.62,3.615-3.612v-7.651v-3.815C315.385,82.271,313.764,80.652,311.77,80.652z M312.807,82.806l0.414-0.002v0.412
		v2.757l-3.162,0.011l-0.01-3.168L312.807,82.806z M303.361,88.079c0.6-0.828,1.57-1.371,2.672-1.371
		c1.098,0,2.068,0.543,2.668,1.371c0.393,0.542,0.625,1.202,0.625,1.918c0,1.813-1.48,3.29-3.293,3.29
		c-1.816,0-3.295-1.477-3.295-3.29C302.736,89.281,302.971,88.621,303.361,88.079z M313.562,95.731c0,0.988-0.805,1.791-1.793,1.791
		h-11.477c-0.99,0-1.793-0.803-1.793-1.791v-7.652h2.793c-0.242,0.594-0.377,1.24-0.377,1.918c0,2.817,2.293,5.111,5.113,5.111
		s5.115-2.294,5.115-5.111c0-0.678-0.137-1.324-0.377-1.918h2.793L313.562,95.731L313.562,95.731z"/>
	<path fill="#FFFFFF" d="M270.016,106.891c9.39,0,17-7.603,17-16.983c0-9.38-7.61-16.984-17-16.984c-9.389,0-17,7.604-17,16.984
		C253.014,99.288,260.627,106.891,270.016,106.891"/>
	<path d="M266.92,98.283c-2.225,0-3.83-1.405-3.83-3.097c0-1.656,1.992-3.034,4.217-3.01c0.519,0.006,1.003,0.089,1.441,0.229
		c1.206,0.841,2.073,1.311,2.317,2.269c0.046,0.195,0.071,0.394,0.071,0.599C271.137,96.964,270.048,98.283,266.92,98.283
		 M267.505,88.376c-1.492-0.046-2.912-1.67-3.169-3.628c-0.258-1.958,0.744-3.458,2.235-3.413c1.492,0.045,2.912,1.616,3.169,3.574
		C269.998,86.868,268.997,88.421,267.505,88.376 M270.6,91.276c-0.523-0.371-1.524-1.271-1.524-1.801
		c0-0.621,0.178-0.926,1.112-1.656c0.958-0.748,1.636-1.8,1.636-3.021c0-1.457-0.649-2.876-1.867-3.346h1.837l1.297-0.936h-5.795
		c-2.597,0-5.042,1.967-5.042,4.242c0,2.328,1.771,4.207,4.414,4.207c0.184,0,0.362-0.004,0.537-0.018
		c-0.172,0.328-0.295,0.698-0.295,1.082c0,0.646,0.349,1.171,0.789,1.6c-0.333,0-0.655,0.011-1.004,0.011
		c-3.218,0-5.694,2.046-5.694,4.171c0,2.09,2.715,3.396,5.932,3.396c3.668,0,5.694-2.078,5.694-4.171
		C272.626,93.36,272.131,92.357,270.6,91.276 M279.03,88.546h-2.256v-2.254h-1.815v2.254h-2.256v1.813h2.256v2.253h1.815v-2.253
		h2.256V88.546z"/>
	<path fill="#FFFFFF" d="M233.998,106.937c9.388,0,17-7.604,17-16.984c0-9.379-7.612-16.984-17-16.984c-9.39,0-17,7.604-17,16.984
		C216.998,99.333,224.608,106.937,233.998,106.937"/>
	<path d="M233.965,80.841c-5.164,0-9.351,4.184-9.351,9.344c0,4.126,2.678,7.628,6.395,8.863c0.468,0.086,0.639-0.203,0.639-0.449
		c0-0.222-0.008-0.812-0.013-1.59c-2.601,0.563-3.15-1.253-3.15-1.253c-0.425-1.08-1.038-1.366-1.038-1.366
		c-0.849-0.58,0.064-0.568,0.064-0.568c0.938,0.066,1.433,0.963,1.433,0.963c0.834,1.429,2.188,1.017,2.72,0.776
		c0.086-0.604,0.328-1.016,0.596-1.249c-2.077-0.236-4.26-1.037-4.26-4.617c0-1.02,0.364-1.852,0.962-2.506
		c-0.096-0.236-0.417-1.188,0.092-2.473c0,0,0.784-0.252,2.571,0.958c0.746-0.208,1.546-0.312,2.341-0.315
		c0.795,0.004,1.594,0.107,2.342,0.315c1.785-1.21,2.568-0.958,2.568-0.958c0.51,1.285,0.188,2.236,0.093,2.473
		c0.599,0.653,0.961,1.486,0.961,2.506c0,3.59-2.187,4.379-4.27,4.61c0.337,0.287,0.635,0.857,0.635,1.729
		c0,1.249-0.012,2.258-0.012,2.563c0,0.248,0.169,0.54,0.644,0.447c3.713-1.237,6.39-4.736,6.39-8.863
		C243.315,85.023,239.128,80.841,233.965,80.841z"/>
	<path fill="#FFFFFF" d="M198.093,106.928c9.388,0,17-7.603,17-16.983s-7.612-16.984-17-16.984c-9.39,0-17.001,7.604-17.001,16.984
		C181.091,99.323,188.704,106.928,198.093,106.928"/>
	<g>
		<path d="M207.447,89.944c0,2.271-1.844,4.116-4.12,4.116c-2.279,0-4.123-1.845-4.123-4.116c0-2.273,1.844-4.117,4.123-4.117
			C205.604,85.827,207.447,87.671,207.447,89.944z"/>
		<path d="M196.979,89.944c0,2.271-1.843,4.116-4.123,4.116c-2.274,0-4.118-1.845-4.118-4.116c0-2.273,1.844-4.117,4.118-4.117
			C195.136,85.827,196.979,87.671,196.979,89.944z"/>
	</g>
	<path fill="#FFFFFF" d="M162.074,106.929c9.39,0,17-7.604,17-16.984c0-9.379-7.611-16.984-17-16.984c-9.389,0-17,7.605-17,16.984
		C145.074,99.325,152.686,106.929,162.074,106.929"/>
	<path d="M157.099,86.78h1.935v-1.879c0-0.828,0.021-2.105,0.623-2.895c0.634-0.84,1.505-1.408,3.002-1.408
		c2.441,0,3.469,0.349,3.469,0.349l-0.483,2.862c0,0-0.806-0.232-1.559-0.232c-0.753,0-1.427,0.27-1.427,1.02v2.184h3.086
		l-0.216,2.797h-2.87v9.715h-3.625v-9.715h-1.935V86.78z"/>
	<path fill="#FFFFFF" d="M126.059,106.929c9.389,0,17-7.604,17-16.984c0-9.379-7.611-16.984-17-16.984c-9.391,0-17,7.604-17,16.984
		S116.668,106.929,126.059,106.929"/>
	<path d="M135.408,87.339v8.277c0,0.459-0.164,0.854-0.491,1.18c-0.327,0.326-0.72,0.49-1.179,0.49h-15.361
		c-0.459,0-0.852-0.164-1.179-0.49c-0.327-0.325-0.49-0.721-0.49-1.18v-8.277c0.306,0.341,0.657,0.645,1.054,0.906
		c2.519,1.709,4.247,2.909,5.187,3.598c0.396,0.291,0.719,0.521,0.965,0.684c0.247,0.163,0.576,0.33,0.986,0.501
		c0.412,0.17,0.793,0.255,1.147,0.255h0.021c0.354,0,0.737-0.085,1.147-0.255c0.411-0.171,0.739-0.338,0.986-0.501
		c0.247-0.163,0.568-0.393,0.966-0.684c1.183-0.854,2.915-2.055,5.196-3.598C134.761,87.974,135.108,87.673,135.408,87.339z
		 M135.408,84.272c0,0.55-0.171,1.074-0.512,1.575c-0.341,0.499-0.766,0.929-1.273,1.282c-2.615,1.812-4.243,2.943-4.884,3.388
		c-0.069,0.048-0.217,0.154-0.443,0.318c-0.227,0.162-0.413,0.295-0.563,0.396c-0.149,0.103-0.33,0.215-0.542,0.339
		c-0.213,0.125-0.413,0.22-0.601,0.281c-0.188,0.063-0.361,0.094-0.521,0.094h-0.021c-0.159,0-0.333-0.03-0.521-0.094
		c-0.188-0.062-0.388-0.156-0.601-0.281c-0.212-0.124-0.394-0.236-0.543-0.339c-0.149-0.101-0.337-0.231-0.563-0.396
		c-0.226-0.166-0.374-0.271-0.443-0.318c-0.633-0.444-1.545-1.078-2.733-1.901c-1.19-0.824-1.903-1.318-2.14-1.485
		c-0.432-0.293-0.839-0.693-1.221-1.205c-0.383-0.511-0.574-0.984-0.574-1.423c0-0.543,0.145-0.994,0.433-1.354
		c0.289-0.362,0.701-0.543,1.236-0.543h15.361c0.452,0,0.844,0.164,1.174,0.489C135.242,83.422,135.408,83.814,135.408,84.272
		L135.408,84.272z"/>
	<path fill="#FFFFFF" d="M90.042,106.937c9.389,0,17-7.604,17-16.984c0-9.379-7.611-16.984-17-16.984c-9.391,0-17,7.604-17,16.984
		C73.041,99.333,80.651,106.937,90.042,106.937"/>
	<path d="M99.206,88.071c-0.122-0.602-0.307-1.191-0.546-1.757c-0.233-0.555-0.524-1.09-0.862-1.589
		c-0.334-0.494-0.719-0.959-1.142-1.382c-0.424-0.424-0.889-0.808-1.384-1.142c-0.499-0.338-1.034-0.628-1.589-0.861
		c-0.564-0.238-1.157-0.423-1.759-0.545c-0.615-0.127-1.249-0.191-1.883-0.191c-0.634,0-1.268,0.064-1.884,0.191
		c-0.601,0.122-1.192,0.307-1.758,0.545c-0.554,0.233-1.089,0.523-1.59,0.861c-0.495,0.334-0.96,0.718-1.384,1.142
		c-0.423,0.423-0.807,0.888-1.141,1.382c-0.338,0.499-0.628,1.034-0.862,1.589c-0.239,0.564-0.424,1.155-0.546,1.757
		c-0.127,0.613-0.19,1.247-0.19,1.881s0.063,1.269,0.19,1.883c0.122,0.602,0.307,1.191,0.546,1.756
		c0.234,0.555,0.524,1.09,0.862,1.59c0.334,0.493,0.718,0.96,1.141,1.383c0.424,0.422,0.889,0.807,1.384,1.142
		c0.501,0.338,1.036,0.627,1.59,0.86c0.565,0.238,1.158,0.421,1.758,0.544c0.616,0.128,1.25,0.191,1.884,0.191
		c0.634,0,1.268-0.063,1.883-0.191c0.602-0.123,1.194-0.306,1.759-0.544c0.555-0.233,1.09-0.522,1.589-0.86
		c0.495-0.335,0.96-0.72,1.384-1.142c0.423-0.423,0.808-0.89,1.142-1.383c0.338-0.5,0.629-1.035,0.862-1.59
		c0.239-0.562,0.424-1.154,0.546-1.756c0.126-0.614,0.19-1.249,0.19-1.883C99.396,89.318,99.332,88.685,99.206,88.071z
		 M98.027,89.872c-0.115-0.024-2.819-0.605-5.563-0.261c-0.058-0.138-0.114-0.274-0.173-0.412c-0.167-0.391-0.346-0.776-0.531-1.157
		c3.155-1.287,4.436-3.138,4.45-3.16C97.332,86.242,98.009,87.979,98.027,89.872z M95.317,83.964
		c-0.021,0.029-1.157,1.761-4.173,2.889c-1.365-2.507-2.866-4.498-2.986-4.656c0.604-0.146,1.234-0.225,1.883-0.225
		C92.064,81.972,93.91,82.724,95.317,83.964z M88.128,82.202c-0.001,0.002-0.002,0.002-0.002,0.002s-0.009,0.002-0.023,0.006
		C88.11,82.206,88.12,82.206,88.128,82.202z M86.633,82.733c0.106,0.143,1.583,2.144,2.967,4.6
		c-3.835,1.021-7.165,0.979-7.376,0.975C82.742,85.836,84.404,83.785,86.633,82.733z M82.052,89.952
		c0-0.086,0.005-0.168,0.007-0.252c0.142,0.002,4.089,0.092,8.202-1.138c0.229,0.447,0.447,0.901,0.647,1.356
		c-0.105,0.029-0.21,0.061-0.313,0.096c-4.312,1.392-6.498,5.266-6.498,5.266s0.002,0.004,0.002,0.006
		C82.827,93.872,82.052,92.003,82.052,89.952z M90.042,97.934c-1.934,0-3.708-0.687-5.089-1.828
		c0.105,0.085,0.179,0.141,0.179,0.141s1.532-3.339,6.271-4.988c0.018-0.006,0.035-0.012,0.054-0.017
		c1.123,2.918,1.587,5.362,1.705,6.062C92.202,97.709,91.148,97.934,90.042,97.934z M94.505,96.572
		c-0.081-0.48-0.508-2.825-1.555-5.702c2.579-0.41,4.813,0.296,4.979,0.351C97.572,93.443,96.299,95.362,94.505,96.572z"/>
	<path fill="#FFFFFF" d="M54.024,106.884c9.389,0,17-7.604,17-16.984c0-9.379-7.611-16.984-17-16.984c-9.391,0-17,7.604-17,16.984
		C37.024,99.279,44.634,106.884,54.024,106.884"/>
	<path d="M63.288,88.315l-0.154-0.322l-0.262-0.207c-0.345-0.27-2.082,0.02-2.554-0.406c-0.33-0.307-0.378-0.854-0.479-1.599
		c-0.187-1.443-0.306-1.519-0.531-2.006c-0.82-1.735-3.037-3.041-4.562-3.222h-4.134c-3.25,0-5.905,2.659-5.905,5.908v6.89
		c0,3.239,2.656,5.894,5.905,5.894h6.79c3.248,0,5.887-2.654,5.906-5.894l0.038-4.773L63.288,88.315z M50.687,85.381h3.274
		c0.626,0,1.133,0.506,1.133,1.126c0,0.617-0.507,1.131-1.133,1.131h-3.274c-0.625,0-1.131-0.514-1.131-1.131
		C49.556,85.887,50.062,85.381,50.687,85.381z M57.343,94.386h-6.657c-0.625,0-1.131-0.512-1.131-1.124
		c0-0.618,0.506-1.122,1.131-1.122h6.657c0.62,0,1.125,0.504,1.125,1.122C58.468,93.874,57.963,94.386,57.343,94.386z"/>
	<path fill="#FFFFFF" d="M18.008,106.884c9.389,0,17-7.604,17-16.984c0-9.379-7.611-16.984-17-16.984s-17,7.604-17,16.984
		C1.008,99.279,8.619,106.884,18.008,106.884"/>
	<path d="M17.237,85.21c0.353,0.491,0.53,1.079,0.53,1.765c0,0.704-0.178,1.271-0.534,1.7c-0.201,0.238-0.494,0.46-0.883,0.656
		c0.59,0.217,1.034,0.557,1.336,1.021c0.3,0.464,0.45,1.027,0.45,1.692c0,0.684-0.171,1.298-0.516,1.84
		c-0.218,0.361-0.491,0.663-0.818,0.909c-0.368,0.281-0.803,0.478-1.306,0.581c-0.502,0.104-1.046,0.155-1.634,0.155h-5.21v-11.55
		h5.587C15.651,84,16.649,84.409,17.237,85.21z M10.959,85.985v2.549h2.812c0.5,0,0.908-0.096,1.224-0.287
		c0.312-0.19,0.469-0.529,0.469-1.014c0-0.539-0.207-0.895-0.621-1.067c-0.357-0.119-0.812-0.181-1.366-0.181H10.959z
		 M10.959,90.444v3.08h2.807c0.502,0,0.893-0.067,1.171-0.202c0.509-0.253,0.761-0.732,0.761-1.442c0-0.602-0.244-1.015-0.735-1.238
		c-0.275-0.125-0.661-0.189-1.156-0.195L10.959,90.444L10.959,90.444z M25.127,87.162c0.597,0.267,1.089,0.688,1.476,1.265
		c0.354,0.507,0.58,1.097,0.684,1.766c0.06,0.392,0.085,0.958,0.074,1.695h-6.229c0.036,0.854,0.332,1.458,0.895,1.802
		c0.342,0.215,0.752,0.321,1.233,0.321c0.507,0,0.922-0.131,1.239-0.394c0.176-0.14,0.329-0.337,0.461-0.587h2.283
		c-0.061,0.505-0.338,1.02-0.828,1.544c-0.767,0.831-1.838,1.246-3.217,1.246c-1.139,0-2.143-0.349-3.011-1.052
		c-0.872-0.7-1.305-1.843-1.305-3.418c0-1.48,0.392-2.615,1.176-3.406c0.786-0.788,1.805-1.185,3.058-1.185
		C23.86,86.761,24.53,86.896,25.127,87.162z M21.784,89.092c-0.316,0.325-0.515,0.767-0.597,1.321h3.854
		c-0.041-0.594-0.241-1.042-0.596-1.35c-0.358-0.308-0.8-0.46-1.327-0.46C22.544,88.604,22.1,88.766,21.784,89.092z M25.562,84.518
		h-4.954v1.437h4.954V84.518z"/>
</g>
<g id="Focus">
	<path fill="#FDDD05" d="M558.006,70.987c9.39,0,17.001-7.603,17.001-16.984c0-9.379-7.611-16.983-17.001-16.983
		c-9.391,0-17,7.604-17,16.983C541.006,63.385,548.615,70.987,558.006,70.987"/>
	<path d="M558.007,44.614c2.597,0,4.806,0.916,6.623,2.745c1.815,1.829,2.727,4.029,2.727,6.597c0,2.594-0.909,4.801-2.727,6.617
		c-1.817,1.817-4.026,2.727-6.623,2.727c-2.573,0-4.773-0.909-6.605-2.727c-1.833-1.815-2.748-4.022-2.748-6.617
		c0-2.567,0.915-4.767,2.748-6.597C553.233,45.529,555.434,44.614,558.007,44.614L558.007,44.614 M565.993,53.956
		c0-1.712-0.506-3.263-1.52-4.651c-1.013-1.389-2.325-2.354-3.935-2.899c-0.233,0.311-0.337,0.519-0.312,0.622
		c0.052,0.494,0.168,0.824,0.353,0.993c0.183,0.168,0.375,0.213,0.584,0.137l0.621-0.234c0,0,0.134-0.013,0.392-0.039
		c0.285,0.312,0.285,0.617,0,0.914c-0.286,0.299-0.578,0.662-0.877,1.091c-0.299,0.428-0.306,0.928-0.021,1.5
		c0.442,0.829,1.065,1.245,1.871,1.245c0.363,0.025,0.645,0.259,0.838,0.7c0.193,0.441,0.308,0.869,0.331,1.284
		c0.129,1.037,0.039,1.945-0.271,2.725c-0.286,0.57-0.195,1.064,0.271,1.479C565.436,57.368,565.993,55.746,565.993,53.956
		L565.993,53.956 M556.915,46.093c-1.454,0.182-2.747,0.727-3.877,1.636c-1.13,0.907-1.955,2.037-2.475,3.387
		c0.077,0,0.22,0.013,0.429,0.039s0.39,0.045,0.547,0.059c0.154,0.013,0.322,0.039,0.507,0.077c0.181,0.04,0.337,0.092,0.466,0.156
		c0.131,0.064,0.209,0.149,0.234,0.253c0.052,0.155-0.039,0.447-0.272,0.875c-0.232,0.428-0.351,0.823-0.351,1.187
		c0,0.39,0.247,0.751,0.739,1.089c0.492,0.339,0.739,0.637,0.739,0.895c0,0.363,0.052,0.805,0.156,1.323
		c0.104,0.518,0.156,0.804,0.156,0.854c0,0.156,0.232,0.508,0.701,1.054c0.467,0.546,0.805,0.816,1.012,0.816
		c0.129,0,0.203-0.144,0.215-0.429c0.014-0.286,0-0.637-0.037-1.051c-0.041-0.416-0.061-0.676-0.061-0.779
		c0-0.415,0.092-0.896,0.271-1.439c0.156-0.545,0.539-0.999,1.149-1.361c0.608-0.362,0.969-0.661,1.07-0.895
		c0.209-0.44,0.268-0.836,0.178-1.186c-0.094-0.351-0.202-0.63-0.333-0.838c-0.129-0.207-0.353-0.389-0.662-0.544
		c-0.312-0.155-0.578-0.267-0.799-0.331c-0.221-0.065-0.461-0.124-0.721-0.176c-0.262-0.052-0.402-0.078-0.432-0.078
		c-0.205-0.078-0.479-0.123-0.814-0.136c-0.338-0.014-0.57,0.006-0.703,0.058c-0.13,0.053-0.307-0.019-0.526-0.214
		c-0.219-0.194-0.33-0.382-0.33-0.564c0-0.129,0.1-0.305,0.292-0.525c0.195-0.221,0.423-0.46,0.684-0.72
		c0.262-0.26,0.439-0.454,0.547-0.584c0.104-0.181,0.213-0.317,0.33-0.408c0.115-0.09,0.262-0.194,0.43-0.311
		c0.17-0.117,0.344-0.254,0.523-0.409c0.055-0.053,0.217-0.162,0.488-0.332C556.664,46.373,556.838,46.224,556.915,46.093
		L556.915,46.093 M555.514,61.547c0.857,0.259,1.688,0.39,2.493,0.39c1.662,0,3.13-0.44,4.399-1.323
		c-0.337-0.569-1.104-0.791-2.299-0.661c-0.312,0.025-0.73,0.139-1.265,0.331c-0.533,0.194-0.838,0.307-0.916,0.33
		c-0.96,0.208-1.454,0.312-1.479,0.312c-0.155,0.025-0.324,0.117-0.508,0.271C555.758,61.352,555.617,61.469,555.514,61.547
		L555.514,61.547"/>
	<path fill="#FDDD05" d="M522.219,70.988c9.39,0,17.002-7.604,17.002-16.984c0-9.379-7.612-16.983-17.002-16.983
		c-9.389,0-17.001,7.604-17.001,16.983C505.218,63.385,512.83,70.988,522.219,70.988"/>
	<path d="M531.563,49.867c-0.082,1.816-1.354,4.302-3.812,7.455c-2.544,3.297-4.698,4.943-6.46,4.943
		c-1.092,0-2.013-1.001-2.768-3.013c-0.505-1.847-1.007-3.691-1.511-5.531c-0.562-2.013-1.162-3.018-1.805-3.018
		c-0.142,0-0.627,0.294-1.468,0.881l-0.881-1.133c0.922-0.809,1.83-1.62,2.729-2.428c1.228-1.062,2.149-1.62,2.769-1.677
		c1.45-0.141,2.348,0.852,2.686,2.973c0.358,2.293,0.612,3.717,0.754,4.276c0.419,1.897,0.879,2.846,1.384,2.846
		c0.389,0,0.978-0.613,1.759-1.844c0.784-1.227,1.201-2.163,1.26-2.807c0.111-1.061-0.308-1.589-1.26-1.589
		c-0.445,0-0.908,0.095-1.383,0.293c0.924-2.989,2.686-4.442,5.285-4.357C530.769,46.193,531.678,47.438,531.563,49.867z"/>
	<path fill="#FDDD05" d="M486.203,70.988c9.388,0,16.999-7.604,16.999-16.984c0-9.379-7.611-16.984-16.999-16.984
		c-9.392,0-17.002,7.604-17.002,16.984S476.812,70.988,486.203,70.988"/>
	<path d="M489.835,54.014l-6.126,3.594v-7.188L489.835,54.014z M495.556,57.345v-6.682c0,0,0-3.222-3.225-3.222h-12.263
		c0,0-3.224,0-3.224,3.222v6.682c0,0,0,3.222,3.224,3.222h12.263C492.332,60.566,495.556,60.566,495.556,57.345"/>
	<path fill="#FDDD05" d="M450.193,70.943c9.391,0,17-7.604,17-16.984c0-9.379-7.609-16.984-17-16.984
		c-9.39,0-17.001,7.605-17.001,16.984C433.191,63.34,440.803,70.943,450.193,70.943"/>
	<path d="M459.566,48.982c-0.688,0.306-1.43,0.513-2.207,0.604c0.794-0.476,1.404-1.228,1.689-2.123
		c-0.742,0.438-1.563,0.758-2.441,0.93c-0.699-0.747-1.696-1.212-2.805-1.212c-2.121,0-3.842,1.719-3.842,3.84
		c0,0.302,0.033,0.595,0.099,0.874c-3.191-0.16-6.022-1.688-7.921-4.013c-0.332,0.569-0.52,1.228-0.52,1.933
		c0,1.331,0.678,2.507,1.709,3.196c-0.629-0.02-1.225-0.194-1.742-0.479v0.047c0,1.861,1.325,3.413,3.085,3.767
		c-0.323,0.09-0.662,0.136-1.016,0.136c-0.245,0-0.487-0.023-0.723-0.068c0.489,1.524,1.908,2.637,3.59,2.664
		c-1.313,1.031-2.973,1.646-4.772,1.646c-0.311,0-0.615-0.018-0.916-0.053c1.701,1.089,3.722,1.726,5.892,1.726
		c7.07,0,10.936-5.85,10.936-10.924c0-0.167-0.005-0.333-0.013-0.497C458.4,50.428,459.054,49.751,459.566,48.982"/>
	<path fill="#FDDD05" d="M414.183,70.987c9.389,0,17-7.603,17-16.984c0-9.379-7.611-16.983-17-16.983s-17.001,7.604-17.001,16.983
		S404.795,70.987,414.183,70.987"/>
	<path d="M414.659,44.659v4.724h4.438v2.936h-4.438v4.792c0,1.085,0.057,1.778,0.172,2.087c0.112,0.312,0.328,0.557,0.643,0.738
		c0.412,0.249,0.885,0.369,1.419,0.369c0.947,0,1.891-0.309,2.826-0.923v2.95c-0.8,0.374-1.523,0.638-2.171,0.79
		c-0.648,0.152-1.35,0.229-2.104,0.229c-0.854,0-1.61-0.108-2.269-0.323c-0.656-0.218-1.218-0.522-1.681-0.923
		c-0.467-0.4-0.788-0.825-0.968-1.275c-0.18-0.447-0.269-1.102-0.269-1.958v-6.554h-2.069v-2.646
		c0.737-0.238,1.365-0.581,1.892-1.025c0.521-0.445,0.943-0.98,1.261-1.605c0.316-0.624,0.536-1.419,0.655-2.382h2.661v-0.003
		H414.659z"/>
	<path fill="#FDDD05" d="M378.165,70.987c9.389,0,17-7.603,17-16.984c0-9.379-7.611-16.984-17-16.984
		c-9.391,0-17.001,7.604-17.001,16.984C361.164,63.385,368.776,70.987,378.165,70.987"/>
	<path d="M378.166,44.613c-5.166,0-9.355,4.184-9.355,9.346c0,3.826,2.306,7.115,5.603,8.56c-0.026-0.652-0.005-1.438,0.162-2.146
		c0.181-0.759,1.201-5.093,1.201-5.093s-0.298-0.599-0.298-1.478c0-1.386,0.806-2.42,1.806-2.42c0.851,0,1.263,0.639,1.263,1.403
		c0,0.854-0.546,2.132-0.826,3.315c-0.235,0.991,0.497,1.801,1.476,1.801c1.772,0,2.968-2.274,2.968-4.969
		c0-2.048-1.381-3.581-3.894-3.581c-2.838,0-4.604,2.113-4.604,4.475c0,0.814,0.239,1.39,0.616,1.833
		c0.174,0.205,0.195,0.287,0.135,0.521c-0.045,0.172-0.147,0.585-0.19,0.749c-0.062,0.236-0.254,0.321-0.468,0.233
		c-1.308-0.532-1.916-1.963-1.916-3.569c0-2.655,2.24-5.84,6.685-5.84c3.572,0,5.925,2.583,5.925,5.355
		c0,3.666-2.04,6.404-5.05,6.404c-1.01,0-1.96-0.546-2.283-1.166c0,0-0.543,2.155-0.658,2.57c-0.197,0.72-0.586,1.439-0.941,2
		c0.841,0.25,1.73,0.385,2.651,0.385c5.166,0,9.354-4.185,9.354-9.345C387.52,48.797,383.332,44.613,378.166,44.613"/>
	<path fill="#FDDD05" d="M342.046,70.943c9.39,0,17-7.604,17-16.984c0-9.379-7.61-16.984-17-16.984
		c-9.389,0-17.001,7.604-17.001,16.984S332.657,70.943,342.046,70.943"/>
	<path d="M336.81,61.845h-3.646V50.186h3.646V61.845z M334.893,48.727h-0.024c-1.319,0-2.177-0.892-2.177-2.02
		c0-1.151,0.884-2.024,2.229-2.024c1.345,0,2.173,0.871,2.199,2.021C337.118,47.834,336.264,48.727,334.893,48.727z M351.4,61.845
		h-4.136v-6.034c0-1.578-0.646-2.655-2.066-2.655c-1.091,0-1.693,0.727-1.977,1.427c-0.104,0.251-0.09,0.604-0.09,0.953v6.309
		h-4.096c0,0,0.053-10.687,0-11.659h4.096v1.83c0.242-0.801,1.551-1.941,3.641-1.941c2.594,0,4.628,1.677,4.628,5.288V61.845z"/>
	<path fill="#FDDD05" d="M306.029,70.988c9.389,0,17-7.604,17-16.984c0-9.379-7.611-16.984-17-16.984c-9.392,0-17,7.604-17,16.984
		S296.639,70.988,306.029,70.988"/>
	<path d="M311.769,44.659h-11.477c-1.994,0-3.616,1.619-3.616,3.611v3.815v7.652c0,1.992,1.622,3.612,3.616,3.612h11.477
		c1.994,0,3.616-1.62,3.616-3.612v-7.652v-3.815C315.385,46.278,313.763,44.659,311.769,44.659z M312.807,46.813l0.413-0.002v0.412
		v2.757l-3.161,0.011l-0.011-3.168L312.807,46.813z M303.361,52.086c0.6-0.828,1.57-1.372,2.671-1.372
		c1.099,0,2.069,0.544,2.669,1.372c0.392,0.542,0.624,1.202,0.624,1.918c0,1.813-1.479,3.29-3.293,3.29
		c-1.815,0-3.294-1.477-3.294-3.29C302.736,53.288,302.971,52.628,303.361,52.086z M313.562,59.738c0,0.988-0.804,1.791-1.793,1.791
		h-11.477c-0.989,0-1.793-0.803-1.793-1.791v-7.652h2.793c-0.242,0.593-0.377,1.24-0.377,1.918c0,2.817,2.294,5.111,5.114,5.111
		c2.819,0,5.114-2.294,5.114-5.111c0-0.678-0.137-1.325-0.377-1.918h2.793L313.562,59.738L313.562,59.738z"/>
	<path fill="#FDDD05" d="M270.016,70.897c9.39,0,17-7.603,17-16.984c0-9.379-7.61-16.983-17-16.983c-9.389,0-17,7.604-17,16.983
		C253.014,63.295,260.627,70.897,270.016,70.897"/>
	<path d="M266.92,62.29c-2.225,0-3.83-1.405-3.83-3.097c0-1.656,1.992-3.034,4.217-3.01c0.519,0.006,1.003,0.089,1.441,0.229
		c1.206,0.841,2.073,1.311,2.317,2.269c0.046,0.195,0.071,0.394,0.071,0.599C271.137,60.971,270.048,62.29,266.92,62.29
		 M267.505,52.382c-1.492-0.045-2.912-1.669-3.169-3.627c-0.258-1.958,0.744-3.458,2.235-3.413c1.492,0.045,2.912,1.616,3.169,3.574
		C269.998,50.875,268.997,52.427,267.505,52.382 M270.6,55.283c-0.523-0.371-1.524-1.271-1.524-1.801
		c0-0.621,0.178-0.926,1.112-1.656c0.958-0.748,1.636-1.8,1.636-3.022c0-1.457-0.649-2.875-1.867-3.345h1.837l1.297-0.937h-5.795
		c-2.597,0-5.042,1.967-5.042,4.243c0,2.328,1.771,4.207,4.414,4.207c0.184,0,0.362-0.004,0.537-0.017
		c-0.172,0.328-0.295,0.698-0.295,1.081c0,0.646,0.349,1.171,0.789,1.6c-0.333,0-0.655,0.011-1.004,0.011
		c-3.218,0-5.694,2.046-5.694,4.171c0,2.09,2.715,3.396,5.932,3.396c3.668,0,5.694-2.078,5.694-4.171
		C272.626,57.367,272.131,56.364,270.6,55.283 M279.03,52.553h-2.256v-2.254h-1.815v2.254h-2.256v1.813h2.256v2.253h1.815v-2.253
		h2.256V52.553z"/>
	<path fill="#FDDD05" d="M233.998,70.943c9.388,0,17-7.604,17-16.984c0-9.379-7.612-16.984-17-16.984c-9.39,0-17,7.604-17,16.984
		S224.608,70.943,233.998,70.943"/>
	<path d="M233.965,44.848c-5.164,0-9.351,4.183-9.351,9.343c0,4.126,2.678,7.628,6.395,8.864c0.468,0.086,0.639-0.203,0.639-0.449
		c0-0.222-0.008-0.812-0.013-1.59c-2.601,0.563-3.15-1.253-3.15-1.253c-0.425-1.08-1.038-1.366-1.038-1.366
		c-0.849-0.58,0.064-0.568,0.064-0.568c0.938,0.066,1.433,0.963,1.433,0.963c0.834,1.429,2.188,1.017,2.72,0.776
		c0.086-0.604,0.328-1.016,0.596-1.249c-2.077-0.236-4.26-1.037-4.26-4.617c0-1.02,0.364-1.852,0.962-2.506
		c-0.096-0.236-0.417-1.187,0.092-2.473c0,0,0.784-0.251,2.571,0.958c0.746-0.208,1.546-0.312,2.341-0.315
		c0.795,0.004,1.594,0.107,2.342,0.315c1.785-1.21,2.568-0.958,2.568-0.958c0.51,1.286,0.188,2.236,0.093,2.473
		c0.599,0.653,0.961,1.486,0.961,2.506c0,3.589-2.187,4.378-4.27,4.61c0.337,0.287,0.635,0.857,0.635,1.729
		c0,1.249-0.012,2.258-0.012,2.563c0,0.248,0.169,0.54,0.644,0.447c3.713-1.237,6.39-4.736,6.39-8.863
		C243.315,49.03,239.128,44.848,233.965,44.848z"/>
	<path fill="#FDDD05" d="M198.093,70.935c9.388,0,17-7.603,17-16.984c0-9.38-7.612-16.983-17-16.983
		c-9.39,0-17.001,7.604-17.001,16.983C181.091,63.33,188.704,70.935,198.093,70.935"/>
	<g>
		<path d="M207.447,53.951c0,2.272-1.844,4.117-4.12,4.117c-2.279,0-4.123-1.845-4.123-4.117c0-2.273,1.844-4.117,4.123-4.117
			C205.604,49.833,207.447,51.678,207.447,53.951z"/>
		<path d="M196.979,53.951c0,2.272-1.843,4.117-4.123,4.117c-2.274,0-4.118-1.845-4.118-4.117c0-2.273,1.844-4.117,4.118-4.117
			C195.136,49.833,196.979,51.678,196.979,53.951z"/>
	</g>
	<path fill="#FDDD05" d="M162.074,70.936c9.39,0,17-7.604,17-16.984c0-9.38-7.611-16.984-17-16.984c-9.389,0-17,7.604-17,16.984
		C145.074,63.332,152.686,70.936,162.074,70.936"/>
	<path d="M157.099,50.787h1.935v-1.878c0-0.828,0.021-2.105,0.623-2.895c0.634-0.839,1.505-1.407,3.002-1.407
		c2.441,0,3.469,0.348,3.469,0.348l-0.483,2.862c0,0-0.806-0.232-1.559-0.232c-0.753,0-1.427,0.27-1.427,1.02v2.184h3.086
		l-0.216,2.796h-2.87v9.715h-3.625v-9.715h-1.935V50.787z"/>
	<path fill="#FDDD05" d="M126.059,70.936c9.389,0,17-7.604,17-16.984c0-9.38-7.611-16.984-17-16.984c-9.391,0-17,7.604-17,16.984
		C109.058,63.332,116.668,70.936,126.059,70.936"/>
	<path d="M135.408,51.346v8.277c0,0.459-0.164,0.854-0.491,1.18c-0.327,0.326-0.72,0.49-1.179,0.49h-15.361
		c-0.459,0-0.852-0.164-1.179-0.49c-0.327-0.325-0.49-0.721-0.49-1.18v-8.277c0.306,0.34,0.657,0.644,1.054,0.906
		c2.519,1.709,4.247,2.909,5.187,3.598c0.396,0.291,0.719,0.521,0.965,0.684c0.247,0.163,0.576,0.33,0.986,0.501
		c0.412,0.17,0.793,0.255,1.147,0.255h0.021c0.354,0,0.737-0.085,1.147-0.255c0.411-0.171,0.739-0.338,0.986-0.501
		c0.247-0.163,0.568-0.393,0.966-0.684c1.183-0.854,2.915-2.054,5.196-3.598C134.761,51.98,135.108,51.68,135.408,51.346z
		 M135.408,48.28c0,0.549-0.171,1.074-0.512,1.575c-0.341,0.5-0.766,0.928-1.273,1.282c-2.615,1.813-4.243,2.943-4.884,3.388
		c-0.069,0.048-0.217,0.154-0.443,0.318c-0.227,0.162-0.413,0.295-0.563,0.396c-0.149,0.103-0.33,0.215-0.542,0.339
		c-0.213,0.125-0.413,0.22-0.601,0.281c-0.188,0.063-0.361,0.094-0.521,0.094h-0.021c-0.159,0-0.333-0.03-0.521-0.094
		c-0.188-0.062-0.388-0.156-0.601-0.281c-0.212-0.124-0.394-0.236-0.543-0.339c-0.149-0.101-0.337-0.231-0.563-0.396
		c-0.226-0.166-0.374-0.271-0.443-0.318c-0.633-0.444-1.545-1.078-2.733-1.901c-1.19-0.825-1.903-1.319-2.14-1.485
		c-0.432-0.293-0.839-0.693-1.221-1.205c-0.383-0.511-0.574-0.984-0.574-1.423c0-0.542,0.145-0.994,0.433-1.354
		c0.289-0.362,0.701-0.542,1.236-0.542h15.361c0.452,0,0.844,0.164,1.174,0.489C135.242,47.429,135.408,47.821,135.408,48.28
		L135.408,48.28z"/>
	<path fill="#FDDD05" d="M90.042,70.943c9.389,0,17-7.604,17-16.984c0-9.379-7.611-16.984-17-16.984c-9.391,0-17,7.604-17,16.984
		S80.651,70.943,90.042,70.943"/>
	<path d="M99.206,52.078c-0.122-0.601-0.307-1.191-0.546-1.756c-0.233-0.555-0.524-1.09-0.862-1.588
		c-0.334-0.494-0.719-0.96-1.142-1.382c-0.424-0.424-0.889-0.807-1.384-1.141c-0.499-0.338-1.034-0.628-1.589-0.862
		c-0.564-0.238-1.157-0.423-1.759-0.545c-0.615-0.127-1.249-0.191-1.883-0.191c-0.634,0-1.268,0.064-1.884,0.191
		c-0.601,0.122-1.192,0.307-1.758,0.545c-0.554,0.233-1.089,0.523-1.59,0.862c-0.495,0.334-0.96,0.717-1.384,1.141
		c-0.423,0.422-0.807,0.888-1.141,1.382c-0.338,0.499-0.628,1.034-0.862,1.588c-0.239,0.564-0.424,1.156-0.546,1.756
		c-0.127,0.614-0.19,1.248-0.19,1.881c0,0.634,0.063,1.269,0.19,1.883c0.122,0.602,0.307,1.191,0.546,1.756
		c0.234,0.555,0.524,1.09,0.862,1.59c0.334,0.493,0.718,0.96,1.141,1.383c0.424,0.422,0.889,0.807,1.384,1.142
		c0.501,0.338,1.036,0.627,1.59,0.86c0.565,0.238,1.158,0.421,1.758,0.544c0.616,0.128,1.25,0.191,1.884,0.191
		c0.634,0,1.268-0.063,1.883-0.191c0.602-0.123,1.194-0.306,1.759-0.544c0.555-0.233,1.09-0.522,1.589-0.86
		c0.495-0.335,0.96-0.72,1.384-1.142c0.423-0.423,0.808-0.89,1.142-1.383c0.338-0.5,0.629-1.035,0.862-1.59
		c0.239-0.562,0.424-1.154,0.546-1.756c0.126-0.614,0.19-1.249,0.19-1.883C99.396,53.325,99.332,52.692,99.206,52.078z
		 M98.027,53.879c-0.115-0.025-2.819-0.606-5.563-0.261c-0.058-0.137-0.114-0.274-0.173-0.412c-0.167-0.391-0.346-0.777-0.531-1.158
		c3.155-1.287,4.436-3.137,4.45-3.159C97.332,50.249,98.009,51.986,98.027,53.879z M95.317,47.97
		c-0.021,0.03-1.157,1.761-4.173,2.89c-1.365-2.507-2.866-4.499-2.986-4.656c0.604-0.146,1.234-0.226,1.883-0.226
		C92.064,45.978,93.91,46.73,95.317,47.97z M88.128,46.209c-0.001,0.001-0.002,0.001-0.002,0.001s-0.009,0.003-0.023,0.006
		C88.11,46.213,88.12,46.212,88.128,46.209z M86.633,46.74c0.106,0.143,1.583,2.144,2.967,4.6c-3.835,1.021-7.165,0.979-7.376,0.974
		C82.742,49.843,84.404,47.792,86.633,46.74z M82.052,53.958c0-0.085,0.005-0.168,0.007-0.252c0.142,0.003,4.089,0.092,8.202-1.137
		c0.229,0.447,0.447,0.902,0.647,1.356c-0.105,0.029-0.21,0.061-0.313,0.096c-4.312,1.392-6.498,5.266-6.498,5.266
		s0.002,0.004,0.002,0.006C82.827,57.879,82.052,56.01,82.052,53.958z M90.042,61.94c-1.934,0-3.708-0.687-5.089-1.828
		c0.105,0.085,0.179,0.141,0.179,0.141s1.532-3.339,6.271-4.988c0.018-0.006,0.035-0.012,0.054-0.017
		c1.123,2.918,1.587,5.362,1.705,6.062C92.202,61.716,91.148,61.94,90.042,61.94z M94.505,60.579
		c-0.081-0.48-0.508-2.825-1.555-5.702c2.579-0.411,4.813,0.296,4.979,0.351C97.572,57.45,96.299,59.369,94.505,60.579z"/>
	<path fill="#FDDD05" d="M54.024,70.891c9.389,0,17-7.604,17-16.984c0-9.38-7.611-16.984-17-16.984c-9.391,0-17,7.604-17,16.984
		C37.024,63.286,44.634,70.891,54.024,70.891"/>
	<path d="M63.288,52.322L63.133,52l-0.262-0.207c-0.345-0.27-2.082,0.02-2.554-0.406c-0.33-0.307-0.378-0.854-0.479-1.598
		c-0.187-1.443-0.306-1.519-0.531-2.006c-0.82-1.735-3.037-3.041-4.562-3.221h-4.134c-3.25,0-5.905,2.659-5.905,5.908v6.889
		c0,3.239,2.656,5.894,5.905,5.894h6.79c3.248,0,5.887-2.654,5.906-5.894l0.038-4.773L63.288,52.322z M50.687,49.388h3.274
		c0.626,0,1.133,0.506,1.133,1.126c0,0.616-0.507,1.13-1.133,1.13h-3.274c-0.625,0-1.131-0.514-1.131-1.13
		C49.556,49.894,50.062,49.388,50.687,49.388z M57.343,58.393h-6.657c-0.625,0-1.131-0.512-1.131-1.124
		c0-0.618,0.506-1.122,1.131-1.122h6.657c0.62,0,1.125,0.504,1.125,1.122C58.468,57.881,57.963,58.393,57.343,58.393z"/>
	<path fill="#FDDD05" d="M18.008,70.891c9.389,0,17-7.604,17-16.984c0-9.38-7.611-16.984-17-16.984s-17,7.604-17,16.984
		C1.008,63.286,8.619,70.891,18.008,70.891"/>
	<path d="M17.237,49.216c0.353,0.492,0.53,1.08,0.53,1.765c0,0.704-0.178,1.271-0.534,1.7c-0.201,0.239-0.494,0.46-0.883,0.656
		c0.59,0.216,1.034,0.557,1.336,1.021c0.3,0.464,0.45,1.027,0.45,1.692c0,0.684-0.171,1.298-0.516,1.84
		c-0.218,0.361-0.491,0.663-0.818,0.909c-0.368,0.281-0.803,0.478-1.306,0.581c-0.502,0.104-1.046,0.155-1.634,0.155h-5.21v-11.55
		h5.587C15.651,48.007,16.649,48.417,17.237,49.216z M10.959,49.993v2.548h2.812c0.5,0,0.908-0.096,1.224-0.287
		c0.312-0.19,0.469-0.529,0.469-1.014c0-0.54-0.207-0.894-0.621-1.067c-0.357-0.119-0.812-0.18-1.366-0.18H10.959z M10.959,54.452
		v3.08h2.807c0.502,0,0.893-0.067,1.171-0.202c0.509-0.253,0.761-0.732,0.761-1.442c0-0.602-0.244-1.015-0.735-1.238
		c-0.275-0.125-0.661-0.19-1.156-0.195L10.959,54.452L10.959,54.452z M25.127,51.169c0.597,0.267,1.089,0.688,1.476,1.265
		c0.354,0.506,0.58,1.096,0.684,1.765c0.06,0.392,0.085,0.958,0.074,1.695h-6.229c0.036,0.854,0.332,1.458,0.895,1.802
		c0.342,0.215,0.752,0.321,1.233,0.321c0.507,0,0.922-0.131,1.239-0.394c0.176-0.14,0.329-0.337,0.461-0.587h2.283
		c-0.061,0.505-0.338,1.02-0.828,1.544c-0.767,0.831-1.838,1.246-3.217,1.246c-1.139,0-2.143-0.349-3.011-1.052
		c-0.872-0.7-1.305-1.843-1.305-3.418c0-1.481,0.392-2.616,1.176-3.406c0.786-0.789,1.805-1.185,3.058-1.185
		C23.86,50.768,24.53,50.902,25.127,51.169z M21.784,53.099c-0.316,0.325-0.515,0.766-0.597,1.321h3.854
		c-0.041-0.593-0.241-1.042-0.596-1.35c-0.358-0.307-0.8-0.459-1.327-0.459C22.544,52.611,22.1,52.772,21.784,53.099z
		 M25.562,48.524h-4.954v1.437h4.954V48.524z"/>
</g>
<g id="Default">
	<g id="Website">
		<path fill="#F7F5F4" d="M558.006,34.022c8.837,0,16.001-7.157,16.001-15.985c0-8.827-7.164-15.984-16.001-15.984
			c-8.838,0-16,7.157-16,15.984C542.006,26.865,549.168,34.022,558.006,34.022"/>
		<path fill="#2B2A28" d="M558.007,9.999c2.223,0,4.112,0.783,5.666,2.349c1.556,1.565,2.334,3.447,2.334,5.645
			c0,2.22-0.777,4.107-2.334,5.661c-1.554,1.554-3.443,2.332-5.666,2.332c-2.2,0-4.083-0.777-5.649-2.332
			c-1.568-1.554-2.352-3.441-2.352-5.661c0-2.198,0.783-4.079,2.352-5.645C553.924,10.782,555.807,9.999,558.007,9.999
			L558.007,9.999 M564.84,17.992c0-1.465-0.433-2.792-1.3-3.979c-0.866-1.188-1.989-2.015-3.366-2.481
			c-0.2,0.267-0.288,0.444-0.267,0.533c0.045,0.422,0.144,0.706,0.3,0.849c0.156,0.144,0.322,0.184,0.5,0.117l0.531-0.2
			c0,0,0.112-0.011,0.334-0.033c0.244,0.266,0.244,0.528,0,0.782c-0.245,0.255-0.495,0.566-0.75,0.933
			c-0.257,0.367-0.261,0.794-0.019,1.283c0.379,0.709,0.912,1.065,1.602,1.065c0.311,0.022,0.549,0.222,0.717,0.599
			c0.167,0.378,0.261,0.744,0.284,1.099c0.108,0.888,0.031,1.666-0.233,2.332c-0.246,0.489-0.169,0.91,0.233,1.265
			C564.363,20.912,564.84,19.524,564.84,17.992L564.84,17.992 M557.073,11.265c-1.245,0.156-2.351,0.622-3.317,1.399
			c-0.965,0.777-1.671,1.744-2.116,2.897c0.066,0,0.188,0.012,0.368,0.034c0.177,0.021,0.333,0.039,0.467,0.05
			s0.277,0.034,0.434,0.067c0.154,0.034,0.289,0.078,0.399,0.134c0.112,0.056,0.176,0.127,0.2,0.216
			c0.044,0.133-0.033,0.383-0.233,0.75s-0.298,0.705-0.298,1.016c0,0.333,0.211,0.644,0.634,0.933
			c0.419,0.289,0.634,0.544,0.634,0.766c0,0.311,0.043,0.688,0.133,1.132c0.09,0.444,0.135,0.688,0.135,0.733
			c0,0.133,0.201,0.433,0.602,0.9c0.398,0.466,0.686,0.7,0.865,0.7c0.111,0,0.174-0.123,0.184-0.367c0.01-0.244,0-0.544-0.033-0.898
			c-0.035-0.355-0.051-0.578-0.051-0.666c0-0.356,0.078-0.766,0.233-1.233c0.135-0.466,0.46-0.855,0.984-1.166
			c0.521-0.31,0.828-0.566,0.917-0.766c0.177-0.377,0.228-0.715,0.15-1.016c-0.079-0.3-0.175-0.538-0.286-0.715
			c-0.109-0.178-0.298-0.333-0.566-0.466s-0.494-0.228-0.684-0.283c-0.188-0.056-0.394-0.105-0.616-0.151
			c-0.223-0.044-0.344-0.066-0.369-0.066c-0.176-0.067-0.41-0.106-0.697-0.117c-0.291-0.012-0.49,0.005-0.604,0.05
			c-0.107,0.044-0.26-0.017-0.449-0.183c-0.188-0.167-0.284-0.328-0.284-0.484c0-0.111,0.085-0.26,0.251-0.449
			c0.166-0.188,0.361-0.394,0.584-0.616c0.223-0.222,0.377-0.389,0.467-0.5c0.088-0.155,0.18-0.272,0.283-0.35
			c0.1-0.078,0.223-0.166,0.365-0.266c0.146-0.1,0.295-0.216,0.451-0.35c0.045-0.043,0.185-0.138,0.418-0.283
			C556.858,11.503,557.007,11.375,557.073,11.265L557.073,11.265 M555.873,24.486c0.735,0.221,1.444,0.333,2.136,0.333
			c1.423,0,2.678-0.377,3.767-1.132c-0.29-0.489-0.945-0.677-1.967-0.566c-0.267,0.021-0.627,0.117-1.083,0.283
			s-0.717,0.26-0.783,0.283c-0.821,0.178-1.244,0.266-1.267,0.266c-0.136,0.023-0.277,0.1-0.434,0.233
			C556.084,24.319,555.963,24.418,555.873,24.486L555.873,24.486"/>
	</g>
	<g id="Vimeo">
		<path fill="#F7F5F4" d="M522.219,34.022c8.837,0,16.001-7.157,16.001-15.984c0-8.827-7.164-15.982-16.001-15.982
			c-8.836,0-16,7.156-16,15.982C506.219,26.865,513.383,34.022,522.219,34.022"/>
		<path fill="#2B2A28" d="M530.214,14.514c-0.07,1.555-1.16,3.681-3.261,6.378c-2.177,2.82-4.021,4.23-5.527,4.23
			c-0.932,0-1.721-0.858-2.367-2.578c-0.433-1.578-0.862-3.156-1.293-4.731c-0.48-1.722-0.994-2.582-1.543-2.582
			c-0.119,0-0.537,0.251-1.256,0.753l-0.753-0.969c0.788-0.691,1.567-1.385,2.333-2.076c1.051-0.909,1.842-1.385,2.37-1.435
			c1.238-0.121,2.007,0.729,2.294,2.544c0.309,1.96,0.527,3.179,0.646,3.658c0.358,1.624,0.752,2.435,1.184,2.435
			c0.333,0,0.837-0.524,1.506-1.575c0.671-1.052,1.029-1.852,1.079-2.403c0.096-0.907-0.263-1.359-1.079-1.359
			c-0.381,0-0.776,0.081-1.184,0.25c0.79-2.556,2.298-3.8,4.521-3.727C529.534,11.373,530.312,12.437,530.214,14.514z"/>
	</g>
	<g id="YouTube">
		<path fill="#F7F5F4" d="M486.203,34.023c8.835,0,15.999-7.157,15.999-15.985c0-8.827-7.164-15.985-15.999-15.985
			c-8.839,0-16.002,7.157-16.002,15.985C470.201,26.866,477.365,34.023,486.203,34.023"/>
		<path fill="#2B2A28" d="M489.31,18.046l-5.24,3.076v-6.151L489.31,18.046z M494.206,20.896v-5.718c0,0,0-2.756-2.762-2.756
			h-10.488c0,0-2.761,0-2.761,2.756v5.718c0,0,0,2.756,2.761,2.756h10.488C491.445,23.652,494.206,23.652,494.206,20.896"/>
	</g>
	<g id="Twitter">
		<path fill="#F7F5F4" d="M450.193,33.978c8.837,0,16-7.157,16-15.985c0-8.827-7.163-15.985-16-15.985
			c-8.836,0-16.001,7.158-16.001,15.985C434.191,26.821,441.355,33.978,450.193,33.978"/>
		<path fill="#2B2A28" d="M458.214,13.805c-0.591,0.261-1.225,0.438-1.89,0.517c0.68-0.408,1.2-1.05,1.445-1.816
			c-0.636,0.377-1.339,0.648-2.09,0.796c-0.598-0.639-1.453-1.037-2.399-1.037c-1.813,0-3.286,1.471-3.286,3.286
			c0,0.258,0.027,0.507,0.084,0.748c-2.731-0.137-5.154-1.444-6.776-3.433c-0.284,0.487-0.445,1.051-0.445,1.652
			c0,1.138,0.58,2.144,1.463,2.735c-0.538-0.017-1.047-0.166-1.489-0.411v0.04c0,1.593,1.133,2.92,2.638,3.222
			c-0.275,0.077-0.566,0.116-0.866,0.116c-0.212,0-0.419-0.02-0.618-0.059c0.418,1.306,1.633,2.255,3.07,2.279
			c-1.125,0.882-2.543,1.408-4.084,1.408c-0.266,0-0.527-0.015-0.783-0.045c1.454,0.93,3.185,1.474,5.04,1.474
			c6.049,0,9.354-5.004,9.354-9.346c0-0.143-0.003-0.285-0.009-0.425C457.216,15.043,457.774,14.464,458.214,13.805"/>
	</g>
	<g id="Tumblr">
		<path fill="#F7F5F4" d="M414.183,34.022c8.836,0,16-7.156,16-15.985c0-8.827-7.164-15.984-16-15.984s-16.001,7.157-16.001,15.984
			C398.182,26.865,405.347,34.022,414.183,34.022"/>
		<path fill="#2B2A28" d="M414.57,10.041v4.042h3.799v2.51h-3.799v4.1c0,0.928,0.05,1.522,0.147,1.785
			c0.098,0.265,0.28,0.475,0.55,0.632c0.354,0.212,0.757,0.317,1.214,0.317c0.811,0,1.615-0.265,2.417-0.791v2.523
			c-0.685,0.321-1.303,0.547-1.856,0.676c-0.556,0.13-1.154,0.196-1.799,0.196c-0.732,0-1.381-0.094-1.94-0.277
			c-0.562-0.187-1.042-0.448-1.438-0.79c-0.396-0.34-0.673-0.707-0.825-1.09c-0.153-0.385-0.229-0.942-0.229-1.675v-5.608h-1.771
			V14.33c0.631-0.205,1.169-0.498,1.616-0.878c0.448-0.38,0.81-0.838,1.079-1.374c0.271-0.532,0.457-1.214,0.562-2.039h2.274V10.041
			z"/>
	</g>
	<g id="Pinterest">
		<path fill="#F7F5F4" d="M378.165,34.022c8.836,0,16-7.155,16-15.985c0-8.827-7.164-15.985-16-15.985
			c-8.837,0-16.001,7.157-16.001,15.985C362.164,26.867,369.329,34.022,378.165,34.022"/>
		<path fill="#2B2A28" d="M378.166,9.999c-4.42,0-8.004,3.58-8.004,7.996c0,3.275,1.971,6.087,4.792,7.324
			c-0.023-0.557-0.004-1.229,0.138-1.836c0.154-0.648,1.03-4.357,1.03-4.357s-0.256-0.511-0.256-1.265
			c0-1.186,0.688-2.07,1.544-2.07c0.728,0,1.078,0.546,1.078,1.201c0,0.731-0.467,1.824-0.706,2.837
			c-0.2,0.848,0.426,1.541,1.264,1.541c1.517,0,2.537-1.946,2.537-4.251c0-1.752-1.182-3.064-3.33-3.064
			c-2.428,0-3.939,1.809-3.939,3.83c0,0.696,0.204,1.188,0.526,1.568c0.148,0.176,0.168,0.245,0.115,0.447
			c-0.038,0.146-0.126,0.5-0.162,0.642c-0.055,0.202-0.218,0.274-0.4,0.2c-1.118-0.457-1.64-1.679-1.64-3.055
			c0-2.271,1.918-4.995,5.72-4.995c3.057,0,5.067,2.209,5.067,4.581c0,3.137-1.745,5.479-4.319,5.479
			c-0.862,0-1.676-0.466-1.954-0.997c0,0-0.466,1.843-0.563,2.197c-0.17,0.616-0.501,1.232-0.807,1.712
			c0.721,0.213,1.48,0.329,2.27,0.329c4.42,0,8.003-3.581,8.003-7.997C386.169,13.579,382.585,9.999,378.166,9.999"/>
	</g>
	<g id="LinkedIn">
		<path fill="#F7F5F4" d="M342.046,33.978c8.837,0,16-7.158,16-15.985s-7.163-15.985-16-15.985c-8.836,0-16.001,7.157-16.001,15.985
			C326.045,26.82,333.21,33.978,342.046,33.978"/>
		<path fill="#2B2A28" d="M337.566,24.682h-3.12v-9.976h3.12V24.682z M335.927,13.458h-0.023c-1.13,0-1.86-0.762-1.86-1.728
			c0-0.986,0.754-1.733,1.905-1.733s1.858,0.746,1.882,1.73C337.829,12.693,337.1,13.458,335.927,13.458z M350.05,24.682h-3.538
			V19.52c0-1.351-0.552-2.272-1.771-2.272c-0.932,0-1.448,0.622-1.689,1.223c-0.091,0.215-0.076,0.515-0.076,0.815v5.398h-3.505
			c0,0,0.045-9.145,0-9.976h3.505v1.565c0.207-0.685,1.327-1.662,3.115-1.662c2.217,0,3.96,1.435,3.96,4.524L350.05,24.682
			L350.05,24.682z"/>
	</g>
	<g id="Instagram">
		<path fill="#F7F5F4" d="M306.029,34.023c8.836,0,16-7.157,16-15.985c0-8.827-7.164-15.985-16-15.985c-8.838,0-16,7.157-16,15.985
			C290.029,26.866,297.191,34.023,306.029,34.023"/>
		<path fill="#2B2A28" d="M310.94,10.041h-9.821c-1.704,0-3.094,1.387-3.094,3.092v3.265v6.546c0,1.704,1.39,3.091,3.094,3.091
			h9.821c1.705,0,3.095-1.386,3.095-3.091v-6.546v-3.265C314.034,11.428,312.646,10.041,310.94,10.041z M311.828,11.885l0.354-0.001
			v0.353v2.358l-2.705,0.008l-0.009-2.71L311.828,11.885z M303.746,16.397c0.513-0.709,1.344-1.173,2.285-1.173
			c0.939,0,1.771,0.464,2.283,1.173c0.333,0.462,0.533,1.029,0.533,1.641c0,1.552-1.265,2.815-2.816,2.815
			c-1.555,0-2.818-1.263-2.818-2.815C303.213,17.425,303.412,16.859,303.746,16.397z M312.475,22.943
			c0,0.845-0.688,1.532-1.534,1.532h-9.821c-0.846,0-1.533-0.687-1.533-1.532v-6.546h2.39c-0.206,0.507-0.321,1.061-0.321,1.641
			c0,2.412,1.963,4.375,4.377,4.375c2.412,0,4.376-1.962,4.376-4.375c0-0.58-0.117-1.133-0.322-1.641h2.39V22.943L312.475,22.943z"
			/>
	</g>
	<g id="Google_x2B_">
		<path fill="#F7F5F4" d="M270.016,33.932c8.837,0,16-7.158,16-15.985c0-8.828-7.16-15.985-16-15.985c-8.836,0-16,7.157-16,15.985
			C254.015,26.774,261.18,33.932,270.016,33.932"/>
		<path fill="#2B2A28" d="M267.367,25.108c-1.902,0-3.277-1.202-3.277-2.646c0-1.42,1.707-2.6,3.609-2.576
			c0.441,0.004,0.855,0.074,1.234,0.195c1.031,0.718,1.77,1.124,1.98,1.943c0.039,0.164,0.059,0.335,0.059,0.507
			C270.973,23.98,270.043,25.108,267.367,25.108 M267.867,16.632c-1.277-0.039-2.492-1.429-2.711-3.102
			c-0.223-1.674,0.637-2.958,1.91-2.919c1.277,0.035,2.492,1.382,2.715,3.056C270,15.341,269.145,16.671,267.867,16.632
			 M270.516,19.114c-0.449-0.315-1.305-1.085-1.305-1.542c0-0.53,0.152-0.792,0.949-1.417c0.824-0.641,1.402-1.538,1.402-2.583
			c0-1.245-0.555-2.463-1.598-2.865h1.57l1.109-0.8h-4.957c-2.223,0-4.312,1.683-4.312,3.634c0,1.99,1.516,3.599,3.777,3.599
			c0.156,0,0.309-0.004,0.457-0.016c-0.145,0.281-0.25,0.597-0.25,0.925c0,0.555,0.297,1.003,0.672,1.37
			c-0.285,0-0.559,0.008-0.859,0.008c-2.75,0-4.871,1.752-4.871,3.567c0,1.787,2.324,2.907,5.074,2.907
			c3.141,0,4.875-1.779,4.875-3.566C272.25,20.898,271.824,20.04,270.516,19.114 M277.731,16.78h-1.934v-1.928h-1.551v1.928h-1.93
			v1.549h1.93v1.928h1.551V18.33h1.934V16.78z"/>
	</g>
	<g id="Github">
		<path fill="#F7F5F4" d="M233.998,33.978c8.835,0,16-7.158,16-15.985s-7.165-15.985-16-15.985c-8.838,0-16,7.157-16,15.985
			C217.998,26.82,225.16,33.978,233.998,33.978"/>
		<path fill="#2B2A28" d="M233.967,10.197c-4.418,0-8,3.579-8,7.993c0,3.531,2.292,6.526,5.471,7.583
			c0.4,0.073,0.546-0.173,0.546-0.385c0-0.19-0.006-0.693-0.012-1.36c-2.225,0.484-2.694-1.072-2.694-1.072
			c-0.364-0.923-0.888-1.169-0.888-1.169c-0.726-0.496,0.055-0.487,0.055-0.487c0.804,0.057,1.227,0.824,1.227,0.824
			c0.713,1.222,1.872,0.87,2.328,0.665c0.073-0.517,0.28-0.869,0.509-1.068c-1.777-0.203-3.645-0.888-3.645-3.95
			c0-0.873,0.312-1.586,0.823-2.145c-0.082-0.203-0.356-1.016,0.079-2.116c0,0,0.671-0.215,2.199,0.818
			c0.639-0.177,1.322-0.266,2.003-0.269c0.681,0.003,1.364,0.092,2.003,0.269c1.528-1.034,2.198-0.818,2.198-0.818
			c0.437,1.1,0.162,1.913,0.08,2.116c0.512,0.559,0.822,1.272,0.822,2.145c0,3.071-1.87,3.747-3.653,3.943
			c0.288,0.248,0.543,0.734,0.543,1.48c0,1.068-0.011,1.931-0.011,2.193c0,0.213,0.145,0.461,0.551,0.384
			c3.176-1.059,5.466-4.053,5.466-7.583C241.967,13.776,238.385,10.197,233.967,10.197z"/>
	</g>
	<g id="Flickr">
		<path fill="#F7F5F4" d="M198.093,33.969c8.835,0,16-7.157,16-15.985S206.928,2,198.093,2c-8.837,0-16.001,7.156-16.001,15.984
			C182.091,26.812,189.256,33.969,198.093,33.969"/>
		<g>
			<path fill="#2B2A28" d="M206.096,17.984c0,1.945-1.578,3.523-3.524,3.523c-1.951,0-3.528-1.579-3.528-3.523
				s1.577-3.523,3.528-3.523C204.52,14.461,206.096,16.04,206.096,17.984z"/>
			<path fill="#2B2A28" d="M197.141,17.984c0,1.945-1.578,3.523-3.528,3.523c-1.947,0-3.524-1.579-3.524-3.523
				s1.577-3.523,3.524-3.523C195.563,14.461,197.141,16.04,197.141,17.984z"/>
		</g>
	</g>
	<g id="Facebook">
		<path fill="#F7F5F4" d="M162.074,33.97c8.838,0,16-7.157,16-15.985S170.912,2,162.074,2c-8.836,0-16,7.157-16,15.985
			S153.238,33.97,162.074,33.97"/>
		<path fill="#2B2A28" d="M157.777,15.278h1.655v-1.606c0-0.708,0.018-1.801,0.533-2.478c0.542-0.717,1.287-1.204,2.568-1.204
			c2.088,0,2.967,0.297,2.967,0.297l-0.413,2.45c0,0-0.689-0.2-1.333-0.2c-0.644,0-1.22,0.231-1.22,0.874v1.868h2.64l-0.184,2.392
			h-2.456v8.311h-3.102v-8.311h-1.655L157.777,15.278L157.777,15.278z"/>
	</g>
	<g id="Email">
		<path fill="#F7F5F4" d="M126.059,33.97c8.836,0,16-7.158,16-15.985c0-8.828-7.164-15.985-16-15.985c-8.839,0-16,7.156-16,15.985
			C110.058,26.812,117.22,33.97,126.059,33.97"/>
		<path fill="#2B2A28" d="M134.059,15.755v7.082c0,0.393-0.139,0.729-0.42,1.008c-0.279,0.279-0.616,0.419-1.009,0.419h-13.144
			c-0.393,0-0.729-0.141-1.009-0.419c-0.279-0.279-0.419-0.616-0.419-1.008v-7.082c0.262,0.292,0.562,0.549,0.902,0.775
			c2.155,1.463,3.633,2.489,4.438,3.078c0.338,0.25,0.614,0.444,0.825,0.584c0.212,0.139,0.492,0.282,0.843,0.428
			c0.352,0.146,0.68,0.219,0.981,0.219h0.018c0.304,0,0.63-0.072,0.981-0.219c0.352-0.146,0.632-0.289,0.843-0.428
			c0.212-0.14,0.487-0.334,0.827-0.584c1.012-0.731,2.494-1.757,4.446-3.078C133.503,16.299,133.802,16.041,134.059,15.755z
			 M134.059,13.133c0,0.471-0.146,0.918-0.438,1.348c-0.292,0.428-0.655,0.793-1.089,1.098c-2.238,1.553-3.631,2.519-4.179,2.899
			c-0.059,0.042-0.187,0.132-0.379,0.271c-0.194,0.14-0.354,0.253-0.481,0.338c-0.128,0.087-0.283,0.184-0.464,0.291
			c-0.182,0.107-0.353,0.188-0.513,0.24c-0.161,0.054-0.31,0.08-0.447,0.08h-0.018c-0.136,0-0.285-0.026-0.446-0.08
			c-0.161-0.053-0.332-0.133-0.514-0.24c-0.181-0.107-0.336-0.204-0.464-0.291c-0.128-0.084-0.289-0.199-0.482-0.338
			c-0.194-0.139-0.32-0.229-0.379-0.271c-0.542-0.381-1.321-0.924-2.339-1.628c-1.018-0.705-1.628-1.129-1.831-1.271
			c-0.369-0.25-0.717-0.593-1.044-1.031c-0.328-0.438-0.491-0.842-0.491-1.218c0-0.463,0.123-0.85,0.371-1.16
			c0.248-0.31,0.6-0.465,1.058-0.465h13.144c0.387,0,0.722,0.14,1.004,0.419C133.917,12.403,134.059,12.74,134.059,13.133
			L134.059,13.133z"/>
	</g>
	<g id="Dribbble">
		<path fill="#F7F5F4" d="M90.042,33.978c8.837,0,16-7.158,16-15.985s-7.164-15.985-16-15.985c-8.838,0-16,7.157-16,15.985
			C74.041,26.82,81.203,33.978,90.042,33.978"/>
		<path fill="#2B2A28" d="M97.882,16.383c-0.104-0.514-0.263-1.019-0.467-1.502c-0.2-0.475-0.45-0.932-0.738-1.358
			c-0.286-0.424-0.615-0.822-0.977-1.183c-0.362-0.362-0.76-0.69-1.184-0.977c-0.427-0.29-0.885-0.538-1.359-0.739
			c-0.484-0.203-0.99-0.361-1.505-0.465c-0.527-0.108-1.069-0.164-1.611-0.164s-1.084,0.055-1.612,0.164
			c-0.514,0.104-1.02,0.263-1.504,0.465c-0.474,0.2-0.932,0.449-1.36,0.739c-0.424,0.286-0.822,0.614-1.184,0.977
			c-0.362,0.36-0.69,0.759-0.977,1.183c-0.289,0.426-0.537,0.884-0.737,1.358c-0.206,0.482-0.363,0.989-0.467,1.502
			c-0.108,0.525-0.163,1.067-0.163,1.608c0,0.542,0.055,1.084,0.163,1.61c0.104,0.513,0.261,1.02,0.467,1.502
			c0.2,0.475,0.449,0.933,0.737,1.359c0.287,0.423,0.614,0.82,0.977,1.183c0.362,0.361,0.76,0.688,1.184,0.976
			c0.428,0.289,0.886,0.536,1.36,0.736c0.485,0.206,0.991,0.362,1.504,0.467c0.528,0.109,1.07,0.164,1.612,0.164
			s1.084-0.055,1.611-0.164c0.515-0.105,1.021-0.261,1.505-0.467c0.474-0.2,0.932-0.447,1.359-0.736
			c0.424-0.287,0.822-0.615,1.184-0.976c0.362-0.363,0.691-0.76,0.977-1.183c0.289-0.426,0.538-0.885,0.738-1.359
			c0.204-0.481,0.362-0.989,0.467-1.502c0.107-0.527,0.163-1.068,0.163-1.61C98.045,17.451,97.989,16.908,97.882,16.383z
			 M96.875,17.924c-0.098-0.021-2.411-0.52-4.76-0.224c-0.049-0.117-0.098-0.233-0.148-0.353c-0.142-0.335-0.295-0.667-0.454-0.991
			c2.699-1.101,3.794-2.685,3.808-2.704C96.278,14.819,96.858,16.304,96.875,17.924z M94.557,12.869
			c-0.018,0.026-0.991,1.507-3.571,2.472c-1.168-2.144-2.452-3.85-2.555-3.984c0.517-0.125,1.056-0.193,1.611-0.193
			C91.772,11.163,93.352,11.809,94.557,12.869z M88.404,11.362c-0.001,0-0.002,0-0.002,0s-0.007,0.002-0.02,0.005
			C88.39,11.366,88.397,11.365,88.404,11.362z M87.124,11.816c0.092,0.122,1.354,1.833,2.539,3.935
			c-3.282,0.872-6.131,0.837-6.312,0.833C83.795,14.469,85.218,12.716,87.124,11.816z M83.205,17.992
			c0-0.073,0.004-0.144,0.006-0.215c0.122,0.002,3.498,0.078,7.018-0.973c0.196,0.383,0.383,0.771,0.555,1.161
			c-0.09,0.025-0.179,0.053-0.269,0.082c-3.689,1.192-5.561,4.507-5.561,4.507l0.002,0.002
			C83.868,21.346,83.205,19.747,83.205,17.992z M90.042,24.822c-1.655,0-3.172-0.587-4.354-1.565
			c0.09,0.073,0.153,0.119,0.153,0.119s1.312-2.854,5.364-4.266c0.016-0.005,0.03-0.01,0.046-0.015
			c0.961,2.498,1.358,4.588,1.459,5.185C91.89,24.629,90.988,24.822,90.042,24.822z M93.86,23.656
			c-0.069-0.412-0.434-2.417-1.33-4.878c2.207-0.353,4.119,0.252,4.26,0.298C96.485,20.98,95.396,22.622,93.86,23.656z"/>
	</g>
	<g id="Blogger">
		<path fill="#F7F5F4" d="M54.024,33.925c8.837,0,16-7.159,16-15.985c0-8.828-7.164-15.985-16-15.985c-8.838,0-16,7.156-16,15.985
			C38.024,26.768,45.186,33.925,54.024,33.925"/>
		<path fill="#2B2A28" d="M61.951,16.584l-0.133-0.277l-0.224-0.176c-0.294-0.231-1.781,0.016-2.184-0.349
			c-0.283-0.263-0.324-0.731-0.411-1.367c-0.16-1.236-0.262-1.3-0.455-1.716c-0.702-1.485-2.599-2.602-3.904-2.756h-3.537
			c-2.78,0-5.054,2.276-5.054,5.056v5.895c0,2.771,2.274,5.042,5.054,5.042h5.81c2.78,0,5.038-2.271,5.054-5.042L62,16.81
			L61.951,16.584z M51.168,14.073h2.802c0.536,0,0.97,0.433,0.97,0.963c0,0.528-0.433,0.966-0.97,0.966h-2.802
			c-0.536,0-0.968-0.438-0.968-0.966C50.201,14.506,50.632,14.073,51.168,14.073z M56.864,21.779h-5.695
			c-0.536,0-0.968-0.438-0.968-0.963c0-0.528,0.432-0.96,0.968-0.96h5.695c0.531,0,0.962,0.432,0.962,0.96
			C57.827,21.341,57.396,21.779,56.864,21.779z"/>
	</g>
	<g id="Behance">
		<path fill="#F7F5F4" d="M18.008,33.925c8.837,0,16-7.159,16-15.985c0-8.828-7.163-15.985-16-15.985c-8.836,0-16,7.156-16,15.985
			C2.008,26.768,9.171,33.925,18.008,33.925"/>
		<path fill="#2B2A28" d="M17.35,13.928c0.301,0.419,0.453,0.922,0.453,1.509c0,0.603-0.151,1.087-0.456,1.455
			c-0.172,0.205-0.423,0.393-0.756,0.562c0.504,0.185,0.884,0.476,1.143,0.873c0.256,0.397,0.385,0.879,0.385,1.448
			c0,0.585-0.146,1.111-0.442,1.576c-0.186,0.307-0.419,0.567-0.7,0.778c-0.315,0.242-0.686,0.407-1.117,0.497
			c-0.43,0.089-0.895,0.134-1.397,0.134h-4.458v-9.883h4.782C15.992,12.892,16.846,13.243,17.35,13.928z M11.978,14.591v2.181h2.405
			c0.428,0,0.778-0.082,1.047-0.246c0.266-0.164,0.402-0.454,0.402-0.867c0-0.461-0.177-0.764-0.531-0.913
			c-0.306-0.103-0.695-0.154-1.169-0.154L11.978,14.591L11.978,14.591z M11.978,18.407v2.636h2.402c0.429,0,0.764-0.059,1.001-0.174
			c0.436-0.216,0.651-0.627,0.651-1.234c0-0.516-0.209-0.868-0.63-1.061c-0.235-0.106-0.565-0.164-0.989-0.167H11.978z
			 M24.099,15.597c0.511,0.228,0.932,0.589,1.263,1.082c0.302,0.434,0.496,0.937,0.584,1.51c0.052,0.335,0.073,0.82,0.063,1.452
			h-5.328c0.031,0.733,0.284,1.248,0.765,1.542c0.293,0.184,0.644,0.274,1.055,0.274c0.434,0,0.789-0.111,1.061-0.335
			c0.149-0.12,0.281-0.289,0.395-0.503h1.953c-0.052,0.433-0.289,0.874-0.709,1.322c-0.655,0.709-1.572,1.065-2.751,1.065
			c-0.975,0-1.834-0.299-2.577-0.898c-0.746-0.599-1.117-1.575-1.117-2.925c0-1.268,0.336-2.238,1.007-2.914
			c0.673-0.674,1.544-1.013,2.615-1.013C23.016,15.255,23.589,15.37,24.099,15.597z M21.237,17.248
			c-0.271,0.278-0.44,0.656-0.51,1.131h3.297c-0.035-0.508-0.206-0.891-0.509-1.156c-0.307-0.262-0.685-0.394-1.136-0.394
			C21.89,16.83,21.508,16.969,21.237,17.248z M24.473,13.336h-4.239v1.229h4.239V13.336z"/>
	</g>
</g>
</svg>
