<?xml version="1.0" encoding="utf-8"?>
<!-- Generator: Adobe Illustrator 16.0.0, SVG Export Plug-In . SVG Version: 6.00 Build 0)  -->
<!DOCTYPE svg PUBLIC "-//W3C//DTD SVG 1.1//EN" "http://www.w3.org/Graphics/SVG/1.1/DTD/svg11.dtd">
<svg version="1.1" id="Icons" xmlns="http://www.w3.org/2000/svg" xmlns:xlink="http://www.w3.org/1999/xlink" x="0px" y="0px"
	 width="576px" height="144px" viewBox="0 0 576 144" enable-background="new 0 0 576 144" xml:space="preserve">
<g id="Active_1_">
	<path fill="#C4302B" d="M558.001,142.999c9.387,0,16.999-7.604,16.999-16.983c0-9.377-7.612-16.982-16.999-16.982
		c-9.392,0-17.001,7.604-17.001,16.982S548.611,142.999,558.001,142.999"/>
	<path fill="#FFFFFF" d="M561.302,126.023l-5.566,3.269v-6.535L561.302,126.023z M566.504,129.053v-6.076c0,0,0-2.928-2.936-2.928
		h-11.143c0,0-2.934,0-2.934,2.928v6.076c0,0,0,2.928,2.934,2.928h11.144C563.57,131.98,566.504,131.98,566.504,129.053"/>
	<path fill="#FCDD00" d="M521.998,142.997c9.389,0,17.001-7.604,17.001-16.981c0-9.379-7.612-16.982-17.001-16.982
		c-9.39,0-16.999,7.604-16.999,16.982C504.999,135.393,512.608,142.997,521.998,142.997"/>
	<path d="M521.999,117.475c2.362,0,4.369,0.832,6.021,2.496c1.653,1.662,2.479,3.661,2.479,5.997c0,2.358-0.825,4.363-2.479,6.017
		c-1.65,1.649-3.657,2.477-6.021,2.477c-2.338,0-4.338-0.826-6.001-2.477c-1.667-1.652-2.5-3.657-2.5-6.017
		c0-2.336,0.832-4.334,2.5-5.997C517.661,118.307,519.661,117.475,521.999,117.475L521.999,117.475 M529.259,125.967
		c0-1.556-0.46-2.966-1.381-4.228c-0.92-1.263-2.113-2.142-3.576-2.636c-0.213,0.282-0.307,0.472-0.283,0.564
		c0.048,0.448,0.152,0.751,0.318,0.902c0.166,0.154,0.342,0.195,0.531,0.125l0.563-0.213c0,0,0.118-0.012,0.354-0.035
		c0.26,0.283,0.26,0.561,0,0.83c-0.261,0.271-0.526,0.603-0.797,0.992c-0.273,0.39-0.278,0.844-0.021,1.362
		c0.402,0.753,0.97,1.132,1.702,1.132c0.33,0.022,0.583,0.235,0.762,0.637c0.179,0.4,0.277,0.791,0.303,1.168
		c0.113,0.943,0.031,1.77-0.248,2.477c-0.262,0.521-0.18,0.967,0.248,1.346C528.753,129.068,529.259,127.594,529.259,125.967
		L529.259,125.967 M521.007,118.82c-1.322,0.164-2.498,0.658-3.523,1.484s-1.775,1.854-2.248,3.078c0.069,0,0.2,0.014,0.391,0.036
		c0.188,0.022,0.354,0.041,0.496,0.054c0.144,0.012,0.295,0.036,0.462,0.07c0.163,0.037,0.307,0.083,0.423,0.143
		c0.12,0.062,0.188,0.135,0.213,0.23c0.047,0.141-0.035,0.406-0.247,0.797s-0.316,0.749-0.316,1.078
		c0,0.354,0.225,0.686,0.675,0.992c0.445,0.307,0.673,0.576,0.673,0.814c0,0.328,0.046,0.729,0.142,1.2
		c0.097,0.474,0.144,0.731,0.144,0.779c0,0.142,0.214,0.461,0.641,0.956c0.422,0.494,0.729,0.744,0.918,0.744
		c0.119,0,0.188-0.131,0.196-0.391c0.011-0.26,0-0.578-0.035-0.955c-0.037-0.377-0.054-0.613-0.054-0.707
		c0-0.379,0.083-0.813,0.247-1.311c0.144-0.496,0.487-0.908,1.046-1.238c0.554-0.33,0.88-0.602,0.974-0.812
		c0.188-0.4,0.242-0.76,0.16-1.08c-0.084-0.318-0.187-0.571-0.304-0.76c-0.116-0.189-0.316-0.354-0.604-0.496
		c-0.283-0.141-0.523-0.241-0.726-0.301c-0.2-0.061-0.42-0.11-0.655-0.16c-0.236-0.047-0.365-0.069-0.392-0.069
		c-0.188-0.071-0.438-0.113-0.741-0.124c-0.311-0.014-0.521,0.005-0.643,0.053c-0.112,0.047-0.274-0.018-0.477-0.193
		c-0.199-0.178-0.303-0.349-0.303-0.515c0-0.118,0.091-0.276,0.268-0.479c0.176-0.199,0.384-0.419,0.62-0.652
		c0.237-0.237,0.4-0.414,0.496-0.53c0.094-0.166,0.19-0.291,0.301-0.373c0.106-0.082,0.237-0.177,0.388-0.283
		c0.155-0.105,0.313-0.229,0.479-0.371c0.048-0.047,0.196-0.146,0.444-0.301C520.779,119.072,520.938,118.938,521.007,118.82
		L521.007,118.82 M519.732,132.866c0.78,0.233,1.533,0.354,2.269,0.354c1.512,0,2.845-0.4,4.003-1.201
		c-0.308-0.521-1.004-0.722-2.091-0.604c-0.283,0.021-0.666,0.124-1.15,0.302c-0.483,0.177-0.762,0.275-0.831,0.302
		c-0.873,0.188-1.321,0.28-1.347,0.28c-0.146,0.025-0.294,0.106-0.461,0.248C519.956,132.688,519.827,132.794,519.732,132.866
		L519.732,132.866"/>
	<path fill="#44BBFF" d="M486.211,142.997c9.389,0,17.001-7.604,17.001-16.981s-7.612-16.979-17.001-16.979
		c-9.388,0-16.999,7.603-16.999,16.979S476.823,142.997,486.211,142.997"/>
	<path fill="#FFFFFF" d="M494.705,122.271c-0.074,1.651-1.232,3.912-3.464,6.776c-2.312,2.996-4.272,4.494-5.873,4.494
		c-0.989,0-1.828-0.912-2.515-2.739c-0.461-1.677-0.915-3.353-1.375-5.025c-0.51-1.83-1.057-2.744-1.64-2.744
		c-0.126,0-0.57,0.268-1.334,0.801l-0.8-1.029c0.837-0.734,1.665-1.472,2.479-2.205c1.116-0.967,1.957-1.472,2.52-1.524
		c1.314-0.13,2.132,0.772,2.437,2.702c0.328,2.082,0.562,3.377,0.688,3.888c0.38,1.726,0.799,2.586,1.258,2.586
		c0.354,0,0.889-0.556,1.6-1.672c0.714-1.119,1.095-1.97,1.146-2.554c0.102-0.965-0.279-1.443-1.146-1.443
		c-0.403,0-0.823,0.085-1.258,0.266c0.84-2.716,2.441-4.037,4.803-3.959C493.983,118.936,494.811,120.064,494.705,122.271z"/>
	<path fill="#00ACEE" d="M450.186,142.954c9.39,0,16.999-7.604,16.999-16.983c0-9.378-7.609-16.982-16.999-16.982
		c-9.388,0-17.001,7.604-17.001,16.982C433.184,135.35,440.796,142.954,450.186,142.954"/>
	<path fill="#FFFFFF" d="M458.707,121.521c-0.628,0.277-1.301,0.465-2.008,0.549c0.723-0.434,1.274-1.115,1.535-1.93
		c-0.677,0.4-1.424,0.688-2.222,0.846c-0.635-0.678-1.544-1.1-2.549-1.1c-1.927,0-3.491,1.562-3.491,3.489
		c0,0.272,0.029,0.539,0.09,0.795c-2.901-0.146-5.477-1.532-7.199-3.647c-0.303,0.519-0.473,1.117-0.473,1.756
		c0,1.209,0.615,2.277,1.555,2.906c-0.571-0.019-1.112-0.178-1.582-0.438v0.043c0,1.692,1.204,3.103,2.803,3.423
		c-0.292,0.083-0.601,0.124-0.921,0.124c-0.226,0-0.444-0.021-0.655-0.062c0.444,1.387,1.734,2.396,3.261,2.42
		c-1.194,0.938-2.7,1.496-4.339,1.496c-0.281,0-0.56-0.017-0.832-0.047c1.545,0.986,3.386,1.565,5.354,1.565
		c6.428,0,9.938-5.315,9.938-9.931c0-0.151-0.004-0.303-0.01-0.451C457.646,122.837,458.24,122.223,458.707,121.521"/>
	<path fill="#34526F" d="M414.175,142.997c9.388,0,17-7.603,17-16.981c0-9.38-7.612-16.982-17-16.982s-17,7.604-17,16.982
		C397.175,135.393,404.787,142.997,414.175,142.997"/>
	<path fill="#FFFFFF" d="M414.587,117.52v4.295h4.036v2.666h-4.036v4.356c0,0.985,0.053,1.616,0.155,1.896
		c0.104,0.281,0.298,0.504,0.584,0.67c0.377,0.228,0.806,0.339,1.291,0.339c0.86,0,1.715-0.281,2.567-0.841v2.681
		c-0.729,0.342-1.386,0.582-1.973,0.719c-0.591,0.138-1.227,0.209-1.911,0.209c-0.777,0-1.467-0.1-2.062-0.295
		c-0.598-0.198-1.107-0.476-1.527-0.84c-0.422-0.36-0.715-0.751-0.877-1.158c-0.163-0.407-0.244-1.001-0.244-1.778v-5.959h-1.881
		v-2.401c0.67-0.218,1.242-0.529,1.717-0.933c0.477-0.404,0.86-0.892,1.147-1.461c0.287-0.564,0.484-1.289,0.596-2.166h2.417V117.52
		L414.587,117.52z"/>
	<path fill="#C8232C" d="M378.157,142.997c9.388,0,17-7.601,17-16.981c0-9.38-7.612-16.984-17-16.984c-9.39,0-17,7.604-17,16.984
		C361.157,135.396,368.77,142.997,378.157,142.997"/>
	<path fill="#FFFFFF" d="M378.158,117.475c-4.696,0-8.504,3.805-8.504,8.496c0,3.479,2.094,6.467,5.092,7.78
		c-0.025-0.592-0.005-1.306,0.146-1.951c0.164-0.688,1.096-4.629,1.096-4.629s-0.271-0.542-0.271-1.343c0-1.262,0.73-2.2,1.642-2.2
		c0.771,0,1.146,0.58,1.146,1.276c0,0.775-0.497,1.938-0.75,3.015c-0.213,0.899,0.452,1.638,1.342,1.638
		c1.611,0,2.696-2.068,2.696-4.517c0-1.862-1.256-3.256-3.538-3.256c-2.58,0-4.185,1.922-4.185,4.067
		c0,0.74,0.216,1.265,0.558,1.666c0.158,0.188,0.179,0.262,0.123,0.477c-0.041,0.154-0.134,0.531-0.173,0.682
		c-0.059,0.215-0.231,0.292-0.425,0.213c-1.188-0.484-1.742-1.783-1.742-3.244c0-2.414,2.038-5.31,6.077-5.31
		c3.248,0,5.384,2.349,5.384,4.868c0,3.333-1.854,5.82-4.589,5.82c-0.916,0-1.781-0.494-2.076-1.06c0,0-0.495,1.958-0.598,2.335
		c-0.182,0.654-0.532,1.309-0.858,1.818c0.767,0.227,1.573,0.35,2.412,0.35c4.696,0,8.503-3.805,8.503-8.496
		C386.661,121.277,382.854,117.475,378.158,117.475"/>
	<path fill="#0E76A8" d="M342.038,142.954c9.389,0,17-7.604,17-16.983c0-9.378-7.611-16.982-17-16.982c-9.388,0-17,7.604-17,16.982
		S332.65,142.954,342.038,142.954"/>
	<path fill="#FFFFFF" d="M337.278,133.077h-3.314v-10.599h3.314V133.077z M335.537,121.152h-0.024c-1.2,0-1.977-0.812-1.977-1.836
		c0-1.049,0.801-1.842,2.023-1.842c1.224,0,1.975,0.793,1.999,1.838C337.558,120.34,336.783,121.152,335.537,121.152z
		 M350.542,133.077h-3.759v-5.484c0-1.436-0.587-2.413-1.882-2.413c-0.99,0-1.538,0.66-1.795,1.299
		c-0.097,0.229-0.08,0.549-0.08,0.867v5.733h-3.726c0,0,0.048-9.716,0-10.599h3.726v1.662c0.22-0.729,1.408-1.766,3.31-1.766
		c2.355,0,4.207,1.523,4.207,4.807L350.542,133.077L350.542,133.077z"/>
	<path fill="#3F729B" d="M306.021,143c9.388,0,17-7.604,17-16.984c0-9.379-7.612-16.983-17-16.983c-9.392,0-17,7.604-17,16.983
		C289.021,135.396,296.631,143,306.021,143"/>
	<path fill="#FFFFFF" d="M311.239,117.52h-10.435c-1.812,0-3.287,1.474-3.287,3.285v3.469v6.955c0,1.812,1.477,3.285,3.287,3.285
		h10.435c1.811,0,3.288-1.475,3.288-3.285v-6.955v-3.469C314.526,118.992,313.052,117.52,311.239,117.52z M312.183,119.479
		l0.376-0.002v0.375v2.506l-2.874,0.01l-0.01-2.881L312.183,119.479z M303.596,124.271c0.545-0.754,1.428-1.246,2.429-1.246
		c0.997,0,1.881,0.492,2.426,1.246c0.354,0.49,0.564,1.094,0.564,1.744c0,1.648-1.344,2.99-2.99,2.99
		c-1.651,0-2.994-1.342-2.994-2.99C303.029,125.364,303.241,124.764,303.596,124.271z M312.87,131.229
		c0,0.896-0.73,1.627-1.63,1.627h-10.436c-0.898,0-1.629-0.729-1.629-1.627v-6.957h2.539c-0.219,0.541-0.341,1.129-0.341,1.744
		c0,2.563,2.086,4.648,4.65,4.648c2.562,0,4.648-2.085,4.648-4.648c0-0.615-0.124-1.203-0.342-1.744h2.539V131.229L312.87,131.229z"
		/>
	<path fill="#DD4B39" d="M270.008,142.908c9.389,0,17-7.605,17-16.983c0-9.38-7.608-16.983-17-16.983c-9.388,0-17,7.604-17,16.983
		C253.007,135.303,260.62,142.908,270.008,142.908"/>
	<path fill="#FFFFFF" d="M267.194,133.532c-2.021,0-3.482-1.275-3.482-2.812c0-1.509,1.814-2.764,3.835-2.736
		c0.469,0.004,0.909,0.078,1.311,0.207c1.095,0.763,1.881,1.193,2.104,2.063c0.042,0.175,0.062,0.356,0.062,0.54
		C271.025,132.335,270.037,133.532,267.194,133.532 M267.725,124.527c-1.357-0.043-2.648-1.52-2.88-3.297
		c-0.237-1.778,0.676-3.143,2.029-3.102c1.357,0.038,2.648,1.469,2.885,3.247C269.991,123.154,269.083,124.568,267.725,124.527
		 M270.54,127.165c-0.477-0.336-1.387-1.151-1.387-1.64c0-0.562,0.161-0.842,1.008-1.506c0.875-0.682,1.49-1.634,1.49-2.744
		c0-1.321-0.59-2.616-1.698-3.045h1.668l1.178-0.85h-5.267c-2.362,0-4.582,1.788-4.582,3.861c0,2.115,1.611,3.824,4.013,3.824
		c0.166,0,0.329-0.006,0.486-0.019c-0.154,0.3-0.266,0.636-0.266,0.981c0,0.591,0.316,1.066,0.714,1.457
		c-0.303,0-0.594,0.009-0.913,0.009c-2.922,0-5.176,1.862-5.176,3.79c0,1.898,2.47,3.088,5.392,3.088c3.337,0,5.18-1.891,5.18-3.788
		C272.382,129.061,271.929,128.148,270.54,127.165 M278.205,124.686h-2.055v-2.05h-1.648v2.05h-2.051v1.646h2.051v2.048h1.648
		v-2.048h2.055V124.686z"/>
	<path fill="#FFFFFF" d="M233.99,142.955c9.387,0,17-7.605,17-16.984s-7.613-16.984-17-16.984c-9.39,0-17,7.604-17,16.984
		C216.99,135.35,224.6,142.955,233.99,142.955"/>
	<path d="M233.957,117.688c-4.694,0-8.5,3.803-8.5,8.492c0,3.752,2.435,6.936,5.813,8.059c0.425,0.076,0.58-0.186,0.58-0.408
		c0-0.203-0.006-0.737-0.012-1.447c-2.364,0.516-2.863-1.139-2.863-1.139c-0.387-0.98-0.943-1.241-0.943-1.241
		c-0.771-0.526,0.058-0.519,0.058-0.519c0.854,0.062,1.304,0.877,1.304,0.877c0.758,1.297,1.989,0.924,2.474,0.705
		c0.078-0.549,0.297-0.922,0.541-1.135c-1.888-0.216-3.873-0.943-3.873-4.195c0-0.928,0.332-1.687,0.875-2.279
		c-0.087-0.217-0.378-1.08,0.084-2.249c0,0,0.713-0.228,2.336,0.87c0.679-0.189,1.405-0.283,2.128-0.287
		c0.724,0.004,1.45,0.098,2.129,0.287c1.623-1.1,2.335-0.87,2.335-0.87c0.464,1.169,0.172,2.032,0.085,2.249
		c0.544,0.594,0.873,1.352,0.873,2.279c0,3.262-1.986,3.979-3.881,4.188c0.306,0.264,0.577,0.78,0.577,1.572
		c0,1.135-0.011,2.052-0.011,2.33c0,0.227,0.154,0.488,0.585,0.408c3.375-1.125,5.808-4.307,5.808-8.059
		C242.457,121.489,238.651,117.688,233.957,117.688z"/>
	<path fill="#FFFFFF" d="M198.085,142.943c9.387,0,17-7.604,17-16.981s-7.612-16.981-17-16.981c-9.389,0-17,7.604-17,16.981
		C181.083,135.341,188.696,142.943,198.085,142.943"/>
	<g>
		<path fill="#FF0084" d="M206.588,125.962c0,2.065-1.677,3.742-3.745,3.742c-2.072,0-3.748-1.679-3.748-3.742
			c0-2.065,1.676-3.744,3.748-3.744C204.914,122.218,206.588,123.896,206.588,125.962z"/>
		<path fill="#0063DC" d="M197.074,125.962c0,2.065-1.677,3.742-3.749,3.742c-2.068,0-3.744-1.679-3.744-3.742
			c0-2.065,1.676-3.744,3.744-3.744C195.397,122.218,197.074,123.896,197.074,125.962z"/>
	</g>
	<path fill="#3B5998" d="M162.066,142.945c9.39,0,17-7.604,17-16.983c0-9.379-7.61-16.983-17-16.983c-9.389,0-17,7.604-17,16.983
		C145.066,135.342,152.678,142.945,162.066,142.945"/>
	<path fill="#FFFFFF" d="M157.5,123.085h1.759v-1.705c0-0.752,0.019-1.914,0.566-2.633c0.576-0.763,1.368-1.279,2.729-1.279
		c2.218,0,3.152,0.316,3.152,0.316l-0.438,2.602c0,0-0.732-0.211-1.417-0.211s-1.296,0.244-1.296,0.929v1.984h2.805l-0.195,2.541
		h-2.609v8.831h-3.296v-8.831h-1.76V123.085L157.5,123.085z"/>
	<path fill="#FDDD05" d="M126.051,142.945c9.388,0,17-7.604,17-16.983c0-9.379-7.612-16.983-17-16.983c-9.391,0-17,7.604-17,16.983
		C109.05,135.342,116.66,142.945,126.051,142.945"/>
	<path d="M134.551,123.593v7.525c0,0.418-0.148,0.774-0.446,1.069c-0.296,0.297-0.655,0.445-1.072,0.445h-13.965
		c-0.418,0-0.775-0.148-1.072-0.445c-0.296-0.295-0.445-0.653-0.445-1.069v-7.525c0.278,0.312,0.597,0.584,0.958,0.824
		c2.29,1.556,3.86,2.646,4.715,3.271c0.359,0.266,0.653,0.473,0.877,0.619c0.225,0.148,0.522,0.303,0.896,0.457
		c0.374,0.153,0.723,0.231,1.042,0.231h0.02c0.323,0,0.669-0.076,1.042-0.231c0.374-0.154,0.672-0.309,0.896-0.457
		c0.225-0.146,0.518-0.354,0.878-0.619c1.076-0.776,2.65-1.865,4.724-3.271C133.96,124.171,134.278,123.896,134.551,123.593z
		 M134.551,120.809c0,0.5-0.155,0.975-0.465,1.432c-0.31,0.455-0.696,0.842-1.157,1.167c-2.378,1.649-3.858,2.676-4.44,3.081
		c-0.063,0.043-0.199,0.139-0.403,0.287c-0.207,0.147-0.376,0.269-0.511,0.358c-0.136,0.093-0.301,0.195-0.494,0.31
		c-0.193,0.113-0.375,0.199-0.544,0.256c-0.171,0.057-0.33,0.084-0.476,0.084h-0.019c-0.144,0-0.302-0.027-0.474-0.084
		c-0.171-0.059-0.353-0.143-0.546-0.256c-0.192-0.113-0.357-0.217-0.493-0.31c-0.136-0.09-0.307-0.211-0.512-0.358
		c-0.206-0.148-0.34-0.244-0.402-0.287c-0.576-0.405-1.404-0.982-2.485-1.73c-1.082-0.75-1.73-1.199-1.945-1.351
		c-0.393-0.267-0.762-0.63-1.109-1.097c-0.349-0.465-0.522-0.895-0.522-1.293c0-0.492,0.131-0.902,0.395-1.232
		c0.263-0.33,0.638-0.494,1.124-0.494h13.965c0.411,0,0.767,0.148,1.067,0.445C134.4,120.029,134.551,120.391,134.551,120.809
		L134.551,120.809z"/>
	<path fill="#EA4C89" d="M90.034,142.955c9.389,0,17-7.605,17-16.984s-7.612-16.984-17-16.984c-9.39,0-17,7.604-17,16.984
		C73.033,135.35,80.643,142.955,90.034,142.955"/>
	<path fill="#FFFFFF" d="M98.364,124.26c-0.111-0.546-0.279-1.082-0.496-1.596c-0.213-0.505-0.479-0.99-0.785-1.441
		c-0.303-0.451-0.653-0.873-1.038-1.259c-0.385-0.384-0.808-0.731-1.258-1.037c-0.454-0.309-0.941-0.571-1.444-0.784
		c-0.515-0.218-1.052-0.384-1.6-0.494c-0.56-0.115-1.136-0.176-1.711-0.176c-0.576,0-1.152,0.059-1.712,0.176
		c-0.546,0.11-1.084,0.278-1.599,0.494c-0.503,0.211-0.99,0.477-1.445,0.784c-0.45,0.304-0.873,0.651-1.258,1.037
		c-0.384,0.384-0.733,0.808-1.038,1.259c-0.307,0.451-0.57,0.938-0.783,1.441c-0.219,0.513-0.385,1.051-0.496,1.596
		c-0.115,0.559-0.173,1.135-0.173,1.709c0,0.575,0.058,1.151,0.173,1.711c0.111,0.545,0.277,1.084,0.496,1.596
		c0.213,0.506,0.478,0.992,0.783,1.443c0.305,0.449,0.653,0.872,1.038,1.258c0.385,0.383,0.808,0.73,1.258,1.037
		c0.455,0.307,0.941,0.569,1.445,0.782c0.516,0.218,1.053,0.384,1.599,0.495c0.561,0.116,1.136,0.175,1.712,0.175
		c0.576,0,1.152-0.059,1.711-0.175c0.547-0.111,1.085-0.277,1.6-0.495c0.503-0.213,0.99-0.478,1.444-0.782
		c0.45-0.306,0.873-0.654,1.258-1.037c0.385-0.386,0.734-0.809,1.038-1.258c0.307-0.451,0.572-0.939,0.785-1.443
		c0.217-0.51,0.384-1.051,0.496-1.596c0.113-0.561,0.173-1.136,0.173-1.711C98.537,125.396,98.478,124.816,98.364,124.26z
		 M97.294,125.896c-0.104-0.022-2.562-0.553-5.058-0.237c-0.052-0.124-0.104-0.248-0.158-0.375c-0.15-0.356-0.313-0.709-0.482-1.054
		c2.868-1.17,4.031-2.854,4.046-2.873C96.66,122.598,97.276,124.177,97.294,125.896z M94.832,120.525
		c-0.019,0.027-1.053,1.603-3.794,2.627c-1.241-2.277-2.605-4.09-2.714-4.231c0.549-0.133,1.122-0.206,1.711-0.206
		C91.872,118.714,93.551,119.398,94.832,120.525z M88.293,118.925c-0.001,0-0.002,0-0.002,0s-0.007,0.003-0.021,0.007
		C88.279,118.93,88.286,118.93,88.293,118.925z M86.934,119.407c0.098,0.129,1.439,1.946,2.698,4.182
		c-3.488,0.927-6.514,0.89-6.707,0.886C83.396,122.227,84.908,120.364,86.934,119.407z M82.77,125.971
		c0-0.078,0.004-0.154,0.006-0.229c0.129,0.002,3.716,0.083,7.457-1.033c0.208,0.406,0.407,0.817,0.59,1.231
		c-0.096,0.027-0.19,0.058-0.286,0.088c-3.92,1.268-5.909,4.789-5.909,4.789l0.002,0.002
		C83.475,129.532,82.77,127.835,82.77,125.971z M90.034,133.227c-1.758,0-3.37-0.623-4.626-1.662
		c0.095,0.078,0.162,0.127,0.162,0.127s1.394-3.033,5.7-4.533c0.017-0.006,0.032-0.012,0.049-0.016
		c1.021,2.653,1.443,4.875,1.55,5.51C91.998,133.021,91.039,133.227,90.034,133.227z M94.091,131.986
		c-0.073-0.438-0.461-2.566-1.414-5.184c2.345-0.375,4.377,0.271,4.527,0.318C96.88,129.145,95.723,130.891,94.091,131.986z"/>
	<path fill="#FC4F08" d="M54.016,142.9c9.389,0,17-7.605,17-16.983c0-9.38-7.612-16.983-17-16.983c-9.39,0-17,7.604-17,16.983
		S44.626,142.9,54.016,142.9"/>
	<path fill="#FFFFFF" d="M62.439,124.477l-0.142-0.293l-0.238-0.188c-0.313-0.244-1.893,0.017-2.321-0.37
		c-0.301-0.279-0.344-0.777-0.437-1.452c-0.17-1.312-0.279-1.382-0.483-1.823c-0.746-1.578-2.762-2.765-4.148-2.929h-3.758
		c-2.954,0-5.37,2.418-5.37,5.372v6.264c0,2.944,2.417,5.356,5.37,5.356h6.173c2.954,0,5.353-2.412,5.37-5.356l0.035-4.339
		L62.439,124.477z M50.981,121.811h2.978c0.569,0,1.03,0.459,1.03,1.021s-0.46,1.025-1.03,1.025h-2.978
		c-0.569,0-1.028-0.465-1.028-1.025C49.955,122.27,50.412,121.811,50.981,121.811z M57.033,129.997h-6.05
		c-0.57,0-1.028-0.468-1.028-1.022c0-0.562,0.458-1.021,1.028-1.021h6.05c0.564,0,1.023,0.461,1.023,1.021
		C58.057,129.529,57.599,129.997,57.033,129.997z"/>
	<path fill="#005CFF" d="M18,142.9c9.39,0,17-7.605,17-16.983c0-9.38-7.61-16.983-17-16.983c-9.389,0-17,7.604-17,16.983
		S8.61,142.9,18,142.9"/>
	<path fill="#FFFFFF" d="M17.301,121.654c0.319,0.445,0.481,0.979,0.481,1.604c0,0.641-0.161,1.153-0.484,1.547
		c-0.183,0.217-0.45,0.416-0.804,0.596c0.537,0.197,0.94,0.506,1.214,0.929c0.273,0.422,0.41,0.935,0.41,1.538
		c0,0.621-0.155,1.181-0.47,1.675c-0.197,0.326-0.445,0.603-0.744,0.826c-0.334,0.258-0.729,0.433-1.187,0.528
		c-0.457,0.095-0.952,0.142-1.485,0.142H9.497v-10.5h5.081C15.858,120.555,16.766,120.927,17.301,121.654z M11.593,122.359v2.315
		h2.555c0.455,0,0.827-0.087,1.113-0.262c0.282-0.174,0.427-0.481,0.427-0.92c0-0.489-0.189-0.812-0.564-0.97
		c-0.325-0.11-0.739-0.164-1.242-0.164H11.593L11.593,122.359z M11.593,126.414v2.801h2.552c0.456,0,0.812-0.062,1.063-0.186
		c0.463-0.229,0.692-0.666,0.692-1.312c0-0.548-0.223-0.921-0.67-1.126c-0.25-0.112-0.6-0.175-1.05-0.178L11.593,126.414
		L11.593,126.414z M24.472,123.43c0.543,0.241,0.989,0.625,1.342,1.148c0.321,0.461,0.526,0.995,0.62,1.604
		c0.055,0.354,0.078,0.87,0.067,1.543H20.84c0.033,0.778,0.301,1.325,0.812,1.64c0.312,0.194,0.684,0.29,1.122,0.29
		c0.46,0,0.838-0.118,1.126-0.355c0.159-0.128,0.298-0.308,0.42-0.535h2.075c-0.056,0.461-0.308,0.93-0.754,1.405
		c-0.696,0.753-1.67,1.131-2.923,1.131c-1.036,0-1.948-0.317-2.738-0.954c-0.792-0.637-1.187-1.673-1.187-3.105
		c0-1.35,0.356-2.379,1.07-3.098c0.715-0.716,1.641-1.076,2.779-1.076C23.322,123.064,23.93,123.188,24.472,123.43z M21.431,125.184
		c-0.289,0.293-0.468,0.696-0.542,1.2h3.503c-0.037-0.538-0.219-0.946-0.541-1.229c-0.326-0.277-0.727-0.418-1.207-0.418
		C22.125,124.738,21.719,124.886,21.431,125.184z M24.87,121.025h-4.505v1.306h4.505V121.025z"/>
</g>
<g id="Focus_1_">
	<path fill="#FFFFFF" d="M558.001,107C567.388,107,575,99.388,575,90c0-9.387-7.612-17-16.999-17C548.609,73,541,80.612,541,90
		S548.611,107,558.001,107"/>
	<path d="M561.302,90.009l-5.566,3.271v-6.541L561.302,90.009z M566.504,93.04v-6.082c0,0,0-2.932-2.936-2.932h-11.144
		c0,0-2.934,0-2.934,2.932v6.082c0,0,0,2.931,2.934,2.931h11.144C563.57,95.971,566.504,95.971,566.504,93.04"/>
	<path fill="#FFFFFF" d="M521.999,107C531.388,107,539,99.388,539,90s-7.612-17-17.001-17C512.609,73,505,80.612,505,90
		S512.609,107,521.999,107"/>
	<path d="M522,81.449c2.362,0,4.369,0.833,6.02,2.498c1.654,1.664,2.48,3.666,2.48,6.005c0,2.36-0.825,4.368-2.48,6.022
		c-1.649,1.652-3.656,2.479-6.02,2.479c-2.338,0-4.338-0.825-6.001-2.479c-1.667-1.654-2.5-3.66-2.5-6.022
		c0-2.339,0.832-4.339,2.5-6.005C517.662,82.282,519.662,81.449,522,81.449L522,81.449 M529.26,89.951
		c0-1.558-0.46-2.969-1.381-4.233c-0.92-1.263-2.113-2.143-3.576-2.639c-0.213,0.284-0.307,0.474-0.283,0.565
		c0.048,0.449,0.152,0.753,0.318,0.903c0.166,0.154,0.342,0.195,0.531,0.125l0.563-0.213c0,0,0.118-0.012,0.354-0.035
		c0.26,0.283,0.26,0.561,0,0.832c-0.261,0.271-0.526,0.603-0.797,0.992c-0.273,0.391-0.278,0.845-0.021,1.364
		c0.402,0.754,0.97,1.134,1.702,1.134c0.33,0.022,0.583,0.235,0.763,0.636c0.178,0.402,0.276,0.792,0.302,1.17
		c0.114,0.944,0.032,1.771-0.248,2.479c-0.261,0.522-0.179,0.969,0.248,1.349C528.754,93.057,529.26,91.58,529.26,89.951
		L529.26,89.951 M521.008,82.797c-1.322,0.165-2.498,0.66-3.523,1.487s-1.775,1.855-2.248,3.081c0.069,0,0.199,0.014,0.391,0.035
		c0.188,0.022,0.354,0.041,0.496,0.054c0.144,0.013,0.295,0.037,0.462,0.071c0.163,0.037,0.307,0.082,0.423,0.143
		c0.12,0.061,0.188,0.136,0.213,0.231c0.047,0.141-0.035,0.406-0.247,0.798c-0.212,0.39-0.316,0.748-0.316,1.079
		c0,0.354,0.225,0.687,0.675,0.993c0.445,0.307,0.673,0.577,0.673,0.814c0,0.329,0.046,0.73,0.142,1.201
		c0.097,0.475,0.144,0.733,0.144,0.78c0,0.143,0.214,0.462,0.641,0.958c0.422,0.495,0.729,0.744,0.918,0.744
		c0.119,0,0.188-0.131,0.196-0.391c0.011-0.26,0-0.578-0.035-0.956c-0.037-0.377-0.054-0.614-0.054-0.707
		c0-0.38,0.083-0.815,0.247-1.312c0.144-0.496,0.488-0.909,1.046-1.239c0.554-0.331,0.88-0.603,0.974-0.813
		c0.188-0.401,0.242-0.761,0.16-1.081c-0.084-0.319-0.187-0.573-0.304-0.762c-0.116-0.188-0.316-0.355-0.604-0.496
		c-0.284-0.141-0.523-0.242-0.726-0.301c-0.2-0.061-0.42-0.111-0.655-0.16c-0.236-0.047-0.365-0.07-0.392-0.07
		c-0.188-0.07-0.438-0.113-0.741-0.124c-0.311-0.014-0.521,0.004-0.643,0.054c-0.112,0.047-0.274-0.018-0.477-0.195
		c-0.199-0.177-0.303-0.348-0.303-0.514c0-0.119,0.091-0.277,0.268-0.48c0.176-0.199,0.384-0.418,0.62-0.653
		c0.237-0.236,0.4-0.414,0.496-0.53c0.094-0.166,0.191-0.29,0.301-0.374c0.106-0.082,0.237-0.177,0.389-0.282
		c0.154-0.105,0.312-0.229,0.479-0.372c0.048-0.046,0.196-0.146,0.444-0.302C520.78,83.05,520.938,82.913,521.008,82.797
		L521.008,82.797 M519.733,96.858c0.78,0.234,1.533,0.354,2.269,0.354c1.512,0,2.845-0.4,4.003-1.202
		c-0.308-0.521-1.004-0.723-2.091-0.604c-0.283,0.021-0.666,0.123-1.15,0.302c-0.483,0.177-0.762,0.275-0.831,0.302
		c-0.873,0.188-1.321,0.281-1.347,0.281c-0.145,0.024-0.294,0.106-0.461,0.247C519.957,96.68,519.828,96.786,519.733,96.858
		L519.733,96.858"/>
	<path fill="#FFFFFF" d="M485.999,107C495.388,107,503,99.388,503,90s-7.612-17-17.001-17C476.611,73,469,80.612,469,90
		S476.611,107,485.999,107"/>
	<path d="M494.493,86.25c-0.074,1.654-1.232,3.916-3.464,6.785c-2.312,2.999-4.272,4.499-5.873,4.499
		c-0.989,0-1.828-0.913-2.516-2.742c-0.46-1.679-0.914-3.356-1.373-5.032c-0.511-1.832-1.058-2.748-1.641-2.748
		c-0.126,0-0.57,0.27-1.334,0.802l-0.8-1.029c0.837-0.735,1.665-1.474,2.479-2.207c1.116-0.97,1.957-1.474,2.52-1.526
		c1.314-0.13,2.132,0.773,2.437,2.705c0.328,2.084,0.562,3.381,0.688,3.893c0.38,1.727,0.799,2.589,1.258,2.589
		c0.354,0,0.889-0.558,1.6-1.674c0.714-1.121,1.095-1.973,1.146-2.558c0.102-0.965-0.279-1.445-1.146-1.445
		c-0.403,0-0.823,0.086-1.258,0.267c0.84-2.719,2.441-4.042,4.804-3.964C493.771,82.91,494.6,84.042,494.493,86.25z"/>
	<path fill="#FFFFFF" d="M450.188,106.977c9.389,0,16.998-7.604,16.998-16.982s-7.609-16.983-16.998-16.983
		s-17.002,7.605-17.002,16.983C433.185,99.371,440.797,106.977,450.188,106.977"/>
	<path d="M458.708,85.543c-0.628,0.277-1.301,0.466-2.008,0.55c0.723-0.434,1.274-1.116,1.535-1.93
		c-0.677,0.399-1.423,0.688-2.222,0.846c-0.635-0.679-1.544-1.101-2.549-1.101c-1.927,0-3.491,1.562-3.491,3.49
		c0,0.272,0.029,0.539,0.091,0.795c-2.902-0.146-5.478-1.533-7.2-3.647c-0.303,0.519-0.473,1.116-0.473,1.755
		c0,1.209,0.615,2.278,1.555,2.906c-0.571-0.018-1.112-0.178-1.582-0.438v0.043c0,1.691,1.204,3.102,2.803,3.422
		c-0.292,0.084-0.601,0.125-0.921,0.125c-0.225,0-0.444-0.021-0.655-0.062c0.444,1.387,1.734,2.396,3.261,2.42
		c-1.194,0.938-2.7,1.496-4.339,1.496c-0.281,0-0.56-0.016-0.832-0.047c1.545,0.986,3.386,1.566,5.354,1.566
		c6.428,0,9.938-5.316,9.938-9.931c0-0.151-0.004-0.303-0.01-0.452C457.647,86.859,458.241,86.244,458.708,85.543"/>
	<path fill="#FFFFFF" d="M414.176,107.02c9.389,0,17-7.602,17-16.981c0-9.379-7.611-16.981-17-16.981c-9.388,0-17,7.604-17,16.981
		S404.788,107.02,414.176,107.02"/>
	<path d="M414.588,81.541v4.295h4.036v2.666h-4.036v4.357c0,0.984,0.053,1.615,0.155,1.896c0.104,0.281,0.298,0.504,0.584,0.67
		c0.377,0.228,0.806,0.339,1.291,0.339c0.86,0,1.715-0.281,2.567-0.842v2.682c-0.729,0.342-1.386,0.582-1.973,0.719
		c-0.591,0.138-1.227,0.209-1.911,0.209c-0.777,0-1.467-0.1-2.062-0.295c-0.598-0.199-1.107-0.477-1.527-0.84
		c-0.422-0.361-0.715-0.752-0.877-1.158c-0.163-0.408-0.244-1.002-0.244-1.779V88.5h-1.881v-2.4c0.67-0.219,1.242-0.529,1.717-0.934
		c0.477-0.404,0.86-0.891,1.147-1.46c0.287-0.565,0.484-1.29,0.596-2.167h2.417V81.541L414.588,81.541z"/>
	<path fill="#FFFFFF" d="M378.158,107.02c9.388,0,17-7.601,17-16.981c0-9.379-7.612-16.983-17-16.983c-9.39,0-17,7.604-17,16.983
		C361.158,99.419,368.771,107.02,378.158,107.02"/>
	<path d="M378.159,81.497c-4.696,0-8.504,3.804-8.504,8.495c0,3.479,2.094,6.467,5.092,7.781c-0.025-0.592-0.005-1.307,0.146-1.951
		c0.164-0.688,1.096-4.629,1.096-4.629s-0.271-0.543-0.271-1.344c0-1.261,0.73-2.199,1.642-2.199c0.771,0,1.146,0.58,1.146,1.275
		c0,0.776-0.497,1.938-0.75,3.016c-0.213,0.899,0.452,1.637,1.342,1.637c1.611,0,2.696-2.068,2.696-4.516
		c0-1.862-1.256-3.256-3.538-3.256c-2.58,0-4.185,1.922-4.185,4.067c0,0.74,0.216,1.265,0.558,1.666
		c0.158,0.188,0.179,0.262,0.123,0.476c-0.041,0.155-0.134,0.531-0.173,0.683c-0.059,0.215-0.231,0.292-0.425,0.213
		c-1.188-0.485-1.742-1.784-1.742-3.245c0-2.414,2.038-5.309,6.077-5.309c3.248,0,5.384,2.348,5.384,4.867
		c0,3.334-1.854,5.821-4.589,5.821c-0.916,0-1.781-0.495-2.076-1.06c0,0-0.495,1.957-0.598,2.334
		c-0.182,0.654-0.532,1.309-0.858,1.818c0.767,0.228,1.573,0.351,2.412,0.351c4.696,0,8.503-3.806,8.503-8.496
		C386.662,85.301,382.854,81.497,378.159,81.497"/>
	<path fill="#FFFFFF" d="M342.039,106.977c9.389,0,17-7.604,17-16.982s-7.611-16.983-17-16.983c-9.388,0-17,7.604-17,16.983
		C325.039,99.371,332.651,106.977,342.039,106.977"/>
	<path d="M337.279,97.1h-3.314V86.501h3.314V97.1z M335.538,85.175h-0.024c-1.199,0-1.977-0.811-1.977-1.835
		c0-1.049,0.801-1.842,2.023-1.842c1.224,0,1.975,0.793,1.999,1.837C337.559,84.361,336.784,85.175,335.538,85.175z M350.543,97.1
		h-3.759v-5.483c0-1.437-0.587-2.414-1.882-2.414c-0.99,0-1.538,0.661-1.795,1.299c-0.097,0.229-0.08,0.549-0.08,0.867v5.733h-3.726
		c0,0,0.048-9.716,0-10.599h3.726v1.663c0.22-0.729,1.408-1.766,3.31-1.766c2.355,0,4.207,1.522,4.207,4.806L350.543,97.1
		L350.543,97.1z"/>
	<path fill="#FFFFFF" d="M306.022,107.021c9.388,0,17-7.604,17-16.983c0-9.379-7.612-16.983-17-16.983
		c-9.392,0-17.001,7.604-17.001,16.983S296.632,107.021,306.022,107.021"/>
	<path d="M311.24,81.541h-10.436c-1.811,0-3.287,1.475-3.287,3.285v3.47v6.954c0,1.812,1.478,3.285,3.287,3.285h10.436
		c1.811,0,3.288-1.475,3.288-3.285v-6.954v-3.47C314.527,83.016,313.053,81.541,311.24,81.541z M312.184,83.5l0.376-0.001v0.374
		v2.506l-2.874,0.01l-0.01-2.881L312.184,83.5z M303.598,88.294c0.545-0.753,1.428-1.245,2.428-1.245
		c0.997,0,1.881,0.492,2.426,1.245c0.354,0.491,0.564,1.095,0.564,1.744c0,1.649-1.344,2.991-2.99,2.991
		c-1.651,0-2.994-1.342-2.994-2.991C303.029,89.387,303.242,88.785,303.598,88.294z M312.871,95.25c0,0.896-0.73,1.627-1.63,1.627
		h-10.435c-0.899,0-1.63-0.729-1.63-1.627v-6.956h2.539c-0.219,0.54-0.341,1.128-0.341,1.744c0,2.563,2.086,4.647,4.65,4.647
		c2.562,0,4.648-2.084,4.648-4.647c0-0.616-0.124-1.204-0.342-1.744h2.539V95.25L312.871,95.25z"/>
	<path fill="#FFFFFF" d="M270.009,106.932c9.389,0,17-7.605,17-16.983c0-9.38-7.608-16.984-17-16.984c-9.388,0-17,7.604-17,16.984
		C253.008,99.325,260.621,106.932,270.009,106.932"/>
	<path d="M267.195,97.555c-2.021,0-3.482-1.275-3.482-2.811c0-1.51,1.814-2.764,3.835-2.737c0.469,0.005,0.909,0.079,1.311,0.208
		c1.095,0.762,1.881,1.193,2.104,2.062c0.042,0.176,0.062,0.356,0.062,0.541C271.026,96.357,270.038,97.555,267.195,97.555
		 M267.726,88.55c-1.357-0.042-2.648-1.519-2.88-3.296c-0.237-1.779,0.676-3.143,2.029-3.102c1.357,0.037,2.648,1.469,2.885,3.246
		C269.992,87.178,269.084,88.592,267.726,88.55 M270.541,91.188c-0.477-0.336-1.387-1.151-1.387-1.639
		c0-0.562,0.161-0.842,1.008-1.506c0.875-0.682,1.49-1.634,1.49-2.744c0-1.322-0.59-2.617-1.698-3.045h1.668l1.178-0.85h-5.267
		c-2.362,0-4.582,1.787-4.582,3.861c0,2.114,1.611,3.823,4.013,3.823c0.166,0,0.329-0.005,0.486-0.019
		c-0.154,0.3-0.266,0.636-0.266,0.982c0,0.59,0.316,1.066,0.714,1.456c-0.303,0-0.594,0.009-0.913,0.009
		c-2.922,0-5.176,1.862-5.176,3.791c0,1.898,2.47,3.088,5.392,3.088c3.337,0,5.18-1.891,5.18-3.789
		C272.383,93.083,271.93,92.171,270.541,91.188 M278.206,88.707h-2.055v-2.049h-1.648v2.049h-2.051v1.646h2.051V92.4h1.648v-2.047
		h2.055V88.707z"/>
	<path fill="#FFFFFF" d="M233.991,106.979c9.387,0,17-7.605,17-16.984s-7.613-16.984-17-16.984c-9.39,0-17,7.604-17,16.984
		C216.991,99.372,224.601,106.979,233.991,106.979"/>
	<path d="M233.958,81.71c-4.694,0-8.5,3.802-8.5,8.491c0,3.752,2.435,6.936,5.813,8.059c0.425,0.076,0.58-0.185,0.58-0.408
		c0-0.203-0.006-0.736-0.012-1.447c-2.364,0.516-2.863-1.139-2.863-1.139c-0.387-0.979-0.943-1.24-0.943-1.24
		c-0.771-0.527,0.058-0.52,0.058-0.52c0.854,0.062,1.304,0.877,1.304,0.877c0.758,1.297,1.989,0.924,2.474,0.706
		c0.078-0.55,0.297-0.923,0.541-1.136c-1.888-0.215-3.873-0.942-3.873-4.195c0-0.928,0.332-1.686,0.875-2.279
		c-0.087-0.217-0.378-1.08,0.084-2.248c0,0,0.713-0.229,2.336,0.869c0.679-0.188,1.405-0.283,2.128-0.287
		c0.724,0.004,1.45,0.099,2.129,0.287c1.623-1.1,2.335-0.869,2.335-0.869c0.464,1.168,0.172,2.031,0.085,2.248
		c0.544,0.595,0.873,1.353,0.873,2.279c0,3.262-1.986,3.98-3.881,4.188c0.306,0.265,0.577,0.781,0.577,1.572
		c0,1.135-0.011,2.053-0.011,2.33c0,0.228,0.154,0.489,0.585,0.409c3.375-1.126,5.808-4.307,5.808-8.059
		C242.458,85.512,238.652,81.71,233.958,81.71z"/>
	<path fill="#FFFFFF" d="M198.086,106.967c9.387,0,17-7.604,17-16.982c0-9.377-7.612-16.981-17-16.981c-9.389,0-17,7.604-17,16.981
		C181.084,99.363,188.697,106.967,198.086,106.967"/>
	<g>
		<path d="M206.589,89.984c0,2.065-1.677,3.742-3.745,3.742c-2.072,0-3.748-1.679-3.748-3.742c0-2.066,1.676-3.744,3.748-3.744
			C204.915,86.24,206.589,87.918,206.589,89.984z"/>
		<path d="M197.075,89.984c0,2.065-1.677,3.742-3.749,3.742c-2.068,0-3.744-1.679-3.744-3.742c0-2.066,1.676-3.744,3.744-3.744
			C195.398,86.24,197.075,87.918,197.075,89.984z"/>
	</g>
	<path fill="#FFFFFF" d="M162.067,106.969c9.39,0,17-7.604,17-16.984c0-9.379-7.61-16.982-17-16.982c-9.389,0-17,7.604-17,16.982
		C145.067,99.364,152.679,106.969,162.067,106.969"/>
	<path d="M157.501,87.107h1.759v-1.705c0-0.752,0.019-1.914,0.566-2.633c0.576-0.763,1.368-1.279,2.729-1.279
		c2.218,0,3.152,0.316,3.152,0.316l-0.438,2.602c0,0-0.732-0.211-1.417-0.211s-1.296,0.244-1.296,0.928v1.984h2.805l-0.195,2.541
		h-2.609v8.832h-3.296V89.65h-1.759L157.501,87.107L157.501,87.107z"/>
	<path fill="#FFFFFF" d="M126.052,106.969c9.388,0,17-7.604,17-16.984c0-9.379-7.612-16.982-17-16.982c-9.391,0-17,7.604-17,16.982
		C109.051,99.364,116.661,106.969,126.052,106.969"/>
	<path d="M134.552,87.615v7.525c0,0.418-0.148,0.773-0.446,1.069c-0.296,0.297-0.655,0.444-1.072,0.444h-13.965
		c-0.418,0-0.775-0.148-1.072-0.444c-0.296-0.296-0.445-0.653-0.445-1.069v-7.525c0.278,0.311,0.597,0.584,0.958,0.824
		c2.29,1.555,3.86,2.645,4.715,3.27c0.359,0.266,0.653,0.473,0.877,0.62c0.225,0.147,0.522,0.302,0.896,0.456
		s0.723,0.232,1.042,0.232h0.02c0.323,0,0.669-0.076,1.042-0.232c0.374-0.154,0.672-0.309,0.896-0.456
		c0.225-0.147,0.518-0.354,0.878-0.62c1.076-0.775,2.65-1.865,4.724-3.27C133.961,88.193,134.279,87.92,134.552,87.615z
		 M134.552,84.83c0,0.5-0.155,0.975-0.465,1.432c-0.31,0.455-0.696,0.842-1.157,1.168c-2.378,1.648-3.858,2.676-4.44,3.08
		c-0.063,0.043-0.199,0.139-0.403,0.287c-0.207,0.148-0.376,0.27-0.511,0.359c-0.136,0.092-0.301,0.195-0.494,0.309
		s-0.375,0.2-0.544,0.256c-0.171,0.057-0.33,0.084-0.476,0.084h-0.019c-0.144,0-0.302-0.027-0.474-0.084
		c-0.171-0.058-0.353-0.143-0.546-0.256c-0.192-0.113-0.357-0.217-0.493-0.309c-0.136-0.09-0.307-0.211-0.512-0.359
		c-0.206-0.148-0.34-0.244-0.402-0.287c-0.576-0.404-1.404-0.982-2.485-1.73c-1.082-0.75-1.73-1.199-1.945-1.35
		c-0.393-0.267-0.762-0.631-1.109-1.097c-0.349-0.466-0.522-0.896-0.522-1.294c0-0.492,0.131-0.902,0.395-1.232
		c0.263-0.33,0.638-0.494,1.124-0.494h13.965c0.411,0,0.767,0.148,1.067,0.445C134.401,84.053,134.552,84.412,134.552,84.83
		L134.552,84.83z"/>
	<path fill="#FFFFFF" d="M90.035,106.979c9.389,0,17-7.605,17-16.984s-7.612-16.984-17-16.984c-9.39,0-17,7.604-17,16.984
		C73.034,99.372,80.644,106.979,90.035,106.979"/>
	<path d="M98.365,88.282c-0.111-0.546-0.279-1.082-0.496-1.597c-0.213-0.504-0.479-0.99-0.785-1.441
		c-0.303-0.45-0.653-0.873-1.038-1.258c-0.385-0.385-0.808-0.732-1.258-1.037c-0.454-0.309-0.941-0.572-1.444-0.785
		c-0.515-0.217-1.052-0.383-1.6-0.494c-0.56-0.115-1.136-0.175-1.711-0.175c-0.576,0-1.152,0.058-1.712,0.175
		c-0.546,0.111-1.084,0.279-1.599,0.494c-0.503,0.212-0.99,0.477-1.445,0.785c-0.45,0.303-0.873,0.65-1.258,1.037
		c-0.384,0.383-0.733,0.808-1.038,1.258c-0.307,0.451-0.57,0.939-0.783,1.441c-0.219,0.514-0.385,1.051-0.496,1.597
		c-0.115,0.558-0.173,1.134-0.173,1.709s0.058,1.151,0.173,1.711c0.111,0.545,0.277,1.083,0.496,1.596
		c0.213,0.505,0.478,0.991,0.783,1.443c0.305,0.448,0.653,0.872,1.038,1.257c0.385,0.384,0.808,0.73,1.258,1.037
		c0.455,0.307,0.941,0.57,1.445,0.783c0.516,0.217,1.053,0.383,1.599,0.494c0.561,0.117,1.136,0.176,1.712,0.176
		c0.576,0,1.152-0.059,1.711-0.176c0.547-0.111,1.085-0.277,1.6-0.494c0.503-0.213,0.99-0.478,1.444-0.783
		c0.45-0.305,0.873-0.653,1.258-1.037c0.385-0.385,0.734-0.809,1.038-1.257c0.307-0.452,0.572-0.94,0.785-1.443
		c0.217-0.511,0.384-1.051,0.496-1.596c0.113-0.562,0.173-1.136,0.173-1.711C98.538,89.418,98.479,88.84,98.365,88.282z
		 M97.295,89.92c-0.104-0.023-2.562-0.553-5.058-0.238c-0.052-0.123-0.104-0.248-0.158-0.375c-0.15-0.355-0.313-0.709-0.482-1.054
		c2.868-1.169,4.031-2.853,4.046-2.872C96.661,86.62,97.277,88.199,97.295,89.92z M94.833,84.549
		c-0.019,0.027-1.053,1.602-3.794,2.627c-1.241-2.277-2.605-4.091-2.714-4.232c0.549-0.133,1.122-0.205,1.711-0.205
		C91.873,82.736,93.552,83.422,94.833,84.549z M88.294,82.947c-0.001,0-0.002,0-0.002,0s-0.007,0.003-0.021,0.006
		C88.28,82.952,88.287,82.951,88.294,82.947z M86.935,83.43c0.098,0.129,1.439,1.947,2.698,4.182
		c-3.488,0.927-6.514,0.89-6.707,0.886C83.397,86.248,84.909,84.387,86.935,83.43z M82.771,89.992c0-0.078,0.004-0.154,0.006-0.229
		c0.129,0.002,3.716,0.082,7.457-1.033c0.208,0.405,0.407,0.817,0.59,1.231c-0.096,0.027-0.19,0.058-0.286,0.088
		c-3.92,1.267-5.909,4.789-5.909,4.789l0.002,0.002C83.476,93.555,82.771,91.857,82.771,89.992z M90.035,97.249
		c-1.758,0-3.37-0.624-4.626-1.663c0.095,0.078,0.162,0.127,0.162,0.127s1.394-3.033,5.7-4.533c0.017-0.005,0.032-0.011,0.049-0.016
		c1.021,2.654,1.443,4.875,1.55,5.51C91.999,97.043,91.04,97.249,90.035,97.249z M94.092,96.01
		c-0.073-0.438-0.461-2.566-1.414-5.184c2.345-0.375,4.377,0.27,4.527,0.318C96.881,93.167,95.724,94.912,94.092,96.01z"/>
	<path fill="#FFFFFF" d="M54.017,106.924c9.389,0,17-7.605,17-16.984s-7.612-16.982-17-16.982c-9.39,0-17,7.604-17,16.982
		S44.627,106.924,54.017,106.924"/>
	<path d="M62.44,88.499l-0.142-0.294l-0.238-0.188c-0.313-0.244-1.893,0.017-2.321-0.371c-0.301-0.278-0.344-0.776-0.437-1.451
		c-0.17-1.312-0.279-1.383-0.483-1.824c-0.746-1.578-2.762-2.764-4.148-2.928h-3.758c-2.954,0-5.37,2.418-5.37,5.371v6.265
		c0,2.944,2.417,5.356,5.37,5.356h6.173c2.954,0,5.353-2.412,5.37-5.356l0.035-4.339L62.44,88.499z M50.982,85.832h2.978
		c0.569,0,1.03,0.459,1.03,1.021s-0.46,1.026-1.03,1.026h-2.978c-0.569,0-1.028-0.465-1.028-1.026
		C49.956,86.291,50.413,85.832,50.982,85.832z M57.034,94.02h-6.05c-0.57,0-1.028-0.467-1.028-1.022
		c0-0.562,0.458-1.021,1.028-1.021h6.05c0.564,0,1.023,0.461,1.023,1.021C58.058,93.553,57.6,94.02,57.034,94.02z"/>
	<path fill="#FFFFFF" d="M18.001,106.924c9.39,0,17-7.605,17-16.984s-7.61-16.982-17-16.982c-9.389,0-17,7.604-17,16.982
		S8.611,106.924,18.001,106.924"/>
	<path d="M17.302,85.677c0.319,0.446,0.481,0.979,0.481,1.604c0,0.64-0.161,1.152-0.484,1.546c-0.183,0.218-0.45,0.417-0.804,0.597
		c0.537,0.196,0.94,0.506,1.214,0.928c0.273,0.422,0.41,0.935,0.41,1.539c0,0.62-0.155,1.18-0.47,1.674
		c-0.197,0.326-0.445,0.604-0.744,0.826c-0.334,0.258-0.729,0.434-1.187,0.528c-0.457,0.095-0.952,0.142-1.485,0.142H9.498v-10.5
		h5.081C15.859,84.577,16.767,84.949,17.302,85.677z M11.594,86.382v2.316h2.555c0.455,0,0.827-0.087,1.113-0.263
		c0.282-0.174,0.427-0.48,0.427-0.92c0-0.488-0.189-0.812-0.564-0.97c-0.325-0.11-0.739-0.164-1.242-0.164H11.594L11.594,86.382z
		 M11.594,90.438v2.801h2.552c0.456,0,0.812-0.062,1.063-0.187c0.463-0.229,0.692-0.666,0.692-1.312c0-0.549-0.223-0.922-0.67-1.126
		c-0.25-0.113-0.6-0.175-1.05-0.179h-2.587V90.438z M24.473,87.451c0.543,0.242,0.989,0.625,1.342,1.148
		c0.321,0.461,0.526,0.996,0.62,1.604c0.055,0.354,0.078,0.87,0.067,1.542h-5.661c0.033,0.779,0.301,1.326,0.812,1.64
		c0.312,0.194,0.684,0.29,1.122,0.29c0.46,0,0.838-0.117,1.126-0.355c0.159-0.127,0.298-0.307,0.42-0.534h2.075
		c-0.056,0.46-0.308,0.929-0.754,1.405c-0.696,0.752-1.67,1.131-2.923,1.131c-1.036,0-1.948-0.317-2.738-0.954
		c-0.792-0.638-1.187-1.673-1.187-3.106c0-1.349,0.356-2.379,1.07-3.097c0.715-0.716,1.641-1.077,2.779-1.077
		C23.323,87.087,23.931,87.21,24.473,87.451z M21.432,89.205c-0.289,0.294-0.468,0.697-0.542,1.201h3.503
		c-0.037-0.539-0.219-0.946-0.541-1.229c-0.326-0.278-0.727-0.418-1.207-0.418C22.125,88.761,21.72,88.908,21.432,89.205z
		 M24.871,85.048h-4.505v1.306h4.505V85.048z"/>
</g>
<g id="Hover">
	<path fill="#FCDD00" d="M558.001,71C567.388,71,575,63.389,575,54c0-9.387-7.612-17-16.999-17C548.609,37,541,44.611,541,54
		S548.611,71,558.001,71"/>
	<path d="M561.497,54.046l-5.566,3.269v-6.536L561.497,54.046z M566.699,57.075v-6.076c0,0,0-2.928-2.936-2.928H552.62
		c0,0-2.934,0-2.934,2.928v6.076c0,0,0,2.928,2.934,2.928h11.144C563.766,60.003,566.699,60.003,566.699,57.075"/>
	<path fill="#FCDD00" d="M521.999,71C531.388,71,539,63.388,539,54c0-9.387-7.612-17-17.001-17C512.609,37,505,44.612,505,54
		C505,63.389,512.609,71,521.999,71"/>
	<path d="M522,45.497c2.362,0,4.369,0.832,6.02,2.495c1.654,1.663,2.48,3.663,2.48,5.998c0,2.358-0.825,4.363-2.48,6.015
		c-1.649,1.65-3.656,2.478-6.02,2.478c-2.338,0-4.338-0.826-6.001-2.478c-1.667-1.652-2.5-3.657-2.5-6.015
		c0-2.335,0.832-4.334,2.5-5.998C517.662,46.329,519.662,45.497,522,45.497L522,45.497 M529.26,53.989
		c0-1.556-0.46-2.966-1.381-4.227c-0.92-1.263-2.113-2.142-3.576-2.636c-0.213,0.283-0.307,0.472-0.283,0.565
		c0.048,0.448,0.152,0.751,0.318,0.903c0.166,0.153,0.342,0.195,0.531,0.125l0.563-0.213c0,0,0.118-0.011,0.354-0.035
		c0.26,0.283,0.26,0.561,0,0.831c-0.261,0.271-0.526,0.602-0.797,0.992c-0.273,0.389-0.278,0.843-0.021,1.362
		c0.402,0.753,0.97,1.132,1.702,1.132c0.33,0.022,0.583,0.235,0.763,0.636c0.178,0.401,0.276,0.791,0.302,1.167
		c0.114,0.944,0.032,1.77-0.248,2.478c-0.261,0.52-0.179,0.967,0.248,1.345C528.754,57.092,529.26,55.616,529.26,53.989
		L529.26,53.989 M521.008,46.843c-1.322,0.165-2.498,0.66-3.523,1.486c-1.025,0.826-1.775,1.853-2.248,3.077
		c0.069,0,0.199,0.014,0.391,0.037c0.188,0.022,0.354,0.041,0.496,0.053c0.144,0.012,0.295,0.037,0.462,0.071
		c0.163,0.037,0.307,0.083,0.423,0.143c0.12,0.06,0.188,0.135,0.213,0.23c0.047,0.141-0.035,0.407-0.247,0.797
		c-0.212,0.39-0.316,0.75-0.316,1.079c0,0.354,0.225,0.685,0.675,0.991c0.445,0.307,0.673,0.578,0.673,0.814
		c0,0.33,0.046,0.73,0.142,1.202c0.097,0.472,0.144,0.732,0.144,0.779c0,0.141,0.214,0.46,0.641,0.956
		c0.422,0.495,0.729,0.744,0.918,0.744c0.119,0,0.188-0.131,0.196-0.39c0.011-0.259,0-0.578-0.035-0.955
		c-0.037-0.376-0.054-0.614-0.054-0.708c0-0.378,0.083-0.813,0.247-1.31c0.144-0.496,0.488-0.909,1.046-1.239
		c0.554-0.33,0.88-0.602,0.974-0.813c0.188-0.4,0.242-0.759,0.16-1.08c-0.084-0.318-0.187-0.572-0.304-0.76
		c-0.116-0.189-0.316-0.354-0.604-0.495c-0.284-0.141-0.523-0.243-0.726-0.301c-0.2-0.061-0.42-0.112-0.655-0.16
		c-0.236-0.047-0.365-0.07-0.392-0.07c-0.188-0.072-0.438-0.113-0.741-0.125c-0.311-0.013-0.521,0.005-0.643,0.053
		c-0.112,0.047-0.274-0.018-0.477-0.194c-0.199-0.177-0.303-0.349-0.303-0.515c0-0.118,0.091-0.276,0.268-0.478
		c0.176-0.199,0.384-0.418,0.62-0.653c0.237-0.237,0.4-0.414,0.496-0.531c0.094-0.165,0.191-0.29,0.301-0.373
		c0.106-0.082,0.237-0.176,0.389-0.282c0.154-0.107,0.312-0.229,0.479-0.373c0.048-0.045,0.196-0.146,0.444-0.301
		C520.78,47.095,520.938,46.959,521.008,46.843L521.008,46.843 M519.733,60.889c0.78,0.234,1.533,0.353,2.269,0.353
		c1.512,0,2.845-0.401,4.003-1.202c-0.308-0.52-1.004-0.72-2.091-0.602c-0.283,0.023-0.666,0.125-1.15,0.301
		c-0.483,0.176-0.762,0.276-0.831,0.301c-0.873,0.189-1.321,0.282-1.347,0.282c-0.145,0.025-0.294,0.106-0.461,0.247
		C519.957,60.711,519.828,60.816,519.733,60.889L519.733,60.889"/>
	<path fill="#FCDD00" d="M485.999,71C495.388,71,503,63.388,503,53.999S495.388,37,485.999,37C476.611,37,469,44.611,469,53.999
		C469,63.389,476.611,71,485.999,71"/>
	<path d="M494.706,50.293c-0.074,1.652-1.232,3.912-3.464,6.777c-2.312,2.996-4.272,4.494-5.873,4.494
		c-0.989,0-1.828-0.912-2.516-2.739c-0.46-1.677-0.914-3.352-1.373-5.027c-0.511-1.829-1.058-2.743-1.641-2.743
		c-0.126,0-0.57,0.268-1.334,0.801l-0.8-1.029c0.837-0.734,1.665-1.472,2.479-2.206c1.116-0.966,1.957-1.472,2.52-1.525
		c1.314-0.129,2.132,0.774,2.437,2.703c0.328,2.083,0.562,3.377,0.688,3.887c0.38,1.726,0.799,2.587,1.258,2.587
		c0.354,0,0.889-0.556,1.6-1.673c0.714-1.118,1.095-1.968,1.146-2.553c0.102-0.964-0.279-1.443-1.146-1.443
		c-0.403,0-0.823,0.085-1.258,0.266c0.84-2.716,2.441-4.038,4.804-3.96C493.984,46.957,494.812,48.087,494.706,50.293z"/>
	<path fill="#FCDD00" d="M450.002,71C459.391,71,467,63.388,467,54s-7.609-17-16.998-17S433,44.612,433,54
		C432.999,63.388,440.611,71,450.002,71"/>
	<path d="M458.708,49.543c-0.628,0.278-1.301,0.466-2.008,0.55c0.723-0.434,1.274-1.116,1.535-1.93
		c-0.677,0.4-1.423,0.689-2.222,0.846c-0.635-0.679-1.544-1.101-2.549-1.101c-1.927,0-3.491,1.562-3.491,3.491
		c0,0.274,0.029,0.54,0.091,0.794c-2.902-0.145-5.478-1.533-7.2-3.647c-0.303,0.518-0.473,1.117-0.473,1.754
		c0,1.21,0.615,2.279,1.555,2.906c-0.571-0.018-1.112-0.176-1.582-0.437v0.042c0,1.692,1.204,3.102,2.803,3.423
		c-0.292,0.083-0.601,0.124-0.921,0.124c-0.225,0-0.444-0.021-0.655-0.062c0.444,1.387,1.734,2.396,3.261,2.421
		c-1.194,0.938-2.7,1.496-4.339,1.496c-0.281,0-0.56-0.016-0.832-0.048c1.545,0.988,3.386,1.567,5.354,1.567
		c6.428,0,9.938-5.316,9.938-9.93c0-0.152-0.004-0.303-0.01-0.452C457.647,50.859,458.241,50.244,458.708,49.543"/>
	<path fill="#FCDD00" d="M414,71c9.389,0,17-7.61,17-17c0-9.387-7.611-17-17-17c-9.388,0-17,7.612-17,17
		C397,63.389,404.612,71,414,71"/>
	<path d="M414.588,45.542v4.294h4.036v2.667h-4.036v4.357c0,0.985,0.053,1.616,0.155,1.896c0.104,0.281,0.298,0.504,0.584,0.67
		c0.377,0.226,0.806,0.337,1.291,0.337c0.86,0,1.715-0.281,2.567-0.84v2.681c-0.729,0.341-1.386,0.581-1.973,0.718
		c-0.591,0.138-1.227,0.208-1.911,0.208c-0.777,0-1.467-0.1-2.062-0.295c-0.598-0.199-1.107-0.475-1.527-0.839
		c-0.422-0.361-0.715-0.751-0.877-1.158c-0.163-0.409-0.244-1.001-0.244-1.78V52.5h-1.881v-2.402
		c0.67-0.218,1.242-0.529,1.717-0.933c0.477-0.403,0.86-0.89,1.147-1.459c0.287-0.565,0.484-1.29,0.596-2.167h2.417V45.542
		L414.588,45.542z"/>
	<path fill="#FCDD00" d="M378,71c9.388,0,17-7.608,17-16.999C395,44.614,387.388,37,378,37c-9.39,0-17,7.612-17,17.001
		C361,63.392,368.613,71,378,71"/>
	<path d="M378.159,45.497c-4.696,0-8.504,3.804-8.504,8.496c0,3.479,2.094,6.467,5.092,7.781c-0.025-0.592-0.005-1.306,0.146-1.951
		c0.164-0.688,1.096-4.629,1.096-4.629s-0.271-0.542-0.271-1.343c0-1.261,0.73-2.2,1.642-2.2c0.771,0,1.146,0.58,1.146,1.276
		c0,0.776-0.497,1.938-0.75,3.014c-0.213,0.901,0.452,1.637,1.342,1.637c1.611,0,2.696-2.068,2.696-4.516
		c0-1.862-1.256-3.256-3.538-3.256c-2.58,0-4.185,1.922-4.185,4.069c0,0.74,0.216,1.263,0.558,1.666
		c0.158,0.187,0.179,0.261,0.123,0.475c-0.041,0.155-0.134,0.531-0.173,0.682c-0.059,0.215-0.231,0.292-0.425,0.213
		c-1.188-0.485-1.742-1.785-1.742-3.246c0-2.413,2.038-5.308,6.077-5.308c3.248,0,5.384,2.347,5.384,4.868
		c0,3.333-1.854,5.821-4.589,5.821c-0.916,0-1.781-0.495-2.076-1.059c0,0-0.495,1.958-0.598,2.334
		c-0.182,0.655-0.532,1.308-0.858,1.819c0.767,0.226,1.573,0.35,2.412,0.35c4.696,0,8.503-3.805,8.503-8.497
		C386.662,49.301,382.854,45.497,378.159,45.497"/>
	<path fill="#FCDD00" d="M342,71c9.389,0,17-7.612,17-17s-7.611-17-17-17c-9.388,0-17,7.611-17,17C325,63.388,332.612,71,342,71"/>
	<path d="M337.279,61.1h-3.314V50.501h3.314V61.1z M335.538,49.175h-0.024c-1.199,0-1.977-0.811-1.977-1.835
		c0-1.048,0.801-1.842,2.023-1.842c1.224,0,1.975,0.793,1.999,1.837C337.559,48.362,336.784,49.175,335.538,49.175z M350.543,61.1
		h-3.759v-5.485c0-1.435-0.587-2.413-1.882-2.413c-0.99,0-1.538,0.661-1.795,1.299c-0.097,0.229-0.08,0.548-0.08,0.866v5.735h-3.726
		c0,0,0.048-9.716,0-10.599h3.726v1.663c0.22-0.729,1.408-1.766,3.31-1.766c2.355,0,4.207,1.524,4.207,4.806L350.543,61.1
		L350.543,61.1z"/>
	<path fill="#FCDD00" d="M306.001,71c9.388,0,17-7.611,17-17c0-9.388-7.612-17-17-17C296.609,37,289,44.611,289,54
		S296.61,71,306.001,71"/>
	<path d="M311.24,45.541h-10.436c-1.811,0-3.287,1.474-3.287,3.285v3.47v6.954c0,1.812,1.478,3.285,3.287,3.285h10.436
		c1.811,0,3.288-1.474,3.288-3.285v-6.954v-3.47C314.527,47.015,313.053,45.541,311.24,45.541z M312.184,47.5l0.376-0.001v0.375
		v2.506l-2.874,0.009l-0.01-2.88L312.184,47.5z M303.598,52.294c0.545-0.753,1.428-1.245,2.428-1.245
		c0.997,0,1.881,0.492,2.426,1.245c0.354,0.492,0.564,1.094,0.564,1.744c0,1.649-1.344,2.991-2.99,2.991
		c-1.651,0-2.994-1.342-2.994-2.991C303.029,53.387,303.242,52.786,303.598,52.294z M312.871,59.25c0,0.897-0.73,1.627-1.63,1.627
		h-10.435c-0.899,0-1.63-0.729-1.63-1.627v-6.956h2.539c-0.219,0.54-0.341,1.128-0.341,1.744c0,2.563,2.086,4.648,4.65,4.648
		c2.562,0,4.648-2.084,4.648-4.648c0-0.616-0.124-1.204-0.342-1.744h2.539V59.25L312.871,59.25z"/>
	<path fill="#FCDD00" d="M270,71c9.389,0,17-7.612,17-16.999C287,44.611,279.392,37,270,37c-9.388,0-17,7.611-17,17.001
		C252.999,63.387,260.612,71,270,71"/>
	<path d="M267.195,61.555c-2.021,0-3.482-1.276-3.482-2.811c0-1.509,1.814-2.763,3.835-2.737c0.469,0.005,0.909,0.079,1.311,0.208
		c1.095,0.763,1.881,1.194,2.104,2.064c0.042,0.174,0.062,0.357,0.062,0.54C271.026,60.357,270.038,61.555,267.195,61.555
		 M267.726,52.55c-1.357-0.042-2.648-1.518-2.88-3.295c-0.237-1.78,0.676-3.143,2.029-3.102c1.357,0.038,2.648,1.468,2.885,3.247
		C269.992,51.178,269.084,52.591,267.726,52.55 M270.541,55.187c-0.477-0.335-1.387-1.152-1.387-1.638
		c0-0.563,0.161-0.841,1.008-1.505c0.875-0.682,1.49-1.634,1.49-2.745c0-1.323-0.59-2.617-1.698-3.044h1.668l1.178-0.85h-5.267
		c-2.362,0-4.582,1.788-4.582,3.861c0,2.115,1.611,3.825,4.013,3.825c0.166,0,0.329-0.005,0.486-0.018
		c-0.154,0.299-0.266,0.634-0.266,0.982c0,0.589,0.316,1.065,0.714,1.456c-0.303,0-0.594,0.008-0.913,0.008
		c-2.922,0-5.176,1.863-5.176,3.791c0,1.899,2.47,3.088,5.392,3.088c3.337,0,5.18-1.89,5.18-3.788
		C272.383,57.083,271.93,56.171,270.541,55.187 M278.206,52.708h-2.055v-2.049h-1.648v2.049h-2.051v1.646h2.051v2.048h1.648v-2.047
		h2.055V52.708z"/>
	<path fill="#FCDD00" d="M234,71c9.387,0,17-7.612,17-17c0-9.387-7.613-17-17-17c-9.39,0-17,7.611-17,17
		C217,63.387,224.61,71,234,71"/>
	<path d="M233.958,45.71c-4.694,0-8.5,3.802-8.5,8.492c0,3.752,2.435,6.935,5.813,8.058c0.425,0.077,0.58-0.185,0.58-0.409
		c0-0.203-0.006-0.737-0.012-1.447c-2.364,0.515-2.863-1.138-2.863-1.138c-0.387-0.98-0.943-1.242-0.943-1.242
		c-0.771-0.527,0.058-0.518,0.058-0.518c0.854,0.062,1.304,0.876,1.304,0.876c0.758,1.298,1.989,0.924,2.474,0.707
		c0.078-0.55,0.297-0.923,0.541-1.135c-1.888-0.216-3.873-0.943-3.873-4.196c0-0.928,0.332-1.685,0.875-2.28
		c-0.087-0.216-0.378-1.08,0.084-2.249c0,0,0.713-0.228,2.336,0.87c0.679-0.189,1.405-0.282,2.128-0.287
		c0.724,0.004,1.45,0.098,2.129,0.287c1.623-1.099,2.335-0.87,2.335-0.87c0.464,1.168,0.172,2.033,0.085,2.249
		c0.544,0.595,0.873,1.352,0.873,2.28c0,3.262-1.986,3.98-3.881,4.188c0.306,0.264,0.577,0.78,0.577,1.572
		c0,1.135-0.011,2.052-0.011,2.33c0,0.227,0.154,0.49,0.585,0.409c3.375-1.126,5.808-4.307,5.808-8.058
		C242.458,49.512,238.652,45.71,233.958,45.71z"/>
	<path fill="#FCDD00" d="M198,71.001c9.387,0,17-7.612,17-17s-7.612-17-17-17c-9.389,0-17,7.612-17,17
		C180.998,63.391,188.611,71.001,198,71.001"/>
	<g>
		<path d="M206.589,53.984c0,2.067-1.677,3.743-3.745,3.743c-2.072,0-3.748-1.678-3.748-3.743c0-2.066,1.676-3.744,3.748-3.744
			C204.915,50.241,206.589,51.918,206.589,53.984z"/>
		<path d="M197.075,53.984c0,2.067-1.677,3.743-3.749,3.743c-2.068,0-3.744-1.678-3.744-3.743c0-2.066,1.676-3.744,3.744-3.744
			C195.398,50.241,197.075,51.918,197.075,53.984z"/>
	</g>
	<path fill="#FCDD00" d="M162,71c9.39,0,17-7.611,17-17c0-9.388-7.61-17-17-17c-9.389,0-17,7.611-17,17
		C145,63.388,152.612,71,162,71"/>
	<path d="M157.501,51.108h1.759v-1.706c0-0.752,0.019-1.914,0.566-2.633c0.576-0.762,1.368-1.278,2.729-1.278
		c2.218,0,3.152,0.315,3.152,0.315l-0.438,2.602c0,0-0.732-0.211-1.417-0.211s-1.296,0.245-1.296,0.929v1.985h2.805l-0.195,2.541
		h-2.609v8.831h-3.296v-8.831h-1.759L157.501,51.108L157.501,51.108z"/>
	<path fill="#FCDD00" d="M126,71c9.388,0,17-7.611,17-17c0-9.388-7.612-17-17-17c-9.391,0-17,7.611-17,17
		C108.999,63.388,116.609,71,126,71"/>
	<path d="M134.552,51.616v7.524c0,0.418-0.148,0.775-0.446,1.071c-0.296,0.297-0.655,0.445-1.072,0.445h-13.965
		c-0.418,0-0.775-0.149-1.072-0.445c-0.296-0.296-0.445-0.655-0.445-1.071v-7.524c0.278,0.31,0.597,0.584,0.958,0.824
		c2.29,1.554,3.86,2.645,4.715,3.27c0.359,0.266,0.653,0.472,0.877,0.62c0.225,0.148,0.522,0.301,0.896,0.456
		c0.374,0.155,0.723,0.232,1.042,0.232h0.02c0.323,0,0.669-0.076,1.042-0.232c0.374-0.154,0.672-0.307,0.896-0.456
		c0.225-0.148,0.518-0.354,0.878-0.62c1.076-0.776,2.65-1.866,4.724-3.27C133.961,52.193,134.279,51.919,134.552,51.616z
		 M134.552,48.83c0,0.5-0.155,0.975-0.465,1.432c-0.31,0.456-0.696,0.843-1.157,1.167c-2.378,1.65-3.858,2.676-4.44,3.081
		c-0.063,0.043-0.199,0.139-0.403,0.288c-0.207,0.148-0.376,0.269-0.511,0.359c-0.136,0.092-0.301,0.196-0.494,0.309
		c-0.193,0.113-0.375,0.2-0.544,0.255c-0.171,0.057-0.33,0.085-0.476,0.085h-0.019c-0.144,0-0.302-0.028-0.474-0.085
		c-0.172-0.057-0.353-0.142-0.546-0.255c-0.192-0.113-0.357-0.217-0.493-0.309c-0.136-0.089-0.307-0.21-0.512-0.359
		c-0.206-0.148-0.34-0.244-0.402-0.288c-0.576-0.405-1.404-0.981-2.485-1.73c-1.082-0.75-1.73-1.2-1.945-1.35
		c-0.393-0.266-0.762-0.63-1.109-1.096c-0.349-0.466-0.522-0.895-0.522-1.294c0-0.492,0.131-0.903,0.395-1.232
		c0.263-0.33,0.638-0.494,1.124-0.494h13.965c0.411,0,0.767,0.148,1.067,0.445C134.401,48.053,134.552,48.413,134.552,48.83
		L134.552,48.83z"/>
	<path fill="#FCDD00" d="M90,71c9.389,0,17-7.612,17-17c0-9.387-7.612-17-17-17c-9.39,0-17,7.611-17,17
		C72.999,63.387,80.609,71,90,71"/>
	<path d="M98.365,52.282c-0.111-0.546-0.279-1.082-0.496-1.596c-0.213-0.504-0.479-0.99-0.785-1.442
		c-0.303-0.45-0.653-0.874-1.038-1.258c-0.385-0.384-0.808-0.732-1.258-1.038c-0.454-0.308-0.941-0.571-1.444-0.785
		c-0.515-0.216-1.052-0.383-1.6-0.494c-0.56-0.115-1.136-0.174-1.711-0.174c-0.576,0-1.152,0.058-1.712,0.174
		c-0.546,0.111-1.084,0.279-1.599,0.494c-0.503,0.212-0.99,0.477-1.445,0.785c-0.45,0.303-0.873,0.652-1.258,1.038
		c-0.384,0.383-0.733,0.808-1.038,1.258c-0.307,0.452-0.57,0.939-0.783,1.442c-0.219,0.512-0.385,1.051-0.496,1.596
		c-0.115,0.558-0.173,1.134-0.173,1.709c0,0.576,0.058,1.152,0.173,1.711c0.111,0.545,0.277,1.083,0.496,1.596
		c0.213,0.504,0.478,0.991,0.783,1.443c0.305,0.449,0.653,0.872,1.038,1.256c0.385,0.384,0.808,0.732,1.258,1.038
		c0.455,0.307,0.941,0.57,1.445,0.783c0.516,0.218,1.053,0.384,1.599,0.496c0.561,0.116,1.136,0.174,1.712,0.174
		c0.576,0,1.152-0.058,1.711-0.174c0.547-0.112,1.085-0.278,1.6-0.496c0.503-0.213,0.99-0.476,1.444-0.783
		c0.45-0.305,0.873-0.653,1.258-1.038c0.385-0.385,0.734-0.807,1.038-1.256c0.307-0.452,0.572-0.94,0.785-1.443
		c0.217-0.511,0.384-1.051,0.496-1.596c0.113-0.561,0.173-1.135,0.173-1.711C98.538,53.417,98.479,52.84,98.365,52.282z
		 M97.295,53.919c-0.104-0.023-2.562-0.552-5.058-0.237c-0.052-0.125-0.104-0.248-0.158-0.375c-0.15-0.357-0.313-0.709-0.482-1.054
		c2.868-1.169,4.031-2.852,4.046-2.872C96.661,50.62,97.277,52.199,97.295,53.919z M94.833,48.549
		c-0.019,0.027-1.053,1.601-3.794,2.626c-1.241-2.278-2.605-4.09-2.714-4.232c0.549-0.133,1.122-0.206,1.711-0.206
		C91.873,46.736,93.552,47.422,94.833,48.549z M88.294,46.947c-0.001,0-0.002,0-0.002,0s-0.007,0.003-0.021,0.006
		C88.28,46.952,88.287,46.951,88.294,46.947z M86.935,47.43c0.098,0.129,1.439,1.947,2.698,4.181
		c-3.488,0.927-6.514,0.889-6.707,0.885C83.397,50.249,84.909,48.386,86.935,47.43z M82.771,53.992c0-0.078,0.004-0.154,0.006-0.229
		c0.129,0.002,3.716,0.083,7.457-1.033c0.208,0.407,0.407,0.819,0.59,1.232c-0.096,0.027-0.19,0.056-0.286,0.087
		c-3.92,1.267-5.909,4.79-5.909,4.79l0.002,0.002C83.476,57.555,82.771,55.857,82.771,53.992z M90.035,61.249
		c-1.758,0-3.37-0.625-4.626-1.663c0.095,0.078,0.162,0.126,0.162,0.126s1.394-3.033,5.7-4.533c0.017-0.004,0.032-0.01,0.049-0.016
		c1.021,2.654,1.443,4.875,1.55,5.51C91.999,61.043,91.04,61.249,90.035,61.249z M94.092,60.01
		c-0.073-0.438-0.461-2.568-1.414-5.184c2.345-0.375,4.377,0.269,4.527,0.318C96.881,57.167,95.724,58.912,94.092,60.01z"/>
	<path fill="#FCDD00" d="M54,71c9.389,0,17-7.613,17-17c0-9.389-7.612-17-17-17c-9.39,0-17,7.611-17,17S44.61,71,54,71"/>
	<path d="M62.44,52.499l-0.142-0.294l-0.238-0.187c-0.313-0.245-1.893,0.017-2.321-0.37c-0.301-0.279-0.344-0.777-0.437-1.453
		c-0.17-1.312-0.279-1.381-0.483-1.823c-0.746-1.578-2.762-2.764-4.148-2.928h-3.758c-2.954,0-5.37,2.418-5.37,5.372v6.264
		c0,2.944,2.417,5.356,5.37,5.356h6.173c2.954,0,5.353-2.412,5.37-5.356l0.035-4.339L62.44,52.499z M50.982,49.832h2.978
		c0.569,0,1.03,0.459,1.03,1.023c0,0.562-0.46,1.026-1.03,1.026h-2.978c-0.569,0-1.028-0.465-1.028-1.026
		C49.956,50.291,50.413,49.832,50.982,49.832z M57.034,58.019h-6.05c-0.57,0-1.028-0.466-1.028-1.023
		c0-0.561,0.458-1.021,1.028-1.021h6.05c0.564,0,1.023,0.46,1.023,1.021C58.058,57.553,57.6,58.019,57.034,58.019z"/>
	<path fill="#FCDD00" d="M18.001,71c9.39,0,17-7.613,17-17c0-9.389-7.61-17-17-17c-9.389,0-17,7.611-17,17S8.611,71,18.001,71"/>
	<path d="M17.302,49.677c0.319,0.446,0.481,0.979,0.481,1.604c0,0.64-0.161,1.153-0.484,1.546c-0.183,0.218-0.45,0.417-0.804,0.597
		c0.537,0.196,0.94,0.505,1.214,0.928c0.273,0.422,0.41,0.934,0.41,1.538c0,0.621-0.155,1.181-0.47,1.675
		c-0.197,0.326-0.445,0.603-0.744,0.826c-0.334,0.258-0.729,0.433-1.187,0.528c-0.457,0.095-0.952,0.142-1.485,0.142H9.498v-10.5
		h5.081C15.859,48.577,16.767,48.949,17.302,49.677z M11.594,50.382v2.316h2.555c0.455,0,0.827-0.087,1.113-0.262
		c0.282-0.174,0.427-0.481,0.427-0.92c0-0.489-0.189-0.812-0.564-0.97c-0.325-0.11-0.739-0.164-1.242-0.164H11.594L11.594,50.382z
		 M11.594,54.437v2.801h2.552c0.456,0,0.812-0.062,1.063-0.186c0.463-0.229,0.692-0.666,0.692-1.312c0-0.548-0.223-0.921-0.67-1.126
		c-0.25-0.113-0.6-0.175-1.05-0.178L11.594,54.437L11.594,54.437z M24.473,51.451c0.543,0.242,0.989,0.625,1.342,1.149
		c0.321,0.461,0.526,0.995,0.62,1.604c0.055,0.354,0.078,0.87,0.067,1.542h-5.661c0.033,0.779,0.301,1.326,0.812,1.64
		c0.312,0.194,0.684,0.29,1.122,0.29c0.46,0,0.838-0.118,1.126-0.355c0.159-0.128,0.298-0.308,0.42-0.535h2.075
		c-0.056,0.46-0.308,0.929-0.754,1.405c-0.696,0.753-1.67,1.131-2.923,1.131c-1.036,0-1.948-0.317-2.738-0.954
		c-0.792-0.637-1.187-1.673-1.187-3.106c0-1.349,0.356-2.379,1.07-3.097c0.715-0.716,1.641-1.077,2.779-1.077
		C23.323,51.087,23.931,51.21,24.473,51.451z M21.432,53.205c-0.289,0.294-0.468,0.697-0.542,1.201h3.503
		c-0.037-0.539-0.219-0.946-0.541-1.229c-0.326-0.278-0.727-0.418-1.207-0.418C22.125,52.761,21.72,52.908,21.432,53.205z
		 M24.871,49.048h-4.505v1.306h4.505V49.048z"/>
</g>
<g id="Default">
	<g id="YouTube">
		<path fill="#FFFFFF" d="M559.001,34C567.836,34,575,26.836,575,18c0-8.835-7.164-16-15.999-16c-8.839,0-16.002,7.164-16.002,16
			S550.163,34,559.001,34"/>
		<path fill="#2B2A28" d="M562.107,18.008l-5.238,3.079V14.93L562.107,18.008z M567.004,20.861v-5.724c0,0,0-2.759-2.762-2.759
			h-10.488c0,0-2.761,0-2.761,2.759v5.724c0,0,0,2.758,2.761,2.758h10.488C564.243,23.619,567.004,23.619,567.004,20.861"/>
	</g>
	<g id="Website">
		<path fill="#FFFFFF" d="M522,34c8.837,0,16.001-7.164,16.001-16c0-8.836-7.164-16-16.001-16c-8.838,0-16,7.164-16,16
			C506,26.836,513.162,34,522,34"/>
		<path fill="#2B2A28" d="M522.001,9.954c2.225,0,4.112,0.784,5.666,2.352c1.558,1.566,2.334,3.45,2.334,5.65
			c0,2.222-0.775,4.111-2.334,5.667c-1.554,1.556-3.441,2.334-5.666,2.334c-2.2,0-4.083-0.778-5.647-2.334
			c-1.568-1.555-2.354-3.444-2.354-5.667c0-2.2,0.783-4.083,2.354-5.65C517.918,10.738,519.801,9.954,522.001,9.954L522.001,9.954
			 M528.834,17.955c0-1.467-0.433-2.794-1.3-3.983c-0.866-1.189-1.989-2.017-3.366-2.483c-0.2,0.267-0.288,0.444-0.267,0.533
			c0.045,0.422,0.144,0.707,0.3,0.85c0.156,0.144,0.322,0.184,0.5,0.117l0.531-0.2c0,0,0.11-0.011,0.334-0.033
			c0.244,0.266,0.244,0.529,0,0.783c-0.245,0.255-0.495,0.567-0.75,0.934c-0.258,0.367-0.263,0.795-0.021,1.284
			c0.379,0.709,0.912,1.066,1.604,1.066c0.311,0.022,0.549,0.223,0.717,0.6c0.167,0.378,0.261,0.745,0.284,1.101
			c0.106,0.888,0.029,1.667-0.233,2.334c-0.246,0.489-0.169,0.911,0.233,1.267C528.357,20.877,528.834,19.488,528.834,17.955
			L528.834,17.955 M521.067,11.221c-1.245,0.156-2.353,0.623-3.317,1.4c-0.965,0.777-1.671,1.746-2.116,2.899
			c0.066,0,0.188,0.012,0.368,0.035c0.177,0.021,0.333,0.039,0.467,0.05c0.136,0.011,0.277,0.034,0.436,0.067
			c0.152,0.034,0.289,0.078,0.397,0.134c0.112,0.056,0.178,0.127,0.2,0.216c0.044,0.133-0.033,0.383-0.231,0.751
			c-0.2,0.368-0.3,0.706-0.3,1.017c0,0.333,0.211,0.645,0.636,0.934c0.419,0.289,0.634,0.544,0.634,0.767
			c0,0.311,0.043,0.688,0.133,1.133c0.09,0.444,0.135,0.688,0.135,0.733c0,0.133,0.201,0.434,0.604,0.901
			c0.396,0.466,0.686,0.701,0.863,0.701c0.111,0,0.176-0.124,0.186-0.368c0.01-0.245,0-0.544-0.033-0.899
			c-0.035-0.355-0.051-0.579-0.051-0.667c0-0.356,0.078-0.767,0.231-1.234c0.137-0.467,0.46-0.856,0.984-1.167
			c0.521-0.311,0.828-0.566,0.917-0.767c0.177-0.377,0.229-0.715,0.15-1.017c-0.079-0.3-0.177-0.539-0.286-0.715
			c-0.109-0.179-0.298-0.333-0.566-0.466c-0.268-0.134-0.494-0.229-0.684-0.284c-0.188-0.056-0.396-0.105-0.616-0.151
			c-0.223-0.044-0.344-0.066-0.369-0.066c-0.176-0.067-0.41-0.106-0.697-0.118c-0.291-0.012-0.488,0.005-0.604,0.05
			c-0.107,0.044-0.26-0.017-0.449-0.183c-0.188-0.167-0.284-0.328-0.284-0.485c0-0.111,0.085-0.26,0.251-0.449
			c0.166-0.188,0.361-0.394,0.584-0.617c0.225-0.222,0.377-0.39,0.467-0.5c0.09-0.155,0.182-0.272,0.283-0.351
			c0.102-0.078,0.225-0.166,0.365-0.266c0.146-0.1,0.295-0.217,0.451-0.351c0.045-0.043,0.185-0.138,0.418-0.283
			C520.853,11.459,521.001,11.331,521.067,11.221L521.067,11.221 M519.867,24.455c0.735,0.221,1.444,0.333,2.136,0.333
			c1.423,0,2.678-0.377,3.769-1.133c-0.29-0.489-0.945-0.678-1.969-0.566c-0.267,0.021-0.627,0.117-1.083,0.283
			c-0.456,0.167-0.717,0.261-0.781,0.284c-0.821,0.178-1.244,0.267-1.269,0.267c-0.136,0.023-0.275,0.1-0.434,0.233
			S519.957,24.387,519.867,24.455L519.867,24.455"/>
	</g>
	<g id="Vimeo">
		<path fill="#FFFFFF" d="M486,34c8.837,0,16.001-7.164,16.001-16.001C502.001,9.163,494.837,2,486,2c-8.836,0-16,7.164-16,15.999
			C470,26.836,477.164,34,486,34"/>
		<path fill="#2B2A28" d="M493.995,14.472c-0.07,1.556-1.16,3.685-3.261,6.385c-2.177,2.823-4.021,4.234-5.527,4.234
			c-0.932,0-1.721-0.859-2.367-2.581c-0.433-1.58-0.86-3.16-1.293-4.736c-0.479-1.724-0.994-2.585-1.543-2.585
			c-0.119,0-0.537,0.251-1.256,0.754l-0.753-0.97c0.788-0.692,1.567-1.387,2.333-2.079c1.051-0.91,1.842-1.386,2.37-1.437
			c1.238-0.121,2.007,0.73,2.294,2.547c0.309,1.962,0.527,3.183,0.646,3.662c0.356,1.625,0.752,2.438,1.184,2.438
			c0.333,0,0.837-0.524,1.506-1.577c0.671-1.053,1.029-1.854,1.079-2.406c0.096-0.908-0.263-1.36-1.079-1.36
			c-0.381,0-0.775,0.081-1.184,0.25c0.79-2.559,2.298-3.805,4.521-3.731C493.315,11.327,494.094,12.392,493.995,14.472z"/>
	</g>
	<g id="Twitter">
		<path fill="#FFFFFF" d="M450.001,34c8.837,0,16-7.164,16-16c0-8.835-7.163-16-16-16C441.165,2,434,9.165,434,18
			C433.999,26.836,441.163,34,450.001,34"/>
		<path fill="#2B2A28" d="M458.021,13.809c-0.591,0.261-1.225,0.438-1.89,0.517c0.68-0.408,1.2-1.051,1.443-1.817
			c-0.636,0.377-1.339,0.648-2.09,0.797c-0.598-0.64-1.453-1.038-2.397-1.038c-1.813,0-3.286,1.472-3.286,3.289
			c0,0.258,0.026,0.508,0.084,0.749c-2.731-0.137-5.154-1.445-6.776-3.436c-0.284,0.487-0.443,1.052-0.443,1.653
			c0,1.139,0.578,2.146,1.463,2.737c-0.538-0.017-1.047-0.166-1.489-0.412v0.04c0,1.595,1.133,2.923,2.638,3.226
			c-0.273,0.077-0.564,0.116-0.866,0.116c-0.212,0-0.419-0.02-0.616-0.059c0.418,1.307,1.633,2.257,3.068,2.281
			c-1.125,0.883-2.543,1.41-4.084,1.41c-0.266,0-0.525-0.015-0.782-0.045c1.453,0.93,3.186,1.475,5.039,1.475
			c6.051,0,9.354-5.008,9.354-9.354c0-0.144-0.003-0.286-0.009-0.426C457.023,15.047,457.582,14.468,458.021,13.809"/>
	</g>
	<g id="Tumblr">
		<path fill="#FFFFFF" d="M414.001,34c8.836,0,16-7.163,16-16c0-8.836-7.164-16-16-16S398,9.164,398,18
			C398,26.836,405.165,34,414.001,34"/>
		<path fill="#2B2A28" d="M414.389,9.996v4.046h3.799v2.512h-3.799v4.104c0,0.929,0.05,1.523,0.146,1.787
			c0.1,0.265,0.28,0.476,0.55,0.632c0.354,0.212,0.759,0.317,1.216,0.317c0.811,0,1.613-0.265,2.417-0.792v2.526
			c-0.687,0.321-1.305,0.547-1.856,0.677c-0.556,0.13-1.154,0.196-1.799,0.196c-0.732,0-1.381-0.094-1.94-0.278
			c-0.562-0.187-1.042-0.448-1.438-0.791c-0.396-0.34-0.673-0.708-0.825-1.091c-0.153-0.385-0.229-0.943-0.229-1.677v-5.614h-1.771
			v-2.263c0.631-0.206,1.169-0.499,1.616-0.879c0.446-0.381,0.81-0.839,1.079-1.375c0.271-0.533,0.457-1.215,0.562-2.041h2.274
			L414.389,9.996L414.389,9.996z"/>
	</g>
	<g id="Pinterest">
		<path fill="#FFFFFF" d="M378.001,34c8.836,0,16-7.162,16-16c0-8.835-7.164-16-16-16C369.164,2,362,9.164,362,18
			C362,26.838,369.165,34,378.001,34"/>
		<path fill="#2B2A28" d="M378.002,9.955c-4.42,0-8.004,3.583-8.004,8.003c0,3.278,1.971,6.093,4.792,7.331
			c-0.023-0.557-0.004-1.23,0.138-1.837c0.154-0.648,1.03-4.361,1.03-4.361s-0.256-0.511-0.256-1.267
			c0-1.187,0.688-2.072,1.544-2.072c0.728,0,1.078,0.546,1.078,1.203c0,0.731-0.469,1.825-0.706,2.839
			c-0.2,0.849,0.426,1.542,1.264,1.542c1.517,0,2.537-1.948,2.537-4.255c0-1.754-1.182-3.067-3.33-3.067
			c-2.428,0-3.938,1.811-3.938,3.833c0,0.697,0.202,1.189,0.524,1.57c0.148,0.176,0.168,0.246,0.115,0.447
			c-0.038,0.146-0.126,0.5-0.162,0.643c-0.055,0.203-0.218,0.274-0.4,0.201c-1.116-0.458-1.64-1.681-1.64-3.058
			c0-2.273,1.918-5,5.72-5c3.059,0,5.067,2.211,5.067,4.585c0,3.14-1.745,5.484-4.319,5.484c-0.86,0-1.676-0.466-1.954-0.998
			c0,0-0.466,1.845-0.562,2.199c-0.17,0.616-0.501,1.233-0.809,1.713c0.723,0.213,1.48,0.33,2.271,0.33
			c4.42,0,8.003-3.584,8.003-8.005C386.005,13.538,382.421,9.955,378.002,9.955"/>
	</g>
	<g id="LinkedIn">
		<path fill="#FFFFFF" d="M342.001,34c8.837,0,16-7.165,16-16s-7.163-16-16-16C333.165,2,326,9.164,326,18
			C326,26.835,333.165,34,342.001,34"/>
		<path fill="#2B2A28" d="M337.521,24.695h-3.12V14.71h3.12V24.695z M335.882,13.461h-0.021c-1.13,0-1.86-0.763-1.86-1.729
			c0-0.987,0.754-1.735,1.905-1.735c1.149,0,1.856,0.747,1.882,1.732C337.784,12.695,337.055,13.461,335.882,13.461z
			 M350.005,24.695h-3.538v-5.167c0-1.352-0.552-2.274-1.771-2.274c-0.934,0-1.448,0.623-1.689,1.224
			c-0.091,0.215-0.076,0.515-0.076,0.816v5.403h-3.505c0,0,0.045-9.153,0-9.985h3.505v1.566c0.207-0.686,1.327-1.664,3.115-1.664
			c2.217,0,3.96,1.437,3.96,4.528L350.005,24.695L350.005,24.695z"/>
	</g>
	<g id="Instagram">
		<path fill="#FFFFFF" d="M306,34c8.836,0,16-7.164,16-16c0-8.835-7.164-16-16-16c-8.838,0-16,7.164-16,16S297.162,34,306,34"/>
		<path fill="#2B2A28" d="M310.911,9.995h-9.821c-1.704,0-3.094,1.389-3.094,3.095v3.269v6.552c0,1.706,1.39,3.094,3.094,3.094
			h9.821c1.703,0,3.095-1.388,3.095-3.094v-6.552V13.09C314.005,11.384,312.617,9.995,310.911,9.995z M311.799,11.841l0.354-0.001
			v0.354v2.36l-2.705,0.008l-0.009-2.712L311.799,11.841z M303.717,16.357c0.513-0.71,1.344-1.174,2.285-1.174
			c0.938,0,1.771,0.464,2.283,1.174c0.333,0.462,0.531,1.03,0.531,1.643c0,1.553-1.265,2.817-2.814,2.817
			c-1.555,0-2.818-1.264-2.818-2.817C303.184,17.386,303.383,16.82,303.717,16.357z M312.445,22.91c0,0.846-0.688,1.533-1.532,1.533
			h-9.821c-0.848,0-1.533-0.688-1.533-1.533v-6.552h2.391c-0.205,0.507-0.32,1.062-0.32,1.643c0,2.415,1.963,4.379,4.377,4.379
			c2.412,0,4.376-1.963,4.376-4.379c0-0.581-0.117-1.134-0.322-1.643h2.391v6.552H312.445z"/>
	</g>
	<g id="Google_x2B_">
		<path fill="#FFFFFF" d="M270,34c8.837,0,16-7.165,16-16c0-8.835-7.16-16-16-16c-8.836,0-16,7.164-16,16
			C253.999,26.835,261.164,34,270,34"/>
		<path fill="#2B2A28" d="M267.351,25.167c-1.902,0-3.277-1.203-3.277-2.648c0-1.421,1.707-2.603,3.609-2.579
			c0.441,0.005,0.855,0.074,1.234,0.195c1.031,0.719,1.77,1.125,1.98,1.945c0.039,0.164,0.059,0.335,0.059,0.508
			C270.957,24.039,270.027,25.167,267.351,25.167 M267.851,16.684c-1.277-0.039-2.492-1.43-2.711-3.105
			c-0.223-1.675,0.637-2.961,1.91-2.921c1.277,0.035,2.492,1.383,2.715,3.059C269.984,15.392,269.129,16.723,267.851,16.684
			 M270.5,19.168c-0.449-0.316-1.305-1.086-1.305-1.544c0-0.53,0.152-0.793,0.949-1.418c0.824-0.641,1.402-1.539,1.402-2.585
			c0-1.246-0.555-2.465-1.598-2.867h1.57l1.109-0.801h-4.957c-2.223,0-4.312,1.684-4.312,3.637c0,1.992,1.516,3.603,3.777,3.603
			c0.156,0,0.309-0.004,0.457-0.016c-0.145,0.281-0.25,0.598-0.25,0.925c0,0.556,0.297,1.004,0.672,1.372
			c-0.285,0-0.559,0.007-0.859,0.007c-2.75,0-4.871,1.754-4.871,3.571c0,1.789,2.324,2.909,5.074,2.909
			c3.141,0,4.875-1.78,4.875-3.569C272.234,20.954,271.808,20.095,270.5,19.168 M277.715,16.832h-1.934v-1.93h-1.551v1.93h-1.93
			v1.551h1.93v1.929h1.551v-1.929h1.934V16.832z"/>
	</g>
	<g id="Github">
		<path fill="#FFFFFF" d="M234,34c8.835,0,16-7.165,16-16s-7.165-16-16-16c-8.838,0-16,7.164-16,16C218,26.835,225.162,34,234,34"/>
		<path fill="#2B2A28" d="M233.969,10.197c-4.418,0-8,3.582-8,8c0,3.535,2.292,6.532,5.471,7.59c0.4,0.073,0.546-0.173,0.546-0.385
			c0-0.19-0.006-0.694-0.012-1.362c-2.225,0.485-2.694-1.073-2.694-1.073c-0.364-0.924-0.888-1.17-0.888-1.17
			c-0.726-0.497,0.055-0.488,0.055-0.488c0.804,0.057,1.227,0.825,1.227,0.825c0.713,1.224,1.872,0.871,2.328,0.666
			c0.073-0.518,0.28-0.87,0.509-1.069c-1.777-0.204-3.645-0.889-3.645-3.954c0-0.874,0.312-1.587,0.823-2.147
			c-0.082-0.203-0.356-1.017,0.079-2.118c0,0,0.671-0.215,2.199,0.819c0.639-0.178,1.322-0.267,2.003-0.27
			c0.681,0.003,1.364,0.092,2.003,0.27c1.528-1.035,2.198-0.819,2.198-0.819c0.437,1.101,0.162,1.915,0.08,2.118
			c0.512,0.56,0.822,1.273,0.822,2.147c0,3.074-1.87,3.75-3.653,3.947c0.288,0.248,0.543,0.735,0.543,1.481
			c0,1.069-0.011,1.933-0.011,2.196c0,0.213,0.145,0.461,0.551,0.384c3.176-1.06,5.466-4.057,5.466-7.59
			C241.969,13.779,238.387,10.197,233.969,10.197z"/>
	</g>
	<g id="Flickr">
		<path fill="#FFFFFF" d="M198.001,34c8.835,0,16-7.164,16-16c0-8.836-7.165-16-16-16C189.164,2,182,9.163,182,18
			C181.999,26.836,189.164,34,198.001,34"/>
		<g>
			<path fill="#2B2A28" d="M206.004,18c0,1.947-1.578,3.526-3.524,3.526c-1.951,0-3.528-1.58-3.528-3.526
				c0-1.946,1.577-3.526,3.528-3.526C204.428,14.473,206.004,16.054,206.004,18z"/>
			<path fill="#2B2A28" d="M197.049,18c0,1.947-1.578,3.526-3.528,3.526c-1.947,0-3.524-1.58-3.524-3.526
				c0-1.946,1.577-3.526,3.524-3.526C195.471,14.473,197.049,16.054,197.049,18z"/>
		</g>
	</g>
	<g id="Facebook">
		<path fill="#FFFFFF" d="M162,34c8.838,0,16-7.164,16-16c0-8.835-7.162-16-16-16c-8.836,0-16,7.164-16,16
			C146,26.836,153.164,34,162,34"/>
		<path fill="#2B2A28" d="M157.703,15.29h1.655v-1.607c0-0.708,0.018-1.802,0.533-2.48c0.542-0.718,1.287-1.205,2.568-1.205
			c2.088,0,2.967,0.297,2.967,0.297l-0.413,2.452c0,0-0.689-0.2-1.333-0.2s-1.22,0.231-1.22,0.875v1.869h2.64l-0.184,2.395h-2.456
			v8.319h-3.102v-8.319h-1.655V15.29L157.703,15.29z"/>
	</g>
	<g id="Email">
		<path fill="#FFFFFF" d="M126,34c8.836,0,16-7.165,16-16s-7.164-16-16-16c-8.839,0-16,7.163-16,16
			C109.999,26.835,117.161,34,126,34"/>
		<path fill="#2B2A28" d="M134,15.768v7.089c0,0.394-0.139,0.729-0.42,1.009c-0.279,0.279-0.616,0.419-1.009,0.419h-13.144
			c-0.393,0-0.729-0.141-1.009-0.419c-0.279-0.28-0.419-0.617-0.419-1.009v-7.089c0.262,0.292,0.562,0.55,0.902,0.776
			c2.155,1.465,3.633,2.491,4.438,3.081c0.338,0.25,0.614,0.444,0.825,0.584c0.212,0.139,0.492,0.282,0.843,0.429
			c0.352,0.146,0.68,0.219,0.981,0.219h0.018c0.304,0,0.63-0.072,0.981-0.219c0.352-0.146,0.632-0.29,0.843-0.429
			c0.212-0.141,0.487-0.334,0.827-0.584c1.012-0.732,2.494-1.759,4.446-3.081C133.444,16.312,133.743,16.054,134,15.768z
			 M134,13.143c0,0.472-0.146,0.919-0.438,1.35c-0.292,0.429-0.655,0.793-1.089,1.099c-2.238,1.554-3.631,2.521-4.179,2.901
			c-0.059,0.042-0.187,0.132-0.379,0.271c-0.194,0.14-0.354,0.253-0.481,0.338c-0.128,0.087-0.283,0.184-0.464,0.291
			c-0.182,0.107-0.353,0.188-0.513,0.241c-0.161,0.054-0.31,0.08-0.447,0.08h-0.018c-0.136,0-0.285-0.026-0.446-0.08
			c-0.161-0.053-0.332-0.134-0.514-0.241c-0.181-0.107-0.336-0.204-0.464-0.291c-0.128-0.084-0.289-0.199-0.482-0.338
			c-0.194-0.139-0.32-0.229-0.379-0.271c-0.542-0.381-1.321-0.924-2.339-1.629c-1.018-0.706-1.628-1.13-1.831-1.272
			c-0.369-0.25-0.717-0.594-1.044-1.032c-0.328-0.438-0.491-0.843-0.491-1.219c0-0.463,0.123-0.851,0.371-1.162
			c0.248-0.31,0.6-0.465,1.058-0.465h13.144c0.387,0,0.722,0.14,1.004,0.419C133.858,12.413,134,12.75,134,13.143L134,13.143z"/>
	</g>
	<g id="Dribbble">
		<path fill="#FFFFFF" d="M90,34c8.837,0,16-7.165,16-16S98.836,2,90,2c-8.838,0-16,7.164-16,16C73.999,26.835,81.161,34,90,34"/>
		<path fill="#2B2A28" d="M97.84,16.388c-0.104-0.514-0.263-1.02-0.467-1.503c-0.2-0.475-0.45-0.933-0.738-1.359
			c-0.286-0.424-0.615-0.823-0.977-1.184c-0.362-0.362-0.76-0.691-1.184-0.978c-0.427-0.29-0.885-0.538-1.359-0.74
			c-0.484-0.203-0.99-0.361-1.505-0.465c-0.527-0.109-1.069-0.165-1.611-0.165s-1.084,0.055-1.612,0.165
			c-0.514,0.104-1.02,0.263-1.504,0.465c-0.474,0.201-0.932,0.45-1.36,0.74c-0.424,0.286-0.822,0.615-1.184,0.978
			c-0.362,0.36-0.69,0.76-0.977,1.184c-0.289,0.427-0.537,0.885-0.737,1.359c-0.206,0.482-0.363,0.99-0.467,1.503
			c-0.108,0.526-0.163,1.068-0.163,1.61c0,0.543,0.055,1.085,0.163,1.612c0.104,0.514,0.261,1.021,0.467,1.503
			c0.2,0.476,0.449,0.934,0.737,1.36c0.287,0.423,0.614,0.821,0.977,1.184c0.362,0.361,0.76,0.689,1.184,0.977
			c0.428,0.29,0.886,0.537,1.36,0.737c0.485,0.206,0.991,0.362,1.504,0.467c0.528,0.109,1.07,0.164,1.612,0.164
			s1.084-0.055,1.611-0.164c0.515-0.105,1.021-0.261,1.505-0.467c0.474-0.2,0.932-0.447,1.359-0.737
			c0.424-0.287,0.822-0.616,1.184-0.977c0.362-0.363,0.691-0.761,0.977-1.184c0.289-0.426,0.538-0.886,0.738-1.36
			c0.204-0.481,0.362-0.989,0.467-1.503c0.107-0.527,0.163-1.069,0.163-1.612C98.003,17.458,97.947,16.914,97.84,16.388z
			 M96.833,17.931c-0.098-0.021-2.411-0.521-4.76-0.224c-0.049-0.117-0.098-0.234-0.148-0.354c-0.142-0.335-0.295-0.667-0.454-0.992
			c2.699-1.102,3.794-2.688,3.808-2.707C96.236,14.823,96.816,16.31,96.833,17.931z M94.515,12.872
			c-0.018,0.026-0.991,1.508-3.571,2.474c-1.168-2.146-2.452-3.853-2.555-3.987c0.517-0.125,1.056-0.193,1.611-0.193
			C91.73,11.164,93.31,11.811,94.515,12.872z M88.362,11.363c-0.001,0-0.002,0-0.002,0s-0.007,0.002-0.02,0.005
			C88.348,11.367,88.355,11.366,88.362,11.363z M87.082,11.817c0.092,0.122,1.354,1.834,2.539,3.938
			c-3.282,0.873-6.131,0.838-6.312,0.834C83.753,14.473,85.176,12.718,87.082,11.817z M83.163,17.999
			c0-0.073,0.004-0.144,0.006-0.215c0.122,0.002,3.498,0.078,7.018-0.974c0.196,0.383,0.383,0.772,0.555,1.162
			c-0.09,0.025-0.179,0.054-0.269,0.083c-3.689,1.193-5.561,4.511-5.561,4.511l0.002,0.002
			C83.826,21.356,83.163,19.756,83.163,17.999z M90,24.835c-1.655,0-3.172-0.588-4.354-1.566c0.09,0.073,0.153,0.119,0.153,0.119
			s1.312-2.857,5.364-4.27c0.016-0.005,0.03-0.01,0.046-0.015c0.961,2.5,1.358,4.592,1.459,5.19
			C91.848,24.642,90.946,24.835,90,24.835z M93.818,23.668c-0.069-0.412-0.434-2.419-1.33-4.883c2.207-0.354,4.119,0.252,4.26,0.299
			C96.443,20.99,95.354,22.633,93.818,23.668z"/>
	</g>
	<g id="Blogger">
		<path fill="#FFFFFF" d="M54,34c8.837,0,16-7.166,16-16c0-8.836-7.164-16-16-16c-8.838,0-16,7.163-16,16C38,26.836,45.162,34,54,34
			"/>
		<path fill="#2B2A28" d="M61.927,16.643l-0.133-0.277l-0.224-0.177c-0.294-0.231-1.781,0.017-2.184-0.349
			c-0.283-0.264-0.324-0.732-0.411-1.369c-0.16-1.237-0.262-1.301-0.455-1.717c-0.702-1.487-2.599-2.604-3.904-2.759h-3.537
			c-2.78,0-5.054,2.278-5.054,5.061v5.901c0,2.773,2.274,5.047,5.054,5.047h5.81c2.78,0,5.038-2.273,5.054-5.047l0.033-4.088
			L61.927,16.643z M51.144,14.13h2.802c0.536,0,0.97,0.433,0.97,0.963c0,0.528-0.433,0.967-0.97,0.967h-2.802
			c-0.536,0-0.968-0.438-0.968-0.967C50.177,14.562,50.608,14.13,51.144,14.13z M56.84,21.842h-5.695
			c-0.536,0-0.968-0.438-0.968-0.963c0-0.528,0.432-0.961,0.968-0.961h5.695c0.531,0,0.962,0.433,0.962,0.961
			C57.803,21.404,57.372,21.842,56.84,21.842z"/>
	</g>
	<g id="Behance">
		<path fill="#FFFFFF" d="M18,34c8.837,0,16-7.166,16-16c0-8.836-7.163-16-16-16C9.164,2,2,9.163,2,18C2,26.836,9.163,34,18,34"/>
		<path fill="#2B2A28" d="M17.342,13.984c0.301,0.419,0.453,0.923,0.453,1.51c0,0.604-0.151,1.088-0.456,1.457
			c-0.172,0.205-0.423,0.394-0.756,0.562c0.504,0.185,0.884,0.477,1.143,0.874c0.256,0.397,0.385,0.879,0.385,1.449
			c0,0.585-0.146,1.112-0.442,1.578c-0.186,0.307-0.419,0.567-0.7,0.778c-0.315,0.243-0.686,0.408-1.117,0.498
			c-0.43,0.089-0.895,0.134-1.397,0.134H9.997v-9.892h4.782C15.984,12.947,16.838,13.299,17.342,13.984z M11.97,14.648v2.183h2.405
			c0.428,0,0.778-0.082,1.047-0.247c0.266-0.164,0.402-0.455,0.402-0.867c0-0.461-0.177-0.765-0.531-0.914
			c-0.306-0.103-0.695-0.154-1.169-0.154L11.97,14.648L11.97,14.648z M11.97,18.468v2.638h2.402c0.429,0,0.764-0.059,1.001-0.174
			c0.436-0.217,0.651-0.628,0.651-1.236c0-0.516-0.209-0.868-0.63-1.062c-0.235-0.106-0.565-0.164-0.989-0.167H11.97z
			 M24.091,15.655c0.511,0.229,0.932,0.59,1.263,1.083c0.302,0.434,0.496,0.938,0.584,1.511c0.052,0.335,0.073,0.821,0.063,1.454
			h-5.328c0.031,0.734,0.284,1.25,0.765,1.543c0.293,0.185,0.644,0.274,1.055,0.274c0.434,0,0.789-0.111,1.061-0.335
			c0.149-0.12,0.281-0.289,0.395-0.503h1.953c-0.052,0.433-0.289,0.875-0.709,1.323c-0.655,0.709-1.572,1.066-2.751,1.066
			c-0.975,0-1.834-0.299-2.577-0.899c-0.746-0.6-1.117-1.576-1.117-2.928c0-1.269,0.336-2.24,1.007-2.917
			c0.673-0.675,1.544-1.014,2.615-1.014C23.008,15.312,23.581,15.428,24.091,15.655z M21.229,17.308
			c-0.271,0.278-0.44,0.656-0.51,1.132h3.297c-0.035-0.508-0.206-0.892-0.509-1.157c-0.307-0.263-0.685-0.395-1.136-0.395
			C21.882,16.889,21.5,17.028,21.229,17.308z M24.465,13.392h-4.239v1.23h4.239V13.392z"/>
	</g>
</g>
</svg>
