<?xml version="1.0" encoding="utf-8"?>
<!-- Generator: Adobe Illustrator 16.2.1, SVG Export Plug-In . SVG Version: 6.00 Build 0)  -->
<!DOCTYPE svg PUBLIC "-//W3C//DTD SVG 1.1//EN" "http://www.w3.org/Graphics/SVG/1.1/DTD/svg11.dtd">
<svg version="1.1" id="Icons" xmlns="http://www.w3.org/2000/svg" xmlns:xlink="http://www.w3.org/1999/xlink" x="0px" y="0px"
	 width="576px" height="144px" viewBox="0 0 576 144" enable-background="new 0 0 576 144" xml:space="preserve">
<g id="Active_1_">
	<path fill="#FCDD00" d="M557.998,142.997c9.389,0,17.001-7.604,17.001-16.982s-7.612-16.982-17.001-16.982
		c-9.39,0-16.999,7.604-16.999,16.982S548.608,142.997,557.998,142.997"/>
	<path d="M557.999,117.475c2.362,0,4.369,0.832,6.02,2.495c1.654,1.663,2.48,3.662,2.48,5.998c0,2.358-0.825,4.363-2.48,6.016
		c-1.65,1.65-3.657,2.477-6.02,2.477c-2.338,0-4.338-0.826-6.001-2.477c-1.667-1.652-2.5-3.657-2.5-6.016
		c0-2.336,0.832-4.334,2.5-5.998C553.661,118.307,555.661,117.475,557.999,117.475L557.999,117.475 M565.259,125.967
		c0-1.556-0.46-2.966-1.381-4.228c-0.92-1.262-2.113-2.141-3.576-2.636c-0.213,0.283-0.307,0.472-0.283,0.565
		c0.047,0.448,0.152,0.751,0.318,0.902c0.166,0.154,0.342,0.195,0.531,0.125l0.564-0.213c0,0,0.118-0.012,0.354-0.035
		c0.26,0.283,0.26,0.561,0,0.831c-0.261,0.271-0.526,0.602-0.797,0.991c-0.273,0.39-0.278,0.844-0.021,1.363
		c0.402,0.753,0.969,1.132,1.702,1.132c0.33,0.022,0.583,0.235,0.762,0.636c0.178,0.401,0.277,0.791,0.302,1.168
		c0.114,0.943,0.032,1.77-0.248,2.477c-0.261,0.521-0.179,0.967,0.248,1.346C564.753,129.069,565.259,127.594,565.259,125.967
		L565.259,125.967 M557.007,118.82c-1.322,0.165-2.498,0.659-3.524,1.485c-1.025,0.826-1.775,1.854-2.248,3.078
		c0.07,0,0.2,0.014,0.391,0.036c0.188,0.022,0.354,0.041,0.496,0.053c0.144,0.013,0.295,0.037,0.462,0.071
		c0.163,0.037,0.307,0.083,0.423,0.143c0.12,0.061,0.188,0.135,0.213,0.23c0.047,0.141-0.035,0.406-0.247,0.797
		c-0.212,0.39-0.317,0.749-0.317,1.078c0,0.354,0.225,0.686,0.675,0.992c0.445,0.307,0.673,0.577,0.673,0.814
		c0,0.329,0.046,0.73,0.142,1.201c0.096,0.473,0.143,0.732,0.143,0.779c0,0.142,0.214,0.461,0.641,0.956
		c0.422,0.495,0.729,0.744,0.918,0.744c0.119,0,0.187-0.131,0.196-0.39c0.011-0.26,0-0.578-0.035-0.955
		c-0.037-0.377-0.054-0.614-0.054-0.707c0-0.379,0.083-0.814,0.247-1.311c0.144-0.496,0.488-0.908,1.046-1.238
		c0.554-0.33,0.88-0.602,0.974-0.813c0.188-0.4,0.242-0.759,0.16-1.08c-0.084-0.318-0.187-0.571-0.304-0.76
		c-0.116-0.189-0.316-0.354-0.603-0.495c-0.284-0.141-0.524-0.242-0.726-0.301c-0.2-0.061-0.42-0.111-0.655-0.16
		c-0.236-0.047-0.365-0.07-0.392-0.07c-0.188-0.071-0.437-0.113-0.741-0.124c-0.31-0.013-0.52,0.005-0.642,0.053
		c-0.113,0.047-0.275-0.018-0.477-0.194c-0.199-0.177-0.303-0.348-0.303-0.514c0-0.119,0.091-0.276,0.268-0.479
		c0.176-0.199,0.384-0.418,0.62-0.652c0.237-0.237,0.4-0.414,0.496-0.531c0.094-0.166,0.191-0.29,0.301-0.373
		c0.106-0.082,0.237-0.176,0.388-0.282c0.155-0.106,0.313-0.229,0.479-0.372c0.048-0.046,0.196-0.146,0.444-0.301
		C556.779,119.072,556.937,118.937,557.007,118.82L557.007,118.82 M555.732,132.866c0.781,0.234,1.534,0.354,2.269,0.354
		c1.512,0,2.845-0.4,4.003-1.201c-0.308-0.521-1.004-0.721-2.091-0.603c-0.283,0.022-0.666,0.124-1.15,0.302
		c-0.484,0.176-0.762,0.275-0.831,0.301c-0.873,0.188-1.322,0.281-1.347,0.281c-0.145,0.025-0.294,0.106-0.461,0.248
		C555.956,132.688,555.827,132.794,555.732,132.866L555.732,132.866"/>
	<path fill="#44BBFF" d="M522.211,142.997c9.389,0,17.001-7.604,17.001-16.981s-7.612-16.98-17.001-16.98
		c-9.388,0-16.999,7.603-16.999,16.98S512.823,142.997,522.211,142.997"/>
	<path fill="#FFFFFF" d="M530.705,122.271c-0.074,1.652-1.232,3.912-3.464,6.777c-2.312,2.996-4.272,4.494-5.873,4.494
		c-0.989,0-1.828-0.912-2.515-2.739c-0.46-1.677-0.915-3.353-1.374-5.026c-0.51-1.83-1.057-2.744-1.64-2.744
		c-0.126,0-0.57,0.268-1.334,0.801l-0.8-1.029c0.837-0.734,1.665-1.472,2.479-2.205c1.116-0.967,1.957-1.472,2.519-1.525
		c1.315-0.129,2.132,0.773,2.437,2.703c0.328,2.082,0.561,3.377,0.688,3.887c0.38,1.725,0.799,2.586,1.258,2.586
		c0.354,0,0.889-0.556,1.6-1.672c0.713-1.119,1.094-1.969,1.146-2.554c0.102-0.964-0.279-1.443-1.146-1.443
		c-0.404,0-0.824,0.085-1.258,0.266c0.84-2.716,2.441-4.038,4.803-3.96C529.983,118.935,530.811,120.065,530.705,122.271z"/>
	<path fill="#C4302B" d="M486.195,142.999c9.387,0,16.999-7.604,16.999-16.983c0-9.378-7.612-16.983-16.999-16.983
		c-9.391,0-17.001,7.604-17.001,16.983S476.806,142.999,486.195,142.999"/>
	<path fill="#FFFFFF" d="M489.496,126.024l-5.566,3.268v-6.535L489.496,126.024z M494.698,129.053v-6.076c0,0,0-2.928-2.935-2.928
		H480.62c0,0-2.933,0-2.933,2.928v6.076c0,0,0,2.928,2.933,2.928h11.144C491.765,131.98,494.698,131.98,494.698,129.053"/>
	<path fill="#00ACEE" d="M450.186,142.954c9.389,0,16.999-7.605,16.999-16.983s-7.61-16.983-16.999-16.983
		c-9.388,0-17.001,7.605-17.001,16.983C433.184,135.349,440.796,142.954,450.186,142.954"/>
	<path fill="#FFFFFF" d="M458.707,121.521c-0.628,0.278-1.301,0.466-2.008,0.55c0.723-0.434,1.275-1.116,1.535-1.93
		c-0.676,0.4-1.423,0.688-2.221,0.846c-0.635-0.679-1.544-1.101-2.549-1.101c-1.927,0-3.491,1.562-3.491,3.49
		c0,0.273,0.029,0.539,0.09,0.795c-2.902-0.146-5.477-1.533-7.2-3.647c-0.302,0.518-0.472,1.116-0.472,1.755
		c0,1.209,0.615,2.278,1.554,2.906c-0.571-0.018-1.112-0.177-1.582-0.438v0.043c0,1.692,1.204,3.102,2.803,3.423
		c-0.292,0.083-0.601,0.124-0.921,0.124c-0.225,0-0.444-0.021-0.655-0.062c0.444,1.387,1.734,2.396,3.261,2.42
		c-1.195,0.938-2.701,1.496-4.339,1.496c-0.282,0-0.56-0.016-0.832-0.047c1.545,0.987,3.385,1.566,5.354,1.566
		c6.428,0,9.939-5.316,9.939-9.93c0-0.152-0.004-0.303-0.01-0.452C457.646,122.837,458.24,122.222,458.707,121.521"/>
	<path fill="#34526F" d="M414.175,142.997c9.388,0,17-7.602,17-16.982c0-9.379-7.612-16.982-17-16.982s-17,7.604-17,16.982
		S404.787,142.997,414.175,142.997"/>
	<path fill="#FFFFFF" d="M414.587,117.519v4.295h4.036v2.666h-4.036v4.357c0,0.985,0.053,1.616,0.155,1.896
		c0.104,0.281,0.298,0.504,0.584,0.67c0.377,0.227,0.806,0.338,1.291,0.338c0.861,0,1.715-0.281,2.568-0.841v2.681
		c-0.729,0.342-1.386,0.582-1.973,0.719c-0.591,0.138-1.227,0.209-1.911,0.209c-0.778,0-1.467-0.1-2.062-0.295
		c-0.597-0.199-1.107-0.476-1.527-0.84c-0.422-0.361-0.715-0.751-0.877-1.158c-0.163-0.408-0.244-1.001-0.244-1.779v-5.959h-1.881
		v-2.401c0.67-0.218,1.242-0.529,1.717-0.933c0.476-0.404,0.86-0.891,1.147-1.46c0.287-0.565,0.485-1.29,0.596-2.167h2.417
		L414.587,117.519L414.587,117.519z"/>
	<path fill="#C8232C" d="M378.157,142.997c9.388,0,17-7.601,17-16.982c0-9.379-7.612-16.984-17-16.984c-9.389,0-17,7.605-17,16.984
		C361.157,135.396,368.77,142.997,378.157,142.997"/>
	<path fill="#FFFFFF" d="M378.158,117.475c-4.696,0-8.504,3.804-8.504,8.495c0,3.479,2.094,6.467,5.092,7.781
		c-0.025-0.592-0.005-1.306,0.146-1.951c0.164-0.688,1.095-4.629,1.095-4.629s-0.271-0.542-0.271-1.343c0-1.261,0.73-2.2,1.641-2.2
		c0.772,0,1.146,0.58,1.146,1.276c0,0.776-0.497,1.938-0.75,3.015c-0.213,0.9,0.452,1.637,1.342,1.637
		c1.611,0,2.696-2.068,2.696-4.516c0-1.862-1.256-3.256-3.538-3.256c-2.58,0-4.185,1.922-4.185,4.068
		c0,0.74,0.216,1.264,0.558,1.666c0.158,0.188,0.179,0.262,0.123,0.476c-0.041,0.155-0.134,0.531-0.173,0.682
		c-0.058,0.215-0.231,0.292-0.425,0.213c-1.188-0.485-1.742-1.784-1.742-3.245c0-2.414,2.038-5.309,6.077-5.309
		c3.248,0,5.384,2.348,5.384,4.868c0,3.333-1.854,5.821-4.589,5.821c-0.916,0-1.781-0.495-2.076-1.06c0,0-0.495,1.958-0.598,2.335
		c-0.181,0.654-0.532,1.308-0.858,1.818c0.767,0.227,1.573,0.35,2.412,0.35c4.696,0,8.503-3.805,8.503-8.496
		C386.661,121.278,382.854,117.475,378.158,117.475"/>
	<path fill="#0E76A8" d="M342.038,142.954c9.389,0,17-7.605,17-16.983s-7.611-16.983-17-16.983c-9.388,0-17,7.604-17,16.983
		C325.038,135.349,332.65,142.954,342.038,142.954"/>
	<path fill="#FFFFFF" d="M337.278,133.077h-3.314v-10.599h3.314V133.077z M335.537,121.152h-0.024c-1.2,0-1.977-0.811-1.977-1.835
		c0-1.049,0.801-1.842,2.024-1.842c1.223,0,1.974,0.793,1.999,1.837C337.558,120.34,336.783,121.152,335.537,121.152z
		 M350.542,133.077h-3.759v-5.484c0-1.436-0.587-2.414-1.882-2.414c-0.99,0-1.538,0.661-1.795,1.299
		c-0.096,0.229-0.08,0.549-0.08,0.867v5.734h-3.725c0,0,0.048-9.716,0-10.599h3.725v1.663c0.22-0.729,1.409-1.766,3.31-1.766
		c2.355,0,4.207,1.523,4.207,4.806L350.542,133.077L350.542,133.077z"/>
	<path fill="#3F729B" d="M306.021,143c9.388,0,17-7.604,17-16.984c0-9.379-7.612-16.984-17-16.984c-9.391,0-17,7.604-17,16.984
		S296.631,143,306.021,143"/>
	<path fill="#FFFFFF" d="M311.239,117.519h-10.435c-1.811,0-3.287,1.474-3.287,3.285v3.47v6.954c0,1.812,1.477,3.285,3.287,3.285
		h10.435c1.811,0,3.288-1.474,3.288-3.285v-6.954v-3.47C314.526,118.992,313.052,117.519,311.239,117.519z M312.183,119.478
		l0.376-0.001v0.374v2.506l-2.874,0.01l-0.01-2.881L312.183,119.478z M303.596,124.271c0.545-0.753,1.428-1.245,2.428-1.245
		c0.997,0,1.881,0.492,2.426,1.245c0.354,0.491,0.565,1.094,0.565,1.744c0,1.649-1.344,2.991-2.991,2.991
		c-1.651,0-2.994-1.342-2.994-2.991C303.029,125.364,303.241,124.763,303.596,124.271z M312.87,131.228
		c0,0.897-0.73,1.627-1.63,1.627h-10.435c-0.899,0-1.629-0.729-1.629-1.627v-6.956h2.539c-0.219,0.54-0.341,1.128-0.341,1.744
		c0,2.563,2.086,4.648,4.65,4.648c2.563,0,4.649-2.085,4.649-4.648c0-0.616-0.124-1.204-0.342-1.744h2.539v6.956H312.87z"/>
	<path fill="#DD4B39" d="M270.008,142.908c9.389,0,17-7.605,17-16.983c0-9.38-7.608-16.984-17-16.984c-9.388,0-17,7.604-17,16.984
		C253.007,135.303,260.62,142.908,270.008,142.908"/>
	<path fill="#FFFFFF" d="M267.194,133.532c-2.021,0-3.482-1.275-3.482-2.811c0-1.509,1.814-2.764,3.835-2.737
		c0.469,0.005,0.909,0.079,1.311,0.208c1.095,0.762,1.881,1.193,2.104,2.063c0.042,0.175,0.062,0.356,0.062,0.54
		C271.025,132.335,270.037,133.532,267.194,133.532 M267.725,124.527c-1.357-0.042-2.648-1.519-2.88-3.296
		c-0.237-1.779,0.676-3.143,2.029-3.102c1.357,0.038,2.648,1.469,2.885,3.247C269.991,123.155,269.083,124.569,267.725,124.527
		 M270.54,127.165c-0.477-0.336-1.387-1.152-1.387-1.639c0-0.563,0.161-0.842,1.008-1.506c0.875-0.682,1.49-1.634,1.49-2.744
		c0-1.322-0.59-2.617-1.698-3.045h1.668l1.178-0.85h-5.267c-2.362,0-4.582,1.788-4.582,3.861c0,2.115,1.611,3.824,4.013,3.824
		c0.166,0,0.329-0.005,0.486-0.018c-0.154,0.299-0.266,0.635-0.266,0.982c0,0.59,0.316,1.066,0.714,1.456
		c-0.303,0-0.594,0.009-0.913,0.009c-2.922,0-5.176,1.862-5.176,3.79c0,1.899,2.47,3.088,5.392,3.088c3.337,0,5.18-1.89,5.18-3.788
		C272.382,129.061,271.929,128.148,270.54,127.165 M278.205,124.685h-2.055v-2.049h-1.648v2.049h-2.051v1.646h2.051v2.048h1.648
		v-2.048h2.055V124.685z"/>
	<path fill="#FFFFFF" d="M233.99,142.955c9.387,0,17-7.605,17-16.984s-7.613-16.984-17-16.984c-9.39,0-17,7.604-17,16.984
		C216.99,135.35,224.6,142.955,233.99,142.955"/>
	<path d="M233.957,117.688c-4.694,0-8.5,3.802-8.5,8.491c0,3.752,2.435,6.936,5.813,8.059c0.425,0.076,0.58-0.185,0.58-0.408
		c0-0.203-0.006-0.737-0.012-1.447c-2.364,0.515-2.863-1.139-2.863-1.139c-0.387-0.98-0.943-1.241-0.943-1.241
		c-0.771-0.527,0.058-0.519,0.058-0.519c0.854,0.062,1.304,0.877,1.304,0.877c0.758,1.297,1.989,0.924,2.474,0.706
		c0.078-0.55,0.297-0.923,0.541-1.136c-1.888-0.215-3.873-0.942-3.873-4.195c0-0.928,0.332-1.686,0.875-2.279
		c-0.087-0.217-0.378-1.08,0.084-2.249c0,0,0.713-0.228,2.336,0.87c0.679-0.189,1.405-0.283,2.128-0.287
		c0.724,0.004,1.45,0.098,2.129,0.287c1.623-1.1,2.335-0.87,2.335-0.87c0.464,1.169,0.172,2.032,0.085,2.249
		c0.544,0.594,0.873,1.352,0.873,2.279c0,3.262-1.986,3.98-3.881,4.188c0.306,0.264,0.577,0.78,0.577,1.572
		c0,1.135-0.011,2.052-0.011,2.33c0,0.227,0.154,0.489,0.585,0.409c3.375-1.126,5.808-4.307,5.808-8.059
		C242.457,121.489,238.651,117.688,233.957,117.688z"/>
	<path fill="#FFFFFF" d="M198.085,142.944c9.387,0,17-7.604,17-16.982s-7.612-16.982-17-16.982c-9.389,0-17,7.604-17,16.982
		C181.083,135.341,188.696,142.944,198.085,142.944"/>
	<g>
		<path fill="#FF0084" d="M206.588,125.962c0,2.066-1.677,3.742-3.745,3.742c-2.072,0-3.748-1.678-3.748-3.742
			c0-2.066,1.676-3.744,3.748-3.744C204.914,122.218,206.588,123.896,206.588,125.962z"/>
		<path fill="#0063DC" d="M197.074,125.962c0,2.066-1.677,3.742-3.749,3.742c-2.068,0-3.744-1.678-3.744-3.742
			c0-2.066,1.676-3.744,3.744-3.744C195.397,122.218,197.074,123.896,197.074,125.962z"/>
	</g>
	<path fill="#3B5998" d="M162.066,142.946c9.39,0,17-7.604,17-16.984c0-9.379-7.61-16.983-17-16.983c-9.389,0-17,7.604-17,16.983
		C145.066,135.342,152.678,142.946,162.066,142.946"/>
	<path fill="#FFFFFF" d="M157.5,123.085h1.759v-1.705c0-0.752,0.019-1.914,0.566-2.633c0.576-0.762,1.368-1.279,2.729-1.279
		c2.218,0,3.152,0.316,3.152,0.316l-0.438,2.602c0,0-0.732-0.211-1.417-0.211s-1.296,0.244-1.296,0.928v1.985h2.805l-0.195,2.541
		h-2.609v8.831h-3.296v-8.831H157.5V123.085L157.5,123.085z"/>
	<path fill="#FDDD05" d="M126.051,142.946c9.388,0,17-7.604,17-16.984c0-9.379-7.612-16.983-17-16.983c-9.391,0-17,7.604-17,16.983
		C109.05,135.342,116.66,142.946,126.051,142.946"/>
	<path d="M134.551,123.593v7.525c0,0.418-0.148,0.774-0.446,1.07c-0.296,0.297-0.655,0.445-1.072,0.445h-13.965
		c-0.418,0-0.775-0.149-1.072-0.445c-0.296-0.296-0.445-0.654-0.445-1.07v-7.525c0.278,0.311,0.597,0.584,0.958,0.824
		c2.29,1.555,3.86,2.645,4.715,3.27c0.359,0.266,0.653,0.473,0.877,0.62c0.225,0.148,0.522,0.302,0.896,0.456
		c0.374,0.154,0.723,0.232,1.042,0.232h0.02c0.323,0,0.669-0.076,1.042-0.232c0.374-0.154,0.672-0.308,0.896-0.456
		c0.225-0.147,0.518-0.354,0.878-0.62c1.076-0.776,2.65-1.865,4.724-3.27C133.96,124.171,134.278,123.897,134.551,123.593z
		 M134.551,120.808c0,0.5-0.155,0.975-0.465,1.432c-0.31,0.455-0.696,0.842-1.157,1.167c-2.378,1.649-3.858,2.676-4.44,3.081
		c-0.063,0.043-0.199,0.139-0.403,0.287c-0.207,0.148-0.376,0.269-0.511,0.359c-0.136,0.092-0.301,0.195-0.494,0.309
		c-0.193,0.113-0.375,0.2-0.544,0.256c-0.171,0.057-0.33,0.084-0.476,0.084h-0.019c-0.144,0-0.302-0.027-0.474-0.084
		c-0.171-0.058-0.353-0.143-0.546-0.256c-0.192-0.113-0.357-0.217-0.493-0.309c-0.136-0.09-0.307-0.211-0.512-0.359
		c-0.206-0.148-0.34-0.244-0.402-0.287c-0.576-0.405-1.404-0.982-2.485-1.73c-1.082-0.75-1.73-1.2-1.945-1.351
		c-0.393-0.266-0.762-0.63-1.109-1.096c-0.349-0.466-0.522-0.895-0.522-1.294c0-0.492,0.131-0.902,0.395-1.232
		c0.263-0.33,0.638-0.494,1.124-0.494h13.965c0.411,0,0.767,0.148,1.067,0.445C134.4,120.03,134.551,120.39,134.551,120.808
		L134.551,120.808z"/>
	<path fill="#EA4C89" d="M90.034,142.955c9.389,0,17-7.605,17-16.984s-7.612-16.984-17-16.984c-9.39,0-17,7.604-17,16.984
		C73.033,135.35,80.643,142.955,90.034,142.955"/>
	<path fill="#FFFFFF" d="M98.364,124.26c-0.111-0.546-0.279-1.082-0.496-1.596c-0.213-0.505-0.479-0.99-0.785-1.442
		c-0.303-0.45-0.653-0.873-1.038-1.258c-0.385-0.384-0.808-0.732-1.258-1.037c-0.454-0.309-0.941-0.572-1.444-0.785
		c-0.515-0.217-1.052-0.383-1.6-0.494c-0.56-0.115-1.136-0.175-1.711-0.175c-0.576,0-1.152,0.058-1.712,0.175
		c-0.546,0.111-1.084,0.279-1.599,0.494c-0.503,0.212-0.99,0.477-1.445,0.785c-0.45,0.303-0.873,0.651-1.258,1.037
		c-0.384,0.383-0.733,0.808-1.038,1.258c-0.307,0.452-0.57,0.939-0.783,1.442c-0.219,0.513-0.385,1.051-0.496,1.596
		c-0.115,0.558-0.173,1.134-0.173,1.709s0.058,1.151,0.173,1.711c0.111,0.545,0.277,1.083,0.496,1.596
		c0.213,0.505,0.478,0.991,0.783,1.443c0.305,0.449,0.653,0.872,1.038,1.257c0.385,0.384,0.808,0.731,1.258,1.037
		c0.455,0.307,0.941,0.57,1.445,0.783c0.516,0.217,1.053,0.383,1.599,0.495c0.561,0.116,1.136,0.175,1.712,0.175
		c0.576,0,1.152-0.059,1.711-0.175c0.547-0.112,1.085-0.278,1.6-0.495c0.503-0.213,0.99-0.477,1.444-0.783
		c0.45-0.305,0.873-0.653,1.258-1.037c0.385-0.385,0.734-0.808,1.038-1.257c0.307-0.452,0.572-0.94,0.785-1.443
		c0.217-0.511,0.384-1.051,0.496-1.596c0.113-0.561,0.173-1.136,0.173-1.711C98.537,125.396,98.478,124.817,98.364,124.26z
		 M97.294,125.897c-0.104-0.023-2.562-0.553-5.058-0.238c-0.052-0.124-0.104-0.248-0.158-0.375c-0.15-0.356-0.313-0.709-0.482-1.054
		c2.868-1.169,4.031-2.853,4.046-2.872C96.66,122.598,97.276,124.177,97.294,125.897z M94.832,120.526
		c-0.019,0.027-1.053,1.602-3.794,2.627c-1.241-2.278-2.605-4.091-2.714-4.232c0.549-0.133,1.122-0.206,1.711-0.206
		C91.872,118.714,93.551,119.399,94.832,120.526z M88.293,118.925c-0.001,0-0.002,0-0.002,0s-0.007,0.003-0.021,0.006
		C88.279,118.93,88.286,118.929,88.293,118.925z M86.934,119.407c0.098,0.129,1.439,1.947,2.698,4.182
		c-3.488,0.926-6.514,0.889-6.707,0.885C83.396,122.226,84.908,120.364,86.934,119.407z M82.77,125.97
		c0-0.078,0.004-0.154,0.006-0.229c0.129,0.002,3.716,0.083,7.457-1.033c0.208,0.406,0.407,0.818,0.59,1.232
		c-0.096,0.027-0.19,0.057-0.286,0.088c-3.92,1.267-5.909,4.789-5.909,4.789l0.002,0.002C83.475,129.532,82.77,127.835,82.77,125.97
		z M90.034,133.227c-1.758,0-3.37-0.624-4.626-1.663c0.095,0.078,0.162,0.127,0.162,0.127s1.394-3.033,5.7-4.533
		c0.017-0.005,0.032-0.011,0.049-0.016c1.021,2.654,1.443,4.875,1.55,5.51C91.998,133.021,91.039,133.227,90.034,133.227z
		 M94.091,131.987c-0.073-0.438-0.461-2.567-1.414-5.184c2.345-0.375,4.377,0.27,4.527,0.318
		C96.88,129.145,95.723,130.89,94.091,131.987z"/>
	<path fill="#FC4F08" d="M54.016,142.901c9.389,0,17-7.606,17-16.984c0-9.38-7.612-16.983-17-16.983c-9.39,0-17,7.604-17,16.983
		S44.626,142.901,54.016,142.901"/>
	<path fill="#FFFFFF" d="M62.439,124.477l-0.142-0.294l-0.238-0.188c-0.313-0.244-1.893,0.017-2.321-0.37
		c-0.301-0.279-0.344-0.777-0.437-1.452c-0.17-1.312-0.279-1.382-0.483-1.824c-0.746-1.578-2.762-2.764-4.148-2.928h-3.758
		c-2.954,0-5.37,2.418-5.37,5.372v6.264c0,2.944,2.417,5.356,5.37,5.356h6.173c2.954,0,5.353-2.412,5.37-5.356l0.035-4.339
		L62.439,124.477z M50.981,121.81h2.978c0.569,0,1.03,0.459,1.03,1.022c0,0.562-0.46,1.026-1.03,1.026h-2.978
		c-0.569,0-1.028-0.465-1.028-1.026C49.955,122.269,50.412,121.81,50.981,121.81z M57.033,129.997h-6.05
		c-0.57,0-1.028-0.467-1.028-1.023c0-0.561,0.458-1.021,1.028-1.021h6.05c0.564,0,1.023,0.461,1.023,1.021
		C58.057,129.53,57.599,129.997,57.033,129.997z"/>
	<path fill="#005CFF" d="M18,142.901c9.39,0,17-7.606,17-16.984c0-9.38-7.61-16.983-17-16.983c-9.389,0-17,7.604-17,16.983
		S8.61,142.901,18,142.901"/>
	<path fill="#FFFFFF" d="M17.301,121.654c0.319,0.446,0.481,0.979,0.481,1.604c0,0.64-0.161,1.153-0.484,1.546
		c-0.183,0.218-0.45,0.417-0.804,0.597c0.537,0.196,0.94,0.505,1.214,0.928c0.273,0.422,0.41,0.934,0.41,1.538
		c0,0.621-0.155,1.181-0.47,1.675c-0.197,0.326-0.445,0.603-0.744,0.826c-0.334,0.258-0.729,0.433-1.187,0.528
		c-0.457,0.095-0.952,0.142-1.485,0.142H9.497v-10.5h5.081C15.858,120.555,16.766,120.927,17.301,121.654z M11.593,122.359v2.316
		h2.555c0.455,0,0.827-0.087,1.113-0.262c0.282-0.174,0.427-0.481,0.427-0.92c0-0.489-0.189-0.812-0.564-0.97
		c-0.325-0.11-0.739-0.164-1.242-0.164L11.593,122.359L11.593,122.359z M11.593,126.414v2.801h2.552
		c0.456,0,0.812-0.062,1.063-0.186c0.463-0.229,0.692-0.666,0.692-1.312c0-0.548-0.223-0.921-0.67-1.126
		c-0.25-0.113-0.6-0.175-1.05-0.178H11.593z M24.472,123.429c0.543,0.242,0.989,0.625,1.342,1.149
		c0.321,0.461,0.526,0.995,0.62,1.604c0.055,0.354,0.078,0.87,0.067,1.542H20.84c0.033,0.779,0.301,1.326,0.812,1.64
		c0.312,0.194,0.684,0.29,1.122,0.29c0.46,0,0.838-0.118,1.126-0.355c0.159-0.128,0.298-0.308,0.42-0.535h2.075
		c-0.056,0.46-0.308,0.929-0.754,1.405c-0.696,0.753-1.67,1.131-2.923,1.131c-1.036,0-1.948-0.317-2.738-0.954
		c-0.792-0.637-1.187-1.673-1.187-3.106c0-1.349,0.356-2.379,1.07-3.097c0.715-0.716,1.641-1.077,2.779-1.077
		C23.322,123.064,23.93,123.188,24.472,123.429z M21.431,125.183c-0.289,0.294-0.468,0.697-0.542,1.201h3.503
		c-0.037-0.539-0.219-0.946-0.541-1.229c-0.326-0.278-0.727-0.418-1.207-0.418C22.125,124.738,21.719,124.886,21.431,125.183z
		 M24.87,121.025h-4.505v1.306h4.505V121.025z"/>
</g>
<g id="Focus_1_">
	<path fill="#FFFFFF" d="M557.999,107.02c9.389,0,17.001-7.604,17.001-16.982s-7.612-16.982-17.001-16.982
		c-9.39,0-16.999,7.604-16.999,16.982S548.609,107.02,557.999,107.02"/>
	<path d="M558,81.497c2.362,0,4.369,0.832,6.02,2.495c1.654,1.663,2.48,3.662,2.48,5.998c0,2.358-0.825,4.363-2.48,6.016
		c-1.65,1.65-3.657,2.477-6.02,2.477c-2.338,0-4.338-0.826-6.001-2.477c-1.667-1.652-2.5-3.657-2.5-6.016
		c0-2.336,0.832-4.334,2.5-5.998C553.662,82.329,555.662,81.497,558,81.497L558,81.497 M565.26,89.989
		c0-1.556-0.46-2.966-1.381-4.228c-0.92-1.262-2.113-2.141-3.576-2.636c-0.213,0.283-0.307,0.472-0.283,0.565
		c0.047,0.448,0.152,0.751,0.318,0.902c0.166,0.154,0.342,0.195,0.531,0.125l0.564-0.213c0,0,0.118-0.012,0.354-0.035
		c0.26,0.283,0.26,0.561,0,0.831c-0.261,0.271-0.526,0.602-0.797,0.991c-0.273,0.39-0.278,0.844-0.021,1.363
		c0.402,0.753,0.969,1.132,1.702,1.132c0.33,0.022,0.583,0.235,0.762,0.636c0.178,0.401,0.277,0.791,0.302,1.168
		c0.114,0.943,0.032,1.77-0.248,2.477c-0.261,0.521-0.179,0.967,0.248,1.346C564.754,93.092,565.26,91.616,565.26,89.989
		L565.26,89.989 M557.008,82.843c-1.322,0.165-2.498,0.659-3.524,1.485c-1.025,0.826-1.775,1.854-2.248,3.078
		c0.07,0,0.2,0.014,0.391,0.036c0.188,0.022,0.354,0.041,0.496,0.053c0.144,0.013,0.295,0.037,0.462,0.071
		c0.163,0.037,0.307,0.083,0.423,0.143c0.12,0.061,0.188,0.135,0.213,0.23c0.047,0.141-0.035,0.406-0.247,0.797
		c-0.212,0.39-0.317,0.749-0.317,1.078c0,0.354,0.225,0.686,0.675,0.992c0.445,0.307,0.673,0.577,0.673,0.814
		c0,0.329,0.046,0.73,0.142,1.201c0.096,0.473,0.143,0.732,0.143,0.779c0,0.142,0.214,0.461,0.641,0.956
		c0.422,0.495,0.729,0.744,0.918,0.744c0.119,0,0.187-0.131,0.196-0.39c0.011-0.26,0-0.578-0.035-0.955
		c-0.037-0.377-0.054-0.614-0.054-0.707c0-0.379,0.083-0.814,0.247-1.311c0.144-0.496,0.488-0.908,1.046-1.238
		c0.554-0.33,0.88-0.602,0.974-0.813c0.188-0.4,0.242-0.759,0.16-1.08c-0.084-0.318-0.187-0.571-0.304-0.76
		c-0.116-0.189-0.316-0.354-0.603-0.495c-0.284-0.141-0.524-0.242-0.726-0.301c-0.2-0.061-0.42-0.111-0.655-0.16
		c-0.236-0.047-0.365-0.07-0.392-0.07c-0.188-0.071-0.437-0.113-0.741-0.124c-0.31-0.013-0.52,0.005-0.642,0.053
		c-0.113,0.047-0.275-0.018-0.477-0.194c-0.199-0.177-0.303-0.348-0.303-0.514c0-0.119,0.091-0.276,0.268-0.479
		c0.176-0.199,0.384-0.418,0.62-0.652c0.237-0.237,0.4-0.414,0.496-0.531c0.094-0.166,0.191-0.29,0.301-0.373
		c0.106-0.082,0.237-0.176,0.388-0.282c0.155-0.106,0.313-0.229,0.479-0.372c0.048-0.046,0.196-0.146,0.444-0.301
		C556.78,83.095,556.938,82.959,557.008,82.843L557.008,82.843 M555.733,96.889c0.781,0.234,1.534,0.354,2.269,0.354
		c1.512,0,2.845-0.4,4.003-1.201c-0.308-0.521-1.004-0.721-2.091-0.603c-0.283,0.022-0.666,0.124-1.15,0.302
		c-0.484,0.176-0.762,0.275-0.831,0.301c-0.873,0.188-1.322,0.281-1.347,0.281c-0.145,0.025-0.294,0.106-0.461,0.248
		C555.957,96.711,555.828,96.816,555.733,96.889L555.733,96.889"/>
	<path fill="#FFFFFF" d="M522.212,107.02c9.389,0,17.001-7.604,17.001-16.981s-7.612-16.98-17.001-16.98
		c-9.388,0-16.999,7.603-16.999,16.98S512.824,107.02,522.212,107.02"/>
	<path d="M530.706,86.293c-0.074,1.652-1.232,3.912-3.464,6.777c-2.312,2.996-4.272,4.494-5.873,4.494
		c-0.989,0-1.828-0.912-2.515-2.739c-0.46-1.677-0.915-3.353-1.374-5.026c-0.51-1.83-1.057-2.744-1.64-2.744
		c-0.126,0-0.57,0.268-1.334,0.801l-0.8-1.029c0.837-0.734,1.665-1.472,2.479-2.205c1.116-0.967,1.957-1.472,2.519-1.525
		c1.315-0.129,2.132,0.773,2.437,2.703c0.328,2.082,0.561,3.377,0.688,3.887c0.38,1.725,0.799,2.586,1.258,2.586
		c0.354,0,0.889-0.556,1.6-1.672c0.713-1.119,1.094-1.969,1.146-2.554c0.102-0.964-0.279-1.443-1.146-1.443
		c-0.404,0-0.824,0.085-1.258,0.266c0.84-2.716,2.441-4.038,4.803-3.96C529.984,82.957,530.812,84.088,530.706,86.293z"/>
	<path fill="#FFFFFF" d="M486.196,107.021c9.387,0,16.999-7.604,16.999-16.983c0-9.378-7.612-16.983-16.999-16.983
		c-9.391,0-17.001,7.604-17.001,16.983S476.807,107.021,486.196,107.021"/>
	<path d="M489.497,90.047l-5.566,3.268v-6.535L489.497,90.047z M494.699,93.075v-6.076c0,0,0-2.928-2.935-2.928h-11.144
		c0,0-2.933,0-2.933,2.928v6.076c0,0,0,2.928,2.933,2.928h11.144C491.766,96.003,494.699,96.003,494.699,93.075"/>
	<path fill="#FFFFFF" d="M450.187,106.977c9.389,0,16.999-7.605,16.999-16.983s-7.61-16.983-16.999-16.983
		c-9.388,0-17.001,7.605-17.001,16.983C433.185,99.371,440.797,106.977,450.187,106.977"/>
	<path d="M458.708,85.543c-0.628,0.278-1.301,0.466-2.008,0.55c0.723-0.434,1.275-1.116,1.535-1.93
		c-0.676,0.4-1.423,0.688-2.221,0.846c-0.635-0.679-1.544-1.101-2.549-1.101c-1.927,0-3.491,1.562-3.491,3.49
		c0,0.273,0.029,0.539,0.09,0.795c-2.902-0.146-5.477-1.533-7.2-3.647c-0.302,0.518-0.472,1.116-0.472,1.755
		c0,1.209,0.615,2.278,1.554,2.906c-0.571-0.018-1.112-0.177-1.582-0.438v0.043c0,1.692,1.204,3.102,2.803,3.423
		c-0.292,0.083-0.601,0.124-0.921,0.124c-0.225,0-0.444-0.021-0.655-0.062c0.444,1.387,1.734,2.396,3.261,2.42
		c-1.195,0.938-2.701,1.496-4.339,1.496c-0.282,0-0.56-0.016-0.832-0.047c1.545,0.987,3.385,1.566,5.354,1.566
		c6.428,0,9.939-5.316,9.939-9.93c0-0.152-0.004-0.303-0.01-0.452C457.647,86.859,458.241,86.244,458.708,85.543"/>
	<path fill="#FFFFFF" d="M414.176,107.02c9.388,0,17-7.602,17-16.982c0-9.379-7.612-16.982-17-16.982s-17,7.604-17,16.982
		S404.788,107.02,414.176,107.02"/>
	<path d="M414.588,81.541v4.295h4.036v2.666h-4.036v4.357c0,0.985,0.053,1.616,0.155,1.896c0.104,0.281,0.298,0.504,0.584,0.67
		c0.377,0.227,0.806,0.338,1.291,0.338c0.861,0,1.715-0.281,2.568-0.841v2.681c-0.729,0.342-1.386,0.582-1.973,0.719
		c-0.591,0.138-1.227,0.209-1.911,0.209c-0.778,0-1.467-0.1-2.062-0.295c-0.597-0.199-1.107-0.476-1.527-0.84
		c-0.422-0.361-0.715-0.751-0.877-1.158c-0.163-0.408-0.244-1.001-0.244-1.779V88.5h-1.881v-2.401
		c0.67-0.218,1.242-0.529,1.717-0.933c0.476-0.404,0.86-0.891,1.147-1.46c0.287-0.565,0.485-1.29,0.596-2.167h2.417L414.588,81.541
		L414.588,81.541z"/>
	<path fill="#FFFFFF" d="M378.158,107.02c9.388,0,17-7.601,17-16.982c0-9.379-7.612-16.984-17-16.984c-9.389,0-17,7.605-17,16.984
		C361.158,99.419,368.771,107.02,378.158,107.02"/>
	<path d="M378.159,81.497c-4.696,0-8.504,3.804-8.504,8.495c0,3.479,2.094,6.467,5.092,7.781c-0.025-0.592-0.005-1.306,0.146-1.951
		c0.164-0.688,1.095-4.629,1.095-4.629s-0.271-0.542-0.271-1.343c0-1.261,0.73-2.2,1.641-2.2c0.772,0,1.146,0.58,1.146,1.276
		c0,0.776-0.497,1.938-0.75,3.015c-0.213,0.9,0.452,1.637,1.342,1.637c1.611,0,2.696-2.068,2.696-4.516
		c0-1.862-1.256-3.256-3.538-3.256c-2.58,0-4.185,1.922-4.185,4.068c0,0.74,0.216,1.264,0.558,1.666
		c0.158,0.188,0.179,0.262,0.123,0.476c-0.041,0.155-0.134,0.531-0.173,0.682c-0.058,0.215-0.231,0.292-0.425,0.213
		c-1.188-0.485-1.742-1.784-1.742-3.245c0-2.414,2.038-5.309,6.077-5.309c3.248,0,5.384,2.348,5.384,4.868
		c0,3.333-1.854,5.821-4.589,5.821c-0.916,0-1.781-0.495-2.076-1.06c0,0-0.495,1.958-0.598,2.335
		c-0.181,0.654-0.532,1.308-0.858,1.818c0.767,0.227,1.573,0.35,2.412,0.35c4.696,0,8.503-3.805,8.503-8.496
		C386.662,85.301,382.854,81.497,378.159,81.497"/>
	<path fill="#FFFFFF" d="M342.039,106.977c9.389,0,17-7.605,17-16.983s-7.611-16.983-17-16.983c-9.388,0-17,7.604-17,16.983
		C325.039,99.371,332.651,106.977,342.039,106.977"/>
	<path d="M337.279,97.1h-3.314V86.501h3.314V97.1z M335.538,85.175h-0.024c-1.2,0-1.977-0.811-1.977-1.835
		c0-1.049,0.801-1.842,2.024-1.842c1.223,0,1.974,0.793,1.999,1.837C337.559,84.362,336.784,85.175,335.538,85.175z M350.543,97.1
		h-3.759v-5.484c0-1.436-0.587-2.414-1.882-2.414c-0.99,0-1.538,0.661-1.795,1.299c-0.096,0.229-0.08,0.549-0.08,0.867v5.734h-3.725
		c0,0,0.048-9.716,0-10.599h3.725v1.663c0.22-0.729,1.409-1.766,3.31-1.766c2.355,0,4.207,1.523,4.207,4.806L350.543,97.1
		L350.543,97.1z"/>
	<path fill="#FFFFFF" d="M306.022,107.022c9.388,0,17-7.604,17-16.984c0-9.379-7.612-16.984-17-16.984c-9.391,0-17,7.604-17,16.984
		S296.632,107.022,306.022,107.022"/>
	<path d="M311.24,81.541h-10.435c-1.811,0-3.287,1.474-3.287,3.285v3.47v6.954c0,1.812,1.477,3.285,3.287,3.285h10.435
		c1.811,0,3.288-1.474,3.288-3.285v-6.954v-3.47C314.527,83.015,313.053,81.541,311.24,81.541z M312.184,83.5l0.376-0.001v0.374
		v2.506l-2.874,0.01l-0.01-2.881L312.184,83.5z M303.597,88.294c0.545-0.753,1.428-1.245,2.428-1.245
		c0.997,0,1.881,0.492,2.426,1.245c0.354,0.491,0.565,1.094,0.565,1.744c0,1.649-1.344,2.991-2.991,2.991
		c-1.651,0-2.994-1.342-2.994-2.991C303.03,89.387,303.242,88.785,303.597,88.294z M312.871,95.25c0,0.897-0.73,1.627-1.63,1.627
		h-10.435c-0.899,0-1.629-0.729-1.629-1.627v-6.956h2.539c-0.219,0.54-0.341,1.128-0.341,1.744c0,2.563,2.086,4.648,4.65,4.648
		c2.563,0,4.649-2.085,4.649-4.648c0-0.616-0.124-1.204-0.342-1.744h2.539v6.956H312.871z"/>
	<path fill="#FFFFFF" d="M270.009,106.931c9.389,0,17-7.605,17-16.983c0-9.38-7.608-16.984-17-16.984c-9.388,0-17,7.604-17,16.984
		C253.008,99.325,260.621,106.931,270.009,106.931"/>
	<path d="M267.195,97.555c-2.021,0-3.482-1.275-3.482-2.811c0-1.509,1.814-2.764,3.835-2.737c0.469,0.005,0.909,0.079,1.311,0.208
		c1.095,0.762,1.881,1.193,2.104,2.063c0.042,0.175,0.062,0.356,0.062,0.54C271.026,96.357,270.038,97.555,267.195,97.555
		 M267.726,88.55c-1.357-0.042-2.648-1.519-2.88-3.296c-0.237-1.779,0.676-3.143,2.029-3.102c1.357,0.038,2.648,1.469,2.885,3.247
		C269.992,87.178,269.084,88.592,267.726,88.55 M270.541,91.188c-0.477-0.336-1.387-1.152-1.387-1.639
		c0-0.563,0.161-0.842,1.008-1.506c0.875-0.682,1.49-1.634,1.49-2.744c0-1.322-0.59-2.617-1.698-3.045h1.668l1.178-0.85h-5.267
		c-2.362,0-4.582,1.788-4.582,3.861c0,2.115,1.611,3.824,4.013,3.824c0.166,0,0.329-0.005,0.486-0.018
		c-0.154,0.299-0.266,0.635-0.266,0.982c0,0.59,0.316,1.066,0.714,1.456c-0.303,0-0.594,0.009-0.913,0.009
		c-2.922,0-5.176,1.862-5.176,3.79c0,1.899,2.47,3.088,5.392,3.088c3.337,0,5.18-1.89,5.18-3.788
		C272.383,93.083,271.93,92.171,270.541,91.188 M278.206,88.707h-2.055v-2.049h-1.648v2.049h-2.051v1.646h2.051v2.048h1.648v-2.048
		h2.055V88.707z"/>
	<path fill="#FFFFFF" d="M233.991,106.978c9.387,0,17-7.605,17-16.984s-7.613-16.984-17-16.984c-9.39,0-17,7.604-17,16.984
		C216.991,99.372,224.601,106.978,233.991,106.978"/>
	<path d="M233.958,81.71c-4.694,0-8.5,3.802-8.5,8.491c0,3.752,2.435,6.936,5.813,8.059c0.425,0.076,0.58-0.185,0.58-0.408
		c0-0.203-0.006-0.737-0.012-1.447c-2.364,0.515-2.863-1.139-2.863-1.139c-0.387-0.98-0.943-1.241-0.943-1.241
		c-0.771-0.527,0.058-0.519,0.058-0.519c0.854,0.062,1.304,0.877,1.304,0.877c0.758,1.297,1.989,0.924,2.474,0.706
		c0.078-0.55,0.297-0.923,0.541-1.136c-1.888-0.215-3.873-0.942-3.873-4.195c0-0.928,0.332-1.686,0.875-2.279
		c-0.087-0.217-0.378-1.08,0.084-2.249c0,0,0.713-0.228,2.336,0.87c0.679-0.189,1.405-0.283,2.128-0.287
		c0.724,0.004,1.45,0.098,2.129,0.287c1.623-1.1,2.335-0.87,2.335-0.87c0.464,1.169,0.172,2.032,0.085,2.249
		c0.544,0.594,0.873,1.352,0.873,2.279c0,3.262-1.986,3.98-3.881,4.188c0.306,0.264,0.577,0.78,0.577,1.572
		c0,1.135-0.011,2.052-0.011,2.33c0,0.227,0.154,0.489,0.585,0.409c3.375-1.126,5.808-4.307,5.808-8.059
		C242.458,85.512,238.652,81.71,233.958,81.71z"/>
	<path fill="#FFFFFF" d="M198.086,106.967c9.387,0,17-7.604,17-16.982s-7.612-16.982-17-16.982c-9.389,0-17,7.604-17,16.982
		C181.084,99.363,188.697,106.967,198.086,106.967"/>
	<g>
		<path d="M206.589,89.984c0,2.066-1.677,3.742-3.745,3.742c-2.072,0-3.748-1.678-3.748-3.742c0-2.066,1.676-3.744,3.748-3.744
			C204.915,86.24,206.589,87.918,206.589,89.984z"/>
		<path d="M197.075,89.984c0,2.066-1.677,3.742-3.749,3.742c-2.068,0-3.744-1.678-3.744-3.742c0-2.066,1.676-3.744,3.744-3.744
			C195.398,86.24,197.075,87.918,197.075,89.984z"/>
	</g>
	<path fill="#FFFFFF" d="M162.067,106.969c9.39,0,17-7.604,17-16.984c0-9.379-7.61-16.983-17-16.983c-9.389,0-17,7.604-17,16.983
		C145.067,99.364,152.679,106.969,162.067,106.969"/>
	<path d="M157.501,87.107h1.759v-1.705c0-0.752,0.019-1.914,0.566-2.633c0.576-0.762,1.368-1.279,2.729-1.279
		c2.218,0,3.152,0.316,3.152,0.316l-0.438,2.602c0,0-0.732-0.211-1.417-0.211s-1.296,0.244-1.296,0.928v1.985h2.805l-0.195,2.541
		h-2.609v8.831h-3.296v-8.831h-1.759V87.107L157.501,87.107z"/>
	<path fill="#FFFFFF" d="M126.052,106.969c9.388,0,17-7.604,17-16.984c0-9.379-7.612-16.983-17-16.983c-9.391,0-17,7.604-17,16.983
		C109.051,99.364,116.661,106.969,126.052,106.969"/>
	<path d="M134.552,87.615v7.525c0,0.418-0.148,0.774-0.446,1.07c-0.296,0.297-0.655,0.445-1.072,0.445h-13.965
		c-0.418,0-0.775-0.149-1.072-0.445c-0.296-0.296-0.445-0.654-0.445-1.07v-7.525c0.278,0.311,0.597,0.584,0.958,0.824
		c2.29,1.555,3.86,2.645,4.715,3.27c0.359,0.266,0.653,0.473,0.877,0.62c0.225,0.148,0.522,0.302,0.896,0.456
		c0.374,0.154,0.723,0.232,1.042,0.232h0.02c0.323,0,0.669-0.076,1.042-0.232c0.374-0.154,0.672-0.308,0.896-0.456
		c0.225-0.147,0.518-0.354,0.878-0.62c1.076-0.776,2.65-1.865,4.724-3.27C133.961,88.193,134.279,87.92,134.552,87.615z
		 M134.552,84.83c0,0.5-0.155,0.975-0.465,1.432c-0.31,0.455-0.696,0.842-1.157,1.167c-2.378,1.649-3.858,2.676-4.44,3.081
		c-0.063,0.043-0.199,0.139-0.403,0.287c-0.207,0.148-0.376,0.269-0.511,0.359c-0.136,0.092-0.301,0.195-0.494,0.309
		c-0.193,0.113-0.375,0.2-0.544,0.256c-0.171,0.057-0.33,0.084-0.476,0.084h-0.019c-0.144,0-0.302-0.027-0.474-0.084
		c-0.171-0.058-0.353-0.143-0.546-0.256c-0.192-0.113-0.357-0.217-0.493-0.309c-0.136-0.09-0.307-0.211-0.512-0.359
		c-0.206-0.148-0.34-0.244-0.402-0.287c-0.576-0.405-1.404-0.982-2.485-1.73c-1.082-0.75-1.73-1.2-1.945-1.351
		c-0.393-0.266-0.762-0.63-1.109-1.096c-0.349-0.466-0.522-0.895-0.522-1.294c0-0.492,0.131-0.902,0.395-1.232
		c0.263-0.33,0.638-0.494,1.124-0.494h13.965c0.411,0,0.767,0.148,1.067,0.445C134.401,84.053,134.552,84.412,134.552,84.83
		L134.552,84.83z"/>
	<path fill="#FFFFFF" d="M90.035,106.978c9.389,0,17-7.605,17-16.984s-7.612-16.984-17-16.984c-9.39,0-17,7.604-17,16.984
		C73.034,99.372,80.644,106.978,90.035,106.978"/>
	<path d="M98.365,88.282c-0.111-0.546-0.279-1.082-0.496-1.596c-0.213-0.505-0.479-0.99-0.785-1.442
		c-0.303-0.45-0.653-0.873-1.038-1.258c-0.385-0.384-0.808-0.732-1.258-1.037c-0.454-0.309-0.941-0.572-1.444-0.785
		c-0.515-0.217-1.052-0.383-1.6-0.494c-0.56-0.115-1.136-0.175-1.711-0.175c-0.576,0-1.152,0.058-1.712,0.175
		c-0.546,0.111-1.084,0.279-1.599,0.494c-0.503,0.212-0.99,0.477-1.445,0.785c-0.45,0.303-0.873,0.651-1.258,1.037
		c-0.384,0.383-0.733,0.808-1.038,1.258c-0.307,0.452-0.57,0.939-0.783,1.442c-0.219,0.513-0.385,1.051-0.496,1.596
		c-0.115,0.558-0.173,1.134-0.173,1.709s0.058,1.151,0.173,1.711c0.111,0.545,0.277,1.083,0.496,1.596
		c0.213,0.505,0.478,0.991,0.783,1.443c0.305,0.449,0.653,0.872,1.038,1.257c0.385,0.384,0.808,0.731,1.258,1.037
		c0.455,0.307,0.941,0.57,1.445,0.783c0.516,0.217,1.053,0.383,1.599,0.495c0.561,0.116,1.136,0.175,1.712,0.175
		c0.576,0,1.152-0.059,1.711-0.175c0.547-0.112,1.085-0.278,1.6-0.495c0.503-0.213,0.99-0.477,1.444-0.783
		c0.45-0.305,0.873-0.653,1.258-1.037c0.385-0.385,0.734-0.808,1.038-1.257c0.307-0.452,0.572-0.94,0.785-1.443
		c0.217-0.511,0.384-1.051,0.496-1.596c0.113-0.561,0.173-1.136,0.173-1.711C98.538,89.418,98.479,88.84,98.365,88.282z
		 M97.295,89.92c-0.104-0.023-2.562-0.553-5.058-0.238c-0.052-0.124-0.104-0.248-0.158-0.375c-0.15-0.356-0.313-0.709-0.482-1.054
		c2.868-1.169,4.031-2.853,4.046-2.872C96.661,86.62,97.277,88.199,97.295,89.92z M94.833,84.549
		c-0.019,0.027-1.053,1.602-3.794,2.627c-1.241-2.278-2.605-4.091-2.714-4.232c0.549-0.133,1.122-0.206,1.711-0.206
		C91.873,82.736,93.552,83.422,94.833,84.549z M88.294,82.947c-0.001,0-0.002,0-0.002,0s-0.007,0.003-0.021,0.006
		C88.28,82.952,88.287,82.951,88.294,82.947z M86.935,83.43c0.098,0.129,1.439,1.947,2.698,4.182
		c-3.488,0.926-6.514,0.889-6.707,0.885C83.397,86.248,84.909,84.387,86.935,83.43z M82.771,89.992c0-0.078,0.004-0.154,0.006-0.229
		c0.129,0.002,3.716,0.083,7.457-1.033c0.208,0.406,0.407,0.818,0.59,1.232c-0.096,0.027-0.19,0.057-0.286,0.088
		c-3.92,1.267-5.909,4.789-5.909,4.789l0.002,0.002C83.476,93.555,82.771,91.857,82.771,89.992z M90.035,97.249
		c-1.758,0-3.37-0.624-4.626-1.663c0.095,0.078,0.162,0.127,0.162,0.127s1.394-3.033,5.7-4.533c0.017-0.005,0.032-0.011,0.049-0.016
		c1.021,2.654,1.443,4.875,1.55,5.51C91.999,97.043,91.04,97.249,90.035,97.249z M94.092,96.01
		c-0.073-0.438-0.461-2.567-1.414-5.184c2.345-0.375,4.377,0.27,4.527,0.318C96.881,93.167,95.724,94.912,94.092,96.01z"/>
	<path fill="#FFFFFF" d="M54.017,106.924c9.389,0,17-7.606,17-16.984c0-9.38-7.612-16.983-17-16.983c-9.39,0-17,7.604-17,16.983
		S44.627,106.924,54.017,106.924"/>
	<path d="M62.44,88.499l-0.142-0.294l-0.238-0.188c-0.313-0.244-1.893,0.017-2.321-0.37c-0.301-0.279-0.344-0.777-0.437-1.452
		c-0.17-1.312-0.279-1.382-0.483-1.824c-0.746-1.578-2.762-2.764-4.148-2.928h-3.758c-2.954,0-5.37,2.418-5.37,5.372v6.264
		c0,2.944,2.417,5.356,5.37,5.356h6.173c2.954,0,5.353-2.412,5.37-5.356l0.035-4.339L62.44,88.499z M50.982,85.832h2.978
		c0.569,0,1.03,0.459,1.03,1.022c0,0.562-0.46,1.026-1.03,1.026h-2.978c-0.569,0-1.028-0.465-1.028-1.026
		C49.956,86.291,50.413,85.832,50.982,85.832z M57.034,94.02h-6.05c-0.57,0-1.028-0.467-1.028-1.023
		c0-0.561,0.458-1.021,1.028-1.021h6.05c0.564,0,1.023,0.461,1.023,1.021C58.058,93.553,57.6,94.02,57.034,94.02z"/>
	<path fill="#FFFFFF" d="M18.001,106.924c9.39,0,17-7.606,17-16.984c0-9.38-7.61-16.983-17-16.983c-9.389,0-17,7.604-17,16.983
		S8.611,106.924,18.001,106.924"/>
	<path d="M17.302,85.677c0.319,0.446,0.481,0.979,0.481,1.604c0,0.64-0.161,1.153-0.484,1.546c-0.183,0.218-0.45,0.417-0.804,0.597
		c0.537,0.196,0.94,0.505,1.214,0.928c0.273,0.422,0.41,0.934,0.41,1.538c0,0.621-0.155,1.181-0.47,1.675
		c-0.197,0.326-0.445,0.603-0.744,0.826c-0.334,0.258-0.729,0.433-1.187,0.528c-0.457,0.095-0.952,0.142-1.485,0.142H9.498v-10.5
		h5.081C15.859,84.577,16.767,84.949,17.302,85.677z M11.594,86.382v2.316h2.555c0.455,0,0.827-0.087,1.113-0.262
		c0.282-0.174,0.427-0.481,0.427-0.92c0-0.489-0.189-0.812-0.564-0.97c-0.325-0.11-0.739-0.164-1.242-0.164L11.594,86.382
		L11.594,86.382z M11.594,90.437v2.801h2.552c0.456,0,0.812-0.062,1.063-0.186c0.463-0.229,0.692-0.666,0.692-1.312
		c0-0.548-0.223-0.921-0.67-1.126c-0.25-0.113-0.6-0.175-1.05-0.178H11.594z M24.473,87.451c0.543,0.242,0.989,0.625,1.342,1.149
		c0.321,0.461,0.526,0.995,0.62,1.604c0.055,0.354,0.078,0.87,0.067,1.542h-5.661c0.033,0.779,0.301,1.326,0.812,1.64
		c0.312,0.194,0.684,0.29,1.122,0.29c0.46,0,0.838-0.118,1.126-0.355c0.159-0.128,0.298-0.308,0.42-0.535h2.075
		c-0.056,0.46-0.308,0.929-0.754,1.405c-0.696,0.753-1.67,1.131-2.923,1.131c-1.036,0-1.948-0.317-2.738-0.954
		c-0.792-0.637-1.187-1.673-1.187-3.106c0-1.349,0.356-2.379,1.07-3.097c0.715-0.716,1.641-1.077,2.779-1.077
		C23.323,87.087,23.931,87.21,24.473,87.451z M21.432,89.205c-0.289,0.294-0.468,0.697-0.542,1.201h3.503
		c-0.037-0.539-0.219-0.946-0.541-1.229c-0.326-0.278-0.727-0.418-1.207-0.418C22.125,88.761,21.72,88.908,21.432,89.205z
		 M24.871,85.048h-4.505v1.306h4.505V85.048z"/>
</g>
<g id="Hover">
	<path fill="#FCDD00" d="M557.999,71.02c9.389,0,17.001-7.604,17.001-16.983c0-9.378-7.612-16.983-17.001-16.983
		c-9.39,0-16.999,7.604-16.999,16.983C541,63.417,548.609,71.02,557.999,71.02"/>
	<path d="M558,45.497c2.362,0,4.369,0.832,6.02,2.495c1.654,1.663,2.48,3.663,2.48,5.998c0,2.358-0.825,4.363-2.48,6.015
		c-1.65,1.65-3.657,2.478-6.02,2.478c-2.338,0-4.338-0.826-6.001-2.478c-1.667-1.652-2.5-3.657-2.5-6.015
		c0-2.335,0.832-4.334,2.5-5.998C553.662,46.329,555.662,45.497,558,45.497L558,45.497 M565.26,53.989
		c0-1.556-0.46-2.966-1.381-4.227c-0.92-1.263-2.113-2.142-3.576-2.636c-0.213,0.283-0.307,0.472-0.283,0.565
		c0.047,0.448,0.152,0.751,0.318,0.903c0.166,0.153,0.342,0.195,0.531,0.125l0.564-0.213c0,0,0.118-0.011,0.354-0.035
		c0.26,0.283,0.26,0.561,0,0.831c-0.261,0.271-0.526,0.602-0.797,0.992c-0.273,0.389-0.278,0.843-0.021,1.362
		c0.402,0.753,0.969,1.132,1.702,1.132c0.33,0.022,0.583,0.235,0.762,0.636c0.178,0.401,0.277,0.791,0.302,1.167
		c0.114,0.944,0.032,1.77-0.248,2.478c-0.261,0.52-0.179,0.967,0.248,1.345C564.754,57.092,565.26,55.616,565.26,53.989
		L565.26,53.989 M557.008,46.843c-1.322,0.165-2.498,0.66-3.524,1.486c-1.025,0.826-1.775,1.853-2.248,3.077
		c0.07,0,0.2,0.014,0.391,0.037c0.188,0.022,0.354,0.041,0.496,0.053c0.144,0.012,0.295,0.037,0.462,0.071
		c0.163,0.037,0.307,0.083,0.423,0.143c0.12,0.06,0.188,0.135,0.213,0.23c0.047,0.141-0.035,0.407-0.247,0.797
		s-0.317,0.75-0.317,1.079c0,0.354,0.225,0.685,0.675,0.991c0.445,0.307,0.673,0.578,0.673,0.814c0,0.33,0.046,0.73,0.142,1.202
		c0.096,0.472,0.143,0.732,0.143,0.779c0,0.141,0.214,0.46,0.641,0.956c0.422,0.495,0.729,0.744,0.918,0.744
		c0.119,0,0.187-0.131,0.196-0.39c0.011-0.259,0-0.578-0.035-0.955c-0.037-0.376-0.054-0.614-0.054-0.708
		c0-0.378,0.083-0.813,0.247-1.31c0.144-0.496,0.488-0.909,1.046-1.239c0.554-0.33,0.88-0.602,0.974-0.813
		c0.188-0.4,0.242-0.759,0.16-1.08c-0.084-0.318-0.187-0.572-0.304-0.76c-0.116-0.189-0.316-0.354-0.603-0.495
		c-0.284-0.141-0.524-0.243-0.726-0.301c-0.2-0.061-0.42-0.112-0.655-0.16c-0.236-0.047-0.365-0.07-0.392-0.07
		c-0.188-0.072-0.437-0.113-0.741-0.125c-0.31-0.013-0.52,0.005-0.642,0.053c-0.113,0.047-0.275-0.018-0.477-0.194
		c-0.199-0.177-0.303-0.349-0.303-0.515c0-0.118,0.091-0.276,0.268-0.478c0.176-0.199,0.384-0.418,0.62-0.653
		c0.237-0.237,0.4-0.414,0.496-0.531c0.094-0.165,0.191-0.29,0.301-0.373c0.106-0.082,0.237-0.176,0.388-0.282
		c0.155-0.107,0.313-0.229,0.479-0.373c0.048-0.045,0.196-0.146,0.444-0.301C556.78,47.095,556.938,46.959,557.008,46.843
		L557.008,46.843 M555.733,60.889c0.781,0.234,1.534,0.353,2.269,0.353c1.512,0,2.845-0.401,4.003-1.202
		c-0.308-0.52-1.004-0.72-2.091-0.602c-0.283,0.023-0.666,0.125-1.15,0.301c-0.484,0.176-0.762,0.276-0.831,0.301
		c-0.873,0.189-1.322,0.282-1.347,0.282c-0.145,0.025-0.294,0.106-0.461,0.247C555.957,60.711,555.828,60.816,555.733,60.889
		L555.733,60.889"/>
	<path fill="#FCDD00" d="M522.212,71.02c9.389,0,17.001-7.604,17.001-16.982s-7.612-16.98-17.001-16.98
		c-9.388,0-16.999,7.603-16.999,16.98C505.213,63.417,512.824,71.02,522.212,71.02"/>
	<path d="M530.706,50.293c-0.074,1.652-1.232,3.912-3.464,6.777c-2.312,2.996-4.272,4.494-5.873,4.494
		c-0.989,0-1.828-0.912-2.515-2.739c-0.46-1.677-0.915-3.352-1.374-5.027c-0.51-1.829-1.057-2.743-1.64-2.743
		c-0.126,0-0.57,0.268-1.334,0.801l-0.8-1.029c0.837-0.734,1.665-1.472,2.479-2.206c1.116-0.966,1.957-1.472,2.519-1.525
		c1.315-0.129,2.132,0.774,2.437,2.703c0.328,2.083,0.561,3.377,0.688,3.887c0.38,1.726,0.799,2.587,1.258,2.587
		c0.354,0,0.889-0.556,1.6-1.673c0.713-1.118,1.094-1.968,1.146-2.553c0.102-0.964-0.279-1.443-1.146-1.443
		c-0.404,0-0.824,0.085-1.258,0.266c0.84-2.716,2.441-4.038,4.803-3.96C529.984,46.957,530.812,48.087,530.706,50.293z"/>
	<path fill="#FCDD00" d="M486.196,71.022c9.387,0,16.999-7.604,16.999-16.984c0-9.378-7.612-16.984-16.999-16.984
		c-9.391,0-17.001,7.604-17.001,16.984S476.807,71.022,486.196,71.022"/>
	<path d="M489.497,54.046l-5.566,3.269v-6.536L489.497,54.046z M494.699,57.075v-6.076c0,0,0-2.928-2.935-2.928h-11.144
		c0,0-2.933,0-2.933,2.928v6.076c0,0,0,2.928,2.933,2.928h11.144C491.766,60.003,494.699,60.003,494.699,57.075"/>
	<path fill="#FCDD00" d="M450.187,70.977c9.389,0,16.999-7.605,16.999-16.984s-7.61-16.984-16.999-16.984
		c-9.388,0-17.001,7.605-17.001,16.984C433.185,63.372,440.797,70.977,450.187,70.977"/>
	<path d="M458.708,49.543c-0.628,0.278-1.301,0.466-2.008,0.55c0.723-0.434,1.275-1.116,1.535-1.93
		c-0.676,0.4-1.423,0.689-2.221,0.846c-0.635-0.679-1.544-1.101-2.549-1.101c-1.927,0-3.491,1.562-3.491,3.491
		c0,0.274,0.029,0.54,0.09,0.794c-2.902-0.145-5.477-1.533-7.2-3.647c-0.302,0.518-0.472,1.117-0.472,1.754
		c0,1.21,0.615,2.279,1.554,2.906c-0.571-0.018-1.112-0.176-1.582-0.437v0.042c0,1.692,1.204,3.102,2.803,3.423
		c-0.292,0.083-0.601,0.124-0.921,0.124c-0.225,0-0.444-0.021-0.655-0.062c0.444,1.387,1.734,2.396,3.261,2.421
		c-1.195,0.938-2.701,1.496-4.339,1.496c-0.282,0-0.56-0.016-0.832-0.048c1.545,0.988,3.385,1.567,5.354,1.567
		c6.428,0,9.939-5.316,9.939-9.93c0-0.152-0.004-0.303-0.01-0.452C457.647,50.859,458.241,50.244,458.708,49.543"/>
	<path fill="#FCDD00" d="M414.176,71.02c9.388,0,17-7.602,17-16.983c0-9.378-7.612-16.983-17-16.983s-17,7.604-17,16.983
		C397.176,63.417,404.788,71.02,414.176,71.02"/>
	<path d="M414.588,45.542v4.294h4.036v2.667h-4.036v4.357c0,0.985,0.053,1.616,0.155,1.896c0.104,0.281,0.298,0.504,0.584,0.67
		c0.377,0.226,0.806,0.337,1.291,0.337c0.861,0,1.715-0.281,2.568-0.84v2.681c-0.729,0.341-1.386,0.581-1.973,0.718
		c-0.591,0.138-1.227,0.208-1.911,0.208c-0.778,0-1.467-0.1-2.062-0.295c-0.597-0.199-1.107-0.475-1.527-0.839
		c-0.422-0.361-0.715-0.751-0.877-1.158c-0.163-0.409-0.244-1.001-0.244-1.78V52.5h-1.881v-2.402
		c0.67-0.218,1.242-0.529,1.717-0.933c0.476-0.403,0.86-0.89,1.147-1.459c0.287-0.565,0.485-1.29,0.596-2.167h2.417L414.588,45.542
		L414.588,45.542z"/>
	<path fill="#FCDD00" d="M378.158,71.02c9.388,0,17-7.601,17-16.983c0-9.378-7.612-16.984-17-16.984c-9.389,0-17,7.604-17,16.984
		C361.158,63.419,368.771,71.02,378.158,71.02"/>
	<path d="M378.159,45.497c-4.696,0-8.504,3.804-8.504,8.496c0,3.479,2.094,6.467,5.092,7.781c-0.025-0.592-0.005-1.306,0.146-1.951
		c0.164-0.688,1.095-4.629,1.095-4.629s-0.271-0.542-0.271-1.343c0-1.261,0.73-2.2,1.641-2.2c0.772,0,1.146,0.58,1.146,1.276
		c0,0.776-0.497,1.938-0.75,3.014c-0.213,0.901,0.452,1.637,1.342,1.637c1.611,0,2.696-2.068,2.696-4.516
		c0-1.862-1.256-3.256-3.538-3.256c-2.58,0-4.185,1.922-4.185,4.069c0,0.74,0.216,1.263,0.558,1.666
		c0.158,0.187,0.179,0.261,0.123,0.475c-0.041,0.155-0.134,0.531-0.173,0.682c-0.058,0.215-0.231,0.292-0.425,0.213
		c-1.188-0.485-1.742-1.785-1.742-3.246c0-2.413,2.038-5.308,6.077-5.308c3.248,0,5.384,2.347,5.384,4.868
		c0,3.333-1.854,5.821-4.589,5.821c-0.916,0-1.781-0.495-2.076-1.059c0,0-0.495,1.958-0.598,2.334
		c-0.181,0.655-0.532,1.308-0.858,1.819c0.767,0.226,1.573,0.35,2.412,0.35c4.696,0,8.503-3.805,8.503-8.497
		C386.662,49.301,382.854,45.497,378.159,45.497"/>
	<path fill="#FCDD00" d="M342.039,70.977c9.389,0,17-7.605,17-16.984s-7.611-16.984-17-16.984c-9.388,0-17,7.604-17,16.984
		C325.039,63.372,332.651,70.977,342.039,70.977"/>
	<path d="M337.279,61.1h-3.314V50.501h3.314V61.1z M335.538,49.175h-0.024c-1.2,0-1.977-0.811-1.977-1.835
		c0-1.048,0.801-1.842,2.024-1.842c1.223,0,1.974,0.793,1.999,1.837C337.559,48.362,336.784,49.175,335.538,49.175z M350.543,61.1
		h-3.759v-5.485c0-1.435-0.587-2.413-1.882-2.413c-0.99,0-1.538,0.661-1.795,1.299c-0.096,0.229-0.08,0.548-0.08,0.866v5.735h-3.725
		c0,0,0.048-9.716,0-10.599h3.725v1.663c0.22-0.729,1.409-1.766,3.31-1.766c2.355,0,4.207,1.524,4.207,4.806L350.543,61.1
		L350.543,61.1z"/>
	<path fill="#FCDD00" d="M306.022,71.022c9.388,0,17-7.604,17-16.984c0-9.379-7.612-16.984-17-16.984c-9.391,0-17,7.604-17,16.984
		S296.632,71.022,306.022,71.022"/>
	<path d="M311.24,45.541h-10.435c-1.811,0-3.287,1.474-3.287,3.285v3.47v6.954c0,1.812,1.477,3.285,3.287,3.285h10.435
		c1.811,0,3.288-1.474,3.288-3.285v-6.954v-3.47C314.527,47.015,313.053,45.541,311.24,45.541z M312.184,47.5l0.376-0.001v0.375
		v2.506l-2.874,0.009l-0.01-2.88L312.184,47.5z M303.597,52.294c0.545-0.753,1.428-1.245,2.428-1.245
		c0.997,0,1.881,0.492,2.426,1.245c0.354,0.492,0.565,1.094,0.565,1.744c0,1.649-1.344,2.991-2.991,2.991
		c-1.651,0-2.994-1.342-2.994-2.991C303.03,53.387,303.242,52.786,303.597,52.294z M312.871,59.25c0,0.897-0.73,1.627-1.63,1.627
		h-10.435c-0.899,0-1.629-0.729-1.629-1.627v-6.956h2.539c-0.219,0.54-0.341,1.128-0.341,1.744c0,2.563,2.086,4.648,4.65,4.648
		c2.563,0,4.649-2.084,4.649-4.648c0-0.616-0.124-1.204-0.342-1.744h2.539v6.956H312.871z"/>
	<path fill="#FCDD00" d="M270.009,70.931c9.389,0,17-7.605,17-16.983c0-9.38-7.608-16.984-17-16.984c-9.388,0-17,7.604-17,16.984
		C253.008,63.325,260.621,70.931,270.009,70.931"/>
	<path d="M267.195,61.555c-2.021,0-3.482-1.276-3.482-2.811c0-1.509,1.814-2.763,3.835-2.737c0.469,0.005,0.909,0.079,1.311,0.208
		c1.095,0.763,1.881,1.194,2.104,2.064c0.042,0.174,0.062,0.357,0.062,0.54C271.026,60.357,270.038,61.555,267.195,61.555
		 M267.726,52.55c-1.357-0.042-2.648-1.518-2.88-3.295c-0.237-1.78,0.676-3.143,2.029-3.102c1.357,0.038,2.648,1.468,2.885,3.247
		C269.992,51.178,269.084,52.591,267.726,52.55 M270.541,55.187c-0.477-0.335-1.387-1.152-1.387-1.638
		c0-0.563,0.161-0.841,1.008-1.505c0.875-0.682,1.49-1.634,1.49-2.745c0-1.323-0.59-2.617-1.698-3.044h1.668l1.178-0.85h-5.267
		c-2.362,0-4.582,1.788-4.582,3.861c0,2.115,1.611,3.825,4.013,3.825c0.166,0,0.329-0.005,0.486-0.018
		c-0.154,0.299-0.266,0.634-0.266,0.982c0,0.589,0.316,1.065,0.714,1.456c-0.303,0-0.594,0.008-0.913,0.008
		c-2.922,0-5.176,1.863-5.176,3.791c0,1.899,2.47,3.088,5.392,3.088c3.337,0,5.18-1.89,5.18-3.788
		C272.383,57.083,271.93,56.171,270.541,55.187 M278.206,52.708h-2.055v-2.049h-1.648v2.049h-2.051v1.646h2.051v2.048h1.648v-2.047
		h2.055V52.708z"/>
	<path fill="#FCDD00" d="M233.991,70.978c9.387,0,17-7.605,17-16.984s-7.613-16.984-17-16.984c-9.39,0-17,7.604-17,16.984
		C216.991,63.372,224.601,70.978,233.991,70.978"/>
	<path d="M233.958,45.71c-4.694,0-8.5,3.802-8.5,8.492c0,3.752,2.435,6.935,5.813,8.058c0.425,0.077,0.58-0.185,0.58-0.409
		c0-0.203-0.006-0.737-0.012-1.447c-2.364,0.515-2.863-1.138-2.863-1.138c-0.387-0.98-0.943-1.242-0.943-1.242
		c-0.771-0.527,0.058-0.518,0.058-0.518c0.854,0.062,1.304,0.876,1.304,0.876c0.758,1.298,1.989,0.924,2.474,0.707
		c0.078-0.55,0.297-0.923,0.541-1.135c-1.888-0.216-3.873-0.943-3.873-4.196c0-0.928,0.332-1.685,0.875-2.28
		c-0.087-0.216-0.378-1.08,0.084-2.249c0,0,0.713-0.228,2.336,0.87c0.679-0.189,1.405-0.282,2.128-0.287
		c0.724,0.004,1.45,0.098,2.129,0.287c1.623-1.099,2.335-0.87,2.335-0.87c0.464,1.168,0.172,2.033,0.085,2.249
		c0.544,0.595,0.873,1.352,0.873,2.28c0,3.262-1.986,3.98-3.881,4.188c0.306,0.264,0.577,0.78,0.577,1.572
		c0,1.135-0.011,2.052-0.011,2.33c0,0.227,0.154,0.49,0.585,0.409c3.375-1.126,5.808-4.307,5.808-8.058
		C242.458,49.512,238.652,45.71,233.958,45.71z"/>
	<path fill="#FCDD00" d="M198.086,70.967c9.387,0,17-7.604,17-16.983s-7.612-16.983-17-16.983c-9.389,0-17,7.604-17,16.983
		C181.084,63.364,188.697,70.967,198.086,70.967"/>
	<g>
		<path d="M206.589,53.984c0,2.067-1.677,3.743-3.745,3.743c-2.072,0-3.748-1.678-3.748-3.743c0-2.066,1.676-3.744,3.748-3.744
			C204.915,50.241,206.589,51.918,206.589,53.984z"/>
		<path d="M197.075,53.984c0,2.067-1.677,3.743-3.749,3.743c-2.068,0-3.744-1.678-3.744-3.743c0-2.066,1.676-3.744,3.744-3.744
			C195.398,50.241,197.075,51.918,197.075,53.984z"/>
	</g>
	<path fill="#FCDD00" d="M162.067,70.969c9.39,0,17-7.604,17-16.984c0-9.379-7.61-16.983-17-16.983c-9.389,0-17,7.604-17,16.983
		C145.067,63.364,152.679,70.969,162.067,70.969"/>
	<path d="M157.501,51.108h1.759v-1.706c0-0.752,0.019-1.914,0.566-2.633c0.576-0.762,1.368-1.278,2.729-1.278
		c2.218,0,3.152,0.315,3.152,0.315l-0.438,2.602c0,0-0.732-0.211-1.417-0.211s-1.296,0.245-1.296,0.929v1.985h2.805l-0.195,2.541
		h-2.609v8.831h-3.296v-8.831h-1.759V51.108L157.501,51.108z"/>
	<path fill="#FCDD00" d="M126.052,70.969c9.388,0,17-7.604,17-16.984c0-9.379-7.612-16.983-17-16.983c-9.391,0-17,7.604-17,16.983
		C109.051,63.364,116.661,70.969,126.052,70.969"/>
	<path d="M134.552,51.616v7.524c0,0.418-0.148,0.775-0.446,1.071c-0.296,0.297-0.655,0.445-1.072,0.445h-13.965
		c-0.418,0-0.775-0.149-1.072-0.445c-0.296-0.296-0.445-0.655-0.445-1.071v-7.524c0.278,0.31,0.597,0.584,0.958,0.824
		c2.29,1.554,3.86,2.645,4.715,3.27c0.359,0.266,0.653,0.472,0.877,0.62c0.225,0.148,0.522,0.301,0.896,0.456
		c0.374,0.155,0.723,0.232,1.042,0.232h0.02c0.323,0,0.669-0.076,1.042-0.232c0.374-0.154,0.672-0.307,0.896-0.456
		c0.225-0.148,0.518-0.354,0.878-0.62c1.076-0.776,2.65-1.866,4.724-3.27C133.961,52.193,134.279,51.919,134.552,51.616z
		 M134.552,48.83c0,0.5-0.155,0.975-0.465,1.432c-0.31,0.456-0.696,0.843-1.157,1.167c-2.378,1.65-3.858,2.676-4.44,3.081
		c-0.063,0.043-0.199,0.139-0.403,0.288c-0.207,0.148-0.376,0.269-0.511,0.359c-0.136,0.092-0.301,0.196-0.494,0.309
		c-0.193,0.113-0.375,0.2-0.544,0.255c-0.171,0.057-0.33,0.085-0.476,0.085h-0.019c-0.144,0-0.302-0.028-0.474-0.085
		s-0.353-0.142-0.546-0.255c-0.192-0.113-0.357-0.217-0.493-0.309c-0.136-0.089-0.307-0.21-0.512-0.359
		c-0.206-0.148-0.34-0.244-0.402-0.288c-0.576-0.405-1.404-0.981-2.485-1.73c-1.082-0.75-1.73-1.2-1.945-1.35
		c-0.393-0.266-0.762-0.63-1.109-1.096c-0.349-0.466-0.522-0.895-0.522-1.294c0-0.492,0.131-0.903,0.395-1.232
		c0.263-0.33,0.638-0.494,1.124-0.494h13.965c0.411,0,0.767,0.148,1.067,0.445C134.401,48.053,134.552,48.413,134.552,48.83
		L134.552,48.83z"/>
	<path fill="#FCDD00" d="M90.035,70.978c9.389,0,17-7.605,17-16.984s-7.612-16.984-17-16.984c-9.39,0-17,7.604-17,16.984
		C73.034,63.372,80.644,70.978,90.035,70.978"/>
	<path d="M98.365,52.282c-0.111-0.546-0.279-1.082-0.496-1.596c-0.213-0.504-0.479-0.99-0.785-1.442
		c-0.303-0.45-0.653-0.874-1.038-1.258c-0.385-0.384-0.808-0.732-1.258-1.038c-0.454-0.308-0.941-0.571-1.444-0.785
		c-0.515-0.216-1.052-0.383-1.6-0.494c-0.56-0.115-1.136-0.174-1.711-0.174c-0.576,0-1.152,0.058-1.712,0.174
		c-0.546,0.111-1.084,0.279-1.599,0.494c-0.503,0.212-0.99,0.477-1.445,0.785c-0.45,0.303-0.873,0.652-1.258,1.038
		c-0.384,0.383-0.733,0.808-1.038,1.258c-0.307,0.452-0.57,0.939-0.783,1.442c-0.219,0.512-0.385,1.051-0.496,1.596
		c-0.115,0.558-0.173,1.134-0.173,1.709c0,0.576,0.058,1.152,0.173,1.711c0.111,0.545,0.277,1.083,0.496,1.596
		c0.213,0.504,0.478,0.991,0.783,1.443c0.305,0.449,0.653,0.872,1.038,1.256c0.385,0.384,0.808,0.732,1.258,1.038
		c0.455,0.307,0.941,0.57,1.445,0.783c0.516,0.218,1.053,0.384,1.599,0.496c0.561,0.116,1.136,0.174,1.712,0.174
		c0.576,0,1.152-0.058,1.711-0.174c0.547-0.112,1.085-0.278,1.6-0.496c0.503-0.213,0.99-0.476,1.444-0.783
		c0.45-0.305,0.873-0.653,1.258-1.038c0.385-0.385,0.734-0.807,1.038-1.256c0.307-0.452,0.572-0.94,0.785-1.443
		c0.217-0.511,0.384-1.051,0.496-1.596c0.113-0.561,0.173-1.135,0.173-1.711C98.538,53.417,98.479,52.84,98.365,52.282z
		 M97.295,53.919c-0.104-0.023-2.562-0.552-5.058-0.237c-0.052-0.125-0.104-0.248-0.158-0.375c-0.15-0.357-0.313-0.709-0.482-1.054
		c2.868-1.169,4.031-2.852,4.046-2.872C96.661,50.62,97.277,52.199,97.295,53.919z M94.833,48.549
		c-0.019,0.027-1.053,1.601-3.794,2.626c-1.241-2.278-2.605-4.09-2.714-4.232c0.549-0.133,1.122-0.206,1.711-0.206
		C91.873,46.736,93.552,47.422,94.833,48.549z M88.294,46.947c-0.001,0-0.002,0-0.002,0s-0.007,0.003-0.021,0.006
		C88.28,46.952,88.287,46.951,88.294,46.947z M86.935,47.43c0.098,0.129,1.439,1.947,2.698,4.181
		c-3.488,0.927-6.514,0.889-6.707,0.885C83.397,50.249,84.909,48.386,86.935,47.43z M82.771,53.992c0-0.078,0.004-0.154,0.006-0.229
		c0.129,0.002,3.716,0.083,7.457-1.033c0.208,0.407,0.407,0.819,0.59,1.232c-0.096,0.027-0.19,0.056-0.286,0.087
		c-3.92,1.267-5.909,4.79-5.909,4.79l0.002,0.002C83.476,57.555,82.771,55.857,82.771,53.992z M90.035,61.249
		c-1.758,0-3.37-0.625-4.626-1.663c0.095,0.078,0.162,0.126,0.162,0.126s1.394-3.033,5.7-4.533c0.017-0.004,0.032-0.01,0.049-0.016
		c1.021,2.654,1.443,4.875,1.55,5.51C91.999,61.043,91.04,61.249,90.035,61.249z M94.092,60.01
		c-0.073-0.438-0.461-2.568-1.414-5.184c2.345-0.375,4.377,0.269,4.527,0.318C96.881,57.167,95.724,58.912,94.092,60.01z"/>
	<path fill="#FCDD00" d="M54.017,70.924c9.389,0,17-7.606,17-16.984c0-9.38-7.612-16.983-17-16.983c-9.39,0-17,7.604-17,16.983
		S44.627,70.924,54.017,70.924"/>
	<path d="M62.44,52.499l-0.142-0.294l-0.238-0.187c-0.313-0.245-1.893,0.017-2.321-0.37c-0.301-0.279-0.344-0.777-0.437-1.453
		c-0.17-1.312-0.279-1.381-0.483-1.823c-0.746-1.578-2.762-2.764-4.148-2.928h-3.758c-2.954,0-5.37,2.418-5.37,5.372v6.264
		c0,2.944,2.417,5.356,5.37,5.356h6.173c2.954,0,5.353-2.412,5.37-5.356l0.035-4.339L62.44,52.499z M50.982,49.832h2.978
		c0.569,0,1.03,0.459,1.03,1.023c0,0.562-0.46,1.026-1.03,1.026h-2.978c-0.569,0-1.028-0.465-1.028-1.026
		C49.956,50.291,50.413,49.832,50.982,49.832z M57.034,58.019h-6.05c-0.57,0-1.028-0.466-1.028-1.023
		c0-0.561,0.458-1.021,1.028-1.021h6.05c0.564,0,1.023,0.46,1.023,1.021C58.058,57.553,57.6,58.019,57.034,58.019z"/>
	<path fill="#FCDD00" d="M18.001,70.924c9.39,0,17-7.606,17-16.984c0-9.38-7.61-16.983-17-16.983c-9.389,0-17,7.604-17,16.983
		S8.611,70.924,18.001,70.924"/>
	<path d="M17.302,49.677c0.319,0.446,0.481,0.979,0.481,1.604c0,0.64-0.161,1.153-0.484,1.546c-0.183,0.218-0.45,0.417-0.804,0.597
		c0.537,0.196,0.94,0.505,1.214,0.928c0.273,0.422,0.41,0.934,0.41,1.538c0,0.621-0.155,1.181-0.47,1.675
		c-0.197,0.326-0.445,0.603-0.744,0.826c-0.334,0.258-0.729,0.433-1.187,0.528c-0.457,0.095-0.952,0.142-1.485,0.142H9.498v-10.5
		h5.081C15.859,48.577,16.767,48.949,17.302,49.677z M11.594,50.382v2.316h2.555c0.455,0,0.827-0.087,1.113-0.262
		c0.282-0.174,0.427-0.481,0.427-0.92c0-0.489-0.189-0.812-0.564-0.97c-0.325-0.11-0.739-0.164-1.242-0.164L11.594,50.382
		L11.594,50.382z M11.594,54.437v2.801h2.552c0.456,0,0.812-0.062,1.063-0.186c0.463-0.229,0.692-0.666,0.692-1.312
		c0-0.548-0.223-0.921-0.67-1.126c-0.25-0.113-0.6-0.175-1.05-0.178H11.594z M24.473,51.451c0.543,0.242,0.989,0.625,1.342,1.149
		c0.321,0.461,0.526,0.995,0.62,1.604c0.055,0.354,0.078,0.87,0.067,1.542h-5.661c0.033,0.779,0.301,1.326,0.812,1.64
		c0.312,0.194,0.684,0.29,1.122,0.29c0.46,0,0.838-0.118,1.126-0.355c0.159-0.128,0.298-0.308,0.42-0.535h2.075
		c-0.056,0.46-0.308,0.929-0.754,1.405c-0.696,0.753-1.67,1.131-2.923,1.131c-1.036,0-1.948-0.317-2.738-0.954
		c-0.792-0.637-1.187-1.673-1.187-3.106c0-1.349,0.356-2.379,1.07-3.097c0.715-0.716,1.641-1.077,2.779-1.077
		C23.323,51.087,23.931,51.21,24.473,51.451z M21.432,53.205c-0.289,0.294-0.468,0.697-0.542,1.201h3.503
		c-0.037-0.539-0.219-0.946-0.541-1.229c-0.326-0.278-0.727-0.418-1.207-0.418C22.125,52.761,21.72,52.908,21.432,53.205z
		 M24.871,49.048h-4.505v1.306h4.505V49.048z"/>
</g>
<g id="Default">
	<g id="Website">
		<path fill="#FFFFFF" d="M558.006,34.022c8.837,0,16.001-7.157,16.001-15.985c0-8.827-7.164-15.984-16.001-15.984
			c-8.838,0-16,7.157-16,15.984C542.006,26.865,549.168,34.022,558.006,34.022"/>
		<path fill="#2B2A28" d="M558.007,9.999c2.224,0,4.112,0.783,5.666,2.349c1.557,1.565,2.334,3.447,2.334,5.645
			c0,2.22-0.776,4.107-2.334,5.661c-1.554,1.554-3.442,2.332-5.666,2.332c-2.2,0-4.083-0.777-5.648-2.332
			c-1.568-1.554-2.353-3.441-2.353-5.661c0-2.198,0.783-4.079,2.353-5.645C553.924,10.782,555.807,9.999,558.007,9.999
			L558.007,9.999 M564.84,17.992c0-1.465-0.433-2.792-1.3-3.979c-0.866-1.188-1.989-2.015-3.366-2.481
			c-0.2,0.267-0.288,0.444-0.267,0.533c0.045,0.422,0.144,0.706,0.3,0.849c0.156,0.144,0.322,0.184,0.5,0.117l0.531-0.2
			c0,0,0.111-0.011,0.334-0.033c0.244,0.266,0.244,0.528,0,0.782c-0.245,0.255-0.495,0.566-0.75,0.933
			c-0.258,0.367-0.262,0.794-0.02,1.283c0.379,0.709,0.912,1.065,1.603,1.065c0.311,0.022,0.549,0.222,0.717,0.599
			c0.167,0.378,0.261,0.744,0.284,1.099c0.107,0.888,0.03,1.666-0.233,2.332c-0.246,0.489-0.169,0.91,0.233,1.265
			C564.363,20.912,564.84,19.524,564.84,17.992L564.84,17.992 M557.073,11.265c-1.245,0.156-2.352,0.622-3.317,1.399
			c-0.965,0.777-1.671,1.744-2.116,2.897c0.066,0,0.188,0.012,0.368,0.034c0.177,0.021,0.333,0.039,0.467,0.05
			c0.135,0.011,0.277,0.034,0.435,0.067c0.153,0.034,0.289,0.078,0.398,0.134c0.112,0.056,0.177,0.127,0.2,0.216
			c0.044,0.133-0.033,0.383-0.232,0.75c-0.2,0.367-0.299,0.705-0.299,1.016c0,0.333,0.211,0.644,0.635,0.933
			c0.419,0.289,0.634,0.544,0.634,0.766c0,0.311,0.043,0.688,0.133,1.132c0.09,0.444,0.135,0.688,0.135,0.733
			c0,0.133,0.201,0.433,0.603,0.9c0.397,0.466,0.686,0.7,0.864,0.7c0.111,0,0.175-0.123,0.185-0.367s0-0.544-0.033-0.898
			c-0.035-0.355-0.051-0.578-0.051-0.666c0-0.356,0.078-0.766,0.232-1.233c0.136-0.466,0.46-0.855,0.984-1.166
			c0.521-0.31,0.828-0.566,0.917-0.766c0.177-0.377,0.228-0.715,0.15-1.016c-0.079-0.3-0.176-0.538-0.286-0.715
			c-0.109-0.178-0.298-0.333-0.566-0.466c-0.268-0.133-0.494-0.228-0.684-0.283c-0.188-0.056-0.395-0.105-0.616-0.151
			c-0.223-0.044-0.344-0.066-0.369-0.066c-0.176-0.067-0.41-0.106-0.697-0.117c-0.291-0.012-0.489,0.005-0.604,0.05
			c-0.107,0.044-0.26-0.017-0.449-0.183c-0.188-0.167-0.284-0.328-0.284-0.484c0-0.111,0.085-0.26,0.251-0.449
			c0.166-0.188,0.361-0.394,0.584-0.616c0.224-0.222,0.377-0.389,0.467-0.5c0.089-0.155,0.181-0.272,0.283-0.35
			c0.101-0.078,0.224-0.166,0.365-0.266c0.146-0.1,0.295-0.216,0.451-0.35c0.045-0.043,0.185-0.138,0.418-0.283
			C556.858,11.503,557.007,11.375,557.073,11.265L557.073,11.265 M555.873,24.486c0.735,0.221,1.444,0.333,2.136,0.333
			c1.423,0,2.678-0.377,3.768-1.132c-0.29-0.489-0.945-0.677-1.968-0.566c-0.267,0.021-0.627,0.117-1.083,0.283
			s-0.717,0.26-0.782,0.283c-0.821,0.178-1.244,0.266-1.268,0.266c-0.136,0.023-0.276,0.1-0.434,0.233
			C556.084,24.319,555.963,24.418,555.873,24.486L555.873,24.486"/>
	</g>
	<g id="Vimeo">
		<path fill="#FFFFFF" d="M522.219,34.022c8.837,0,16.001-7.157,16.001-15.984s-7.164-15.982-16.001-15.982
			c-8.836,0-16,7.156-16,15.982C506.219,26.865,513.383,34.022,522.219,34.022"/>
		<path fill="#2B2A28" d="M530.214,14.514c-0.07,1.555-1.16,3.681-3.261,6.378c-2.177,2.82-4.021,4.23-5.527,4.23
			c-0.932,0-1.721-0.858-2.367-2.578c-0.433-1.578-0.861-3.156-1.293-4.731c-0.479-1.722-0.994-2.582-1.543-2.582
			c-0.119,0-0.537,0.251-1.256,0.753l-0.753-0.969c0.788-0.691,1.567-1.385,2.333-2.076c1.051-0.909,1.842-1.385,2.37-1.435
			c1.238-0.121,2.007,0.729,2.294,2.544c0.309,1.96,0.527,3.179,0.646,3.658c0.357,1.624,0.752,2.435,1.184,2.435
			c0.333,0,0.837-0.524,1.506-1.575c0.671-1.052,1.029-1.852,1.079-2.403c0.096-0.907-0.263-1.359-1.079-1.359
			c-0.381,0-0.775,0.081-1.184,0.25c0.79-2.556,2.298-3.8,4.521-3.727C529.534,11.373,530.312,12.437,530.214,14.514z"/>
	</g>
	<g id="YouTube">
		<path fill="#FFFFFF" d="M486.203,34.023c8.835,0,15.999-7.157,15.999-15.985c0-8.827-7.164-15.985-15.999-15.985
			c-8.839,0-16.002,7.157-16.002,15.985S477.365,34.023,486.203,34.023"/>
		<path fill="#2B2A28" d="M489.31,18.046l-5.239,3.076v-6.151L489.31,18.046z M494.206,20.896v-5.718c0,0,0-2.756-2.762-2.756
			h-10.488c0,0-2.761,0-2.761,2.756v5.718c0,0,0,2.756,2.761,2.756h10.488C491.445,23.652,494.206,23.652,494.206,20.896"/>
	</g>
	<g id="Twitter">
		<path fill="#FFFFFF" d="M450.193,33.978c8.837,0,16-7.157,16-15.985c0-8.827-7.163-15.985-16-15.985
			c-8.836,0-16.001,7.158-16.001,15.985C434.191,26.821,441.355,33.978,450.193,33.978"/>
		<path fill="#2B2A28" d="M458.214,13.805c-0.591,0.261-1.225,0.438-1.89,0.517c0.68-0.408,1.2-1.05,1.444-1.816
			c-0.636,0.377-1.339,0.648-2.09,0.796c-0.598-0.639-1.453-1.037-2.398-1.037c-1.813,0-3.286,1.471-3.286,3.286
			c0,0.258,0.027,0.507,0.084,0.748c-2.731-0.137-5.154-1.444-6.776-3.433c-0.284,0.487-0.444,1.051-0.444,1.652
			c0,1.138,0.579,2.144,1.463,2.735c-0.538-0.017-1.047-0.166-1.489-0.411v0.04c0,1.593,1.133,2.92,2.638,3.222
			c-0.274,0.077-0.565,0.116-0.866,0.116c-0.212,0-0.419-0.02-0.617-0.059c0.418,1.306,1.633,2.255,3.069,2.279
			c-1.125,0.882-2.543,1.408-4.084,1.408c-0.266,0-0.526-0.015-0.783-0.045c1.454,0.93,3.186,1.474,5.04,1.474
			c6.05,0,9.354-5.004,9.354-9.346c0-0.143-0.003-0.285-0.009-0.425C457.216,15.043,457.774,14.464,458.214,13.805"/>
	</g>
	<g id="Tumblr">
		<path fill="#FFFFFF" d="M414.183,34.022c8.836,0,16-7.156,16-15.985c0-8.827-7.164-15.984-16-15.984s-16.001,7.157-16.001,15.984
			C398.182,26.865,405.347,34.022,414.183,34.022"/>
		<path fill="#2B2A28" d="M414.57,10.041v4.042h3.799v2.51h-3.799v4.1c0,0.928,0.05,1.522,0.146,1.785
			c0.099,0.265,0.28,0.475,0.55,0.632c0.354,0.212,0.758,0.317,1.215,0.317c0.811,0,1.614-0.265,2.417-0.791v2.523
			c-0.686,0.321-1.304,0.547-1.856,0.676c-0.556,0.13-1.154,0.196-1.799,0.196c-0.732,0-1.381-0.094-1.94-0.277
			c-0.562-0.187-1.042-0.448-1.438-0.79c-0.396-0.34-0.673-0.707-0.825-1.09c-0.153-0.385-0.229-0.942-0.229-1.675v-5.608h-1.771
			V14.33c0.631-0.205,1.169-0.498,1.616-0.878s0.81-0.838,1.079-1.374c0.271-0.532,0.457-1.214,0.562-2.039h2.274L414.57,10.041
			L414.57,10.041z"/>
	</g>
	<g id="Pinterest">
		<path fill="#FFFFFF" d="M378.165,34.022c8.836,0,16-7.155,16-15.985c0-8.827-7.164-15.985-16-15.985
			c-8.837,0-16.001,7.157-16.001,15.985C362.164,26.867,369.329,34.022,378.165,34.022"/>
		<path fill="#2B2A28" d="M378.166,9.999c-4.42,0-8.004,3.58-8.004,7.996c0,3.275,1.971,6.087,4.792,7.324
			c-0.023-0.557-0.004-1.229,0.138-1.836c0.154-0.648,1.03-4.357,1.03-4.357s-0.256-0.511-0.256-1.265
			c0-1.186,0.688-2.07,1.544-2.07c0.728,0,1.078,0.546,1.078,1.201c0,0.731-0.468,1.824-0.706,2.837
			c-0.2,0.848,0.426,1.541,1.264,1.541c1.517,0,2.537-1.946,2.537-4.251c0-1.752-1.182-3.064-3.33-3.064
			c-2.428,0-3.938,1.809-3.938,3.83c0,0.696,0.203,1.188,0.525,1.568c0.148,0.176,0.168,0.245,0.115,0.447
			c-0.038,0.146-0.126,0.5-0.162,0.642c-0.055,0.202-0.218,0.274-0.4,0.2c-1.117-0.457-1.64-1.679-1.64-3.055
			c0-2.271,1.918-4.995,5.72-4.995c3.058,0,5.067,2.209,5.067,4.581c0,3.137-1.745,5.479-4.319,5.479
			c-0.861,0-1.676-0.466-1.954-0.997c0,0-0.466,1.843-0.562,2.197c-0.17,0.616-0.501,1.232-0.808,1.712
			c0.722,0.213,1.48,0.329,2.271,0.329c4.42,0,8.003-3.581,8.003-7.997C386.169,13.579,382.585,9.999,378.166,9.999"/>
	</g>
	<g id="LinkedIn">
		<path fill="#FFFFFF" d="M342.046,33.978c8.837,0,16-7.158,16-15.985c0-8.827-7.163-15.985-16-15.985
			c-8.836,0-16.001,7.157-16.001,15.985C326.045,26.82,333.21,33.978,342.046,33.978"/>
		<path fill="#2B2A28" d="M337.566,24.682h-3.12v-9.976h3.12V24.682z M335.927,13.458h-0.022c-1.13,0-1.86-0.762-1.86-1.728
			c0-0.986,0.754-1.733,1.905-1.733c1.15,0,1.857,0.746,1.882,1.73C337.829,12.693,337.1,13.458,335.927,13.458z M350.05,24.682
			h-3.538V19.52c0-1.351-0.552-2.272-1.771-2.272c-0.933,0-1.448,0.622-1.689,1.223c-0.091,0.215-0.076,0.515-0.076,0.815v5.398
			h-3.505c0,0,0.045-9.145,0-9.976h3.505v1.565c0.207-0.685,1.327-1.662,3.115-1.662c2.217,0,3.96,1.435,3.96,4.524L350.05,24.682
			L350.05,24.682z"/>
	</g>
	<g id="Instagram">
		<path fill="#FFFFFF" d="M306.029,34.023c8.836,0,16-7.157,16-15.985c0-8.827-7.164-15.985-16-15.985c-8.838,0-16,7.157-16,15.985
			S297.191,34.023,306.029,34.023"/>
		<path fill="#2B2A28" d="M310.94,10.041h-9.821c-1.704,0-3.094,1.387-3.094,3.092v3.265v6.546c0,1.704,1.39,3.091,3.094,3.091
			h9.821c1.704,0,3.095-1.386,3.095-3.091v-6.546v-3.265C314.034,11.428,312.646,10.041,310.94,10.041z M311.828,11.885l0.354-0.001
			v0.353v2.358l-2.705,0.008l-0.009-2.71L311.828,11.885z M303.746,16.397c0.513-0.709,1.344-1.173,2.285-1.173
			c0.938,0,1.771,0.464,2.283,1.173c0.333,0.462,0.532,1.029,0.532,1.641c0,1.552-1.265,2.815-2.815,2.815
			c-1.555,0-2.818-1.263-2.818-2.815C303.213,17.425,303.412,16.859,303.746,16.397z M312.475,22.943
			c0,0.845-0.688,1.532-1.533,1.532h-9.821c-0.847,0-1.533-0.687-1.533-1.532v-6.546h2.39c-0.205,0.507-0.32,1.061-0.32,1.641
			c0,2.412,1.963,4.375,4.377,4.375c2.412,0,4.376-1.962,4.376-4.375c0-0.58-0.117-1.133-0.322-1.641h2.39v6.546H312.475z"/>
	</g>
	<g id="Google_x2B_">
		<path fill="#FFFFFF" d="M270.016,33.932c8.837,0,16-7.158,16-15.985c0-8.828-7.16-15.985-16-15.985c-8.836,0-16,7.157-16,15.985
			C254.015,26.774,261.18,33.932,270.016,33.932"/>
		<path fill="#2B2A28" d="M267.367,25.108c-1.902,0-3.277-1.202-3.277-2.646c0-1.42,1.707-2.6,3.609-2.576
			c0.441,0.004,0.855,0.074,1.234,0.195c1.031,0.718,1.77,1.124,1.98,1.943c0.039,0.164,0.059,0.335,0.059,0.507
			C270.973,23.98,270.043,25.108,267.367,25.108 M267.867,16.632c-1.277-0.039-2.492-1.429-2.711-3.102
			c-0.223-1.674,0.637-2.958,1.91-2.919c1.277,0.035,2.492,1.382,2.715,3.056C270,15.341,269.145,16.671,267.867,16.632
			 M270.516,19.114c-0.449-0.315-1.305-1.085-1.305-1.542c0-0.53,0.152-0.792,0.949-1.417c0.824-0.641,1.402-1.538,1.402-2.583
			c0-1.245-0.555-2.463-1.598-2.865h1.57l1.109-0.8h-4.957c-2.223,0-4.312,1.683-4.312,3.634c0,1.99,1.516,3.599,3.777,3.599
			c0.156,0,0.309-0.004,0.457-0.016c-0.145,0.281-0.25,0.597-0.25,0.925c0,0.555,0.297,1.003,0.672,1.37
			c-0.285,0-0.559,0.008-0.859,0.008c-2.75,0-4.871,1.752-4.871,3.567c0,1.787,2.324,2.907,5.074,2.907
			c3.141,0,4.875-1.779,4.875-3.566C272.25,20.898,271.824,20.04,270.516,19.114 M277.731,16.78h-1.934v-1.928h-1.551v1.928h-1.93
			v1.549h1.93v1.928h1.551V18.33h1.934V16.78z"/>
	</g>
	<g id="Github">
		<path fill="#FFFFFF" d="M233.998,33.978c8.835,0,16-7.158,16-15.985c0-8.827-7.165-15.985-16-15.985c-8.838,0-16,7.157-16,15.985
			C217.998,26.82,225.16,33.978,233.998,33.978"/>
		<path fill="#2B2A28" d="M233.967,10.197c-4.418,0-8,3.579-8,7.993c0,3.531,2.292,6.526,5.471,7.583
			c0.4,0.073,0.546-0.173,0.546-0.385c0-0.19-0.006-0.693-0.012-1.36c-2.225,0.484-2.694-1.072-2.694-1.072
			c-0.364-0.923-0.888-1.169-0.888-1.169c-0.726-0.496,0.055-0.487,0.055-0.487c0.804,0.057,1.227,0.824,1.227,0.824
			c0.713,1.222,1.872,0.87,2.328,0.665c0.073-0.517,0.28-0.869,0.509-1.068c-1.777-0.203-3.645-0.888-3.645-3.95
			c0-0.873,0.312-1.586,0.823-2.145c-0.082-0.203-0.356-1.016,0.079-2.116c0,0,0.671-0.215,2.199,0.818
			c0.639-0.177,1.322-0.266,2.003-0.269c0.681,0.003,1.364,0.092,2.003,0.269c1.528-1.034,2.198-0.818,2.198-0.818
			c0.437,1.1,0.162,1.913,0.08,2.116c0.512,0.559,0.822,1.272,0.822,2.145c0,3.071-1.87,3.747-3.653,3.943
			c0.288,0.248,0.543,0.734,0.543,1.48c0,1.068-0.011,1.931-0.011,2.193c0,0.213,0.145,0.461,0.551,0.384
			c3.176-1.059,5.466-4.053,5.466-7.583C241.967,13.776,238.385,10.197,233.967,10.197z"/>
	</g>
	<g id="Flickr">
		<path fill="#FFFFFF" d="M198.093,33.969c8.835,0,16-7.157,16-15.985c0-8.828-7.165-15.984-16-15.984
			c-8.837,0-16.001,7.156-16.001,15.984C182.091,26.812,189.256,33.969,198.093,33.969"/>
		<g>
			<path fill="#2B2A28" d="M206.096,17.984c0,1.945-1.578,3.523-3.524,3.523c-1.951,0-3.528-1.579-3.528-3.523
				s1.577-3.523,3.528-3.523C204.52,14.461,206.096,16.04,206.096,17.984z"/>
			<path fill="#2B2A28" d="M197.141,17.984c0,1.945-1.578,3.523-3.528,3.523c-1.947,0-3.524-1.579-3.524-3.523
				s1.577-3.523,3.524-3.523C195.563,14.461,197.141,16.04,197.141,17.984z"/>
		</g>
	</g>
	<g id="Facebook">
		<path fill="#FFFFFF" d="M162.074,33.97c8.838,0,16-7.157,16-15.985c0-8.828-7.162-15.985-16-15.985c-8.836,0-16,7.157-16,15.985
			C146.074,26.813,153.238,33.97,162.074,33.97"/>
		<path fill="#2B2A28" d="M157.777,15.278h1.655v-1.606c0-0.708,0.018-1.801,0.533-2.478c0.542-0.717,1.287-1.204,2.568-1.204
			c2.088,0,2.967,0.297,2.967,0.297l-0.413,2.45c0,0-0.689-0.2-1.333-0.2s-1.22,0.231-1.22,0.874v1.868h2.64l-0.184,2.392h-2.456
			v8.311h-3.102v-8.311h-1.655V15.278L157.777,15.278z"/>
	</g>
	<g id="Email">
		<path fill="#FFFFFF" d="M126.059,33.97c8.836,0,16-7.158,16-15.985c0-8.828-7.164-15.985-16-15.985c-8.839,0-16,7.156-16,15.985
			C110.058,26.812,117.22,33.97,126.059,33.97"/>
		<path fill="#2B2A28" d="M134.059,15.755v7.082c0,0.393-0.139,0.729-0.42,1.008c-0.279,0.279-0.616,0.419-1.009,0.419h-13.144
			c-0.393,0-0.729-0.141-1.009-0.419c-0.279-0.279-0.419-0.616-0.419-1.008v-7.082c0.262,0.292,0.562,0.549,0.902,0.775
			c2.155,1.463,3.633,2.489,4.438,3.078c0.338,0.25,0.614,0.444,0.825,0.584c0.212,0.139,0.492,0.282,0.843,0.428
			c0.352,0.146,0.68,0.219,0.981,0.219h0.018c0.304,0,0.63-0.072,0.981-0.219c0.352-0.146,0.632-0.289,0.843-0.428
			c0.212-0.14,0.487-0.334,0.827-0.584c1.012-0.731,2.494-1.757,4.446-3.078C133.503,16.299,133.802,16.041,134.059,15.755z
			 M134.059,13.133c0,0.471-0.146,0.918-0.438,1.348c-0.292,0.428-0.655,0.793-1.089,1.098c-2.238,1.553-3.631,2.519-4.179,2.899
			c-0.059,0.042-0.187,0.132-0.379,0.271c-0.194,0.14-0.354,0.253-0.481,0.338c-0.128,0.087-0.283,0.184-0.464,0.291
			c-0.182,0.107-0.353,0.188-0.513,0.24c-0.161,0.054-0.31,0.08-0.447,0.08h-0.018c-0.136,0-0.285-0.026-0.446-0.08
			c-0.161-0.053-0.332-0.133-0.514-0.24c-0.181-0.107-0.336-0.204-0.464-0.291c-0.128-0.084-0.289-0.199-0.482-0.338
			c-0.194-0.139-0.32-0.229-0.379-0.271c-0.542-0.381-1.321-0.924-2.339-1.628c-1.018-0.705-1.628-1.129-1.831-1.271
			c-0.369-0.25-0.717-0.593-1.044-1.031c-0.328-0.438-0.491-0.842-0.491-1.218c0-0.463,0.123-0.85,0.371-1.16s0.6-0.465,1.058-0.465
			h13.144c0.387,0,0.722,0.14,1.004,0.419C133.917,12.403,134.059,12.74,134.059,13.133L134.059,13.133z"/>
	</g>
	<g id="Dribbble">
		<path fill="#FFFFFF" d="M90.042,33.978c8.837,0,16-7.158,16-15.985c0-8.827-7.164-15.985-16-15.985c-8.838,0-16,7.157-16,15.985
			C74.041,26.82,81.203,33.978,90.042,33.978"/>
		<path fill="#2B2A28" d="M97.882,16.383c-0.104-0.514-0.263-1.019-0.467-1.502c-0.2-0.475-0.45-0.932-0.738-1.358
			c-0.286-0.424-0.615-0.822-0.977-1.183c-0.362-0.362-0.76-0.69-1.184-0.977c-0.427-0.29-0.885-0.538-1.359-0.739
			c-0.484-0.203-0.99-0.361-1.505-0.465c-0.527-0.108-1.069-0.164-1.611-0.164s-1.084,0.055-1.612,0.164
			c-0.514,0.104-1.02,0.263-1.504,0.465c-0.474,0.2-0.932,0.449-1.36,0.739c-0.424,0.286-0.822,0.614-1.184,0.977
			c-0.362,0.36-0.69,0.759-0.977,1.183c-0.289,0.426-0.537,0.884-0.737,1.358c-0.206,0.482-0.363,0.989-0.467,1.502
			c-0.108,0.525-0.163,1.067-0.163,1.608c0,0.542,0.055,1.084,0.163,1.61c0.104,0.513,0.261,1.02,0.467,1.502
			c0.2,0.475,0.449,0.933,0.737,1.359c0.287,0.423,0.614,0.82,0.977,1.183c0.362,0.361,0.76,0.688,1.184,0.976
			c0.428,0.289,0.886,0.536,1.36,0.736c0.485,0.206,0.991,0.362,1.504,0.467c0.528,0.109,1.07,0.164,1.612,0.164
			s1.084-0.055,1.611-0.164c0.515-0.105,1.021-0.261,1.505-0.467c0.474-0.2,0.932-0.447,1.359-0.736
			c0.424-0.287,0.822-0.615,1.184-0.976c0.362-0.363,0.691-0.76,0.977-1.183c0.289-0.426,0.538-0.885,0.738-1.359
			c0.204-0.481,0.362-0.989,0.467-1.502c0.107-0.527,0.163-1.068,0.163-1.61C98.045,17.451,97.989,16.908,97.882,16.383z
			 M96.875,17.924c-0.098-0.021-2.411-0.52-4.76-0.224c-0.049-0.117-0.098-0.233-0.148-0.353c-0.142-0.335-0.295-0.667-0.454-0.991
			c2.699-1.101,3.794-2.685,3.808-2.704C96.278,14.819,96.858,16.304,96.875,17.924z M94.557,12.869
			c-0.018,0.026-0.991,1.507-3.571,2.472c-1.168-2.144-2.452-3.85-2.555-3.984c0.517-0.125,1.056-0.193,1.611-0.193
			C91.772,11.163,93.352,11.809,94.557,12.869z M88.404,11.362c-0.001,0-0.002,0-0.002,0s-0.007,0.002-0.02,0.005
			C88.39,11.366,88.397,11.365,88.404,11.362z M87.124,11.816c0.092,0.122,1.354,1.833,2.539,3.935
			c-3.282,0.872-6.131,0.837-6.312,0.833C83.795,14.469,85.218,12.716,87.124,11.816z M83.205,17.992
			c0-0.073,0.004-0.144,0.006-0.215c0.122,0.002,3.498,0.078,7.018-0.973c0.196,0.383,0.383,0.771,0.555,1.161
			c-0.09,0.025-0.179,0.053-0.269,0.082c-3.689,1.192-5.561,4.507-5.561,4.507l0.002,0.002
			C83.868,21.346,83.205,19.747,83.205,17.992z M90.042,24.822c-1.655,0-3.172-0.587-4.354-1.565
			c0.09,0.073,0.153,0.119,0.153,0.119s1.312-2.854,5.364-4.266c0.016-0.005,0.03-0.01,0.046-0.015
			c0.961,2.498,1.358,4.588,1.459,5.186C91.89,24.629,90.988,24.822,90.042,24.822z M93.86,23.656
			c-0.069-0.412-0.434-2.417-1.33-4.878c2.207-0.353,4.119,0.252,4.26,0.298C96.485,20.98,95.396,22.622,93.86,23.656z"/>
	</g>
	<g id="Blogger">
		<path fill="#FFFFFF" d="M54.024,33.925c8.837,0,16-7.159,16-15.985c0-8.828-7.164-15.985-16-15.985c-8.838,0-16,7.156-16,15.985
			C38.024,26.768,45.186,33.925,54.024,33.925"/>
		<path fill="#2B2A28" d="M61.951,16.584l-0.133-0.277l-0.224-0.176c-0.294-0.231-1.781,0.016-2.184-0.349
			c-0.283-0.263-0.324-0.731-0.411-1.367c-0.16-1.236-0.262-1.3-0.455-1.716c-0.702-1.485-2.599-2.602-3.904-2.756h-3.537
			c-2.78,0-5.054,2.276-5.054,5.056v5.895c0,2.771,2.274,5.042,5.054,5.042h5.81c2.78,0,5.038-2.271,5.054-5.042L62,16.81
			L61.951,16.584z M51.168,14.073h2.802c0.536,0,0.97,0.433,0.97,0.963c0,0.528-0.433,0.966-0.97,0.966h-2.802
			c-0.536,0-0.968-0.438-0.968-0.966C50.201,14.506,50.632,14.073,51.168,14.073z M56.864,21.779h-5.695
			c-0.536,0-0.968-0.438-0.968-0.963c0-0.528,0.432-0.96,0.968-0.96h5.695c0.531,0,0.962,0.432,0.962,0.96
			C57.827,21.341,57.396,21.779,56.864,21.779z"/>
	</g>
	<g id="Behance">
		<path fill="#FFFFFF" d="M18.008,33.925c8.837,0,16-7.159,16-15.985c0-8.828-7.163-15.985-16-15.985c-8.836,0-16,7.156-16,15.985
			C2.008,26.768,9.171,33.925,18.008,33.925"/>
		<path fill="#2B2A28" d="M17.35,13.928c0.301,0.419,0.453,0.922,0.453,1.509c0,0.603-0.151,1.087-0.456,1.455
			c-0.172,0.205-0.423,0.393-0.756,0.562c0.504,0.185,0.884,0.476,1.143,0.873c0.256,0.397,0.385,0.879,0.385,1.448
			c0,0.585-0.146,1.111-0.442,1.576c-0.186,0.307-0.419,0.567-0.7,0.778c-0.315,0.242-0.686,0.407-1.117,0.497
			c-0.43,0.089-0.895,0.134-1.397,0.134h-4.458v-9.883h4.782C15.992,12.892,16.846,13.243,17.35,13.928z M11.978,14.591v2.181h2.405
			c0.428,0,0.778-0.082,1.047-0.246c0.266-0.164,0.402-0.454,0.402-0.867c0-0.461-0.177-0.764-0.531-0.913
			c-0.306-0.103-0.695-0.154-1.169-0.154L11.978,14.591L11.978,14.591z M11.978,18.407v2.636h2.402c0.429,0,0.764-0.059,1.001-0.174
			c0.436-0.216,0.651-0.627,0.651-1.234c0-0.516-0.209-0.868-0.63-1.061c-0.235-0.106-0.565-0.164-0.989-0.167H11.978z
			 M24.099,15.597c0.511,0.228,0.932,0.589,1.263,1.082c0.302,0.434,0.496,0.937,0.584,1.51c0.052,0.335,0.073,0.82,0.063,1.452
			h-5.328c0.031,0.733,0.284,1.248,0.765,1.542c0.293,0.184,0.644,0.274,1.055,0.274c0.434,0,0.789-0.111,1.061-0.335
			c0.149-0.12,0.281-0.289,0.395-0.503h1.953c-0.052,0.433-0.289,0.874-0.709,1.322c-0.655,0.709-1.572,1.065-2.751,1.065
			c-0.975,0-1.834-0.299-2.577-0.898c-0.746-0.599-1.117-1.575-1.117-2.925c0-1.268,0.336-2.238,1.007-2.914
			c0.673-0.674,1.544-1.013,2.615-1.013C23.016,15.255,23.589,15.37,24.099,15.597z M21.237,17.248
			c-0.271,0.278-0.44,0.656-0.51,1.131h3.297c-0.035-0.508-0.206-0.891-0.509-1.156c-0.307-0.262-0.685-0.394-1.136-0.394
			C21.89,16.83,21.508,16.969,21.237,17.248z M24.473,13.336h-4.239v1.229h4.239V13.336z"/>
	</g>
</g>
</svg>
