<?xml version="1.0" standalone="no"?>
<!DOCTYPE svg PUBLIC "-//W3C//DTD SVG 1.1//EN" "http://www.w3.org/Graphics/SVG/1.1/DTD/svg11.dtd" >
<svg xmlns="http://www.w3.org/2000/svg">
<metadata></metadata>
<defs>
<font id="industrymedium" horiz-adv-x="1040" >
<font-face units-per-em="2048" ascent="1638" descent="-410" />
<missing-glyph horiz-adv-x="540" />
<glyph unicode="&#xfb01;" horiz-adv-x="1290" d="M59 950v156h191v143q0 129 79 208t208 79h204v-160h-186q-56 0 -88.5 -36t-32.5 -93v-141h307v-156h-307v-950h-186v950h-189zM934 1327v209h207v-209h-207zM944 0v1106h186v-1106h-186z" />
<glyph unicode="&#xfb02;" horiz-adv-x="1284" d="M59 950v156h191v143q0 129 79 208t208 79h204v-160h-186q-56 0 -88.5 -36t-32.5 -93v-141h307v-156h-307v-950h-186v950h-189zM942 0v1536h184v-1536h-184z" />
<glyph horiz-adv-x="2048" />
<glyph horiz-adv-x="2048" />
<glyph unicode="&#xd;" horiz-adv-x="2048" />
<glyph unicode=" "  horiz-adv-x="540" />
<glyph unicode="&#x09;" horiz-adv-x="540" />
<glyph unicode="&#xa0;" horiz-adv-x="540" />
<glyph unicode="!" horiz-adv-x="591" d="M182 1475h228l-54 -1039h-120zM190 0v231h211v-231h-211z" />
<glyph unicode="&#x22;" horiz-adv-x="829" d="M131 1475h225l-61 -486h-105zM473 1475h225l-59 -486h-107z" />
<glyph unicode="#" horiz-adv-x="1576" d="M86 408v170h279l100 344h-238v170h289l113 383h184l-115 -383h381l115 383h182l-112 -383h227v-170h-279l-100 -344h238v-170h-289l-119 -408h-184l121 408h-381l-121 -408h-184l120 408h-227zM547 578h381l102 344h-381z" />
<glyph unicode="$" horiz-adv-x="1282" d="M143 285v159h195v-143q0 -58 32.5 -94.5t88.5 -36.5h108v500l-125 28q-145 34 -220 100t-75 195v197q0 135 79 214t214 79h117v186h166v-186h102q135 0 214 -79t79 -214v-141h-192v125q0 58 -33 94.5t-90 36.5h-90v-476l133 -30q145 -34 220 -100t75 -195v-219 q0 -135 -79 -214t-214 -79h-125v-187h-166v187h-119q-135 0 -215 79t-80 214zM344 1020q0 -35 9 -59.5t28 -38.5t36.5 -21t47.5 -14l102 -23v441h-102q-56 0 -88.5 -36.5t-32.5 -94.5v-154zM713 170h110q56 0 88.5 36.5t32.5 94.5v176q0 68 -27.5 92.5t-93.5 40.5l-110 25 v-465z" />
<glyph unicode="%" horiz-adv-x="1294" d="M96 1040v312q0 56 38 93.5t93 37.5h191q56 0 93.5 -37.5t37.5 -93.5v-312q0 -56 -37.5 -93.5t-93.5 -37.5h-191q-55 0 -93 37.5t-38 93.5zM195 0l737 1475h164l-742 -1475h-159zM219 1065q0 -18 10.5 -30.5t28.5 -12.5h135q15 0 24 12.5t9 30.5v264q0 16 -9.5 28.5 t-23.5 12.5h-135q-18 0 -28.5 -12.5t-10.5 -28.5v-264zM748 123v311q0 56 38 93.5t93 37.5h190q55 0 93 -37.5t38 -93.5v-311q0 -55 -38 -93t-93 -38h-190q-55 0 -93 38t-38 93zM870 147q0 -18 10.5 -30.5t28.5 -12.5h135q15 0 24 12.5t9 30.5v265q0 16 -9.5 28.5 t-23.5 12.5h-135q-18 0 -28.5 -12.5t-10.5 -28.5v-265z" />
<glyph unicode="&#x26;" horiz-adv-x="1347" d="M141 285v250q0 76 42 136t108 85q-133 73 -133 221v213q0 135 79 214t214 79h342q135 0 213.5 -79t78.5 -214v-135h-196v119q0 59 -32 92.5t-89 33.5h-293q-57 0 -89 -33.5t-32 -92.5v-205q0 -69 27.5 -96t101.5 -27h805v-176h-160v-385q0 -135 -78.5 -214t-213.5 -79 h-402q-135 0 -214 79t-79 214zM338 301q0 -59 32 -93t89 -34h352q57 0 89 34t32 93v369h-449q-145 0 -145 -125v-244z" />
<glyph unicode="'" horiz-adv-x="485" d="M131 1475h225l-61 -486h-105z" />
<glyph unicode="(" horiz-adv-x="737" d="M188 76v1237q0 135 79 214t214 79h131v-183h-106q-56 0 -88.5 -34.5t-32.5 -92.5v-1204q0 -58 32.5 -92.5t88.5 -34.5h106v-182h-131q-135 0 -214 79t-79 214z" />
<glyph unicode=")" horiz-adv-x="737" d="M127 -35h104q58 0 90.5 34.5t32.5 92.5v1204q0 58 -32.5 92.5t-90.5 34.5h-104v183h129q135 0 215 -79t80 -214v-1237q0 -135 -80 -214t-215 -79h-129v182z" />
<glyph unicode="*" horiz-adv-x="835" d="M53 1151l49 156l275 -133l-41 301h164l-41 -301l274 131l49 -154l-299 -55l209 -222l-131 -94l-143 267l-146 -269l-131 96l209 222z" />
<glyph unicode="+" d="M129 676v164h309v303h164v-303h309v-164h-309v-303h-164v303h-309z" />
<glyph unicode="," horiz-adv-x="477" d="M86 -260l135 260h-90v233h215v-182q0 -15 -5 -32.5t-16 -39t-18.5 -35t-24 -40t-20.5 -33.5l-80 -131h-96z" />
<glyph unicode="-" horiz-adv-x="894" d="M123 584v182h649v-182h-649z" />
<glyph unicode="." horiz-adv-x="477" d="M131 0v233h215v-233h-215z" />
<glyph unicode="/" horiz-adv-x="989" d="M39 -143l725 1761h186l-725 -1761h-186z" />
<glyph unicode="0" horiz-adv-x="1304" d="M150 285v905q0 135 79.5 214t214.5 79h416q135 0 215 -79t80 -214v-905q0 -135 -80 -214t-215 -79h-416q-135 0 -214.5 79t-79.5 214zM346 301q0 -58 32.5 -92.5t90.5 -34.5h367q58 0 90 34.5t32 92.5v873q0 58 -32 92t-90 34h-367q-58 0 -90.5 -34t-32.5 -92v-873z" />
<glyph unicode="1" horiz-adv-x="759" d="M96 1169v174l289 132h162v-1475h-197v1272z" />
<glyph unicode="2" horiz-adv-x="1232" d="M135 0v410q0 36 7 65.5t17 52t31.5 43.5t38.5 34.5t51 31t56.5 28t65.5 28.5q19 8 28 12l356 157l24.5 10.5t23.5 10.5l19 9.5t18 10.5t14 10.5t12.5 12.5t8 14.5t6 18t1.5 20.5v184q0 61 -34 99t-93 38h-313q-59 0 -92 -35.5t-33 -95.5v-122h-194v141q0 134 81 214.5 t214 80.5h366q132 0 213.5 -81t81.5 -214v-227q0 -61 -17.5 -104t-57.5 -75t-79.5 -52.5t-109.5 -50.5q-21 -8 -31 -13l-358 -158q-77 -35 -95 -50q-30 -26 -30 -67v-209h782v-182h-979z" />
<glyph unicode="3" horiz-adv-x="1247" d="M117 287v127h196v-109q0 -61 33 -96t92 -35h348q59 0 92 35t33 96v236q0 65 -34.5 97t-114.5 32h-328v176h328q77 0 105 27.5t28 99.5v196q0 61 -33 96t-92 35h-315q-59 0 -92 -35t-33 -96v-108h-197v127q0 134 80.5 214.5t214.5 80.5h369q133 0 214 -80.5t81 -214.5 v-211q0 -147 -134 -221q66 -25 108 -85t42 -136v-248q0 -133 -81 -214t-214 -81h-401q-134 0 -214.5 81t-80.5 214z" />
<glyph unicode="4" horiz-adv-x="1286" d="M66 494l749 981h195v-953h213v-178h-213v-344h-195v344h-729zM303 522h512v680z" />
<glyph unicode="5" horiz-adv-x="1243" d="M137 287v133h197v-115q0 -59 34 -95t93 -36h330q59 0 93 36t34 95v346q0 59 -35 95t-95 36h-135q-113 0 -217 -61l-86 -51l-196 59v746h931v-183h-735v-489l86 67q114 88 226 88h161q129 0 210 -79.5t81 -208.5v-383q0 -133 -81.5 -214t-213.5 -81h-387q-132 0 -213.5 81 t-81.5 214z" />
<glyph unicode="6" horiz-adv-x="1269" d="M150 287v901q0 133 81 214t213 81h367q133 0 214 -80.5t81 -214.5v-121h-197v102q0 60 -33 95.5t-92 35.5h-311q-59 0 -93 -36t-34 -95v-407l88 67q114 91 225 91h172q132 0 213.5 -81.5t81.5 -213.5v-338q0 -133 -81.5 -214t-213.5 -81h-387q-132 0 -213 81t-81 214z M346 305q0 -59 34 -95t93 -36h330q59 0 93 36t34 95v305q0 60 -33.5 95.5t-93.5 35.5h-154q-111 0 -215 -61l-88 -51v-324z" />
<glyph unicode="7" horiz-adv-x="1146" d="M76 1292v183h1001v-142l-676 -1333h-208l653 1292h-770z" />
<glyph unicode="8" horiz-adv-x="1284" d="M137 287v245q0 76 42 136.5t108 85.5q-133 73 -133 221v213q0 133 81.5 214t213.5 81h385q133 0 213.5 -80.5t80.5 -214.5v-213q0 -148 -133 -221q66 -25 108 -85.5t42 -136.5v-245q0 -133 -80.5 -214t-214.5 -81h-418q-132 0 -213.5 81t-81.5 214zM334 305 q0 -60 33.5 -95.5t93.5 -35.5h362q59 0 92 35t33 96v234q0 64 -35 95.5t-114 31.5h-314q-80 0 -115.5 -32t-35.5 -95v-234zM350 971q0 -73 29 -101t106 -28h314q77 0 105 28t28 101v198q0 61 -33 96t-92 35h-330q-60 0 -93.5 -35.5t-33.5 -95.5v-198z" />
<glyph unicode="9" horiz-adv-x="1269" d="M145 864v324q0 134 80.5 214.5t214.5 80.5h385q133 0 214 -80.5t81 -214.5v-901q0 -133 -81 -214t-214 -81h-366q-133 0 -214 81t-81 214v121h196v-103q0 -59 33.5 -95t91.5 -36h314q58 0 91.5 36t33.5 95v426l-88 -67q-112 -89 -226 -89h-176q-129 0 -209 80t-80 209z M342 883q0 -59 34.5 -95t92.5 -36h152q114 0 215 61l88 51v305q0 59 -33.5 95t-91.5 36h-332q-59 0 -92 -35.5t-33 -95.5v-286z" />
<glyph unicode=":" horiz-adv-x="477" d="M131 0v233h215v-233h-215zM131 872v234h215v-234h-215z" />
<glyph unicode=";" horiz-adv-x="477" d="M86 -260l135 260h-90v233h215v-182q0 -15 -5 -32.5t-16 -39t-18.5 -35t-24 -40t-20.5 -33.5l-80 -131h-96zM131 872v234h215v-234h-215z" />
<glyph unicode="&#x3c;" d="M121 657v172l774 361v-172l-610 -275l610 -272v-172z" />
<glyph unicode="=" d="M129 489v177h782v-177h-782zM129 866v176h782v-176h-782z" />
<glyph unicode="&#x3e;" d="M145 299v172l611 272l-611 275v172l775 -361v-172z" />
<glyph unicode="?" horiz-adv-x="1144" d="M53 1038v152q0 135 79 214t214 79h416q135 0 215 -79t80 -214v-178q0 -23 -3 -43.5t-13 -40.5t-16.5 -34.5t-25.5 -32.5t-27.5 -28t-36.5 -27.5t-37 -24.5t-43.5 -25.5t-44 -23.5t-48.5 -25l-62 -35q-78 -39 -98 -59q-24 -24 -24 -54v-156h-197v175q0 50 16.5 88 t60.5 73.5t74 54t105 57.5l39 21l61 33q6 3 27.5 14.5t27.5 15t21.5 13.5t20.5 16.5t13 17.5t10.5 23t2.5 27v142q0 58 -32.5 92t-90.5 34h-366q-56 0 -88.5 -34t-32.5 -92v-136h-197zM381 0v248h197v-248h-197z" />
<glyph unicode="@" horiz-adv-x="1933" d="M184 -43v1233q0 135 79 214t214 79h979q135 0 215 -79t80 -214v-782q0 -135 -80 -214t-215 -79h-233l-41 147l-105 -86q-84 -70 -194 -70h-49q-135 0 -215 79t-80 214v344q0 135 80 214t215 79h49q111 0 194 -69l105 -86l41 147h137v-799h96q154 0 154 179v790 q0 156 -150 156h-987q-149 0 -149 -156v-1249q0 -156 149 -156h1045v-129h-1041q-135 0 -214 79t-79 214zM717 395q0 -62 34 -99.5t95 -37.5h63q105 0 181 53l92 62v397l-92 61q-78 54 -181 54h-63q-61 0 -95 -37.5t-34 -99.5v-353z" />
<glyph unicode="A" horiz-adv-x="1349" d="M51 0l510 1475h227l508 -1475h-211l-131 397h-567l-133 -397h-203zM446 580h449l-221 682z" />
<glyph unicode="B" horiz-adv-x="1337" d="M184 0v1475h705q135 0 215 -79t80 -214v-207q0 -148 -133 -221q66 -25 107.5 -85.5t41.5 -136.5v-239q0 -135 -80 -214t-215 -79h-721zM381 182h500q58 0 90.5 34t32.5 93v234q0 64 -34.5 93.5t-115.5 29.5h-473v-484zM381 842h475q75 0 103 27.5t28 97.5v198 q0 59 -32.5 93t-90.5 34h-483v-450z" />
<glyph unicode="C" horiz-adv-x="1290" d="M150 285v905q0 135 79.5 214t214.5 79h428q135 0 214 -79t79 -214v-184h-196v168q0 58 -32.5 92t-88.5 34h-379q-58 0 -90.5 -34t-32.5 -92v-873q0 -58 32.5 -92.5t90.5 -34.5h379q56 0 88.5 34.5t32.5 92.5v168h196v-184q0 -135 -79 -214t-214 -79h-428 q-135 0 -214.5 79t-79.5 214z" />
<glyph unicode="D" horiz-adv-x="1355" d="M184 0v1475h727q135 0 215 -79t80 -214v-889q0 -135 -80 -214t-215 -79h-727zM381 182h506q58 0 90.5 34.5t32.5 92.5v856q0 58 -32.5 92.5t-90.5 34.5h-506v-1110z" />
<glyph unicode="E" horiz-adv-x="1218" d="M184 0v1475h928v-183h-731v-446h608v-184h-608v-480h731v-182h-928z" />
<glyph unicode="F" horiz-adv-x="1183" d="M184 0v1475h928v-183h-731v-463h608v-182h-608v-647h-197z" />
<glyph unicode="G" horiz-adv-x="1325" d="M150 285v905q0 135 79.5 214t214.5 79h445q135 0 214 -79t79 -214v-156h-197v140q0 58 -32.5 92t-88.5 34h-395q-58 0 -90.5 -34t-32.5 -92v-873q0 -59 32.5 -93t90.5 -34h395q56 0 88.5 34.5t32.5 92.5v299h-340v178h537v-493q0 -135 -79 -214t-214 -79h-445 q-135 0 -214.5 79t-79.5 214z" />
<glyph unicode="H" horiz-adv-x="1421" d="M184 0v1475h197v-629h659v629h197v-1475h-197v662h-659v-662h-197z" />
<glyph unicode="I" horiz-adv-x="567" d="M184 0v1475h197v-1475h-197z" />
<glyph unicode="J" horiz-adv-x="1208" d="M78 285v262h196v-246q0 -58 32.5 -92.5t90.5 -34.5h330q58 0 90.5 34.5t32.5 92.5v1174h197v-1190q0 -135 -80 -214t-215 -79h-379q-135 0 -215 79t-80 214z" />
<glyph unicode="K" horiz-adv-x="1363" d="M184 0v1475h197v-818l659 818h238l-498 -598l537 -877h-225l-439 723l-272 -328v-395h-197z" />
<glyph unicode="L" horiz-adv-x="1134" d="M184 0v1475h197v-1293h680v-182h-877z" />
<glyph unicode="M" horiz-adv-x="1722" d="M184 0v1475h230l446 -1002l451 1002h227v-1475h-186v1169l-410 -933h-160l-411 933v-1169h-187z" />
<glyph unicode="N" horiz-adv-x="1454" d="M184 0v1475h224l677 -1190v1190h183v-1475h-224l-677 1192v-1192h-183z" />
<glyph unicode="O" horiz-adv-x="1343" d="M150 285v905q0 135 79.5 214t214.5 79h455q135 0 214 -79t79 -214v-905q0 -135 -79 -214t-214 -79h-455q-135 0 -214.5 79t-79.5 214zM346 301q0 -58 32.5 -92.5t90.5 -34.5h405q56 0 88.5 34.5t32.5 92.5v873q0 58 -32.5 92t-88.5 34h-405q-58 0 -90.5 -34t-32.5 -92 v-873z" />
<glyph unicode="P" horiz-adv-x="1290" d="M184 0v1475h713q135 0 215 -79t80 -214v-330q0 -135 -80 -214t-215 -79h-516v-559h-197zM381 741h491q58 0 90.5 34.5t32.5 92.5v297q0 58 -32.5 92.5t-90.5 34.5h-491v-551z" />
<glyph unicode="Q" horiz-adv-x="1345" d="M150 285v905q0 135 79.5 214t214.5 79h457q135 0 215 -79t80 -214v-905q0 -120 -63.5 -197t-174.5 -92l82 -195h-166l-79 191h-351q-135 0 -214.5 79t-79.5 214zM346 301q0 -58 32.5 -92.5t90.5 -34.5h248l-101 236h166l101 -236q55 1 85.5 36t30.5 91v873q0 58 -32 92 t-90 34h-408q-58 0 -90.5 -34t-32.5 -92v-873z" />
<glyph unicode="R" horiz-adv-x="1339" d="M184 0v1475h711q135 0 215 -79t80 -214v-297q0 -127 -66.5 -203t-183.5 -90l295 -592h-215l-291 590h-348v-590h-197zM381 772h489q58 0 90.5 34.5t32.5 92.5v266q0 58 -32.5 92.5t-90.5 34.5h-489v-520z" />
<glyph unicode="S" horiz-adv-x="1282" d="M143 285v159h195v-143q0 -58 32.5 -94.5t88.5 -36.5h364q56 0 88.5 36.5t32.5 94.5v176q0 67 -27 91t-94 40l-381 90q-144 32 -219.5 99t-75.5 196v197q0 135 79 214t214 79h385q135 0 214 -79t79 -214v-141h-192v125q0 58 -33 94.5t-90 36.5h-338q-56 0 -88.5 -36.5 t-32.5 -94.5v-152q0 -35 9 -59.5t28 -38.5t36.5 -21t47.5 -14l381 -88q145 -34 220 -100t75 -195v-221q0 -135 -79 -214t-214 -79h-410q-135 0 -215 79t-80 214z" />
<glyph unicode="T" horiz-adv-x="1161" d="M61 1292v183h1041v-183h-422v-1292h-197v1292h-422z" />
<glyph unicode="U" horiz-adv-x="1345" d="M162 285v1190h196v-1174q0 -58 32.5 -92.5t90.5 -34.5h383q56 0 88.5 34.5t32.5 92.5v1174h197v-1190q0 -135 -79 -214t-214 -79h-432q-135 0 -215 79t-80 214z" />
<glyph unicode="V" horiz-adv-x="1290" d="M53 1475h219l373 -1250l381 1250h211l-479 -1475h-226z" />
<glyph unicode="W" horiz-adv-x="1853" d="M53 1475h209l285 -1209l299 1209h168l301 -1209l284 1209h201l-391 -1475h-192l-287 1145l-285 -1145h-201z" />
<glyph unicode="X" horiz-adv-x="1269" d="M47 0l471 754l-455 721h228l352 -560l350 560h213l-454 -732l471 -743h-230l-368 584l-367 -584h-211z" />
<glyph unicode="Y" horiz-adv-x="1230" d="M27 1475h219l370 -725l369 725h221l-491 -938v-537h-197v537z" />
<glyph unicode="Z" horiz-adv-x="1222" d="M113 0v147l753 1145h-719v183h963v-148l-756 -1145h752v-182h-993z" />
<glyph unicode="[" horiz-adv-x="741" d="M188 -217v1823h428v-183h-231v-1458h231v-182h-428z" />
<glyph unicode="\" horiz-adv-x="989" d="M39 1618h186l725 -1761h-186z" />
<glyph unicode="]" horiz-adv-x="741" d="M127 -35h231v1458h-231v183h428v-1823h-428v182z" />
<glyph unicode="^" horiz-adv-x="1179" d="M166 844l317 631h213l318 -631h-187l-237 473l-238 -473h-186z" />
<glyph unicode="_" horiz-adv-x="1153" d="M12 -90h1129v-162h-1129v162z" />
<glyph unicode="`" horiz-adv-x="1105" d="M350 1905h232l184 -295h-139z" />
<glyph unicode="a" horiz-adv-x="1114" d="M96 279v102q0 132 77.5 209.5t209.5 77.5h53q165 -4 352 -39v196q0 57 -33 93t-89 36h-226q-55 0 -88 -36.5t-33 -92.5v-26h-186v26q0 129 80 209t209 80h264q129 0 209 -80t80 -209v-825h-187v150l-88 -68q-113 -90 -221 -90h-96q-129 0 -208 79t-79 208zM283 289 q0 -58 33.5 -94.5t89.5 -36.5h83q107 0 211 61l88 51v254h-385q-55 0 -87.5 -35.5t-32.5 -93.5v-106z" />
<glyph unicode="b" horiz-adv-x="1159" d="M152 0v1536h186v-580l88 68q113 90 225 90h103q129 0 207.5 -79t78.5 -208v-548q0 -129 -78.5 -208t-207.5 -79h-103q-112 0 -225 90l-88 68v-150h-186zM338 270l88 -51q101 -61 215 -61h88q57 0 90 36.5t33 94.5v528q0 58 -33 94.5t-90 36.5h-88q-114 0 -215 -61 l-88 -51v-566z" />
<glyph unicode="c" horiz-adv-x="1087" d="M121 279v548q0 129 79 208t208 79h292q129 0 208 -79t79 -208v-86h-188v80q0 58 -32.5 94.5t-88.5 36.5h-250q-55 0 -88 -36.5t-33 -94.5v-536q0 -58 33 -94.5t88 -36.5h250q56 0 88.5 36.5t32.5 94.5v80h188v-86q0 -129 -79 -208t-208 -79h-292q-129 0 -208 79t-79 208z " />
<glyph unicode="d" horiz-adv-x="1159" d="M121 279v548q0 129 79 208t208 79h102q108 0 225 -90l86 -68v580h189v-1536h-189v150l-86 -68q-117 -90 -225 -90h-102q-129 0 -208 79t-79 208zM307 289q0 -58 33.5 -94.5t89.5 -36.5h88q113 0 217 61l86 51v566l-86 51q-104 61 -217 61h-88q-56 0 -89.5 -36.5 t-33.5 -94.5v-528z" />
<glyph unicode="e" horiz-adv-x="1105" d="M121 279v548q0 129 79 208t208 79h297q129 0 207.5 -79t78.5 -208v-323h-684v-223q0 -58 33 -94.5t88 -36.5h256q55 0 88 36.5t33 94.5v67h186v-69q0 -129 -78.5 -208t-207.5 -79h-297q-129 0 -208 79t-79 208zM307 649h498v176q0 58 -33 94.5t-88 36.5h-256 q-55 0 -88 -36.5t-33 -94.5v-176z" />
<glyph unicode="f" horiz-adv-x="784" d="M59 950v156h191v143q0 129 79 208t208 79h204v-160h-186q-56 0 -88.5 -36t-32.5 -93v-141h307v-156h-307v-950h-186v950h-189z" />
<glyph unicode="g" horiz-adv-x="1159" d="M121 346v481q0 129 79 208t208 79h102q108 0 225 -90l86 -68v150h189v-1219q0 -129 -79 -207.5t-208 -78.5h-285q-129 0 -207.5 78.5t-78.5 207.5v31h182v-29q0 -61 34 -98t93 -37h233q59 0 93 37t34 98v328l-86 -67q-118 -91 -225 -91h-102q-129 0 -208 79t-79 208z M307 358q0 -59 33 -95t90 -36h88q109 0 217 60l86 53v496l-86 51q-104 61 -217 61h-88q-56 0 -89.5 -36.5t-33.5 -94.5v-459z" />
<glyph unicode="h" horiz-adv-x="1157" d="M152 0v1536h186v-580l88 68q113 90 225 90h80q129 0 208 -79t79 -208v-827h-187v817q0 58 -33 94.5t-89 36.5h-68q-114 0 -215 -61l-88 -51v-836h-186z" />
<glyph unicode="i" horiz-adv-x="505" d="M150 1327v209h206v-209h-206zM160 0v1106h186v-1106h-186z" />
<glyph unicode="j" horiz-adv-x="509" d="M-72 -242h113q56 0 88.5 36.5t32.5 94.5v1217h188v-1225q0 -129 -79 -208t-208 -79h-135v164zM152 1327v209h208v-209h-208z" />
<glyph unicode="k" horiz-adv-x="1099" d="M152 0v1475h184v-947l467 578h227l-364 -424l393 -682h-205l-307 543l-211 -246v-297h-184z" />
<glyph unicode="l" horiz-adv-x="499" d="M158 0v1536h184v-1536h-184z" />
<glyph unicode="m" horiz-adv-x="1744" d="M152 0v1106h186v-150l88 68q113 90 225 90h43q98 0 168 -46t99 -128l106 84q113 90 225 90h43q129 0 208 -79t79 -208v-827h-186v817q0 58 -33.5 94.5t-89.5 36.5h-29q-113 0 -217 -61l-86 -51v-836h-188v817q0 58 -33 94.5t-90 36.5h-29q-114 0 -215 -61l-88 -51v-836 h-186z" />
<glyph unicode="n" horiz-adv-x="1157" d="M152 0v1106h186v-150l88 68q113 90 225 90h80q129 0 208 -79t79 -208v-827h-187v817q0 58 -33 94.5t-89 36.5h-68q-114 0 -215 -61l-88 -51v-836h-186z" />
<glyph unicode="o" horiz-adv-x="1124" d="M121 279v548q0 129 79 208t208 79h309q129 0 208 -79t79 -208v-548q0 -129 -79 -208t-208 -79h-309q-129 0 -208 79t-79 208zM307 281q0 -56 33 -92.5t88 -36.5h268q55 0 88 36.5t33 92.5v544q0 56 -33 92.5t-88 36.5h-268q-55 0 -88 -36.5t-33 -92.5v-544z" />
<glyph unicode="p" horiz-adv-x="1159" d="M152 -391v1497h186v-150l88 68q113 90 225 90h103q129 0 207.5 -79t78.5 -208v-548q0 -129 -78.5 -208t-207.5 -79h-103q-112 0 -225 90l-88 68v-541h-186zM338 270l88 -51q101 -61 215 -61h88q57 0 90 36.5t33 94.5v528q0 58 -33 94.5t-90 36.5h-88q-114 0 -215 -61 l-88 -51v-566z" />
<glyph unicode="q" horiz-adv-x="1159" d="M121 279v548q0 129 79 208t208 79h102q108 0 225 -90l86 -68v150h189v-1497h-189v541l-86 -68q-117 -90 -225 -90h-102q-129 0 -208 79t-79 208zM307 289q0 -58 33.5 -94.5t89.5 -36.5h88q113 0 217 61l86 51v566l-86 51q-104 61 -217 61h-88q-56 0 -89.5 -36.5 t-33.5 -94.5v-528z" />
<glyph unicode="r" horiz-adv-x="815" d="M152 0v1106h186v-150l88 68q113 90 225 90h109v-174h-119q-112 0 -215 -59l-88 -54v-827h-186z" />
<glyph unicode="s" horiz-adv-x="1067" d="M102 264v80h185v-72q0 -57 27.5 -89.5t82.5 -32.5h273q106 0 106 122v95q0 47 -24 66.5t-80 29.5l-316 51q-123 20 -181 77.5t-58 160.5v90q0 124 73.5 198t198.5 74h275q126 0 200 -73.5t74 -198.5v-62h-184v58q0 57 -28.5 90t-82.5 33h-229q-54 0 -82.5 -33t-28.5 -90 v-66q0 -47 25.5 -67.5t81.5 -30.5l315 -51q123 -20 181.5 -77.5t58.5 -160.5v-121q0 -125 -74.5 -198.5t-200.5 -73.5h-315q-125 0 -199 74t-74 198z" />
<glyph unicode="t" horiz-adv-x="847" d="M53 950v156h191v369h182v-369h346v-156h-344v-659q0 -58 33 -93.5t88 -35.5h223v-162h-244q-129 0 -207.5 79t-78.5 208v663h-189z" />
<glyph unicode="u" horiz-adv-x="1157" d="M139 279v827h187v-817q0 -58 33.5 -94.5t89.5 -36.5h67q111 0 215 61l88 51v836h187v-1106h-187v150l-88 -68q-113 -90 -225 -90h-80q-129 0 -208 79t-79 208z" />
<glyph unicode="v" horiz-adv-x="1024" d="M37 1106h203l278 -950l277 950h192l-364 -1106h-222z" />
<glyph unicode="w" horiz-adv-x="1550" d="M37 1106h192l246 -926l219 926h170l219 -926l248 926h180l-329 -1106h-197l-205 836l-205 -836h-200z" />
<glyph unicode="x" d="M35 0l375 565l-371 541h209l276 -406l269 406h196l-364 -553l376 -553h-206l-285 418l-279 -418h-196z" />
<glyph unicode="y" horiz-adv-x="1030" d="M37 1106h192l285 -875l297 875h182l-514 -1497h-176l133 391z" />
<glyph unicode="z" horiz-adv-x="954" d="M76 0v125l565 819h-541v162h772v-123l-567 -821h567v-162h-796z" />
<glyph unicode="{" horiz-adv-x="845" d="M106 621v170h68q123 0 123 127v395q0 135 79 214t214 79h131v-183h-107q-56 0 -89 -34.5t-33 -92.5v-381q0 -75 -37.5 -127t-96.5 -81q136 -75 136 -209v-406q0 -58 32 -92.5t88 -34.5h107v-182h-131q-135 0 -214 79t-79 214v418q0 127 -123 127h-68z" />
<glyph unicode="|" horiz-adv-x="653" d="M242 -442v2054h170v-2054h-170z" />
<glyph unicode="}" horiz-adv-x="845" d="M127 -35h104q58 0 90.5 34.5t32.5 92.5v406q0 134 135 209q-60 29 -97.5 81t-37.5 127v381q0 58 -32.5 92.5t-90.5 34.5h-104v183h129q135 0 215 -79t80 -214v-395q0 -127 121 -127h69v-170h-69q-121 0 -121 -127v-418q0 -135 -80 -214t-215 -79h-129v182z" />
<glyph unicode="~" d="M156 545l63 186q30 89 125 64l371 -95l43 109h127l-68 -188q-31 -87 -123 -62l-372 98l-43 -112h-123z" />
<glyph unicode="&#xa1;" horiz-adv-x="591" d="M182 -369l54 1039h120l54 -1039h-228zM190 874v232h211v-232h-211z" />
<glyph unicode="&#xa2;" horiz-adv-x="1153" d="M135 496v495q0 135 79 214t214 79h72v191h159v-191h70q135 0 214 -79t79 -214v-84h-184v74q0 59 -33.5 95t-91.5 36h-62v-737h62q58 0 91.5 36t33.5 95v74h184v-84q0 -135 -79 -214t-214 -79h-70v-203h-159v203h-72q-135 0 -214 79t-79 214zM319 506q0 -59 32.5 -95 t90.5 -36h68v737h-68q-58 0 -90.5 -36t-32.5 -95v-475z" />
<glyph unicode="&#xa3;" horiz-adv-x="1277" d="M70 0v182h106q29 0 45.5 16.5t16.5 45.5v379h-168v180h168v385q0 138 78 216.5t216 78.5h322q138 0 216.5 -78.5t78.5 -216.5v-166h-197v152q0 58 -32.5 92t-90.5 34h-274q-56 0 -88.5 -34t-32.5 -92v-371h393v-180h-393v-441h723v-182h-1087z" />
<glyph unicode="&#xa4;" horiz-adv-x="1239" d="M80 291l160 160q-29 66 -29 145v315q0 83 27 142l-158 157l119 123l157 -157q67 28 146 28h235q79 0 146 -28l157 157l119 -123l-158 -157q27 -59 27 -142v-315q0 -79 -29 -145l160 -160l-119 -123l-163 164q-63 -29 -140 -29h-235q-77 0 -140 29l-163 -164zM389 600 q0 -59 33.5 -95t91.5 -36h211q58 0 91.5 36t33.5 95v307q0 59 -33.5 95t-91.5 36h-211q-58 0 -91.5 -36t-33.5 -95v-307z" />
<glyph unicode="&#xa5;" horiz-adv-x="1230" d="M27 1475h219l370 -715l369 715h221l-415 -783h258v-133h-328l-6 -12v-98h334v-134h-334v-315h-197v315h-336v134h336v98l-8 12h-328v133h258z" />
<glyph unicode="&#xa6;" horiz-adv-x="653" d="M242 369h170v-811h-170v811zM242 801v811h170v-811h-170z" />
<glyph unicode="&#xa7;" horiz-adv-x="1097" d="M115 80v80h180v-68q0 -54 30 -88.5t81 -34.5h270q52 0 81 34.5t29 88.5v98q0 83 -106 99l-313 53q-103 18 -170.5 82t-67.5 156v143q0 132 92 207q-78 68 -78 160v120q0 124 74.5 198.5t198.5 74.5h268q124 0 198 -74t74 -199v-53h-180v45q0 54 -29.5 88.5t-82.5 34.5 h-230q-51 0 -79.5 -34.5t-28.5 -88.5v-92q0 -86 106 -102l320 -54q101 -15 166 -79.5t65 -157.5v-146q0 -128 -90 -204q76 -72 76 -160v-127q0 -124 -74.5 -198.5t-198.5 -74.5h-309q-124 0 -198 74t-74 199zM311 600q0 -86 107 -102l295 -49q41 4 64.5 39.5t23.5 84.5v127 q0 83 -107 99l-303 51q-38 -4 -59 -39.5t-21 -83.5v-127z" />
<glyph unicode="&#xa8;" horiz-adv-x="1310" d="M375 1618v221h190v-221h-190zM745 1618v221h191v-221h-191z" />
<glyph unicode="&#xa9;" horiz-adv-x="1734" d="M184 285v905q0 135 79 214t214 79h780q135 0 214 -79t79 -214v-905q0 -135 -79 -214t-214 -79h-780q-135 0 -214 79t-79 214zM317 285q0 -79 41.5 -125.5t118.5 -46.5h780q77 0 118.5 46.5t41.5 125.5v905q0 79 -41.5 125.5t-118.5 46.5h-780q-77 0 -118.5 -46.5 t-41.5 -125.5v-905zM528 494v487q0 103 58.5 161t161.5 58h237q104 0 162.5 -58t58.5 -161v-111h-159v97q0 88 -76 88h-207q-78 0 -78 -88v-459q0 -88 78 -88h207q76 0 76 88v96h159v-110q0 -103 -58.5 -161.5t-162.5 -58.5h-237q-103 0 -161.5 58.5t-58.5 161.5z" />
<glyph unicode="&#xaa;" horiz-adv-x="776" d="M100 936v68q0 86 50 135t137 49h32q101 0 226 -25v113q0 37 -21.5 59.5t-56.5 22.5h-135q-36 0 -57 -22.5t-21 -59.5v-10h-133v24q0 83 52.5 136t135.5 53h178q84 0 136.5 -52.5t52.5 -136.5v-534h-131v98l-64 -57q-54 -47 -129 -47h-65q-83 0 -135 51.5t-52 134.5z M117 510v117h559v-117h-559zM231 950q0 -36 20.5 -58t55.5 -22h55q64 0 130 37l53 35v148h-238q-35 0 -55.5 -23t-20.5 -59v-58z" />
<glyph unicode="&#xab;" horiz-adv-x="929" d="M49 674v90l262 381h197l-293 -426l293 -424h-197zM406 674v90l262 381h196l-293 -426l293 -424h-196z" />
<glyph unicode="&#xad;" horiz-adv-x="894" d="M123 584v182h649v-182h-649z" />
<glyph unicode="&#xae;" horiz-adv-x="843" d="M113 862v490q0 54 38.5 92.5t92.5 38.5h348q59 0 99 -38t40 -93v-490q0 -54 -38.5 -92.5t-92.5 -38.5h-356q-54 0 -92.5 38.5t-38.5 92.5zM176 862q0 -25 16.5 -48t51.5 -23h356q35 0 51.5 23t16.5 48v490q0 25 -17.5 48t-58.5 23h-348q-35 0 -51.5 -23t-16.5 -48v-490z M270 885v446h217q41 0 64.5 -23.5t23.5 -64.5v-92q0 -40 -22 -64t-57 -24l88 -178h-68l-90 178h-94v-178h-62zM334 1124h149q29 0 29 29v88q0 31 -29 31h-149v-148z" />
<glyph unicode="&#xaf;" horiz-adv-x="1230" d="M342 1630v158h537v-158h-537z" />
<glyph unicode="&#xb0;" horiz-adv-x="673" d="M135 1137v245q0 41 27.5 69t68.5 28h211q41 0 69 -28t28 -69v-245q0 -41 -28 -69t-69 -28h-211q-41 0 -68.5 28t-27.5 69zM236 1157q0 -11 7 -17.5t17 -6.5h154q10 0 17 6.5t7 17.5v205q0 10 -7 17t-17 7h-154q-10 0 -17 -7t-7 -17v-205z" />
<glyph unicode="&#xb1;" d="M129 221v164h782v-164h-782zM129 793v165h309v304h164v-304h309v-165h-309v-301h-164v301h-309z" />
<glyph unicode="&#xb2;" horiz-adv-x="700" d="M68 938v248q0 59 42.5 92.5t125.5 60.5l200 66q22 6 32 10t17 13t7 24v68q0 47 -56 47h-162q-55 0 -55 -47v-47h-141v79q0 65 48 108.5t120 43.5h223q72 0 120 -43.5t48 -108.5v-131q0 -59 -42.5 -92.5t-125.5 -60.5l-201 -66q-21 -6 -30.5 -10t-17 -13t-7.5 -24v-80h426 v-137h-571z" />
<glyph unicode="&#xb3;" horiz-adv-x="704" d="M57 1085v78h146v-49q0 -47 55 -47h174q55 0 55 47v103q0 26 -16 36.5t-51 10.5h-170v127h170q33 0 46 10t13 37v86q0 47 -57 47h-154q-57 0 -57 -47v-49h-143v77q0 65 48 108.5t120 43.5h221q72 0 119 -43.5t47 -108.5v-110q0 -71 -74 -115q39 -17 60.5 -48t21.5 -67 v-127q0 -65 -47 -108t-119 -43h-240q-72 0 -120 43t-48 108z" />
<glyph unicode="&#xb4;" horiz-adv-x="1097" d="M342 1610l184 295h232l-279 -295h-137z" />
<glyph unicode="&#xb6;" horiz-adv-x="1546" d="M121 864v318q0 135 79 214t214 79h948v-1475h-197v1292h-159v-1292h-197v571h-395q-135 0 -214 79t-79 214z" />
<glyph unicode="&#xb7;" horiz-adv-x="487" d="M135 561v234h217v-234h-217z" />
<glyph unicode="&#xb8;" horiz-adv-x="1157" d="M346 -322h295q25 0 32 10t7 38v20q0 28 -7 37.5t-32 9.5h-244l103 207h123l-52 -102h68q79 0 125.5 -39t46.5 -113v-20q0 -74 -46.5 -113t-125.5 -39h-190z" />
<glyph unicode="&#xb9;" horiz-adv-x="452" d="M49 1503v121l176 78h115v-762h-143v612z" />
<glyph unicode="&#xba;" horiz-adv-x="780" d="M100 936v356q0 83 52 135t135 52h207q83 0 134.5 -52t51.5 -135v-356q0 -83 -51.5 -134.5t-134.5 -51.5h-207q-83 0 -135 51.5t-52 134.5zM117 510v117h547v-117h-547zM233 950q0 -36 20.5 -58t53.5 -22h166q33 0 53.5 22t20.5 58v328q0 36 -20.5 58t-53.5 22h-166 q-33 0 -53.5 -22t-20.5 -58v-328z" />
<glyph unicode="&#xbb;" horiz-adv-x="929" d="M59 295l293 424l-293 426h197l262 -381v-90l-262 -379h-197zM418 295l293 424l-293 426h196l263 -381v-90l-263 -379h-196z" />
<glyph unicode="&#xbc;" horiz-adv-x="1443" d="M49 1278v121l176 78h115v-762h-143v612zM145 0l803 1475h148l-803 -1475h-148zM711 264l434 498h127v-477h119v-127h-119v-158h-139v158h-398zM885 285h248v268z" />
<glyph unicode="&#xbd;" horiz-adv-x="1486" d="M49 1278v121l176 78h115v-762h-143v612zM145 0l803 1475h148l-803 -1475h-148zM856 0v248q0 59 42.5 92.5t123.5 60.5l203 66q22 6 31.5 10t16.5 13t7 24v68q0 47 -55 47h-162q-57 0 -57 -47v-47h-140v79q0 65 47 108.5t119 43.5h225q72 0 119 -43.5t47 -108.5v-131 q0 -59 -42.5 -92.5t-123.5 -60.5l-200 -66q-23 -6 -32.5 -10t-17.5 -13t-8 -24v-80h428v-137h-571z" />
<glyph unicode="&#xbe;" horiz-adv-x="1695" d="M57 860v78h146v-49q0 -47 55 -47h174q55 0 55 47v102q0 26 -16 36.5t-51 10.5h-170v127h170q33 0 46 10t13 37v86q0 48 -57 48h-154q-57 0 -57 -48v-49h-143v78q0 65 48 108.5t120 43.5h221q72 0 119 -43.5t47 -108.5v-110q0 -71 -74 -115q39 -17 60.5 -48t21.5 -67v-127 q0 -65 -47 -108t-119 -43h-240q-72 0 -120 43t-48 108zM397 0l803 1475h148l-803 -1475h-148zM963 264l434 498h127v-477h118v-127h-118v-158h-140v158h-397zM1137 285h247v268z" />
<glyph unicode="&#xbf;" horiz-adv-x="1144" d="M90 -84v178q0 44 15 81.5t38 65t62 55.5t75 48t89 48q9 5 14 7l63 35q5 2 18.5 9.5t18.5 10t16.5 9t16.5 10t14 10t13 11t9.5 11t8 13t4.5 14t2 15.5v155h197v-174q0 -50 -16.5 -88.5t-61 -74.5t-75 -54t-105.5 -58q-8 -5 -12.5 -7t-11.5 -6t-13 -7l-61 -32 q-6 -3 -24 -13t-24 -13t-20 -11.5t-18.5 -13.5t-13.5 -14.5t-12 -17.5t-6 -19.5t-3 -24.5v-142q0 -58 32.5 -92.5t88.5 -34.5h366q58 0 90.5 34.5t32.5 92.5v136h197v-152q0 -135 -80 -214t-215 -79h-416q-135 0 -214 79t-79 214zM567 858v248h197v-248h-197z" />
<glyph unicode="&#xc0;" horiz-adv-x="1349" d="M51 0l510 1475h227l508 -1475h-211l-131 397h-567l-133 -397h-203zM365 1905h231l184 -295h-137zM446 580h449l-221 682z" />
<glyph unicode="&#xc1;" horiz-adv-x="1349" d="M51 0l510 1475h227l508 -1475h-211l-131 397h-567l-133 -397h-203zM446 580h449l-221 682zM555 1610l184 295h232l-279 -295h-137z" />
<glyph unicode="&#xc2;" horiz-adv-x="1349" d="M51 0l510 1475h227l508 -1475h-211l-131 397h-567l-133 -397h-203zM328 1610l252 252h180l250 -252h-146l-194 151l-197 -151h-145zM446 580h449l-221 682z" />
<glyph unicode="&#xc3;" horiz-adv-x="1349" d="M51 0l510 1475h227l508 -1475h-211l-131 397h-567l-133 -397h-203zM373 1610l41 194q9 43 41.5 58t79.5 -2l284 -105l39 107h123l-45 -197q-9 -41 -42.5 -55.5t-76.5 2.5l-291 108l-37 -110h-116zM446 580h449l-221 682z" />
<glyph unicode="&#xc4;" horiz-adv-x="1349" d="M51 0l510 1475h227l508 -1475h-211l-131 397h-567l-133 -397h-203zM389 1618v221h191v-221h-191zM446 580h449l-221 682zM760 1618v221h188v-221h-188z" />
<glyph unicode="&#xc5;" horiz-adv-x="1349" d="M51 0l510 1475h227l508 -1475h-211l-131 397h-567l-133 -397h-203zM446 580h449l-221 682zM492 1679v191q0 26 21.5 47.5t47.5 21.5h215q26 0 48 -21.5t22 -47.5v-191q0 -26 -22 -47.5t-48 -21.5h-215q-26 0 -47.5 21.5t-21.5 47.5zM580 1718q0 -10 7 -17t17 -7h131 q11 0 18 7t7 17v113q0 10 -7 17t-18 7h-131q-10 0 -17 -6.5t-7 -17.5v-113z" />
<glyph unicode="&#xc6;" horiz-adv-x="2021" d="M18 0l750 1475h1145v-183h-744v-442h633v-182h-633v-486h744v-182h-940v397h-539l-194 -397h-222zM526 580h447v710h-96z" />
<glyph unicode="&#xc7;" horiz-adv-x="1290" d="M150 285v905q0 135 79.5 214t214.5 79h428q135 0 214 -79t79 -214v-184h-196v168q0 58 -32.5 92t-88.5 34h-379q-58 0 -90.5 -34t-32.5 -92v-873q0 -58 32.5 -92.5t90.5 -34.5h379q56 0 88.5 34.5t32.5 92.5v168h196v-184q0 -135 -79 -214t-214 -79h-143l-47 -94h66 q79 0 125.5 -39t46.5 -113v-20q0 -74 -46.5 -113t-125.5 -39h-191l-102 104h297q23 0 29.5 10t6.5 38v20q0 28 -6 37.5t-30 9.5h-246l98 199h-160q-135 0 -214.5 79t-79.5 214z" />
<glyph unicode="&#xc8;" horiz-adv-x="1218" d="M184 0v1475h928v-183h-731v-446h608v-184h-608v-480h731v-182h-928zM336 1905h231l185 -295h-138z" />
<glyph unicode="&#xc9;" horiz-adv-x="1218" d="M184 0v1475h928v-183h-731v-446h608v-184h-608v-480h731v-182h-928zM526 1610l185 295h231l-276 -295h-140z" />
<glyph unicode="&#xca;" horiz-adv-x="1218" d="M184 0v1475h928v-183h-731v-446h608v-184h-608v-480h731v-182h-928zM299 1610l252 252h180l252 -252h-145l-197 151l-197 -151h-145z" />
<glyph unicode="&#xcb;" horiz-adv-x="1218" d="M184 0v1475h928v-183h-731v-446h608v-184h-608v-480h731v-182h-928zM360 1618v221h191v-221h-191zM731 1618v221h191v-221h-191z" />
<glyph unicode="&#xcc;" horiz-adv-x="567" d="M-27 1905h232l184 -295h-137zM184 0v1475h197v-1475h-197z" />
<glyph unicode="&#xcd;" horiz-adv-x="567" d="M164 1610l184 295h232l-279 -295h-137zM184 0v1475h197v-1475h-197z" />
<glyph unicode="&#xce;" horiz-adv-x="567" d="M-63 1610l251 252h181l249 -252h-145l-194 151l-197 -151h-145zM184 0v1475h197v-1475h-197z" />
<glyph unicode="&#xcf;" horiz-adv-x="567" d="M-2 1618v221h190v-221h-190zM184 0v1475h197v-1475h-197zM369 1618v221h188v-221h-188z" />
<glyph unicode="&#xd0;" horiz-adv-x="1339" d="M8 649v189h172v637h727q135 0 214 -79t79 -214v-889q0 -135 -79 -214t-214 -79h-727v649h-172zM377 182h506q56 0 88.5 34.5t32.5 92.5v856q0 58 -32.5 92.5t-88.5 34.5h-506v-454h170v-189h-170v-467z" />
<glyph unicode="&#xd1;" horiz-adv-x="1454" d="M184 0v1475h224l677 -1190v1190h183v-1475h-224l-677 1192v-1192h-183zM432 1610l41 194q9 43 41.5 58t79.5 -2l285 -105l39 107h122l-45 -197q-9 -41 -42 -55.5t-76 2.5l-291 108l-37 -110h-117z" />
<glyph unicode="&#xd2;" horiz-adv-x="1343" d="M150 285v905q0 135 79.5 214t214.5 79h455q135 0 214 -79t79 -214v-905q0 -135 -79 -214t-214 -79h-455q-135 0 -214.5 79t-79.5 214zM346 301q0 -58 32.5 -92.5t90.5 -34.5h405q56 0 88.5 34.5t32.5 92.5v873q0 58 -32.5 92t-88.5 34h-405q-58 0 -90.5 -34t-32.5 -92 v-873zM362 1905h232l184 -295h-137z" />
<glyph unicode="&#xd3;" horiz-adv-x="1343" d="M150 285v905q0 135 79.5 214t214.5 79h455q135 0 214 -79t79 -214v-905q0 -135 -79 -214t-214 -79h-455q-135 0 -214.5 79t-79.5 214zM346 301q0 -58 32.5 -92.5t90.5 -34.5h405q56 0 88.5 34.5t32.5 92.5v873q0 58 -32.5 92t-88.5 34h-405q-58 0 -90.5 -34t-32.5 -92 v-873zM553 1610l184 295h232l-279 -295h-137z" />
<glyph unicode="&#xd4;" horiz-adv-x="1343" d="M150 285v905q0 135 79.5 214t214.5 79h455q135 0 214 -79t79 -214v-905q0 -135 -79 -214t-214 -79h-455q-135 0 -214.5 79t-79.5 214zM326 1610l252 252h180l250 -252h-146l-194 151l-197 -151h-145zM346 301q0 -58 32.5 -92.5t90.5 -34.5h405q56 0 88.5 34.5t32.5 92.5 v873q0 58 -32.5 92t-88.5 34h-405q-58 0 -90.5 -34t-32.5 -92v-873z" />
<glyph unicode="&#xd5;" horiz-adv-x="1343" d="M150 285v905q0 135 79.5 214t214.5 79h455q135 0 214 -79t79 -214v-905q0 -135 -79 -214t-214 -79h-455q-135 0 -214.5 79t-79.5 214zM346 301q0 -58 32.5 -92.5t90.5 -34.5h405q56 0 88.5 34.5t32.5 92.5v873q0 58 -32.5 92t-88.5 34h-405q-58 0 -90.5 -34t-32.5 -92 v-873zM371 1610l41 194q9 43 41 58t79 -2l285 -105l39 107h123l-45 -197q-9 -41 -42.5 -55.5t-76.5 2.5l-291 108l-37 -110h-116z" />
<glyph unicode="&#xd6;" horiz-adv-x="1343" d="M150 285v905q0 135 79.5 214t214.5 79h455q135 0 214 -79t79 -214v-905q0 -135 -79 -214t-214 -79h-455q-135 0 -214.5 79t-79.5 214zM346 301q0 -58 32.5 -92.5t90.5 -34.5h405q56 0 88.5 34.5t32.5 92.5v873q0 58 -32.5 92t-88.5 34h-405q-58 0 -90.5 -34t-32.5 -92 v-873zM387 1618v221h191v-221h-191zM758 1618v221h188v-221h-188z" />
<glyph unicode="&#xd7;" d="M154 426l254 256l-254 254l114 115l252 -254l254 256l115 -113l-254 -256l254 -254l-115 -115l-252 254l-254 -256z" />
<glyph unicode="&#xd8;" horiz-adv-x="1345" d="M150 285v905q0 135 79.5 214t214.5 79h457q135 0 215 -79t80 -214v-905q0 -135 -80 -214t-215 -79h-457q-135 0 -214.5 79t-79.5 214zM346 303l510 995h-387q-58 0 -90.5 -34.5t-32.5 -92.5v-868zM479 176h398q58 0 90 34.5t32 92.5v868l-2 17z" />
<glyph unicode="&#xd9;" horiz-adv-x="1345" d="M162 285v1190h196v-1174q0 -58 32.5 -92.5t90.5 -34.5h383q56 0 88.5 34.5t32.5 92.5v1174h197v-1190q0 -135 -79 -214t-214 -79h-432q-135 0 -215 79t-80 214zM362 1905h232l184 -295h-137z" />
<glyph unicode="&#xda;" horiz-adv-x="1345" d="M162 285v1190h196v-1174q0 -58 32.5 -92.5t90.5 -34.5h383q56 0 88.5 34.5t32.5 92.5v1174h197v-1190q0 -135 -79 -214t-214 -79h-432q-135 0 -215 79t-80 214zM553 1610l184 295h232l-279 -295h-137z" />
<glyph unicode="&#xdb;" horiz-adv-x="1345" d="M162 285v1190h196v-1174q0 -58 32.5 -92.5t90.5 -34.5h383q56 0 88.5 34.5t32.5 92.5v1174h197v-1190q0 -135 -79 -214t-214 -79h-432q-135 0 -215 79t-80 214zM326 1610l252 252h180l250 -252h-146l-194 151l-197 -151h-145z" />
<glyph unicode="&#xdc;" horiz-adv-x="1345" d="M162 285v1190h196v-1174q0 -58 32.5 -92.5t90.5 -34.5h383q56 0 88.5 34.5t32.5 92.5v1174h197v-1190q0 -135 -79 -214t-214 -79h-432q-135 0 -215 79t-80 214zM387 1618v221h191v-221h-191zM758 1618v221h188v-221h-188z" />
<glyph unicode="&#xdd;" horiz-adv-x="1230" d="M27 1475h219l370 -725l369 725h221l-491 -938v-537h-197v537zM496 1610l184 295h231l-276 -295h-139z" />
<glyph unicode="&#xde;" horiz-adv-x="1290" d="M184 0v1475h197v-277h516q135 0 215 -79t80 -214v-317q0 -135 -80 -214t-215 -79h-516v-295h-197zM381 477h491q58 0 90.5 34.5t32.5 92.5v285q0 58 -32.5 92.5t-90.5 34.5h-491v-539z" />
<glyph unicode="&#xdf;" horiz-adv-x="1150" d="M143 0v1196q0 129 79 208t208 79h307q129 0 208 -79t79 -208v-221q0 -71 -36 -128.5t-97 -90.5q67 -26 108 -83.5t41 -133.5v-252q0 -129 -78.5 -208t-207.5 -79h-273v162h250q56 0 88.5 36.5t32.5 94.5v262q0 61 -32.5 92t-106.5 31h-203v160h199q73 0 100 26t27 94v232 q0 58 -32.5 94.5t-88.5 36.5h-264q-55 0 -88 -36.5t-33 -94.5v-1190h-187z" />
<glyph unicode="&#xe0;" horiz-adv-x="1114" d="M96 279v102q0 132 77.5 209.5t209.5 77.5h53q165 -4 352 -39v196q0 57 -33 93t-89 36h-226q-55 0 -88 -36.5t-33 -92.5v-26h-186v26q0 129 80 209t209 80h264q129 0 209 -80t80 -209v-825h-187v150l-88 -68q-113 -90 -221 -90h-96q-129 0 -208 79t-79 208zM252 1548h231 l185 -295h-138zM283 289q0 -58 33.5 -94.5t89.5 -36.5h83q107 0 211 61l88 51v254h-385q-55 0 -87.5 -35.5t-32.5 -93.5v-106z" />
<glyph unicode="&#xe1;" horiz-adv-x="1114" d="M96 279v102q0 132 77.5 209.5t209.5 77.5h53q165 -4 352 -39v196q0 57 -33 93t-89 36h-226q-55 0 -88 -36.5t-33 -92.5v-26h-186v26q0 129 80 209t209 80h264q129 0 209 -80t80 -209v-825h-187v150l-88 -68q-113 -90 -221 -90h-96q-129 0 -208 79t-79 208zM283 289 q0 -58 33.5 -94.5t89.5 -36.5h83q107 0 211 61l88 51v254h-385q-55 0 -87.5 -35.5t-32.5 -93.5v-106zM442 1253l185 295h231l-278 -295h-138z" />
<glyph unicode="&#xe2;" horiz-adv-x="1114" d="M96 279v102q0 132 77.5 209.5t209.5 77.5h53q165 -4 352 -39v196q0 57 -33 93t-89 36h-226q-55 0 -88 -36.5t-33 -92.5v-26h-186v26q0 129 80 209t209 80h264q129 0 209 -80t80 -209v-825h-187v150l-88 -68q-113 -90 -221 -90h-96q-129 0 -208 79t-79 208zM215 1253 l252 252h180l250 -252h-145l-195 152l-197 -152h-145zM283 289q0 -58 33.5 -94.5t89.5 -36.5h83q107 0 211 61l88 51v254h-385q-55 0 -87.5 -35.5t-32.5 -93.5v-106z" />
<glyph unicode="&#xe3;" horiz-adv-x="1114" d="M96 279v102q0 132 77.5 209.5t209.5 77.5h53q165 -4 352 -39v196q0 57 -33 93t-89 36h-226q-55 0 -88 -36.5t-33 -92.5v-26h-186v26q0 129 80 209t209 80h264q129 0 209 -80t80 -209v-825h-187v150l-88 -68q-113 -90 -221 -90h-96q-129 0 -208 79t-79 208zM260 1253 l41 195q9 43 41.5 57.5t79.5 -2.5l285 -104l38 106h123l-45 -196q-9 -41 -42 -56t-76 2l-291 109l-37 -111h-117zM283 289q0 -58 33.5 -94.5t89.5 -36.5h83q107 0 211 61l88 51v254h-385q-55 0 -87.5 -35.5t-32.5 -93.5v-106z" />
<glyph unicode="&#xe4;" horiz-adv-x="1114" d="M96 279v102q0 132 77.5 209.5t209.5 77.5h53q165 -4 352 -39v196q0 57 -33 93t-89 36h-226q-55 0 -88 -36.5t-33 -92.5v-26h-186v26q0 129 80 209t209 80h264q129 0 209 -80t80 -209v-825h-187v150l-88 -68q-113 -90 -221 -90h-96q-129 0 -208 79t-79 208zM276 1262v221 h191v-221h-191zM283 289q0 -58 33.5 -94.5t89.5 -36.5h83q107 0 211 61l88 51v254h-385q-55 0 -87.5 -35.5t-32.5 -93.5v-106zM647 1262v221h189v-221h-189z" />
<glyph unicode="&#xe5;" horiz-adv-x="1114" d="M96 279v102q0 132 77.5 209.5t209.5 77.5h53q165 -4 352 -39v196q0 57 -33 93t-89 36h-226q-55 0 -88 -36.5t-33 -92.5v-26h-186v26q0 129 80 209t209 80h264q129 0 209 -80t80 -209v-825h-187v150l-88 -68q-113 -90 -221 -90h-96q-129 0 -208 79t-79 208zM283 289 q0 -58 33.5 -94.5t89.5 -36.5h83q107 0 211 61l88 51v254h-385q-55 0 -87.5 -35.5t-32.5 -93.5v-106zM379 1323v190q0 26 22 48t48 22h215q26 0 47.5 -22t21.5 -48v-190q0 -26 -21.5 -48t-47.5 -22h-215q-26 0 -48 22t-22 48zM467 1362q0 -10 7.5 -17.5t17.5 -7.5h131 q10 0 17 7t7 18v113q0 11 -6.5 17.5t-17.5 6.5h-131q-11 0 -18 -7t-7 -17v-113z" />
<glyph unicode="&#xe6;" horiz-adv-x="1773" d="M96 279v100q0 132 77.5 209.5t209.5 77.5h51q148 0 357 -37v184q0 61 -34 98t-93 37h-222q-59 0 -93 -37t-34 -98v-14h-186v26q0 129 80 209t209 80h268q118 0 197 -70q76 70 194 70h297q129 0 208 -79t79 -208v-327h-684v-213q0 -58 33.5 -93.5t89.5 -35.5h252 q58 0 90.5 36t32.5 95v61h186v-71q0 -129 -79 -208t-208 -79h-297q-98 0 -168.5 46t-99.5 128l-127 -105q-82 -69 -197 -69h-102q-129 0 -208 79t-79 208zM281 289q0 -58 33 -94.5t89 -36.5h91q102 0 202 59l95 53v254h-388q-57 0 -89.5 -35.5t-32.5 -93.5v-106zM977 647 h498v170q0 59 -32.5 95t-90.5 36h-252q-56 0 -89.5 -35.5t-33.5 -93.5v-172z" />
<glyph unicode="&#xe7;" horiz-adv-x="1087" d="M121 279v548q0 129 79 208t208 79h292q129 0 208 -79t79 -208v-86h-188v80q0 58 -32.5 94.5t-88.5 36.5h-250q-55 0 -88 -36.5t-33 -94.5v-536q0 -58 33 -94.5t88 -36.5h250q56 0 88.5 36.5t32.5 94.5v80h188v-86q0 -129 -79 -208t-208 -79h-86l-47 -94h68 q79 0 125.5 -39t46.5 -113v-20q0 -74 -46.5 -113t-125.5 -39h-191l-102 104h295q25 0 32 10t7 38v20q0 28 -7 37.5t-32 9.5h-246l98 199h-81q-129 0 -208 79t-79 208z" />
<glyph unicode="&#xe8;" horiz-adv-x="1105" d="M121 279v548q0 129 79 208t208 79h297q129 0 207.5 -79t78.5 -208v-323h-684v-223q0 -58 33 -94.5t88 -36.5h256q55 0 88 36.5t33 94.5v67h186v-69q0 -129 -78.5 -208t-207.5 -79h-297q-129 0 -208 79t-79 208zM246 1548h231l185 -295h-138zM307 649h498v176 q0 58 -33 94.5t-88 36.5h-256q-55 0 -88 -36.5t-33 -94.5v-176z" />
<glyph unicode="&#xe9;" horiz-adv-x="1105" d="M121 279v548q0 129 79 208t208 79h297q129 0 207.5 -79t78.5 -208v-323h-684v-223q0 -58 33 -94.5t88 -36.5h256q55 0 88 36.5t33 94.5v67h186v-69q0 -129 -78.5 -208t-207.5 -79h-297q-129 0 -208 79t-79 208zM307 649h498v176q0 58 -33 94.5t-88 36.5h-256 q-55 0 -88 -36.5t-33 -94.5v-176zM436 1253l185 295h231l-277 -295h-139z" />
<glyph unicode="&#xea;" horiz-adv-x="1105" d="M121 279v548q0 129 79 208t208 79h297q129 0 207.5 -79t78.5 -208v-323h-684v-223q0 -58 33 -94.5t88 -36.5h256q55 0 88 36.5t33 94.5v67h186v-69q0 -129 -78.5 -208t-207.5 -79h-297q-129 0 -208 79t-79 208zM209 1253l252 252h180l252 -252h-145l-197 152l-197 -152 h-145zM307 649h498v176q0 58 -33 94.5t-88 36.5h-256q-55 0 -88 -36.5t-33 -94.5v-176z" />
<glyph unicode="&#xeb;" horiz-adv-x="1105" d="M121 279v548q0 129 79 208t208 79h297q129 0 207.5 -79t78.5 -208v-323h-684v-223q0 -58 33 -94.5t88 -36.5h256q55 0 88 36.5t33 94.5v67h186v-69q0 -129 -78.5 -208t-207.5 -79h-297q-129 0 -208 79t-79 208zM270 1262v221h191v-221h-191zM307 649h498v176 q0 58 -33 94.5t-88 36.5h-256q-55 0 -88 -36.5t-33 -94.5v-176zM641 1262v221h190v-221h-190z" />
<glyph unicode="&#xec;" horiz-adv-x="512" d="M-41 1548h231l185 -295h-137zM162 0v1106h188v-1106h-188z" />
<glyph unicode="&#xed;" horiz-adv-x="512" d="M135 1253l184 295h232l-277 -295h-139zM162 0v1106h188v-1106h-188z" />
<glyph unicode="&#xee;" horiz-adv-x="512" d="M-86 1253l252 252h180l252 -252h-145l-197 152l-197 -152h-145zM164 0v1106h184v-1106h-184z" />
<glyph unicode="&#xef;" horiz-adv-x="512" d="M-25 1260v221h191v-221h-191zM166 0v1106h184v-1106h-184zM346 1260v221h191v-221h-191z" />
<glyph unicode="&#xf0;" horiz-adv-x="1128" d="M121 279v460q0 129 79 208t208 79h100q112 0 225 -90l88 -68v187q0 63 -28 89.5t-97 49.5l-139 45l-111 -109h-167l151 150l-180 57v129l295 -75l112 108h168l-147 -143l20 -6q83 -20 136.5 -42t95 -56t60 -82t18.5 -115v-776q0 -129 -79 -208t-208 -79h-313 q-129 0 -208 79t-79 208zM307 285q0 -56 33 -92.5t88 -36.5h270q56 0 89.5 36t33.5 93v460l-88 54q-106 59 -215 59h-88q-57 0 -90 -36t-33 -95v-442z" />
<glyph unicode="&#xf1;" horiz-adv-x="1157" d="M152 0v1106h186v-150l88 68q113 90 225 90h80q129 0 208 -79t79 -208v-827h-187v817q0 58 -33 94.5t-89 36.5h-68q-114 0 -215 -61l-88 -51v-836h-186zM287 1253l41 195q9 43 41.5 57.5t79.5 -2.5l284 -104l39 106h121l-45 -196q-9 -41 -42 -56t-77 2l-289 109l-37 -111 h-116z" />
<glyph unicode="&#xf2;" horiz-adv-x="1124" d="M121 279v548q0 129 79 208t208 79h309q129 0 208 -79t79 -208v-548q0 -129 -79 -208t-208 -79h-309q-129 0 -208 79t-79 208zM254 1548h231l185 -295h-138zM307 281q0 -56 33 -92.5t88 -36.5h268q55 0 88 36.5t33 92.5v544q0 56 -33 92.5t-88 36.5h-268q-55 0 -88 -36.5 t-33 -92.5v-544z" />
<glyph unicode="&#xf3;" horiz-adv-x="1124" d="M121 279v548q0 129 79 208t208 79h309q129 0 208 -79t79 -208v-548q0 -129 -79 -208t-208 -79h-309q-129 0 -208 79t-79 208zM307 281q0 -56 33 -92.5t88 -36.5h268q55 0 88 36.5t33 92.5v544q0 56 -33 92.5t-88 36.5h-268q-55 0 -88 -36.5t-33 -92.5v-544zM444 1253 l185 295h231l-276 -295h-140z" />
<glyph unicode="&#xf4;" horiz-adv-x="1124" d="M121 279v548q0 129 79 208t208 79h309q129 0 208 -79t79 -208v-548q0 -129 -79 -208t-208 -79h-309q-129 0 -208 79t-79 208zM217 1253l252 252h180l252 -252h-145l-197 152l-197 -152h-145zM307 281q0 -56 33 -92.5t88 -36.5h268q55 0 88 36.5t33 92.5v544 q0 56 -33 92.5t-88 36.5h-268q-55 0 -88 -36.5t-33 -92.5v-544z" />
<glyph unicode="&#xf5;" horiz-adv-x="1124" d="M121 279v548q0 129 79 208t208 79h309q129 0 208 -79t79 -208v-548q0 -129 -79 -208t-208 -79h-309q-129 0 -208 79t-79 208zM262 1253l41 195q9 43 42 57.5t79 -2.5l287 -104l39 106h120l-45 -196q-9 -41 -41.5 -56t-76.5 2l-289 109l-37 -111h-119zM307 281 q0 -56 33 -92.5t88 -36.5h268q55 0 88 36.5t33 92.5v544q0 56 -33 92.5t-88 36.5h-268q-55 0 -88 -36.5t-33 -92.5v-544z" />
<glyph unicode="&#xf6;" horiz-adv-x="1124" d="M121 279v548q0 129 79 208t208 79h309q129 0 208 -79t79 -208v-548q0 -129 -79 -208t-208 -79h-309q-129 0 -208 79t-79 208zM279 1262v221h190v-221h-190zM307 281q0 -56 33 -92.5t88 -36.5h268q55 0 88 36.5t33 92.5v544q0 56 -33 92.5t-88 36.5h-268q-55 0 -88 -36.5 t-33 -92.5v-544zM649 1262v221h191v-221h-191z" />
<glyph unicode="&#xf7;" d="M115 670v176h811v-176h-811zM416 289v223h209v-223h-209zM416 1004v223h209v-223h-209z" />
<glyph unicode="&#xf8;" horiz-adv-x="1130" d="M121 279v548q0 129 79 208t208 79h315q129 0 208 -79t79 -208v-548q0 -129 -79 -208t-208 -79h-315q-129 0 -208 79t-79 208zM305 289q0 -41 14 -66l359 725h-250q-57 0 -90 -36.5t-33 -94.5v-528zM451 158h251q56 0 89.5 36.5t33.5 94.5v528q0 33 -14 68z" />
<glyph unicode="&#xf9;" horiz-adv-x="1157" d="M139 279v827h187v-817q0 -58 33.5 -94.5t89.5 -36.5h67q111 0 215 61l88 51v836h187v-1106h-187v150l-88 -68q-113 -90 -225 -90h-80q-129 0 -208 79t-79 208zM262 1548h232l184 -295h-137z" />
<glyph unicode="&#xfa;" horiz-adv-x="1157" d="M139 279v827h187v-817q0 -58 33.5 -94.5t89.5 -36.5h67q111 0 215 61l88 51v836h187v-1106h-187v150l-88 -68q-113 -90 -225 -90h-80q-129 0 -208 79t-79 208zM453 1253l184 295h231l-278 -295h-137z" />
<glyph unicode="&#xfb;" horiz-adv-x="1157" d="M139 279v827h187v-817q0 -58 33.5 -94.5t89.5 -36.5h67q111 0 215 61l88 51v836h187v-1106h-187v150l-88 -68q-113 -90 -225 -90h-80q-129 0 -208 79t-79 208zM225 1253l252 252h180l250 -252h-145l-195 152l-196 -152h-146z" />
<glyph unicode="&#xfc;" horiz-adv-x="1157" d="M139 279v827h187v-817q0 -58 33.5 -94.5t89.5 -36.5h67q111 0 215 61l88 51v836h187v-1106h-187v150l-88 -68q-113 -90 -225 -90h-80q-129 0 -208 79t-79 208zM287 1262v221h190v-221h-190zM657 1262v221h189v-221h-189z" />
<glyph unicode="&#xfd;" horiz-adv-x="1030" d="M37 1106h192l285 -875l297 875h182l-514 -1497h-176l133 391zM399 1253l185 295h231l-278 -295h-138z" />
<glyph unicode="&#xfe;" horiz-adv-x="1159" d="M152 -391v1927h186v-580l88 68q113 90 225 90h103q129 0 207.5 -79t78.5 -208v-548q0 -129 -78.5 -208t-207.5 -79h-103q-112 0 -225 90l-88 68v-541h-186zM338 270l88 -51q101 -61 215 -61h88q57 0 90 36.5t33 94.5v528q0 58 -33 94.5t-90 36.5h-88q-114 0 -215 -61 l-88 -51v-566z" />
<glyph unicode="&#xff;" horiz-adv-x="1030" d="M37 1106h192l285 -875l297 875h182l-514 -1497h-176l133 391zM233 1262v221h189v-221h-189zM602 1262v221h191v-221h-191z" />
<glyph unicode="&#x152;" horiz-adv-x="2011" d="M150 293v889q0 135 79.5 214t214.5 79h1459v-183h-748v-446h633v-182h-633v-482h748v-182h-1459q-135 0 -214.5 79t-79.5 214zM346 309q0 -58 32.5 -92.5t90.5 -34.5h438q51 0 51 51v1008q0 51 -51 51h-438q-58 0 -90.5 -34.5t-32.5 -92.5v-856z" />
<glyph unicode="&#x153;" horiz-adv-x="1802" d="M121 279v548q0 129 79 208t208 79h309q116 0 194 -65q78 65 195 65h297q129 0 208 -79t79 -208v-327h-686v-213q2 -58 34 -93.5t88 -35.5h254q57 0 90 36t33 95v61h187v-71q0 -129 -79 -208t-208 -79h-297q-117 0 -195 65q-78 -65 -194 -65h-309q-129 0 -208 79t-79 208z M305 289q0 -58 33.5 -94.5t89.5 -36.5h268q56 0 88.5 36.5t34.5 94.5v528q-2 58 -34.5 94.5t-88.5 36.5h-268q-56 0 -89.5 -36.5t-33.5 -94.5v-528zM1004 647h499v170q0 59 -33 95t-90 36h-254q-56 0 -88 -35.5t-34 -93.5v-172z" />
<glyph unicode="&#x178;" horiz-adv-x="1230" d="M27 1475h219l370 -725l369 725h221l-491 -938v-537h-197v537zM330 1618v221h190v-221h-190zM700 1618v221h191v-221h-191z" />
<glyph unicode="&#x2c6;" horiz-adv-x="1351" d="M334 1610l252 252h180l252 -252h-146l-196 151l-197 -151h-145z" />
<glyph unicode="&#x2dc;" horiz-adv-x="1249" d="M322 1610l40 194q9 43 41.5 58t79.5 -2l285 -105l39 107h121l-45 -197q-9 -41 -42 -55.5t-77 2.5l-289 108l-37 -110h-116z" />
<glyph unicode="&#x2000;" horiz-adv-x="969" />
<glyph unicode="&#x2001;" horiz-adv-x="1939" />
<glyph unicode="&#x2002;" horiz-adv-x="969" />
<glyph unicode="&#x2003;" horiz-adv-x="1939" />
<glyph unicode="&#x2004;" horiz-adv-x="646" />
<glyph unicode="&#x2005;" horiz-adv-x="484" />
<glyph unicode="&#x2006;" horiz-adv-x="323" />
<glyph unicode="&#x2007;" horiz-adv-x="323" />
<glyph unicode="&#x2008;" horiz-adv-x="242" />
<glyph unicode="&#x2009;" horiz-adv-x="387" />
<glyph unicode="&#x200a;" horiz-adv-x="107" />
<glyph unicode="&#x2010;" horiz-adv-x="894" d="M123 584v182h649v-182h-649z" />
<glyph unicode="&#x2011;" horiz-adv-x="894" d="M123 584v182h649v-182h-649z" />
<glyph unicode="&#x2012;" horiz-adv-x="894" d="M123 584v182h649v-182h-649z" />
<glyph unicode="&#x2013;" horiz-adv-x="1144" d="M123 586v178h901v-178h-901z" />
<glyph unicode="&#x2014;" horiz-adv-x="1656" d="M123 588v176h1411v-176h-1411z" />
<glyph unicode="&#x2018;" horiz-adv-x="477" d="M131 981v184q0 7 1.5 16t3.5 17t6.5 18.5l7.5 17.5t9.5 19.5t10 18.5t11.5 19t11 17.5t11 18t10 16.5l80 132h98l-135 -261h90v-233h-215z" />
<glyph unicode="&#x2019;" horiz-adv-x="477" d="M86 981l135 260h-90v234h215v-183q0 -15 -5 -32.5t-16 -39t-18.5 -35t-24 -40t-20.5 -33.5l-80 -131h-96z" />
<glyph unicode="&#x201a;" horiz-adv-x="477" d="M86 -260l135 260h-90v233h215v-182q0 -15 -5 -32.5t-16 -39t-18.5 -35t-24 -40t-20.5 -33.5l-80 -131h-96z" />
<glyph unicode="&#x201c;" horiz-adv-x="821" d="M131 981v184q0 7 1.5 16t3.5 17t6.5 18.5l7.5 17.5t9.5 19.5t10 18.5t11.5 19t11 17.5t11 18t10 16.5l80 132h98l-135 -261h90v-233h-215zM475 981v184q0 11 2.5 23t8.5 26t11 25t15 28t15.5 25.5t17 27t14.5 23.5l80 132h96l-133 -261h90v-233h-217z" />
<glyph unicode="&#x201d;" horiz-adv-x="821" d="M86 981l135 260h-90v234h215v-183q0 -15 -5 -32.5t-16 -39t-18.5 -35t-24 -40t-20.5 -33.5l-80 -131h-96zM432 981l133 260h-90v234h217v-183q0 -15 -5 -32.5t-16 -39t-18.5 -35t-24 -40t-20.5 -33.5l-80 -131h-96z" />
<glyph unicode="&#x201e;" horiz-adv-x="477" d="M86 -260l135 260h-90v233h215v-182q0 -15 -5 -32.5t-16 -39t-18.5 -35t-24 -40t-20.5 -33.5l-80 -131h-96z" />
<glyph unicode="&#x2022;" horiz-adv-x="876" d="M236 637v250q0 32 22.5 55t54.5 23h250q32 0 55 -23t23 -55v-250q0 -32 -23 -55t-55 -23h-250q-32 0 -54.5 23t-22.5 55z" />
<glyph unicode="&#x2026;" horiz-adv-x="1349" d="M131 0v233h215v-233h-215zM567 0v233h215v-233h-215zM1004 0v233h217v-233h-217z" />
<glyph unicode="&#x202f;" horiz-adv-x="387" />
<glyph unicode="&#x2039;" horiz-adv-x="571" d="M49 674v90l262 381h197l-293 -426l293 -424h-197z" />
<glyph unicode="&#x203a;" horiz-adv-x="571" d="M66 295l292 424l-292 426h196l262 -381v-90l-262 -379h-196z" />
<glyph unicode="&#x205f;" horiz-adv-x="484" />
<glyph unicode="&#x20ac;" horiz-adv-x="1370" d="M70 510v135h163v195h-163v137h163v213q0 135 80 214t215 79h414q135 0 214 -79t79 -214v-170h-197v154q0 58 -32 92t-88 34h-365q-58 0 -90.5 -34t-32.5 -92v-197h471v-137h-471v-195h471v-135h-471v-209q0 -58 32.5 -92.5t90.5 -34.5h365q56 0 88 34.5t32 92.5v154h197 v-170q0 -135 -79 -214t-214 -79h-414q-135 0 -215 79t-80 214v225h-163z" />
<glyph unicode="&#x2122;" horiz-adv-x="1538" d="M109 1372v103h522v-103h-205v-635h-113v635h-204zM752 737v738h125l213 -482l217 482h123v-738h-103v566l-194 -451h-80l-199 451v-566h-102z" />
<glyph unicode="&#xe000;" horiz-adv-x="1105" d="M0 0v1106h1106v-1106h-1106z" />
</font>
</defs>
</svg>
