<svg class="social-icons--svg icon-github" xmlns="http://www.w3.org/2000/svg" viewBox="0 0 33.12 36">
  <path d="M22.32 20.3c0.62 0 1.16 0.31 1.62 0.94 0.46 0.62 0.68 1.39 0.68 2.3s-0.23 1.68-0.68 2.3 -1 0.94-1.62 0.94c-0.67 0-1.24-0.31-1.69-0.94s-0.68-1.39-0.68-2.3 0.23-1.68 0.68-2.3C21.08 20.62 21.65 20.3 22.32 20.3L22.32 20.3M30.46 11.88c1.78 1.92 2.66 4.25 2.66 6.98 0 1.78-0.2 3.37-0.61 4.79 -0.41 1.42-0.92 2.57-1.55 3.46 -0.62 0.89-1.39 1.67-2.3 2.34 -0.91 0.67-1.75 1.16-2.52 1.48 -0.77 0.31-1.64 0.55-2.63 0.72 -0.98 0.17-1.73 0.26-2.23 0.29s-1.04 0.04-1.62 0.04c-0.14 0-0.58 0.01-1.3 0.04 -0.72 0.02-1.32 0.04-1.8 0.04s-1.08-0.01-1.8-0.04c-0.72-0.02-1.15-0.04-1.3-0.04 -0.58 0-1.12-0.01-1.62-0.04 -0.5-0.02-1.25-0.12-2.23-0.29 -0.98-0.17-1.86-0.41-2.63-0.72s-1.61-0.8-2.52-1.48c-0.91-0.67-1.68-1.45-2.3-2.34 -0.62-0.89-1.14-2.04-1.55-3.46C0.2 22.24 0 20.64 0 18.86c0-2.74 0.89-5.06 2.66-6.98C2.47 11.78 2.46 10.82 2.63 9s0.56-3.5 1.19-5.04C6.02 4.2 8.76 5.45 12.02 7.7c1.1-0.29 2.62-0.43 4.54-0.43 2.02 0 3.53 0.14 4.54 0.43 1.49-1.01 2.92-1.82 4.28-2.45 1.37-0.62 2.36-0.98 2.99-1.08l0.94-0.22c0.62 1.54 1.02 3.22 1.19 5.04S30.65 11.78 30.46 11.88L30.46 11.88M16.63 30.38c3.98 0 7-0.48 9.04-1.44s3.06-2.93 3.06-5.9c0-1.73-0.65-3.17-1.94-4.32 -0.67-0.62-1.45-1.01-2.34-1.15 -0.89-0.14-2.24-0.14-4.07 0s-3.07 0.22-3.74 0.22H16.56h-0.07c-0.77 0-1.76-0.05-2.99-0.14 -1.22-0.1-2.18-0.16-2.88-0.18 -0.7-0.02-1.45 0.06-2.27 0.25S6.86 18.24 6.34 18.72c-1.25 1.1-1.87 2.54-1.87 4.32 0 2.98 1.01 4.94 3.02 5.9 2.02 0.96 5.02 1.44 9 1.44H16.63L16.63 30.38M10.87 20.3c0.62 0 1.16 0.31 1.62 0.94 0.46 0.62 0.68 1.39 0.68 2.3s-0.23 1.68-0.68 2.3 -1 0.94-1.62 0.94c-0.67 0-1.24-0.31-1.69-0.94s-0.68-1.39-0.68-2.3 0.23-1.68 0.68-2.3C9.64 20.62 10.2 20.3 10.87 20.3L10.87 20.3"/>
</svg>
