<svg class="social-icons--svg icon-googleplus" xmlns="http://www.w3.org/2000/svg" viewBox="0 0 32.26 36">
  <path d="M1.73 10.01c0-1.39 0.3-2.62 0.9-3.67S3.9 4.5 4.64 4s1.57-0.91 2.48-1.22 1.58-0.49 2.02-0.54S9.89 2.16 10.08 2.16h8.28v0.14c0 0.53-0.94 0.96-2.81 1.3 -0.67 0-1.13 0.07-1.37 0.22 0.96 0.48 1.61 1.15 1.94 2.02 0.34 0.86 0.5 2.02 0.5 3.46 0 2.45-0.82 4.34-2.45 5.69 -0.91 0.91-1.37 1.56-1.37 1.94 0 0.43 0.6 1.2 1.8 2.3 2.5 2.16 3.74 4.3 3.74 6.41 0 3.36-1.39 5.69-4.18 6.98 -1.63 0.82-3.43 1.22-5.4 1.22H8.64l-0.14-0.07C8.45 33.82 8.4 33.84 8.35 33.84c-0.58 0-1.22-0.06-1.94-0.18 -0.72-0.12-1.62-0.37-2.7-0.76 -1.08-0.38-1.97-1.07-2.66-2.05S0 28.63 0 27.14c0-1.44 0.38-2.65 1.15-3.64 0.77-0.98 1.76-1.67 2.99-2.05 1.22-0.38 2.28-0.65 3.17-0.79 0.89-0.14 1.74-0.22 2.56-0.22h0.07c-0.38-0.53-0.67-1.09-0.86-1.69 -0.19-0.6-0.29-1.07-0.29-1.4l0.07-0.5H8.35c-1.54 0-2.86-0.36-3.96-1.08C2.62 14.71 1.73 12.79 1.73 10.01L1.73 10.01M15.05 26.28c-0.1-1.25-0.61-2.26-1.55-3.02s-2.17-1.15-3.71-1.15H9.22c-1.54 0.05-2.9 0.6-4.1 1.66 -1.1 1.01-1.61 2.14-1.51 3.38 0.1 1.25 0.73 2.21 1.91 2.88 1.18 0.67 2.6 0.96 4.28 0.86 1.63-0.1 2.94-0.58 3.92-1.44C14.7 28.58 15.14 27.53 15.05 26.28L15.05 26.28M12.89 8.28c-0.72-2.59-2.18-3.89-4.39-3.89 -0.29 0-0.53 0.02-0.72 0.07C6.82 4.75 6.12 5.5 5.69 6.7c-0.38 1.2-0.41 2.47-0.07 3.82 0.34 1.25 0.9 2.27 1.69 3.06s1.64 1.19 2.56 1.19c0.29 0 0.5-0.02 0.65-0.07 1.01-0.29 1.76-1.07 2.27-2.34C13.28 11.08 13.32 9.72 12.89 8.28L12.89 8.28M26.86 14.54h5.4v3.38h-5.4v5.4h-3.38v-5.4h-5.4v-3.38h5.4v-5.4h3.38V14.54L26.86 14.54" class="social-icons--svg__path" />
</svg>
