<svg class="social-icons--svg icon-linkedin" xmlns="http://www.w3.org/2000/svg" viewBox="0 0 32.26 36">
  <path d="M7.34 5.47c0 0.96-0.35 1.78-1.04 2.45C5.6 8.59 4.7 8.93 3.6 8.93c-1.06 0-1.92-0.34-2.59-1.01C0.34 7.25 0 6.43 0 5.47c0-1.01 0.34-1.84 1.01-2.48 0.67-0.65 1.56-0.97 2.66-0.97S5.65 2.34 6.3 2.99C6.95 3.64 7.3 4.46 7.34 5.47L7.34 5.47M0.22 33.91V11.66h6.91v22.25H0.22L0.22 33.91M11.23 18.79c0-2.06-0.05-4.44-0.14-7.13h5.98l0.36 3.1h0.14c1.44-2.4 3.72-3.6 6.84-3.6 2.4 0 4.33 0.8 5.8 2.41 1.46 1.61 2.2 4 2.2 7.16v13.18h-6.91V21.6c0-3.22-1.18-4.82-3.53-4.82 -1.68 0-2.86 0.86-3.53 2.59 -0.14 0.29-0.22 0.86-0.22 1.73v12.82h-6.98V18.79L11.23 18.79" class="social-icons--svg__path"/>
</svg>
