<svg class="social-icons--svg icon-pinterest" xmlns="http://www.w3.org/2000/svg" viewBox="0 0 32 36">
  <path class="social-icons--svg__path" d="M11.53 23.78c-0.62 3.12-1.32 5.64-2.09 7.58C8.67 33.3 7.52 34.85 5.98 36c-0.14-1.77-0.23-3.21-0.25-4.31 -0.02-1.1 0.11-2.42 0.4-3.95 0.29-1.53 0.55-2.78 0.79-3.74 0.24-0.96 0.55-2.14 0.94-3.56 0.38-1.41 0.67-2.6 0.86-3.56 -0.58-1.25-0.8-2.64-0.68-4.17 0.12-1.53 0.7-2.8 1.73-3.81 1.03-1.01 2.22-1.25 3.56-0.72 0.96 0.38 1.49 1.09 1.58 2.12 0.1 1.03-0.06 2.17-0.47 3.42 -0.41 1.25-0.79 2.48-1.15 3.7s-0.41 2.3-0.14 3.24c0.26 0.94 1.02 1.52 2.27 1.76 1.63 0.34 3.08-0.12 4.36-1.37 1.27-1.25 2.16-2.81 2.66-4.71 0.5-1.89 0.64-3.85 0.4-5.86 -0.24-2.01-0.89-3.55-1.94-4.6 -1.49-1.53-3.3-2.37-5.43-2.52 -2.13-0.14-4.09 0.25-5.87 1.19C7.81 5.48 6.37 6.88 5.26 8.75s-1.49 3.91-1.15 6.11c0.1 0.53 0.36 1.15 0.79 1.87 0.43 0.72 0.68 1.28 0.76 1.69 0.07 0.41-0.13 1.21-0.61 2.41 -3.5-0.81-5.18-3.57-5.04-8.27 0.1-3.31 1.36-6.11 3.78-8.41 2.42-2.3 5.22-3.64 8.39-4.03 3.94-0.43 7.41 0.25 10.44 2.05 3.02 1.8 4.75 4.42 5.18 7.87 0.62 4.22-0.17 8.02-2.37 11.4 -2.21 3.38-5.23 4.93-9.07 4.64 -0.53-0.05-1.03-0.16-1.51-0.32 -0.48-0.17-0.84-0.32-1.08-0.47 -0.24-0.14-0.61-0.4-1.12-0.75C12.14 24.17 11.77 23.92 11.53 23.78L11.53 23.78"/>
</svg>