<svg class="social-icons--svg icon-twitter" xmlns="http://www.w3.org/2000/svg" viewBox="0 0 33 36">
  <path d="M33 7.7c-0.86 1.3-1.98 2.47-3.37 3.53v0.86c0 3.12-0.72 6.12-2.15 9 -1.43 2.88-3.66 5.32-6.67 7.31 -3.01 1.99-6.48 2.99-10.4 2.99 -3.83 0-7.29-1.01-10.4-3.02 0.34 0.05 0.89 0.07 1.65 0.07 3.16 0 5.95-0.96 8.39-2.88 -1.48-0.05-2.8-0.5-3.94-1.37C4.95 23.33 4.16 22.2 3.73 20.81c0.24 0.1 0.65 0.14 1.22 0.14 0.62 0 1.22-0.07 1.79-0.22C5.17 20.4 3.87 19.61 2.87 18.36s-1.51-2.69-1.51-4.32v-0.07c0.86 0.48 1.87 0.77 3.01 0.86 -2.01-1.39-3.01-3.29-3.01-5.69 0-1.15 0.31-2.28 0.93-3.38 3.68 4.51 8.35 6.86 13.99 7.06 -0.14-0.43-0.22-0.94-0.22-1.51 0-1.87 0.66-3.47 1.97-4.79 1.32-1.32 2.93-1.98 4.84-1.98 1.96 0 3.59 0.7 4.88 2.09 1.44-0.29 2.87-0.82 4.31-1.58 -0.48 1.58-1.46 2.83-2.94 3.74C30.47 8.59 31.76 8.23 33 7.7L33 7.7" class="social-icons--svg__path" />
</svg>
